<svg width="305" height="66" viewBox="0 0 305 66" fill="none" xmlns="http://www.w3.org/2000/svg">
<g clip-path="url(#clip0_1133_49917)">
<path fill-rule="evenodd" clip-rule="evenodd" d="M40.3391 16.4686C36.6212 19.2178 31.2132 20.6823 26.5489 20.6823C20.0143 20.6823 14.1557 18.2713 9.69413 14.2604C9.35613 13.9451 9.64908 13.5168 10.0772 13.7647C14.8767 16.5588 20.8029 18.2262 26.9319 18.2262C31.0555 18.2262 35.6071 17.37 39.7983 15.5898C40.429 15.342 40.9475 16.018 40.3391 16.4686H40.3391Z" fill="white"/>
<path fill-rule="evenodd" clip-rule="evenodd" d="M41.8931 14.6878C41.42 14.0795 38.7385 14.3949 37.5442 14.5526C37.1837 14.5977 37.1161 14.2823 37.4541 14.0569C39.5947 12.5472 43.0874 12.9978 43.493 13.4936C43.8985 13.9893 43.3803 17.5042 41.3745 19.1719C41.0591 19.4197 40.7661 19.2845 40.9015 18.9465C41.3523 17.8199 42.3663 15.3186 41.8931 14.6878Z" fill="white"/>
<path fill-rule="evenodd" clip-rule="evenodd" d="M37.6118 3.46684V2.00182C37.6093 1.9538 37.6168 1.90577 37.6341 1.86087C37.6513 1.81597 37.6777 1.77519 37.7118 1.74118C37.7458 1.70718 37.7865 1.68071 37.8314 1.6635C37.8763 1.64628 37.9244 1.63871 37.9724 1.64127H44.507C44.6054 1.6392 44.7006 1.67581 44.7723 1.74324C44.8439 1.81066 44.8862 1.90351 44.8901 2.00182V3.24114C44.8901 3.44394 44.7099 3.71419 44.3944 4.16503L41.0144 8.98714C42.2763 8.96458 43.6059 9.14482 44.7324 9.77556C44.9803 9.91076 45.0478 10.1361 45.0704 10.3389V11.8937C45.0704 12.119 44.8451 12.3667 44.5974 12.2317C42.5919 11.1726 39.9105 11.0599 37.7023 12.2542C37.4769 12.3669 37.2292 12.1416 37.2292 11.9162V10.4292C37.2292 10.2038 37.2292 9.79846 37.4771 9.43777L41.3978 3.82704H37.9949C37.8966 3.82911 37.8014 3.79255 37.7298 3.72519C37.6582 3.65784 37.6158 3.56508 37.6118 3.46684ZM13.7944 12.5473H11.8115C11.7226 12.5383 11.6392 12.5004 11.574 12.4393C11.5089 12.3782 11.4656 12.2974 11.4509 12.2093V2.02437C11.4548 1.92608 11.4971 1.83324 11.5688 1.76582C11.6404 1.69839 11.7356 1.66177 11.834 1.66382H13.6817C13.7731 1.66521 13.8606 1.70061 13.9273 1.76311C13.994 1.82561 14.035 1.91072 14.0422 2.00182V3.3313H14.0873C14.5603 2.04693 15.4843 1.43854 16.7011 1.43854C17.9404 1.43854 18.7291 2.04693 19.2699 3.3313C19.743 2.04693 20.8472 1.43854 22.0191 1.43854C22.8528 1.43854 23.7542 1.77653 24.3175 2.56523C24.9483 3.42145 24.8133 4.66078 24.8133 5.76491V12.2094C24.8094 12.3077 24.7671 12.4005 24.6954 12.4679C24.6238 12.5354 24.5286 12.572 24.4302 12.5699H22.4696C22.2668 12.5474 22.1091 12.3897 22.1091 12.2094V6.80137C22.1091 6.37322 22.1541 5.29165 22.064 4.88606C21.9063 4.21008 21.4782 4.00728 20.8923 4.00728C20.6336 4.01465 20.3827 4.0975 20.1705 4.24563C19.9583 4.39377 19.7941 4.60072 19.698 4.84102C19.4952 5.35925 19.5178 6.21554 19.5178 6.80137V12.2094C19.5139 12.3077 19.4716 12.4005 19.3999 12.4679C19.3283 12.5354 19.2331 12.572 19.1347 12.5699H17.1518C16.949 12.5474 16.7913 12.3897 16.7913 12.2094V6.80137C16.7913 5.67468 16.9715 3.98472 15.5745 3.98472C14.1549 3.98472 14.2 5.60709 14.2 6.80137V12.2094C14.1858 12.3057 14.1366 12.3935 14.0618 12.4559C13.9869 12.5182 13.8917 12.5508 13.7944 12.5474V12.5473ZM50.5233 1.43854C53.4752 1.43854 55.075 3.96224 55.075 7.18447C55.075 10.2941 53.3175 12.7726 50.5233 12.7726C47.6391 12.7726 46.0618 10.249 46.0618 7.09432C46.0392 3.91713 47.6391 1.43827 50.5233 1.43827V1.43854ZM50.5233 3.53409C49.0587 3.53409 48.9686 5.53956 48.9686 6.77888C48.9686 8.01821 48.946 10.6771 50.5008 10.6771C52.0331 10.6771 52.1232 8.53644 52.1232 7.22951C52.1232 6.37322 52.0782 5.33676 51.8302 4.52551C51.6049 3.80442 51.1543 3.53409 50.5233 3.53409ZM58.8831 12.5473H56.9002C56.6974 12.5247 56.5396 12.3671 56.5396 12.1867V1.97912C56.5521 1.88608 56.5976 1.80064 56.668 1.73854C56.7384 1.67644 56.8289 1.64185 56.9227 1.64113H58.7705C58.8542 1.64409 58.9348 1.67429 58.9999 1.72716C59.0649 1.78003 59.111 1.85267 59.131 1.93408V3.48884H59.1761C59.7394 2.09176 60.5055 1.43834 61.8801 1.43834C62.7588 1.43834 63.6376 1.7537 64.201 2.63262C64.7192 3.4438 64.7192 4.81832 64.7192 5.80981V12.2317C64.7056 12.3223 64.6589 12.4047 64.5882 12.4629C64.5174 12.5212 64.4276 12.5512 64.3361 12.5471H62.353C62.1728 12.5245 62.015 12.3894 61.9925 12.2317V6.68873C61.9925 5.56204 62.1277 3.93954 60.7532 3.93954C60.2801 3.93954 59.8293 4.25491 59.604 4.75073C59.3336 5.38146 59.2886 5.99005 59.2886 6.68859V12.187C59.276 12.2859 59.228 12.377 59.1534 12.4433C59.0789 12.5096 58.9828 12.5466 58.883 12.5475L58.8831 12.5473ZM32.4068 7.68022C32.4068 8.44635 32.4294 9.09978 32.0463 9.79866C31.7309 10.362 31.2351 10.7 30.6718 10.7C29.9056 10.7 29.455 10.1142 29.455 9.25788C29.455 7.56792 30.9647 7.25241 32.4068 7.25241V7.68022ZM34.4123 12.5248C34.3481 12.5809 34.2679 12.6154 34.183 12.6235C34.0982 12.6315 34.0129 12.6128 33.9392 12.5699C33.2858 12.0291 33.1508 11.7587 32.7901 11.2404C31.7085 12.3442 30.9198 12.6825 29.5228 12.6825C27.8553 12.6825 26.5484 11.646 26.5484 9.59546C26.5484 7.9731 27.4272 6.89152 28.6668 6.35067C29.7484 5.87762 31.2583 5.78732 32.4073 5.65213V5.40429C32.4073 4.93124 32.4524 4.36776 32.1595 3.96217C31.9116 3.60162 31.4609 3.44394 31.0557 3.44394C30.2895 3.44394 29.6136 3.82697 29.4558 4.63822C29.4108 4.81846 29.2981 4.99877 29.1178 4.99877L27.2025 4.79597C27.0448 4.75093 26.8645 4.63829 26.9096 4.39038C27.3602 2.04693 29.4558 1.34839 31.3486 1.34839C32.3175 1.34839 33.5793 1.59623 34.3455 2.33981C35.3144 3.24114 35.2242 4.45826 35.2242 5.76484V8.85187C35.2242 9.77576 35.6073 10.1814 35.9678 10.6996C36.103 10.8798 36.1255 11.1052 35.9678 11.2178C35.5397 11.5558 34.8186 12.1868 34.413 12.5247L34.4123 12.5248ZM6.38099 7.68022C6.38099 8.44635 6.40354 9.09978 6.02044 9.79866C5.70507 10.362 5.20926 10.7 4.64592 10.7C3.87978 10.7 3.42915 10.1142 3.42915 9.25788C3.42915 7.56792 4.93887 7.25241 6.38099 7.25241V7.68022ZM8.3639 12.5248C8.29967 12.5809 8.21948 12.6154 8.13462 12.6235C8.04975 12.6315 7.96449 12.6128 7.89084 12.5699C7.23742 12.0291 7.10243 11.7587 6.74167 11.2404C5.6601 12.3442 4.87141 12.6825 3.4744 12.6825C1.80692 12.6825 0.5 11.646 0.5 9.59546C0.5 7.9731 1.37878 6.89152 2.61845 6.35067C3.70002 5.87762 5.20995 5.78732 6.35891 5.65213V5.40429C6.35891 4.93124 6.40395 4.36776 6.11107 3.96217C5.86324 3.60162 5.41254 3.44394 5.00729 3.44394C4.24115 3.44394 3.56517 3.82697 3.40741 4.63822C3.36237 4.81846 3.24973 4.99877 3.06942 4.99877L1.15411 4.79597C0.99643 4.75093 0.816122 4.63829 0.861164 4.39038C1.3118 2.04693 3.40741 1.34839 5.30017 1.34839C6.2691 1.34839 7.53091 1.59623 8.29705 2.33981C9.26598 3.24114 9.17583 4.45826 9.17583 5.76484V8.85187C9.17583 9.77576 9.55886 10.1814 9.91941 10.6996C10.0546 10.8798 10.0771 11.1052 9.91941 11.2178C9.49127 11.5558 8.77024 12.1868 8.36465 12.5247L8.3639 12.5248Z" fill="white"/>
</g>
<path d="M117.428 1.41006C114.944 -0.135258 111.683 0.231755 108.772 2.0475C105.861 0.231755 102.6 -0.135258 100.116 1.41006C96.1955 3.84393 95.7102 10.1218 99.0484 15.4338C101.513 19.3551 105.356 21.6344 108.772 21.5958C112.188 21.6344 116.031 19.3357 118.495 15.4338C121.814 10.1218 121.348 3.84393 117.428 1.41006ZM100.853 14.3135C100.174 13.2317 99.6501 12.0341 99.3202 10.7979C99.029 9.71614 98.9126 8.6151 98.9902 7.49475C99.1455 5.52447 99.9412 3.99847 101.242 3.18717C102.542 2.37588 104.269 2.31793 106.113 3.05196C106.385 3.16786 106.656 3.28376 106.928 3.43829C105.9 4.36548 105.007 5.42788 104.289 6.60619C102.27 9.83204 101.649 13.4249 102.348 16.2837C101.785 15.6656 101.3 15.0089 100.853 14.3135ZM118.224 10.7979C117.894 12.0341 117.37 13.2124 116.69 14.2941C116.244 14.9895 115.739 15.6463 115.177 16.2644C115.817 13.6953 115.371 10.5661 113.837 7.61064C113.779 7.51406 113.702 7.4368 113.585 7.41748C113.488 7.39816 113.372 7.39816 113.275 7.45611L108.442 10.4695C108.345 10.5274 108.287 10.6047 108.267 10.7206C108.248 10.8365 108.267 10.9331 108.326 11.0103L109.024 12.1307C109.082 12.2273 109.16 12.2852 109.277 12.3045C109.374 12.3239 109.49 12.3045 109.568 12.2466L112.692 10.2956C112.789 10.6047 112.886 10.8944 112.964 11.2035C113.255 12.2852 113.372 13.3863 113.294 14.5066C113.139 16.4769 112.343 18.0029 111.043 18.8142C110.363 19.2198 109.587 19.4516 108.811 19.4516C108.791 19.4516 108.772 19.4516 108.753 19.4516H108.714C107.918 19.4323 107.142 19.2198 106.482 18.8142C105.181 18.0029 104.366 16.4769 104.23 14.5066C104.153 13.3863 104.269 12.2852 104.56 11.2035C105.24 8.71168 106.637 6.49029 108.597 4.79044C109.432 4.05641 110.402 3.4576 111.431 3.05196C113.275 2.31793 115.002 2.37588 116.302 3.18717C117.603 3.99847 118.418 5.52447 118.554 7.49475C118.631 8.6151 118.515 9.71614 118.224 10.7979ZM143.144 8.46057C140.601 8.46057 138.563 10.4308 138.563 12.942C138.563 15.4338 140.621 17.3655 143.144 17.3655C145.706 17.3655 147.743 15.4338 147.743 12.942C147.743 10.4308 145.706 8.46057 143.144 8.46057ZM143.144 15.0282C141.979 15.0282 141.086 14.0817 141.086 12.9227C141.086 11.7637 141.979 10.7979 143.144 10.7979C144.328 10.7979 145.22 11.7637 145.22 12.9227C145.22 14.0817 144.328 15.0282 143.144 15.0282ZM153.469 5.02224H148.791C148.694 5.02224 148.597 5.06087 148.52 5.13814C148.442 5.2154 148.403 5.31199 148.403 5.40857V16.7473C148.403 16.8439 148.442 16.9598 148.5 17.0371C148.559 17.1143 148.675 17.153 148.772 17.153H153.449C157.195 17.153 159.776 14.6805 159.776 11.0876C159.815 7.4368 157.215 5.02224 153.469 5.02224ZM153.585 14.7384H151.023V7.39816H153.585C155.662 7.39816 157.079 8.94348 157.079 11.049C157.079 13.1352 155.662 14.7384 153.585 14.7384ZM169.112 8.69237H167.365C167.171 8.71168 167.016 8.86621 166.996 9.0787V9.60024C166.589 8.94348 165.696 8.46057 164.57 8.46057C162.377 8.46057 160.32 10.1797 160.32 12.9034C160.32 15.627 162.358 17.3655 164.551 17.3655C165.677 17.3655 166.608 16.8825 166.996 16.2258V16.7666C166.996 16.9598 167.152 17.1337 167.365 17.1337H169.112C169.209 17.1337 169.306 17.095 169.364 17.0371C169.442 16.9598 169.481 16.8825 169.461 16.786V9.0787C169.461 8.98211 169.422 8.88553 169.364 8.80826C169.306 8.75032 169.209 8.69237 169.112 8.69237ZM165.017 15.0475C163.852 15.0475 162.979 14.1589 162.979 12.9227C162.979 11.6864 163.852 10.7979 165.017 10.7979C166.181 10.7979 167.055 11.6864 167.055 12.9227C167.055 14.1589 166.181 15.0475 165.017 15.0475ZM178.952 5.02224H177.205C177.108 5.02224 177.011 5.06087 176.933 5.11882C176.856 5.19609 176.817 5.27335 176.817 5.38925V9.56161C176.409 8.94348 175.497 8.46057 174.352 8.46057C172.178 8.46057 170.16 10.1797 170.16 12.9034C170.16 15.627 172.198 17.3655 174.391 17.3655C175.516 17.3655 176.37 16.8825 176.836 16.2258V16.7666C176.836 16.9598 176.991 17.1337 177.205 17.1337H178.952C179.049 17.1337 179.146 17.095 179.204 17.0371C179.282 16.9598 179.32 16.8825 179.301 16.786V5.38925C179.301 5.29267 179.262 5.19609 179.204 5.11882C179.146 5.04155 179.049 5.02224 178.952 5.02224ZM174.876 15.0668C173.712 15.0668 172.858 14.1589 172.858 12.9227C172.858 11.6864 173.731 10.7785 174.876 10.7785C176.021 10.7785 176.894 11.6864 176.894 12.9227C176.894 14.1589 176.04 15.0668 174.876 15.0668ZM188.811 5.02224H187.064C186.967 5.02224 186.87 5.06087 186.793 5.11882C186.715 5.19609 186.676 5.27335 186.676 5.38925V9.56161C186.269 8.94348 185.356 8.46057 184.211 8.46057C182.038 8.46057 180.019 10.1797 180.019 12.9034C180.019 15.627 182.057 17.3655 184.25 17.3655C185.376 17.3655 186.23 16.8825 186.696 16.2258V16.7666C186.696 16.9598 186.851 17.1337 187.064 17.1337H188.811C188.908 17.1337 189.005 17.095 189.063 17.0371C189.141 16.9598 189.16 16.8825 189.16 16.786V5.38925C189.16 5.29267 189.122 5.19609 189.063 5.11882C189.005 5.06087 188.908 5.02224 188.811 5.02224ZM184.735 15.0668C183.571 15.0668 182.717 14.1589 182.717 12.9227C182.717 11.6864 183.59 10.7785 184.735 10.7785C185.88 10.7785 186.754 11.6864 186.754 12.9227C186.754 14.1589 185.88 15.0668 184.735 15.0668ZM198.418 9.29118L195.798 18.2347C195.293 19.8186 194.168 20.7845 192.402 20.7845C191.606 20.7845 190.868 20.6299 190.305 20.3016C189.976 20.1084 189.704 19.9345 189.704 19.6641C189.704 19.4903 189.762 19.413 189.859 19.2392L190.383 18.4665C190.538 18.254 190.635 18.1768 190.791 18.1768C190.907 18.1768 191.043 18.2154 191.14 18.2926C191.47 18.5051 191.761 18.679 192.227 18.679C192.77 18.679 193.178 18.5051 193.411 17.8677L193.644 17.1337H192.576C192.324 17.1337 192.169 16.9791 192.11 16.7666L189.762 9.29118C189.684 9.00143 189.762 8.71168 190.189 8.71168H192.033C192.266 8.71168 192.421 8.78895 192.518 9.11733L194.245 15.1441L195.856 9.11733C195.914 8.90485 196.05 8.71168 196.322 8.71168H198.069C198.437 8.69237 198.554 8.94348 198.418 9.29118ZM137.884 11.9568V16.728C137.884 16.8246 137.845 16.9405 137.768 17.0178C137.69 17.095 137.593 17.1337 137.477 17.1337H136.021C135.924 17.1337 135.807 17.095 135.73 17.0178C135.652 16.9405 135.613 16.8439 135.613 16.728V15.4724C134.701 16.6314 133.09 17.3655 131.285 17.3655C127.889 17.3655 125.23 14.8157 125.23 11.2035C125.23 7.4368 128.102 4.84839 131.712 4.84839C134.391 4.84839 136.526 5.98806 137.477 8.28672C137.496 8.34467 137.515 8.42194 137.515 8.47989C137.515 8.59578 137.438 8.67305 137.205 8.75032L135.516 9.40707C135.419 9.44571 135.303 9.44571 135.206 9.40707C135.109 9.34912 135.051 9.27186 135.012 9.17528C134.41 8.03561 133.323 7.24363 131.654 7.24363C129.5 7.24363 127.947 8.92416 127.947 11.0876C127.947 13.1931 129.267 14.9316 131.712 14.9316C132.993 14.9316 134.022 14.3328 134.507 13.6567H132.974C132.877 13.6567 132.76 13.6181 132.683 13.5408C132.605 13.4635 132.566 13.367 132.566 13.2511V11.9568C132.566 11.8603 132.605 11.7444 132.683 11.6671C132.76 11.5898 132.857 11.5512 132.974 11.5512H137.457C137.554 11.5512 137.671 11.5898 137.729 11.6478C137.845 11.7444 137.884 11.841 137.884 11.9568ZM198.476 6.93457V6.81867V6.79935H198.496H199.233H199.253V6.81867V6.93457V6.95388H199.233H198.961V7.68791C198.961 7.70723 198.942 7.72654 198.923 7.72654H198.787H198.767V7.70723V6.9732H198.496H198.476C198.476 6.95388 198.476 6.93457 198.476 6.93457ZM199.777 6.81867L199.971 7.28226L200.165 6.81867C200.165 6.81867 200.165 6.79935 200.184 6.79935H200.204H200.436H200.456V6.81867V7.68791V7.70723H200.436H200.32H200.301V7.68791V7.03115L200.087 7.51406C200.087 7.51406 200.087 7.53338 200.068 7.53338H200.048H199.932H199.912L199.893 7.51406L199.68 7.03115V7.68791V7.70723H199.66H199.524H199.505V7.68791V6.81867V6.79935H199.524H199.757H199.777C199.757 6.79935 199.757 6.79935 199.777 6.81867Z" fill="white"/>
<g clip-path="url(#clip1_1133_49917)">
<path d="M241.033 0.000976562H241.645C243.767 0.0462881 245.855 0.884551 247.355 2.3685C246.801 2.92357 246.236 3.45598 245.694 4.01105C244.852 3.26341 243.836 2.68568 242.729 2.48178C241.091 2.14195 239.326 2.4478 237.953 3.36536C236.453 4.32823 235.438 5.95944 235.219 7.70394C234.977 9.42577 235.473 11.2382 236.615 12.5749C237.711 13.8776 239.384 14.6932 241.114 14.7499C242.729 14.8405 244.413 14.3534 245.59 13.2433C246.513 12.4616 246.94 11.2722 247.078 10.1168C245.163 10.1168 243.248 10.1281 241.333 10.1168V7.78323H249.397C249.812 10.2867 249.212 13.1073 247.274 14.8971C245.982 16.1659 244.194 16.9135 242.371 17.0608C240.606 17.2307 238.784 16.9022 237.215 16.0639C235.334 15.0784 233.835 13.4132 233.096 11.4535C232.404 9.65233 232.393 7.61331 233.039 5.80085C233.627 4.14698 234.758 2.68568 236.211 1.66618C237.607 0.657994 239.303 0.102927 241.033 0.000976562Z" fill="white"/>
<path d="M287.292 0.589722H289.761V16.7659C288.942 16.7659 288.111 16.7773 287.292 16.7546C287.304 11.3739 287.292 5.98179 287.292 0.589722Z" fill="white"/>
<path d="M254.887 6.19765C256.41 5.91446 258.06 6.23164 259.317 7.12654C260.459 7.91949 261.255 9.16556 261.497 10.5249C261.809 12.0995 261.417 13.8213 260.378 15.0674C259.259 16.4607 257.425 17.2084 255.637 17.0951C253.999 17.0045 252.407 16.2002 251.438 14.8861C250.342 13.4362 250.077 11.4425 250.677 9.74328C251.277 7.91949 252.972 6.52616 254.887 6.19765ZM255.233 8.34995C254.61 8.50854 254.034 8.85971 253.618 9.35813C252.499 10.6722 252.569 12.8131 253.803 14.0365C254.507 14.7389 255.568 15.0674 256.548 14.8748C257.46 14.7162 258.256 14.1158 258.694 13.3229C259.456 11.9749 259.236 10.1171 258.071 9.06361C257.321 8.38394 256.225 8.10074 255.233 8.34995Z" fill="white"/>
<path d="M267.116 6.19678C268.858 5.86827 270.761 6.34404 272.065 7.5448C274.187 9.4139 274.418 12.9142 272.607 15.0665C271.511 16.4259 269.734 17.1735 267.981 17.0942C266.308 17.0489 264.658 16.2333 263.666 14.8853C262.547 13.4013 262.305 11.3623 262.94 9.62913C263.574 7.86198 265.235 6.51396 267.116 6.19678ZM267.462 8.34908C266.839 8.50767 266.262 8.85883 265.847 9.34593C264.739 10.6373 264.785 12.7443 265.974 13.979C266.677 14.7153 267.773 15.0778 268.788 14.8739C269.688 14.704 270.496 14.115 270.934 13.322C271.684 11.9627 271.465 10.1049 270.288 9.05141C269.538 8.37173 268.442 8.09986 267.462 8.34908Z" fill="white"/>
<path d="M277.487 6.85415C278.813 6.03854 280.578 5.81198 282.009 6.51431C282.459 6.70689 282.828 7.0354 283.185 7.3639C283.197 7.05805 283.185 6.74087 283.197 6.42369C283.97 6.43502 284.743 6.42369 285.527 6.43502V16.4262C285.516 17.9328 285.123 19.53 284.016 20.6289C282.805 21.8409 280.947 22.2148 279.275 21.9655C277.487 21.705 275.929 20.425 275.237 18.8051C275.929 18.4766 276.656 18.216 277.371 17.9102C277.775 18.839 278.594 19.632 279.621 19.8132C280.647 19.9945 281.836 19.7453 282.505 18.907C283.22 18.0461 283.22 16.868 283.185 15.8145C282.655 16.3243 282.043 16.7774 281.305 16.9473C279.702 17.3891 277.937 16.8453 276.702 15.7805C275.456 14.7157 274.718 13.0732 274.787 11.4419C274.822 9.5955 275.883 7.81702 277.487 6.85415ZM279.875 8.30412C279.171 8.4174 278.513 8.80254 278.063 9.33495C276.979 10.6037 276.979 12.6314 278.075 13.8774C278.698 14.6137 279.702 15.0216 280.671 14.9196C281.582 14.829 282.424 14.2626 282.874 13.481C283.635 12.1556 283.508 10.3545 282.482 9.19902C281.847 8.48536 280.832 8.1342 279.875 8.30412Z" fill="white"/>
<path d="M292.725 7.43211C294.109 6.16338 296.244 5.73292 298.02 6.40127C299.704 7.0243 300.777 8.59888 301.319 10.2188C298.816 11.2383 296.324 12.2465 293.821 13.266C294.167 13.9117 294.698 14.5007 295.413 14.7386C296.417 15.0898 297.616 14.9651 298.459 14.3081C298.793 14.0589 299.058 13.7304 299.312 13.4132C299.947 13.8324 300.581 14.2402 301.216 14.6593C300.316 15.9847 298.805 16.9135 297.178 17.0608C295.378 17.276 293.463 16.5964 292.298 15.2144C290.383 13.0394 290.568 9.39183 292.725 7.43211ZM293.96 9.52776C293.567 10.0828 293.406 10.7625 293.417 11.4308C295.09 10.7512 296.763 10.0715 298.435 9.3805C298.159 8.74614 297.49 8.36099 296.809 8.25904C295.713 8.06647 294.571 8.64419 293.96 9.52776Z" fill="white"/>
</g>
<path fill-rule="evenodd" clip-rule="evenodd" d="M48.6425 50.9505C48.7847 50.9505 49.0352 50.9857 49.0352 50.7564C49.0352 50.5756 48.8917 50.5524 48.7385 50.5524H48.4288V50.9505H48.6425ZM49.1651 51.5761H48.9988L48.6789 51.0574H48.4279V51.5761H48.2862V50.4549H48.7724C48.8794 50.4549 48.962 50.4686 49.0458 50.515C49.1168 50.5524 49.1642 50.6494 49.1642 50.7564C49.1642 50.9857 49.0094 51.0574 48.8316 51.0574L49.1651 51.5761ZM49.521 51.0106C49.5198 50.7808 49.4293 50.5608 49.2691 50.3983C49.109 50.2358 48.8922 50.1439 48.6657 50.1427C48.1905 50.1427 47.7885 50.5292 47.7885 51.0106C47.7885 51.504 48.1905 51.9004 48.6657 51.9004C49.1291 51.9004 49.521 51.504 49.521 51.0106ZM47.6819 51.0106C47.6818 50.8799 47.7072 50.7504 47.7568 50.6297C47.8063 50.5091 47.879 50.3996 47.9705 50.3076C48.0621 50.2157 48.1707 50.1431 48.2901 50.0941C48.4095 50.045 48.5374 50.0206 48.6662 50.022C49.2133 50.022 49.6517 50.4686 49.6517 51.0106C49.6517 51.5645 49.2133 52.0214 48.6662 52.0214C48.1084 52.021 47.6819 51.5641 47.6819 51.0106ZM73.3548 50.9505C73.4983 50.9505 73.7471 50.9857 73.7471 50.7564C73.7471 50.5756 73.5926 50.5524 73.4619 50.5524H73.142V50.9505H73.3548ZM73.8656 51.5761H73.7107L73.3798 51.0574H73.142V51.5761H73.012V50.4549H73.4868C73.5808 50.4549 73.6646 50.4686 73.7585 50.515C73.8427 50.5524 73.8774 50.6494 73.8774 50.7564C73.8774 50.9857 73.7242 51.0574 73.533 51.0574L73.8656 51.5761ZM74.2333 51.0106C74.2333 50.5288 73.8541 50.1427 73.3679 50.1427C72.8931 50.1427 72.5123 50.5292 72.5123 51.0106C72.5123 51.504 72.8931 51.9004 73.3679 51.9004C73.8541 51.9004 74.2333 51.504 74.2333 51.0106ZM72.3938 51.0106C72.3938 50.4686 72.8085 50.022 73.3679 50.022C73.9134 50.022 74.3522 50.4686 74.3522 51.0106C74.3522 51.5645 73.9134 52.0214 73.3679 52.0214C72.8089 52.021 72.3938 51.5641 72.3938 51.0106ZM14.6729 60.2003C14.3311 60.2016 13.9925 60.1343 13.6765 60.0022C13.3605 59.8701 13.0734 59.6758 12.8317 59.4306C12.59 59.1854 12.3985 58.8941 12.2683 58.5734C12.1381 58.2528 12.0717 57.9092 12.0729 57.5624C12.0727 57.2159 12.1399 56.8728 12.2705 56.5527C12.4011 56.2326 12.5926 55.9417 12.8341 55.6968C13.0756 55.4519 13.3623 55.2577 13.6778 55.1253C13.9933 54.9929 14.3314 54.9249 14.6729 54.9252C15.0141 54.9251 15.3521 54.9932 15.6674 55.1257C15.9827 55.2581 16.2692 55.4524 16.5105 55.6973C16.7518 55.9422 16.9431 56.233 17.0735 56.553C17.204 56.8731 17.271 57.216 17.2707 57.5624C17.272 57.909 17.2057 58.2525 17.0756 58.573C16.9455 58.8935 16.7542 59.1848 16.5128 59.43C16.2713 59.6752 15.9844 59.8695 15.6687 60.0017C15.3529 60.1339 15.0144 60.2014 14.6729 60.2003ZM4.91495 60.2003C3.47913 60.2003 2.32811 59.0327 2.32811 57.5624C2.32811 56.1045 3.47913 54.9252 4.91495 54.9252C6.35077 54.9252 7.51491 56.1045 7.51491 57.5624C7.51597 57.9091 7.44945 58.2527 7.31916 58.5732C7.18887 58.8938 6.99739 59.1851 6.75574 59.4303C6.5141 59.6754 6.22706 59.8697 5.91114 60.0019C5.59522 60.134 5.25666 60.2015 4.91495 60.2003ZM37.6273 60.2003C36.1915 60.2003 35.0405 59.0327 35.0405 57.5624C35.0405 56.1045 36.1915 54.9252 37.6273 54.9252C39.0517 54.9252 40.2154 56.1045 40.2154 57.5624C40.2169 57.9082 40.151 58.251 40.0216 58.5709C39.8922 58.8909 39.7018 59.1818 39.4613 59.4269C39.2209 59.672 38.9351 59.8665 38.6203 59.9992C38.3056 60.1319 37.9682 60.2003 37.6273 60.2003ZM27.7641 60.2003C27.4221 60.2025 27.0831 60.1358 26.7667 60.004C26.4503 59.8722 26.1629 59.6779 25.921 59.4326C25.6792 59.1872 25.4877 58.8955 25.3578 58.5745C25.2279 58.2534 25.162 57.9094 25.1641 57.5624C25.1631 57.2157 25.2297 56.8722 25.36 56.5517C25.4903 56.2312 25.6818 55.94 25.9235 55.6949C26.1651 55.4498 26.4521 55.2556 26.768 55.1235C27.0839 54.9914 27.4224 54.9241 27.7641 54.9252C28.1054 54.9251 28.4435 54.9932 28.7589 55.1256C29.0743 55.2581 29.3609 55.4523 29.6023 55.6972C29.8437 55.9421 30.0352 56.2329 30.1658 56.5529C30.2965 56.8729 30.3637 57.216 30.3636 57.5624C30.3647 57.9091 30.2982 58.2526 30.168 58.5732C30.0378 58.8938 29.8463 59.185 29.6047 59.4302C29.3631 59.6754 29.0761 59.8697 28.7602 60.0018C28.4443 60.134 28.1058 60.2015 27.7641 60.2003ZM17.2838 61.188C16.5285 61.7554 15.6126 62.0597 14.6729 62.0555C12.2261 62.0555 10.2448 60.044 10.2448 57.5624C10.2448 55.0927 12.2261 53.0817 14.6729 53.0817C15.6453 53.0817 16.5471 53.4059 17.2707 53.9483V50.2509H19.1944V61.9833H17.2838V61.188ZM48.1681 55.949C48.061 55.213 47.4788 54.6843 46.5541 54.6843C46.0683 54.6843 45.0112 54.8518 45.0112 55.4899C45.0112 56.442 46.6134 56.5257 47.0044 56.5511C49.5692 56.7915 50.3161 57.936 50.3161 59.2848C50.3161 60.2854 49.8176 61.0309 49.1063 61.5612C48.5011 62.0065 47.2549 62.1869 46.4949 62.1869C44.8085 62.1869 43.1002 61.249 42.8742 59.1272H44.762C44.8678 60.1278 45.9007 60.5009 46.483 60.5009C47.5376 60.5009 48.2866 60.044 48.2866 59.5137C48.2866 58.6707 47.5151 58.4895 46.3988 58.3697C45.7713 58.2975 44.5703 58.0794 44.0726 57.6586C43.5158 57.2132 43.041 56.7065 43.041 55.8399C43.041 54.2858 44.2394 53.0577 46.6019 53.0443C48.5604 53.0328 50.044 54.2137 50.0901 55.9353L48.1681 55.949ZM7.52634 61.188C6.77106 61.7558 5.8549 62.0602 4.91495 62.0555C2.45844 62.0555 0.500009 60.044 0.500009 57.5624C0.498838 56.9737 0.612232 56.3905 0.833683 55.8464C1.05513 55.3023 1.38029 54.8079 1.79048 54.3916C2.20067 53.9753 2.68783 53.6453 3.22401 53.4205C3.76019 53.1957 4.33482 53.0806 4.91495 53.0817C5.88909 53.0817 6.79087 53.4059 7.52634 53.9483V53.0933H9.42553V61.9833H7.52634V61.188ZM20.5829 52.4792H22.4939V50.2398H20.5829V52.4792ZM22.4935 52.4792H20.5829H22.4935ZM20.5829 61.9833H22.4939V53.0933H20.5829V61.9833ZM22.4935 61.9833H20.5829H22.4935ZM40.2154 61.188C39.5028 61.7424 38.6015 62.0555 37.6273 62.0555C35.1823 62.0555 33.201 60.044 33.201 57.5624C33.201 55.0927 35.1823 53.0817 37.6273 53.0817C38.6015 53.0817 39.5033 53.4059 40.2154 53.9483V53.0933H42.1375V61.9833H40.2387L40.2154 61.188ZM30.3755 61.188C29.6514 61.7424 28.7382 62.0555 27.7641 62.0555C25.3308 62.0555 23.3373 60.044 23.3373 57.5624C23.3373 55.0927 25.3308 53.0817 27.7641 53.0817C28.7382 53.0817 29.64 53.4059 30.3755 53.9483V50.2509H32.2742V61.9833H30.3755V61.188ZM65.0822 56.5515C65.1897 54.4434 64.5711 52.1297 62.9093 49.8782C61.2953 51.9858 60.727 54.3833 60.8687 56.5515H65.0822ZM61.1176 58.2241C61.0462 57.9101 60.9868 57.5933 60.9394 57.2746H65.0111C64.9639 57.5933 64.9046 57.9101 64.8334 58.2241H61.1176ZM62.0671 60.6104C62.3286 61.0519 62.6305 61.4673 62.9689 61.8511C63.302 61.477 63.5986 61.0549 63.872 60.6104H62.0671ZM71.4324 56.5631C71.9071 55.5625 72.2406 54.443 72.3938 53.1904C69.6288 53.4317 67.4562 54.7917 65.9954 56.5631H71.4324ZM71.0642 57.2746C70.8755 57.61 70.6719 57.9111 70.4595 58.2241L64.9147 58.2005C65.0932 57.9003 65.2714 57.5624 65.4737 57.2746H71.0642ZM68.8802 59.8873C69.2276 59.5995 69.5528 59.2853 69.8531 58.9473L56.0844 58.9357C56.3941 59.2852 56.7373 59.6099 57.0932 59.8993L68.8802 59.8873ZM64.0734 60.6104C63.9917 61.0106 63.9443 61.4172 63.9316 61.8257C65.2486 61.766 66.6137 61.3559 67.8485 60.6104H64.0734ZM54.8745 57.2746C55.0755 57.61 55.2782 57.9111 55.5042 58.2241H61.0236C60.8687 57.9003 60.6787 57.5868 60.476 57.2746H54.8745ZM58.102 60.6104C59.3373 61.3559 60.6906 61.766 62.0079 61.8257C61.9927 61.418 61.949 61.0119 61.8771 60.6104H58.102ZM59.942 56.5631C58.4943 54.7913 56.3349 53.4313 53.5682 53.1904C53.7092 54.3567 54.0256 55.4941 54.5064 56.5631H59.942Z" fill="white"/>
<g clip-path="url(#clip2_1133_49917)">
<path d="M135.453 54.2546C136.267 54.2546 136.927 53.5886 136.927 52.7671C136.927 51.9455 136.267 51.2796 135.453 51.2796C134.639 51.2796 133.979 51.9455 133.979 52.7671C133.979 53.5886 134.639 54.2546 135.453 54.2546ZM184.112 59.337C183.888 59.1779 183.715 59.1516 183.571 59.4605C181.095 64.8701 176.922 62.1706 177.336 62.4082C178.262 61.9811 180.697 60.0119 180.329 57.2928C180.105 55.631 178.691 54.8939 177.19 55.1578C174.57 55.6185 173.606 58.4688 174.097 60.9923C174.183 61.4257 174.336 61.7831 174.489 62.1332C171.529 64.5617 170.353 59.9593 170.22 59.4093C170.214 59.3799 172.506 57.4535 173.143 52.8631C173.811 48.0521 172.289 47.1761 170.733 47.2034C167.854 47.254 167.076 53.3217 168.121 58.3787C168.034 58.4017 167.626 58.6293 166.972 58.6548C166.5 57.1597 164.488 55.8492 163.961 56.3542C162.642 57.6175 164.281 60.0873 165.433 60.281C164.741 64.5827 160.41 63.5173 161.216 58.128C162.627 55.4866 163.699 51.5592 163.508 49.1882C163.44 48.3488 162.825 47.2241 161.433 47.2799C158.756 47.3867 158.465 53.4561 158.779 57.7638C158.764 57.6577 158.615 58.2872 157.518 58.6002C157.258 57.1477 154.94 55.6897 154.394 56.3907C153.372 57.7026 155.143 60.0417 155.982 60.2049C155.289 64.5064 150.959 63.4411 151.765 58.0517C153.175 55.4105 154.248 51.4831 154.056 49.1121C153.988 48.2725 153.373 47.1479 151.981 47.2035C149.305 47.3105 149.014 53.3799 149.328 57.6876C149.312 57.5798 149.16 58.23 148.018 58.5378C147.98 56.6533 145.652 55.7892 145.093 56.3905C144.097 57.4623 145.322 59.6615 146.454 60.2049C145.762 64.5064 141.432 63.4411 142.238 58.0517C143.648 55.4105 144.72 51.4831 144.529 49.1121C144.461 48.2725 143.846 47.1479 142.454 47.2035C139.778 47.3105 139.562 53.685 139.876 57.9926C138.995 61.8023 136.038 66.5599 136.422 57.0294C136.46 56.3608 136.502 56.107 136.171 55.8567C135.924 55.6621 135.36 55.7557 135.053 55.7635C134.679 55.7786 134.585 55.9993 134.502 56.3331C134.309 57.1948 134.275 58.0301 134.247 59.1699C134.229 59.7031 134.187 59.9519 133.983 60.6789C133.78 61.4058 132.62 62.7344 131.985 62.5122C131.104 62.2067 131.393 59.6981 131.558 57.9745C131.696 56.6124 131.255 56.0007 130.127 55.7783C129.466 55.6394 129.064 55.6607 128.376 55.4419C127.725 55.235 127.578 53.9935 126.19 54.4073C125.431 54.6338 125.919 56.2561 125.737 57.4586C124.84 63.3735 122.973 63.536 122.107 60.6626C126.007 51.0292 123.235 47.2314 121.613 47.2314C119.923 47.2314 117.992 48.4054 118.81 55.9169C118.412 55.7999 118.29 55.7368 117.854 55.7368C115.392 55.7368 113.714 57.7445 113.714 60.2211C113.714 62.6978 115.392 64.7056 117.854 64.7056C119.308 64.7056 120.328 64.0389 121.101 63.0074C121.606 63.7358 122.22 64.7168 123.343 64.6727C126.69 64.5412 127.663 57.616 127.778 57.2297C128.136 57.2853 128.475 57.3906 128.805 57.4462C129.356 57.5296 129.396 57.7494 129.383 58.3079C129.237 63.0179 130.099 64.6671 132.054 64.6671C133.143 64.6671 134.113 63.5878 134.782 62.8161C135.281 63.8558 136.077 64.6352 137.145 64.6669C139.732 64.7318 140.723 60.5728 140.632 61.1201C140.561 61.5496 141.472 64.6435 144.135 64.6547C147.434 64.6687 148.047 61.0094 148.12 60.3965C148.13 60.2745 148.134 60.2872 148.12 60.3965L148.118 60.4336C149.165 60.2371 149.706 59.6707 149.706 59.6707C149.706 59.6707 150.547 64.7116 153.662 64.6549C156.897 64.5957 157.507 61.2879 157.587 60.6429C157.598 60.4898 157.604 60.5078 157.587 60.6429C157.587 60.6492 157.586 60.6555 157.586 60.6618C158.83 60.2053 159.157 59.7471 159.157 59.7471C159.157 59.7471 159.826 64.6878 163.114 64.731C166.044 64.7697 167.129 61.7434 167.136 60.4768C167.63 60.4821 168.544 60.1811 168.523 60.164C168.523 60.164 169.596 64.4837 172.593 64.7056C174 64.8097 175.056 63.907 175.657 63.4952C177.071 64.6502 181.78 66.1256 184.753 61.0412C185.173 60.3115 184.271 59.4496 184.112 59.337ZM117.736 63.0284C116.299 63.0284 115.378 61.6886 115.378 60.244C115.378 58.7995 116.223 57.4597 117.66 57.4597C118.306 57.4597 118.666 57.5314 119.17 57.9731C119.261 58.336 119.52 59.173 119.645 59.5531C119.814 60.0618 120.015 60.4947 120.217 60.966C119.928 62.1746 118.981 63.0284 117.736 63.0284ZM121.236 58.0156C121.177 57.9196 121.189 57.9786 121.122 57.8879C120.859 57.1653 120.351 55.5526 120.293 53.7209C120.226 51.6487 120.569 49.2199 121.578 49.2199C122.262 49.2199 122.989 54.1423 121.236 58.0156H121.236ZM141.464 55.8565C141.302 54.6269 141.293 49.1452 142.598 49.2961C143.319 49.5905 142.141 54.7631 141.464 55.8565ZM150.991 55.8565C150.829 54.6269 150.821 49.1452 152.125 49.2961C152.846 49.5905 151.669 54.7631 150.991 55.8565ZM160.443 55.9329C160.281 54.7031 160.272 49.2214 161.577 49.3724C162.297 49.6667 161.12 54.8395 160.443 55.9329ZM170.877 48.9753C172.07 48.8506 172.021 54.1046 169.627 57.4217C169.318 56.2228 168.844 49.387 170.877 48.9752V48.9753ZM175.891 60.281C175.508 58.329 176.498 57.0469 177.518 56.9063C177.875 56.8489 178.392 57.0819 178.495 57.5177C178.665 58.3389 178.471 59.5571 176.187 61.1026C176.19 61.1158 175.977 60.7158 175.891 60.281H175.891Z" fill="white"/>
</g>
<path d="M243.401 48.673H243.399L243.401 48.6704C242.851 48.8784 242.244 48.8784 241.694 48.6704L241.691 48.6679C239.718 53.6195 237.444 59.2066 235.4 63.3746L235.418 63.3695L235.407 63.3746C236.342 63.1423 237.235 63.2138 237.825 63.3746L237.819 63.372H237.822L239.53 59.0611L239.532 59.0636C241.54 59.0011 243.55 59.0011 245.558 59.0636C246.13 60.5006 246.702 61.9376 247.261 63.3771C248.154 63.1423 249.045 63.2061 249.703 63.372H249.706H249.703C248.23 60.6206 245.275 53.4229 243.394 48.6704L243.401 48.673ZM245.152 58.0401C243.414 58.1014 241.676 58.1014 239.94 58.0401C240.847 55.7773 241.716 53.4995 242.546 51.2075C243.38 53.5 244.252 55.7787 245.16 58.0427L245.152 58.0401ZM235.4 63.3822L235.407 63.3797L235.4 63.3822V63.3848V63.3822ZM238.948 46.7179H238.945C238.135 46.9209 237.287 46.9209 236.477 46.7179C235.78 48.0145 233.212 52.2131 231.576 54.9008C229.917 52.1544 227.955 48.9844 226.676 46.7179C225.663 46.9348 225.236 46.9476 224.226 46.7179C226.234 49.745 229.453 55.5082 230.548 57.4021L230.402 65.2914C230.402 65.2914 231.109 65.174 231.581 65.174C232.105 65.174 232.756 65.2914 232.756 65.2914L232.608 57.4021C234.649 53.8186 238.024 47.9711 238.948 46.7179ZM271.96 48.479C266.761 48.479 264.035 51.7741 264.035 56.0468C264.035 60.7227 267.011 63.5737 271.952 63.5737C277.294 63.5737 279.903 60.3602 279.903 56.0953C279.903 51.3402 276.789 48.479 271.962 48.479H271.96ZM271.975 62.7441C268.509 62.7441 266.475 60.2607 266.475 56.0723C266.475 51.3351 268.984 49.4285 271.832 49.3698H271.967C275.145 49.3698 277.481 51.5342 277.481 56.0595C277.481 60.5772 275.15 62.7416 271.975 62.7416V62.7441ZM300.661 62.9994C299.89 62.9994 299.505 63.5864 299.505 64.2194C299.505 64.9647 300.099 65.3475 300.837 65.3475C301.371 65.3475 301.95 65.0234 301.95 64.1454C301.95 63.4409 301.399 62.9994 300.661 62.9994ZM303.474 46.9323C303.474 46.9323 303.321 46.9119 303.218 46.9119C302.631 46.9119 302.047 47.2564 302.047 48.137C301.697 52.5628 301.335 56.9988 300.738 61.2204L300.735 61.2229H300.74C301.052 61.179 301.37 61.2287 301.654 61.3659L301.651 61.3633C302.33 57.0754 303.941 50.6511 304.352 48.8338C304.41 48.5786 304.5 48.2748 304.5 48.0604C304.5 47.4121 304.089 47.0344 303.474 46.9323ZM289.905 47.5959C284.729 47.5959 280.773 50.5362 280.773 56.0008C280.773 60.5032 283.405 64.467 289.949 64.467C295.49 64.467 299.107 61.422 299.107 56.0799C299.107 51.0441 295.732 47.5959 289.905 47.5959ZM289.918 63.5762C286.414 63.5762 283.221 61.519 283.221 55.9676C283.221 50.2121 286.761 48.5097 289.913 48.5097C293.8 48.5097 296.664 50.8706 296.664 56.0799C296.664 61.7411 293.2 63.5788 289.921 63.5788L289.918 63.5762ZM260.88 48.6781C261 50.9625 261.059 53.2494 261.066 55.5388C258.331 55.6052 255.594 55.6052 252.858 55.5388C252.866 53.2494 252.924 50.9625 253.044 48.6781C252.239 48.8746 251.399 48.8746 250.594 48.6781C250.798 53.5765 250.798 58.4813 250.594 63.3797C251.39 63.1882 252.205 63.1806 253.042 63.3797L253.037 63.3771L253.044 63.3797C252.926 61.1023 252.864 58.8224 252.858 56.5419C255.594 56.5036 258.33 56.5011 261.066 56.5394C261.06 58.8206 260.998 61.1014 260.88 63.3797L260.888 63.3771L260.883 63.3797C261.72 63.1806 262.534 63.1882 263.33 63.3797C263.126 58.4813 263.126 53.5765 263.33 48.6781C262.525 48.8746 261.685 48.8746 260.88 48.6781Z" fill="white"/>
<defs>
<clipPath id="clip0_1133_49917">
<rect width="64.2193" height="19.3334" fill="white" transform="translate(0.5 1.35156)"/>
</clipPath>
<clipPath id="clip1_1133_49917">
<rect width="68.7543" height="22.0366" fill="white" transform="translate(232.565)"/>
</clipPath>
<clipPath id="clip2_1133_49917">
<rect width="71.1764" height="17.6603" fill="white" transform="translate(113.701 47.2023)"/>
</clipPath>
</defs>
</svg>
