<svg width="61" height="46" viewBox="0 0 61 46" fill="none" xmlns="http://www.w3.org/2000/svg">
<path d="M60.1639 43.8376L37.0808 45.4575C36.8783 43.7701 36.6758 41.9478 36.4733 39.9904C36.3383 38.3706 36.2034 36.5145 36.0684 34.4221C36.0009 32.2623 35.9671 30.1025 35.9671 27.9427C35.9671 20.6533 37.6882 14.7813 41.1304 10.3266C44.5727 5.80452 50.2084 2.3623 58.0378 0L60.6701 8.20057C58.3078 8.53804 56.2492 9.21299 54.4943 10.2254C52.807 11.2378 51.3896 12.419 50.2422 13.7689C49.1623 15.1187 48.3186 16.6036 47.7112 18.2235C47.1712 19.8434 46.9012 21.4632 46.9012 23.0831H60.1639V43.8376ZM24.6281 43.8376L1.54498 45.4575C1.34249 43.7701 1.14001 41.9478 0.937528 39.9904C0.802539 38.3706 0.66755 36.5145 0.532561 34.4221C0.397573 32.2623 0.330078 30.1025 0.330078 27.9427C0.330078 20.6533 2.01744 14.7813 5.39216 10.3266C8.83437 5.80452 14.4702 2.3623 22.2995 0L25.1343 8.20057C22.772 8.53804 20.6796 9.21299 18.8573 10.2254C17.1024 11.2378 15.6513 12.419 14.5039 13.7689C13.3565 15.1187 12.4791 16.6036 11.8716 18.2235C11.3317 19.8434 11.0617 21.4632 11.0617 23.0831H24.6281V43.8376Z" fill="#C8BAFC"/>
</svg>
