<svg width="50" height="51" viewBox="0 0 50 51" fill="none" xmlns="http://www.w3.org/2000/svg">
<path d="M4.40183 33.7935L11.8808 26.3135C12.7011 27.7415 14.375 28.2349 14.375 28.2349L13.1356 29.3333L6.53058 35.9346C6.46371 35.997 6.41633 36.0775 6.39414 36.1662C6.37196 36.255 6.37594 36.3483 6.40558 36.4348C6.42459 36.521 6.46929 36.5994 6.53379 36.6597C6.59828 36.72 6.67954 36.7592 6.76683 36.7723L10.0793 37.5597C10.7172 37.7023 11.3012 38.0234 11.7634 38.4856C12.2255 38.9477 12.5467 39.532 12.6893 40.1698L13.3918 43.116C13.4138 43.2101 13.4609 43.2965 13.5281 43.3659C13.5983 43.4321 13.6844 43.4789 13.7781 43.502C13.8687 43.5201 13.9623 43.5177 14.0518 43.4947C14.1389 43.4623 14.2172 43.41 14.2806 43.3421L21.9693 34.4847C21.9693 34.4847 23.2341 32.6099 25 32.6099C26.738 32.6099 28.0318 34.4734 28.0318 34.4734L35.7206 43.3058C35.7785 43.3851 35.8598 43.4441 35.9531 43.4746C36.0461 43.5095 36.1481 43.5127 36.2431 43.4834C36.3393 43.4672 36.4273 43.4193 36.4931 43.3473C36.5603 43.2813 36.6075 43.1976 36.6293 43.1059L37.3318 40.1509C37.4779 39.5147 37.8002 38.9325 38.2618 38.4709C38.7234 38.0093 39.3056 37.6872 39.9418 37.5411L43.2543 36.7622C43.3405 36.7399 43.4193 36.6955 43.4831 36.6335C43.5468 36.5714 43.5934 36.494 43.6181 36.4085C43.6412 36.3217 43.6412 36.2302 43.6181 36.1433C43.5957 36.0591 43.5528 35.9819 43.4931 35.9184L36.8881 29.3098L36.25 28.7086L38.1693 26.3698L45.5918 33.7935C46.0322 34.24 46.3485 34.7935 46.5093 35.3996C46.6701 36.0052 46.6654 36.6428 46.4956 37.2459C46.3259 37.8491 45.9974 38.3958 45.5443 38.8286C45.0903 39.2583 44.529 39.5577 43.9193 39.6959L40.6068 40.4836C40.5153 40.5058 40.4316 40.5524 40.3645 40.6184C40.2973 40.6845 40.2493 40.7672 40.2256 40.8583L39.5406 43.8121C39.3931 44.4469 39.071 45.0278 38.6106 45.489C38.1503 45.9503 37.5701 46.2736 36.9356 46.4223C36.3015 46.5704 35.6388 46.54 35.021 46.3344C34.4031 46.1287 33.8544 45.7557 33.4356 45.2571L25.0043 35.5571L16.5731 45.2736C16.2487 45.667 15.8408 45.983 15.3789 46.1992C14.9171 46.4154 14.413 46.5264 13.9031 46.5236L13.8981 46.5184C13.6211 46.5183 13.3451 46.4861 13.0756 46.4223C12.4394 46.276 11.8573 45.9537 11.3957 45.4921C10.9342 45.0305 10.6118 44.4483 10.4656 43.8121L9.76308 40.8571C9.73933 40.766 9.69134 40.6833 9.62421 40.6172C9.55708 40.5512 9.47333 40.5046 9.38183 40.4823L6.06933 39.6947C5.45989 39.5563 4.89924 39.2557 4.44679 38.8246C3.99434 38.3935 3.66696 37.848 3.49933 37.2459C3.33099 36.6427 3.32581 36.0055 3.48433 35.3996C3.6452 34.7935 3.96145 34.24 4.40183 33.7935Z" fill="#4B5563"/>
<path fill-rule="evenodd" clip-rule="evenodd" d="M25.0374 33.9334C33.4114 33.9334 40.1999 27.1449 40.1999 18.7709C40.1999 14.4114 38.3601 10.4816 35.4145 7.71565C35.3969 7.69918 35.3792 7.68276 35.3615 7.66636C32.5583 5.06988 28.8768 3.62941 25.0558 3.63407C21.2322 3.62512 17.5468 5.06357 14.7402 7.66026C11.9335 10.2569 10.2135 13.8194 9.92577 17.6322C9.69637 20.6715 10.3906 23.6903 11.8899 26.3038L11.8808 26.313C14.4968 30.8666 19.4089 33.9334 25.0374 33.9334ZM31.6808 18.3078L29.8846 20.1078C29.724 20.2827 29.6078 20.4935 29.5458 20.7227C29.4817 20.951 29.4719 21.1912 29.5171 21.424L30.0371 23.6579C30.4483 25.4079 29.5171 26.099 27.9596 25.1728L25.7958 23.884C25.5764 23.7652 25.3309 23.703 25.0814 23.703C24.832 23.703 24.5864 23.7652 24.3671 23.884L22.2033 25.1654C20.6446 26.0742 19.7146 25.399 20.1258 23.6502L20.6458 21.4167C20.6851 21.183 20.6723 20.9435 20.6083 20.7154C20.5458 20.4882 20.4331 20.2781 20.2783 20.1004L18.4383 18.3002C17.3783 17.244 17.7246 16.1755 19.1958 15.9455L21.5121 15.5555C21.7243 15.5034 21.9241 15.4093 22.0996 15.279C22.2749 15.1491 22.4209 14.984 22.5283 14.794L23.8058 12.2403C24.4983 10.8553 25.6233 10.8553 26.3158 12.2403L27.5933 14.794C27.703 14.9874 27.8521 15.1556 28.0308 15.2878C28.2116 15.4161 28.4159 15.5076 28.6321 15.5567L30.9483 15.9467C32.3921 16.1854 32.7383 17.2504 31.6783 18.3066L31.6808 18.3078Z" fill="#907AF1"/>
</svg>
