<svg width="40" height="41" viewBox="0 0 40 41" fill="none" xmlns="http://www.w3.org/2000/svg">
<path fill-rule="evenodd" clip-rule="evenodd" d="M36.8732 17.5741C37.0456 16.5572 37.0112 15.5156 36.7716 14.5115C36.5214 13.4632 36.0531 12.4792 35.3972 11.624C34.8776 11.0485 34.2328 10.5774 33.456 10.2103C32.0829 9.54362 30.2954 9.20923 28.0484 9.20923H27.642H19.9846H12.3263H11.9199C9.00887 9.20923 6.85662 9.77077 5.39523 10.8893C5.10092 11.1112 4.83345 11.356 4.59222 11.624C3.93771 12.4762 3.47013 13.4569 3.21995 14.502C3.12439 14.9011 3.06136 15.3063 3.03097 15.7134C2.96851 16.4214 3.00046 17.1365 3.12735 17.8391L3.14404 17.9631L3.29617 19.7722L3.33707 19.7992L3.43465 20.8498C3.98289 20.9847 5.19793 21.2801 5.91239 21.3834C7.8188 22.4461 9.84011 23.2794 11.9356 23.8662C11.942 24.9431 12.1566 26.0081 12.567 27.0005C12.9775 27.9928 13.5757 28.8931 14.3277 29.6499C15.0796 30.4067 15.9705 31.0051 16.9494 31.4111C17.9284 31.8172 18.9763 32.0227 20.0332 32.0161C21.0902 32.0095 22.1355 31.791 23.1095 31.3728C24.0836 30.9546 24.9672 30.3452 25.71 29.5791C26.4528 28.813 27.0403 27.9053 27.4388 26.908C27.8373 25.9106 28.0391 24.843 28.0327 23.7661V23.6973C30.1573 23.0429 32.1989 22.1355 34.115 20.9942C35.0221 20.911 35.8607 20.7249 36.5811 20.5622L36.7803 18.4423L36.8419 17.8633C36.8504 17.8124 36.8546 17.7633 36.859 17.7119C36.8626 17.6685 36.8665 17.6234 36.8732 17.5741ZM16.3544 27.9673C17.3584 28.8691 18.6505 29.3675 19.9891 29.3691V29.3762C21.346 29.3741 22.6544 28.8621 23.664 27.9385C24.6736 27.0148 25.3135 25.7444 25.4611 24.3701V24.3562C25.4787 24.1632 25.4954 23.9763 25.4954 23.7693C25.4953 23.0325 25.3529 22.3031 25.0763 21.6223C24.8003 20.9411 24.395 20.3219 23.8836 19.8005C23.3722 19.2792 22.7649 18.8659 22.0964 18.5842C21.4284 18.3017 20.7123 18.1562 19.9891 18.1562C19.2658 18.1562 18.5497 18.3017 17.8817 18.5842C17.2146 18.8674 16.6079 19.2802 16.0953 19.7993C15.0634 20.8532 14.4835 22.2807 14.4827 23.7693C14.4828 24.0036 14.4998 24.2375 14.5337 24.4692C14.7031 25.822 15.3503 27.0655 16.3544 27.9673Z" fill="#907AF1"/>
<path d="M27.6425 9.20874V9.13965C27.6425 6.23965 27.6425 2.64966 21.2724 2.64966H18.6968C12.3267 2.64966 12.3267 6.23965 12.3267 9.13965V9.20874H14.7491L14.7501 9.13965C14.7501 6.20565 14.7501 5.10083 18.6978 5.10083H21.2734C25.2211 5.10083 25.2211 6.20065 25.2211 9.13965V9.20874H27.6425Z" fill="#4B5563"/>
<path d="M35.6397 30.5925L36.5816 20.5617C35.8611 20.7244 35.0226 20.9105 34.1155 20.9937L33.2367 30.3567C32.9627 32.9187 32.2527 35.0347 26.4457 35.0347H13.5457C7.72268 35.0347 7.02868 32.9186 6.75468 30.3696L5.91285 21.3829C5.19858 21.2797 3.98399 20.9844 3.43555 20.8494L4.34668 30.6157C4.70168 33.9837 6.08868 37.4546 13.5407 37.4546H26.4497C33.9047 37.4546 35.2917 33.9835 35.6397 30.5925Z" fill="#4B5563"/>
<path d="M18.9688 27.2688C18.7967 27.2744 18.6256 27.2404 18.4688 27.169C18.3101 27.1059 18.1669 27.0094 18.0488 26.886L16.3398 25.1949C16.1198 24.9487 16.0026 24.6277 16.0123 24.2976C16.0219 23.9676 16.1578 23.6538 16.3918 23.4209C16.6253 23.1861 16.9402 23.05 17.2712 23.0411C17.6023 23.0321 17.924 23.1509 18.1698 23.3728L18.9978 24.201L21.7768 21.647C21.9012 21.531 22.0473 21.4406 22.2068 21.3814C22.3662 21.3222 22.5359 21.2953 22.7058 21.302C23.0484 21.317 23.3715 21.4655 23.6058 21.7159C23.7216 21.8405 23.8116 21.9868 23.8708 22.1463C23.93 22.3057 23.9571 22.4753 23.9507 22.6453C23.9443 22.8153 23.9045 22.9822 23.8334 23.1368C23.7624 23.2913 23.6616 23.4304 23.5368 23.5459L19.8608 26.9458C19.6073 27.1491 19.2937 27.2626 18.9688 27.2688Z" fill="#11B886"/>
</svg>
