<svg width="50" height="54" viewBox="0 0 50 54" fill="none" xmlns="http://www.w3.org/2000/svg">
<path d="M1.58751 53.7465C1.37875 53.748 1.17208 53.707 0.979018 53.6275C0.78596 53.5481 0.611145 53.4321 0.463907 53.2841C0.316667 53.1363 0.199894 52.9604 0.120499 52.7675C0.0411052 52.5746 -0.000556627 52.3676 5.61633e-06 52.159V32.871C-0.000790899 32.4497 0.166825 32.0446 0.463907 31.7459C0.611351 31.5981 0.786008 31.4819 0.979018 31.4025C1.17203 31.323 1.3788 31.2823 1.58751 31.2835H20.8846C21.0933 31.2826 21.3001 31.323 21.4931 31.4025C21.6861 31.4819 21.8606 31.5984 22.0082 31.7459C22.3053 32.0446 22.4729 32.4497 22.4721 32.871V52.159C22.4727 52.3676 22.431 52.5746 22.3516 52.7675C22.2722 52.9604 22.1554 53.1363 22.0082 53.2841L1.58751 53.7465ZM7.28084 37.2283V47.7926H11.3957C12.3848 47.8501 13.3622 47.5695 14.1701 46.9959C14.5003 46.712 14.7608 46.3551 14.9292 45.9536C15.0976 45.552 15.1691 45.1168 15.14 44.6824C15.1571 44.1417 14.9962 43.6099 14.6792 43.1717C14.3595 42.7577 13.9058 42.4673 13.3959 42.3508C13.8477 42.1846 14.236 41.8824 14.5075 41.4848C14.7757 41.0814 14.9142 40.6061 14.9051 40.1217C14.9295 39.708 14.8521 39.2948 14.6792 38.9183C14.5062 38.5417 14.2437 38.2128 13.914 37.9618C13.0434 37.4161 12.0234 37.1594 10.9981 37.2268L7.28084 37.2283ZM11.3294 46.0425H9.46479V43.1958H11.456C11.6786 43.1945 11.8999 43.2265 12.1126 43.2922C12.2899 43.3476 12.4513 43.4426 12.5856 43.5708C12.7148 43.7004 12.8105 43.8603 12.8657 44.0347C12.9333 44.2397 12.9653 44.4531 12.9621 44.6688C12.9659 44.867 12.9317 45.0638 12.8567 45.2472C12.7841 45.4163 12.6697 45.5662 12.5283 45.684C12.3769 45.8093 12.2017 45.9038 12.0132 45.9596C11.7902 46.0205 11.5605 46.0481 11.3294 46.0425ZM11.0704 41.6535H9.46479V38.9906H10.986C11.2453 38.9868 11.504 39.0129 11.7572 39.0689C11.9515 39.1094 12.1377 39.1902 12.2994 39.3053C12.4385 39.4132 12.5441 39.5565 12.6067 39.721C12.678 39.9188 12.7131 40.1284 12.7091 40.3386C12.7124 40.5311 12.6772 40.7227 12.6067 40.9019C12.5397 41.0614 12.4348 41.2009 12.2994 41.3086C12.1446 41.4249 11.9687 41.5099 11.7813 41.5586C11.5496 41.6194 11.3099 41.6518 11.0704 41.6535Z" fill="#240C6E"/>
<ellipse cx="10.7567" cy="41.3737" rx="8.70685" ry="8.70685" fill="white"/>
<path d="M10.155 32.1881C10.1155 32.1916 9.98974 32.2042 9.87655 32.2132C7.26581 32.4485 4.82039 33.857 3.27156 36.0218C2.4091 37.2255 1.85749 38.5909 1.64906 40.0371C1.57539 40.5419 1.56641 40.691 1.56641 41.3755C1.56641 42.0599 1.57539 42.2091 1.64906 42.7139C2.14857 46.165 4.60477 49.0646 7.93602 50.1389C8.53255 50.3311 9.16143 50.4623 9.87655 50.5413C10.155 50.5719 11.3589 50.5719 11.6374 50.5413C12.8718 50.4048 13.9175 50.0994 14.9489 49.573C15.107 49.4922 15.1375 49.4706 15.116 49.4526C15.1016 49.4419 14.4278 48.5382 13.6193 47.4459L12.1495 45.4608L10.3078 42.7354C9.29439 41.2371 8.46068 40.0119 8.45349 40.0119C8.4463 40.0101 8.43912 41.221 8.43552 42.6995C8.43013 45.2883 8.42834 45.3925 8.39599 45.4536C8.34928 45.5416 8.31334 45.5775 8.23788 45.6171C8.18038 45.6458 8.13007 45.6512 7.85875 45.6512H7.54791L7.46526 45.5991C7.41135 45.565 7.37183 45.5201 7.34487 45.468L7.30714 45.3871L7.31073 41.7851L7.31613 38.1813L7.37183 38.1112C7.40057 38.0735 7.46166 38.025 7.50479 38.0016C7.57846 37.9657 7.6072 37.9621 7.91805 37.9621C8.28459 37.9621 8.34568 37.9764 8.44091 38.0806C8.46787 38.1094 9.46508 39.6113 10.6581 41.4204C11.8512 43.2295 13.4827 45.6997 14.2841 46.9124L15.7395 49.1167L15.8131 49.0682C16.4654 48.6442 17.1553 48.0406 17.7016 47.4118C18.8641 46.077 19.6133 44.4493 19.8649 42.7139C19.9386 42.2091 19.9475 42.0599 19.9475 41.3755C19.9475 40.691 19.9386 40.5419 19.8649 40.0371C19.3654 36.5859 16.9092 33.6864 13.5779 32.612C12.9904 32.4216 12.3651 32.2905 11.6644 32.2114C11.4919 32.1934 10.3042 32.1737 10.155 32.1881ZM13.9175 37.7465C14.0038 37.7896 14.0738 37.8723 14.099 37.9585C14.1134 38.0052 14.117 39.0041 14.1134 41.2551L14.108 44.4853L13.5384 43.6121L12.967 42.739V40.391C12.967 38.8729 12.9742 38.0196 12.985 37.9782C13.0137 37.8776 13.0766 37.7986 13.1629 37.7519C13.2365 37.7142 13.2635 37.7106 13.5456 37.7106C13.8115 37.7106 13.8582 37.7142 13.9175 37.7465Z" fill="#240C6E"/>
<path d="M35.5578 22.2272L17.664 29.4568C17.2734 29.6146 16.836 29.6108 16.4482 29.4462C16.0604 29.2816 15.7538 28.9696 15.596 28.579L8.37049 10.6952C8.21266 10.3046 8.21647 9.86723 8.3811 9.4794C8.54572 9.09157 8.85766 8.78502 9.24831 8.62719L27.1421 1.39764C27.3355 1.31926 27.5426 1.27977 27.7513 1.28144C27.9601 1.28311 28.1664 1.3259 28.3586 1.40737C28.5508 1.48884 28.725 1.60739 28.8714 1.75625C29.0177 1.9051 29.1333 2.08134 29.2115 2.27488L36.437 20.1586C36.5945 20.5496 36.5904 20.987 36.4255 21.3749C36.2607 21.7628 35.9486 22.0694 35.5578 22.2272ZM19.5143 10.8937L19.824 22.1632L21.969 21.2966L21.8259 19.0073L25.3637 17.5779L26.8625 19.3194L29.0075 18.4528L21.3819 10.1392L19.5143 10.8937ZM24.1608 16.1692L21.7155 17.1572L21.4419 12.9927L24.1528 16.1658L24.1608 16.1692Z" fill="#6950E8"/>
<path d="M15.355 11.5794L27.2019 8.12561L31.0874 21.4534L19.2405 24.9072L15.355 11.5794Z" fill="#6950E8"/>
<path d="M22.421 16.703C23.1705 16.703 23.7781 16.0954 23.7781 15.3459C23.7781 14.5965 23.1705 13.9889 22.421 13.9889C21.6715 13.9889 21.064 14.5965 21.064 15.3459C21.064 16.0954 21.6715 16.703 22.421 16.703Z" fill="#FCFFFF"/>
<path d="M22.425 12.5872C24.2467 12.5872 25.9392 12.8486 27.2151 13.2877C28.7524 13.8168 29.6978 14.6191 29.6978 15.3457C29.6978 16.1027 28.6959 16.9552 27.0451 17.5019C25.797 17.9154 24.1543 18.1315 22.425 18.1315C20.6518 18.1315 18.9732 17.9288 17.7108 17.4974C16.1138 16.9516 15.1519 16.0883 15.1519 15.3457C15.1519 14.625 16.0546 13.829 17.5704 13.3007C18.8512 12.8544 20.5854 12.5872 22.425 12.5872V12.5872Z" stroke="white" stroke-width="0.5" stroke-miterlimit="10"/>
<path d="M20.0259 13.9745C20.9359 12.3963 22.0081 11.0608 23.0261 10.1751C24.2527 9.10774 25.42 8.68977 26.0492 9.05258C26.7049 9.43063 26.943 10.7244 26.5919 12.4282C26.3264 13.7161 25.6932 15.2468 24.829 16.7451C23.9433 18.2811 22.9288 19.6341 21.9247 20.5122C20.6542 21.623 19.4254 22.0248 18.7823 21.654C18.1581 21.2938 17.9195 20.1144 18.2186 18.5371C18.4715 17.2034 19.1066 15.5679 20.0259 13.9745V13.9745Z" stroke="white" stroke-width="0.5" stroke-miterlimit="10"/>
<path d="M20.0266 16.749C19.114 15.1722 18.4924 13.5766 18.2332 12.2523C17.9211 10.6566 18.1417 9.43637 18.7705 9.07266C19.4257 8.69326 20.6652 9.13321 21.9658 10.288C22.9493 11.1612 23.9588 12.4743 24.8252 13.9712C25.7136 15.5059 26.3796 17.0602 26.6383 18.3684C26.9662 20.0241 26.7007 21.2893 26.058 21.661C25.4342 22.022 24.2933 21.64 23.0762 20.5928C22.0483 19.708 20.9482 18.3411 20.0266 16.749V16.749Z" stroke="white" stroke-width="0.5" stroke-miterlimit="10"/>
<path d="M22.191 16.4992C22.1753 16.509 22.1704 16.5157 22.1843 16.5081C22.1942 16.5023 22.2103 16.4902 22.2076 16.4897C22.2063 16.4897 22.1986 16.4942 22.191 16.4992ZM22.1601 16.5193C22.152 16.5256 22.152 16.5261 22.1619 16.5211C22.1673 16.5184 22.1717 16.5153 22.1717 16.5144C22.1717 16.5108 22.1695 16.5117 22.1601 16.5193ZM22.1377 16.5328C22.1296 16.5391 22.1296 16.5395 22.1395 16.5346C22.1448 16.5319 22.1493 16.5287 22.1493 16.5279C22.1493 16.5243 22.1471 16.5252 22.1377 16.5328ZM22.1153 16.5462C22.1072 16.5525 22.1072 16.553 22.117 16.548C22.1224 16.5453 22.1269 16.5422 22.1269 16.5413C22.1269 16.5377 22.1247 16.5386 22.1153 16.5462ZM22.0812 16.5642C22.0641 16.5731 22.065 16.5767 22.0821 16.5682C22.0897 16.5642 22.0955 16.5601 22.0955 16.5592C22.0955 16.5561 22.0951 16.5565 22.0812 16.5642Z" fill="white"/>
<path d="M42.645 53.0423L24.0051 48.0446C23.8034 47.9907 23.6143 47.8977 23.4486 47.7707C23.2829 47.6437 23.1439 47.4852 23.0394 47.3045C22.935 47.1237 22.8672 46.9241 22.8399 46.7171C22.8126 46.5102 22.8264 46.2998 22.8805 46.0982L27.8762 27.4657C27.9302 27.2641 28.0235 27.0751 28.1507 26.9095C28.2778 26.7439 28.4364 26.605 28.6172 26.5007C28.7981 26.3965 28.9977 26.3289 29.2047 26.3018C29.4118 26.2747 29.6221 26.2887 29.8237 26.343L48.4636 31.3407C48.6653 31.3945 48.8544 31.4876 49.0201 31.6146C49.1858 31.7416 49.3248 31.9 49.4293 32.0808C49.5337 32.2616 49.6015 32.4611 49.6288 32.6681C49.6561 32.8751 49.6423 33.0854 49.5882 33.2871L44.5925 51.9195C44.5385 52.1212 44.4452 52.3102 44.318 52.4758C44.1909 52.6414 44.0323 52.7803 43.8515 52.8845C43.6706 52.9888 43.471 53.0564 43.2639 53.0835C43.0569 53.1105 42.8466 53.0965 42.645 53.0423ZM37.7035 34.4604C36.9215 34.2336 36.0914 34.2325 35.3089 34.4571C34.541 34.6946 33.8613 35.1557 33.3568 35.7815C32.7796 36.5036 32.3661 37.3425 32.1451 38.2401L31.9773 38.8659C31.5545 40.1512 31.6092 41.5459 32.1313 42.7942C32.3962 43.3353 32.7798 43.8095 33.2536 44.1815C33.7273 44.5536 34.279 44.8138 34.8674 44.9427C35.9014 45.2721 37.0202 45.2107 38.0119 44.7701C38.467 44.5412 38.8711 44.2222 39.1995 43.8327C39.5279 43.4431 39.7739 42.991 39.9227 42.5037L37.8219 41.9404C37.7313 42.2135 37.5998 42.4711 37.4318 42.7046C37.2939 42.9014 37.1108 43.0622 36.8978 43.1735C36.6848 43.2849 36.4482 43.3434 36.2079 43.3442C35.9102 43.349 35.6134 43.3098 35.3272 43.2279C35.0024 43.149 34.6996 42.998 34.4412 42.7859C34.2113 42.5871 34.0407 42.3286 33.9484 42.0389C33.846 41.6862 33.81 41.3176 33.8423 40.9517C33.8794 40.4553 33.9662 39.9639 34.1014 39.4849L34.3079 38.7146C34.4329 38.2514 34.6067 37.8028 34.8264 37.3764C34.9883 37.0529 35.2096 36.7628 35.4789 36.5213C35.708 36.3231 35.9853 36.1887 36.2828 36.1316C36.6053 36.0783 36.9356 36.0981 37.2494 36.1895C37.5373 36.2615 37.8129 36.3758 38.0672 36.5286C38.2717 36.6525 38.4448 36.8219 38.5733 37.0236C38.6961 37.2318 38.77 37.4651 38.7896 37.706C38.8142 38.0072 38.7958 38.3104 38.735 38.6064L40.8372 39.1701C41.0531 38.1405 40.8597 37.0674 40.298 36.1781C39.6766 35.303 38.7517 34.6907 37.7035 34.4604Z" fill="#007FFF"/>
<path d="M33.8427 31.5695L44.9973 36.8472L39.0598 49.3961L27.9053 44.1183L33.8427 31.5695Z" fill="#007FFF"/>
<path fill-rule="evenodd" clip-rule="evenodd" d="M40.1251 43.2138C40.1858 43.1998 40.2409 43.171 40.2849 43.1302C40.3288 43.0894 40.36 43.0381 40.3754 42.9814L40.8833 41.1111C40.8987 41.0545 40.9299 41.0031 40.9739 40.9623C41.0178 40.9215 41.0729 40.8927 41.1337 40.8787L42.3863 40.5896C42.447 40.5756 42.5112 40.5769 42.5725 40.5934C42.6337 40.6099 42.6899 40.6411 42.7353 40.6837C42.7808 40.7263 42.8139 40.7789 42.8313 40.8363C42.8488 40.8936 42.85 40.9536 42.8348 41.0103L41.9229 44.4136C41.9076 44.4704 41.8764 44.522 41.8324 44.563C41.7884 44.604 41.7332 44.6329 41.6723 44.647L36.9448 45.7378C36.8844 45.7517 36.8206 45.7504 36.7596 45.7342C36.6987 45.7179 36.6427 45.6872 36.5973 45.645L33.8104 43.0559C33.7645 43.0133 33.7309 42.9605 33.7132 42.9029C33.6955 42.8453 33.6942 42.785 33.7094 42.728L34.1692 41.012C34.1698 41.01 34.1726 41.0094 34.1744 41.0109C34.1759 41.0123 34.1786 41.012 34.1792 41.0098L34.1797 41.0078C34.1801 41.0065 34.1811 41.0054 34.1827 41.0051L37.2383 40.2998C37.2411 40.2992 37.241 40.2954 37.2382 40.2946C37.2375 40.2944 37.2368 40.294 37.2364 40.2933C37.236 40.2927 37.2359 40.292 37.2361 40.2913L37.6921 38.6103C37.7076 38.5535 37.7066 38.4933 37.6893 38.4357C37.6719 38.3782 37.6388 38.3253 37.5933 38.2826C37.5478 38.2398 37.4914 38.2085 37.43 38.192C37.3685 38.1755 37.3041 38.1742 37.2432 38.1884L34.9714 38.7158C34.9108 38.7299 34.8467 38.7286 34.7855 38.7122C34.7242 38.6958 34.6681 38.6648 34.6226 38.6223L32.9132 37.0254C32.8677 36.9829 32.8115 36.9519 32.7501 36.9355C32.6888 36.9191 32.6246 36.9179 32.5639 36.9321C32.5032 36.9462 32.4482 36.9752 32.4044 37.0161C32.3606 37.057 32.3295 37.1084 32.3142 37.1652L31.4995 40.2058C31.4844 40.2624 31.4534 40.3138 31.4097 40.3548C31.366 40.3957 31.3111 40.4248 31.2505 40.4391C31.19 40.4534 31.1258 40.4523 31.0645 40.4361C31.0032 40.4199 30.9469 40.3891 30.9013 40.3467L29.9516 39.4648C29.9056 39.4221 29.872 39.3692 29.8543 39.3114C29.8366 39.2537 29.8354 39.1932 29.8508 39.1361L31.2846 33.8242C31.2999 33.7675 31.3311 33.7163 31.3749 33.6754C31.4187 33.6346 31.4736 33.6057 31.5342 33.5916C31.5949 33.5774 31.659 33.5786 31.7202 33.5949C31.7815 33.6113 31.8377 33.6422 31.8832 33.6847L35.134 36.7153C35.1794 36.7576 35.2354 36.7885 35.2965 36.8049C35.3576 36.8212 35.4216 36.8225 35.4821 36.8085L39.8116 35.8091C39.8723 35.7951 39.9366 35.7964 39.9979 35.8129C40.0591 35.8295 40.1153 35.8606 40.1607 35.9033C40.2062 35.946 40.2393 35.9986 40.2567 36.056C40.2741 36.1134 40.2752 36.1734 40.26 36.2301L38.8356 41.546C38.8204 41.6029 38.7892 41.6544 38.7453 41.6954C38.7014 41.7364 38.6462 41.7654 38.5853 41.7796L36.3173 42.3055C36.2563 42.3197 36.2011 42.3488 36.1572 42.3899C36.1132 42.431 36.0821 42.4826 36.067 42.5396C36.0519 42.5966 36.0533 42.6569 36.0711 42.7144C36.0889 42.7719 36.1224 42.8246 36.1683 42.8671L37.1085 43.7372C37.1539 43.7792 37.2099 43.8099 37.2708 43.8261C37.3317 43.8423 37.3954 43.8435 37.4557 43.8295L40.1251 43.2138ZM41.6325 38.5068C41.6172 38.564 41.6186 38.6246 41.6365 38.6823C41.6544 38.7401 41.6882 38.793 41.7345 38.8356C41.7807 38.8781 41.8377 38.9089 41.8997 38.9248C41.9617 38.9406 42.0265 38.941 42.0874 38.9258L43.292 38.6245C43.3514 38.6097 43.4052 38.5806 43.448 38.5399C43.4907 38.4993 43.5211 38.4487 43.5361 38.3928L43.854 37.2063C43.8693 37.1491 43.8678 37.0886 43.8499 37.0309C43.8319 36.9732 43.7981 36.9203 43.7518 36.8778C43.7056 36.8352 43.6486 36.8045 43.5866 36.7886C43.5246 36.7728 43.4599 36.7725 43.399 36.7877L42.1944 37.0889C42.135 37.1038 42.0813 37.1329 42.0385 37.1735C41.9957 37.2141 41.9653 37.2648 41.9503 37.3206L41.6324 38.5071L41.6325 38.5068Z" fill="white"/>
</svg>
