<svg width="50" height="51" viewBox="0 0 50 51" fill="none" xmlns="http://www.w3.org/2000/svg">
<path fill-rule="evenodd" clip-rule="evenodd" d="M12.9304 41.6282C15.7429 44.4207 17.8467 45.8369 19.9304 45.8369C22.0342 45.8369 24.1179 44.4207 26.9254 41.6069L38.5304 30.0019C40.1187 28.4546 42.8254 28.4516 44.8392 28.4516C44.7319 26.6906 43.2954 22.6218 42.4829 21.0557C41.4739 19.1525 40.1372 17.4421 38.5342 16.0032L31.3254 8.79442C24.8254 2.29443 21.4304 4.68942 17.3254 8.79442L5.72043 20.4194C0.220431 25.9394 -0.404569 28.2944 5.72043 34.4194L12.9304 41.6282ZM15.1392 39.3994L7.93043 32.1907C5.25772 29.518 4.19178 28.2258 4.53793 26.8359C4.95815 25.5069 5.62796 24.8605 6.83667 23.7109C7.15917 23.3804 7.51347 23.0245 7.89883 22.6374L7.92918 22.6069L19.5342 11.0019C23.1804 7.37692 24.5554 6.43942 29.1179 11.0019L36.3279 18.2107C38.0892 19.9638 39.647 22.3702 40.2591 24.0047C40.1888 24.0035 40.3291 24.0074 40.2591 24.0047C40.7099 25.2087 38.1301 25.9279 35.1484 28.974L24.7229 39.3994C20.2854 43.8369 19.5567 43.8169 15.1392 39.3994Z" fill="#4B5563"/>
<path fill-rule="evenodd" clip-rule="evenodd" d="M42.2368 45.1017C43.0315 45.4888 43.9142 45.656 44.7954 45.5857C45.6762 45.6582 46.5597 45.4921 47.354 45.1047C48.1483 44.7174 48.8244 44.1228 49.3096 43.3842C49.6888 42.5858 49.8488 41.7011 49.771 40.8207C49.6932 39.9403 49.381 39.0963 48.8677 38.3768L47.6689 36.3932C46.9739 35.2257 44.793 32.0444 44.793 32.0444C44.793 32.0444 42.6269 35.2257 41.9194 36.3932L40.7134 38.3768C40.1976 39.0954 39.8842 39.9395 39.8076 40.8207C39.7311 41.7019 39.8922 42.5874 40.2764 43.3842C40.7641 44.1214 41.4421 44.7146 42.2368 45.1017ZM43.5894 38.4495C43.9598 37.8083 44.3622 37.186 44.7954 36.5854V36.5897C45.2328 37.1885 45.6399 37.8091 46.0137 38.4495L46.5142 39.4254C46.7324 39.7963 46.8609 40.2127 46.8926 40.6418C46.9242 41.071 46.8563 41.5015 46.6948 41.9004C46.5186 42.2474 46.2462 42.536 45.9087 42.7299C45.5712 42.9237 45.1839 43.0144 44.7954 42.9917C44.4077 43.0134 44.0235 42.9218 43.687 42.728C43.3505 42.5342 43.0767 42.2466 42.9009 41.9004C42.7389 41.5018 42.6721 41.0716 42.7031 40.6425C42.7341 40.2133 42.8616 39.7966 43.0791 39.4254L43.5894 38.4495Z" fill="#907AF1"/>
<path d="M7.9304 32.1907L15.1391 39.3994C19.5566 43.8169 20.2854 43.8369 24.7229 39.3994L35.1484 28.974C36.4321 27.6625 37.6414 26.7824 38.5664 26.1092C39.7885 25.2197 40.5143 24.6914 40.2598 24.0069C38.7115 24.706 34.6288 26.4024 31.4695 26.4024C29.0355 26.362 26.7101 25.3986 24.9738 23.7112H6.84152C7.16394 23.3808 7.51819 23.025 7.90344 22.638L7.93403 22.6072L19.539 11.0022C21.5409 9.01203 22.8582 7.8319 24.3942 7.92732C22.8561 7.8291 21.5382 9.00962 19.5341 11.0019L7.92915 22.6069L7.8988 22.6374C7.51344 23.0245 7.15914 23.3804 6.83664 23.7109C5.62792 24.8605 4.95812 25.5069 4.53789 26.8359C4.19175 28.2258 5.25768 29.518 7.9304 32.1907Z" fill="#907AF1"/>
<path d="M44.0956 45.5919C44.3291 45.6066 44.564 45.6048 44.799 45.5861L44.7947 45.5857C44.5612 45.6043 44.3276 45.6063 44.0956 45.5919Z" fill="#907AF1"/>
<path d="M44.8952 45.5929C45.7441 45.6462 46.5926 45.4784 47.3581 45.1051C48.1524 44.7177 48.8286 44.1231 49.3137 43.3845C49.6929 42.5861 49.8529 41.7014 49.7751 40.821C49.6973 39.9406 49.3851 39.0966 48.8718 38.3771L47.6731 36.3935C46.9781 35.226 44.7971 32.0447 44.7971 32.0447C44.7971 32.0447 44.7963 32.0459 44.7948 32.0482C44.8784 32.1702 46.987 35.2489 47.6682 36.3932L48.8669 38.3768C49.3803 39.0963 49.6925 39.9403 49.7703 40.8207C49.8481 41.7011 49.688 42.5858 49.3088 43.3842C48.8237 44.1228 48.1476 44.7174 47.3533 45.1047C46.5892 45.4774 45.7425 45.6453 44.8952 45.5929Z" fill="#907AF1"/>
<path d="M44.7947 36.5855C44.3615 37.186 43.9591 37.8083 43.5886 38.4495L43.0784 39.4254C42.8608 39.7967 42.7334 40.2133 42.7024 40.6425C42.6714 41.0716 42.7382 41.5018 42.9001 41.9004C43.076 42.2466 43.3498 42.5343 43.6863 42.728C43.9549 42.8827 44.2539 42.9723 44.5608 42.9911C44.2556 42.9716 43.9583 42.8822 43.6912 42.7283C43.3546 42.5346 43.0809 42.2469 42.905 41.9007C42.7431 41.5021 42.6763 41.0719 42.7073 40.6428C42.7383 40.2136 42.8657 39.797 43.0832 39.4257L43.5935 38.4498C43.9629 37.8105 44.364 37.19 44.7957 36.5911L44.7947 36.5897V36.5855Z" fill="#907AF1"/>
</svg>
