<svg width="50" height="51" viewBox="0 0 50 51" fill="none" xmlns="http://www.w3.org/2000/svg">
<path d="M23.7822 40.4099H18.0954C12.4911 40.4099 9.8877 37.8052 9.8877 32.2009V26.5141C9.8877 20.9311 12.4911 18.3276 18.0954 18.3276H23.7822C29.3653 18.3276 31.9899 20.9311 31.9899 26.5354V32.2222C31.9699 37.8052 29.3653 40.4099 23.7822 40.4099Z" fill="#907AF1"/>
<path d="M4.15898 20.6204C3.74555 20.6174 3.34988 20.4519 3.05752 20.1595C2.76517 19.8672 2.59962 19.4715 2.59668 19.0581C2.60362 14.7782 4.30689 10.6755 7.33325 7.64917C10.3596 4.6228 14.4622 2.91954 18.7422 2.9126C19.0172 2.91423 19.2869 2.9882 19.5243 3.12707C19.7617 3.26594 19.9583 3.46482 20.0945 3.70375C20.2297 3.94647 20.299 4.22037 20.2955 4.49819C20.292 4.77601 20.2158 5.04807 20.0745 5.2873L17.8873 8.93309C17.6703 9.28345 17.3236 9.53381 16.9228 9.62956C16.522 9.72531 16.0996 9.65868 15.7477 9.44422C15.3958 9.22975 15.143 8.88484 15.0444 8.48471C14.9458 8.08459 15.0094 7.6617 15.2214 7.3083L15.7838 6.37092C12.9224 7.04262 10.3717 8.66107 8.54531 10.9639C6.71889 13.2667 5.72377 16.1189 5.72129 19.0581C5.71834 19.4715 5.5528 19.8672 5.26045 20.1595C4.96809 20.4519 4.57242 20.6174 4.15898 20.6204Z" fill="#FEBF06"/>
<path d="M31.2404 47.7009C30.965 47.6997 30.6947 47.626 30.4569 47.4871C30.219 47.3482 30.022 47.1491 29.8856 46.9098C29.7506 46.6669 29.6815 46.393 29.6852 46.1152C29.6889 45.8373 29.7653 45.5653 29.9069 45.3262L32.0941 41.6804C32.3099 41.3308 32.6547 41.0801 33.0539 40.9825C33.453 40.8848 33.8746 40.9482 34.2274 41.1587C34.5803 41.3693 34.8362 41.7102 34.9398 42.1079C35.0434 42.5055 34.9865 42.928 34.7812 43.284L34.2188 44.2214C37.0781 43.546 39.6263 41.9268 41.4521 39.625C43.2778 37.3233 44.2745 34.4734 44.2813 31.5354C44.2813 31.1211 44.4459 30.7237 44.7389 30.4307C45.0319 30.1377 45.4293 29.9731 45.8436 29.9731C46.258 29.9731 46.6553 30.1377 46.9483 30.4307C47.2413 30.7237 47.4059 31.1211 47.4059 31.5354C47.3947 35.8194 45.6879 39.9246 42.6588 42.9538C39.6296 45.983 35.5243 47.6897 31.2404 47.7009Z" fill="#FEBF06"/>
<path d="M35.0654 29.5199C35.0659 29.2358 35.1443 28.9574 35.2924 28.715C35.4405 28.4725 35.6525 28.2751 35.9051 28.145C36.5938 27.6 36.9889 26.3078 36.9889 24.1031V18.4123C36.9889 14.5178 35.7973 13.333 31.909 13.333H26.2188C23.9603 13.333 22.6539 13.7293 21.7565 15.0478C21.6289 15.3138 21.4276 15.5381 21.1779 15.6953C20.9283 15.8526 20.6405 15.9362 20.3455 15.9364C20.1406 15.9364 19.9367 15.896 19.7474 15.8174C19.5582 15.7388 19.3868 15.6238 19.2421 15.4787C19.0975 15.3336 18.9832 15.1611 18.9053 14.9716C18.8273 14.782 18.7874 14.579 18.7881 14.3741C18.7884 14.0949 18.8633 13.8211 19.0054 13.5807C19.4014 12.7969 19.9883 12.1252 20.7117 11.6273C22.3502 10.589 24.2755 10.0946 26.2115 10.2157H31.9017C37.4972 10.2157 40.1062 12.8184 40.1062 18.4202V24.1104C40.1993 25.9337 39.7654 27.745 38.8564 29.3283C38.5193 29.8461 38.1049 30.3098 37.6285 30.7032C37.6107 30.7205 37.5902 30.7347 37.5675 30.7447C37.2945 30.9635 36.9556 31.0826 36.6057 31.0822C36.1946 31.0783 35.8006 30.9118 35.5121 30.619C35.2235 30.3262 35.0634 29.931 35.0654 29.5199Z" fill="#4B5563"/>
</svg>
