<svg width="260" height="207" viewBox="0 0 260 207" fill="none" xmlns="http://www.w3.org/2000/svg">
<path d="M224.129 203.669H195.6C195.101 203.669 194.622 203.471 194.269 203.118C193.916 202.765 193.718 202.286 193.718 201.787C193.718 201.288 193.916 200.81 194.269 200.457C194.622 200.104 195.101 199.905 195.6 199.905H224.129C224.628 199.905 225.107 200.104 225.46 200.457C225.812 200.81 226.011 201.288 226.011 201.787C226.011 202.286 225.812 202.765 225.46 203.118C225.107 203.471 224.628 203.669 224.129 203.669ZM63.2987 79.1652C63.2987 79.1652 62.3954 75.3262 73.0091 71.9388C83.6228 68.5515 89.4942 64.4866 90.6233 59.7444C90.6233 59.7444 93.1074 71.9388 97.6238 74.1971C97.6238 74.1971 103.269 56.5828 90.1717 50.2598C77.0739 43.9367 62.1696 52.9697 56.0723 64.7125C49.9751 76.4553 51.1042 78.7135 44.7812 85.9399C40.6787 90.6282 11.1335 106.941 34.1675 124.782C34.1675 124.782 50.4267 101.07 59.4597 102.877C59.4597 102.877 62.5867 89.2959 62.152 87.7308C61.7317 86.2153 53.1416 79.7078 55.9826 73.0435C56.101 72.7429 56.2774 72.4686 56.5018 72.2362C56.7262 72.0038 56.9942 71.8179 57.2905 71.6892C58.5972 71.1691 60.9997 71.58 63.2987 79.1652Z" fill="#334155"/>
<path d="M71.4956 121.428C68.3842 121.429 64.3451 115.385 59.1694 102.997C59.1421 102.922 59.1451 102.838 59.1776 102.765C59.2101 102.691 59.2696 102.633 59.3439 102.602C59.4182 102.571 59.5016 102.57 59.5768 102.598C59.6519 102.627 59.7131 102.684 59.7477 102.757C66.2351 118.282 69.8784 121.126 71.8048 120.774C74.6922 120.245 75.5993 112.069 75.7053 108.964C75.4528 105.913 75.8719 102.844 76.9329 99.9733C76.9602 99.9044 77.0113 99.8476 77.0769 99.8131C77.1424 99.7786 77.2182 99.7687 77.2904 99.7851C82.246 100.875 86.3836 100.086 89.5853 97.4409C97.6585 90.7685 97.3134 74.3712 97.3084 74.2062C97.3073 74.165 97.3142 74.1239 97.329 74.0854C97.3437 74.0468 97.3659 74.0116 97.3943 73.9816C97.4226 73.9517 97.4567 73.9276 97.4944 73.9108C97.532 73.894 97.5727 73.8848 97.6139 73.8838C97.6962 73.8847 97.7751 73.9167 97.8348 73.9734C97.8944 74.03 97.9305 74.1072 97.9357 74.1893C97.9545 74.8743 98.2951 91.0551 89.9855 97.9239C86.6859 100.651 82.4593 101.501 77.4222 100.455C76.4777 103.18 76.1061 106.07 76.3307 108.945C76.3156 109.461 75.8897 120.664 71.9177 121.39C71.7784 121.415 71.6371 121.428 71.4956 121.428Z" fill="#334155"/>
<path d="M86.988 87.1928C86.2967 87.1841 85.6181 87.0055 85.012 86.6729C84.4059 86.3403 83.8908 85.8637 83.5122 85.2852C83.4684 85.2163 83.4532 85.133 83.4699 85.0531C83.4865 84.9732 83.5336 84.9029 83.6012 84.8572C83.6688 84.8114 83.7516 84.7939 83.832 84.8082C83.9124 84.8225 83.984 84.8676 84.0316 84.9339C84.5282 85.6939 85.2932 86.2387 86.1738 86.4595C86.4813 86.5548 86.8048 86.5879 87.1252 86.5566C87.4457 86.5254 87.7567 86.4305 88.04 86.2775C88.2971 86.0724 88.5108 85.8181 88.6686 85.5294C88.8264 85.2408 88.9251 84.9236 88.959 84.5964C89.1065 83.7116 89.0046 82.8032 88.6648 81.9731C88.5209 81.5164 88.3937 81.0546 88.2834 80.5887C87.9327 79.0625 87.4528 76.9736 88.3003 74.9757C88.5966 74.2326 89.0506 73.5627 89.631 73.0121C90.2114 72.4615 90.9043 72.0434 91.6619 71.7866C92.7462 71.4792 93.9012 71.535 94.9508 71.9453C95.0283 71.9755 95.0907 72.0352 95.1242 72.1114C95.1576 72.1876 95.1595 72.2739 95.1293 72.3515C95.0991 72.429 95.0393 72.4913 94.9631 72.5248C94.887 72.5583 94.8006 72.5601 94.7231 72.5299C93.8031 72.1691 92.7904 72.1193 91.8395 72.3882C91.171 72.6187 90.5603 72.991 90.0493 73.4796C89.5382 73.9683 89.1389 74.5617 88.8787 75.2191C88.1096 77.0313 88.5631 79.006 88.895 80.4475C89.0123 80.9588 89.1465 81.401 89.2651 81.7899C89.6384 82.7187 89.7455 83.7331 89.5743 84.7194C89.5263 85.1286 89.3963 85.524 89.1919 85.8819C88.9875 86.2397 88.7131 86.5527 88.385 86.802C87.9678 87.067 87.4816 87.203 86.9874 87.1928H86.988ZM85.7291 73.3178C85.6762 73.3178 85.6243 73.3044 85.578 73.279C85.5317 73.2536 85.4926 73.2168 85.4643 73.1723C83.1816 69.5967 77.5448 71.7684 77.4884 71.7897C77.4499 71.8058 77.4086 71.8141 77.3668 71.814C77.3251 71.8139 77.2838 71.8055 77.2454 71.7893C77.207 71.7731 77.1721 71.7494 77.143 71.7195C77.1138 71.6897 77.0909 71.6543 77.0756 71.6155C77.0603 71.5767 77.0529 71.5352 77.0538 71.4935C77.0547 71.4518 77.0639 71.4107 77.0809 71.3726C77.0979 71.3345 77.1224 71.3001 77.1528 71.2716C77.1832 71.2431 77.2191 71.2209 77.2582 71.2063C77.3196 71.1813 83.4357 68.8289 85.9931 72.8354C86.0234 72.8828 86.0403 72.9374 86.0422 72.9936C86.0441 73.0498 86.0309 73.1055 86.0039 73.1548C85.9769 73.2041 85.9371 73.2452 85.8888 73.2739C85.8404 73.3026 85.7853 73.3177 85.7291 73.3178Z" fill="#334155"/>
<path d="M83.7564 78.5851C83.944 77.2891 83.4457 76.1443 82.6434 76.0282C81.841 75.912 81.0386 76.8685 80.8509 78.1645C80.6633 79.4606 81.1616 80.6054 81.9639 80.7215C82.7662 80.8377 83.5687 79.8812 83.7564 78.5851Z" fill="#334155"/>
<path d="M94.438 80.1325C94.6256 78.8365 94.1273 77.6917 93.325 77.5755C92.5227 77.4594 91.7202 78.4159 91.5326 79.7119C91.345 81.0079 91.8433 82.1527 92.6456 82.2689C93.4479 82.385 94.2504 81.4285 94.438 80.1325Z" fill="#334155"/>
<path d="M82.6406 91.0696L82.613 91.0684C80.2192 90.8582 78.6121 90.0904 77.8362 88.7882C77.5368 88.2032 77.3683 87.5601 77.3423 86.9034C77.3163 86.2468 77.4334 85.5924 77.6856 84.9856C77.7186 84.9092 77.7806 84.8491 77.858 84.8184C77.9353 84.7878 78.0217 84.7891 78.0981 84.8222C78.1744 84.8552 78.2345 84.9172 78.2652 84.9945C78.2958 85.0719 78.2945 85.1582 78.2615 85.2346C78.2539 85.2522 77.5118 87.023 78.3781 88.4714C79.0456 89.588 80.489 90.2516 82.6675 90.4436C82.7479 90.4508 82.8224 90.4887 82.8755 90.5494C82.9286 90.6101 82.9563 90.6889 82.9529 90.7695C82.9494 90.8501 82.915 90.9262 82.8568 90.9821C82.7987 91.038 82.7212 91.0694 82.6406 91.0696ZM77.2208 99.7513C72.9849 99.2238 69.1225 97.063 66.4565 93.7293C67.7285 99.5315 71.1244 104.648 75.9769 108.074C75.7998 105.243 76.2237 102.407 77.2208 99.7513Z" fill="#334155"/>
<path d="M60.4292 158.617C55.0578 158.617 50.6461 158.592 49.5 158.515C49.3081 158.504 49.1219 158.446 48.957 158.347C48.7921 158.248 48.6535 158.111 48.5528 157.947C46.9488 155.491 50.6059 144.741 51.4929 142.234C46.442 141.746 29.0718 133.698 28.3121 133.345C28.2707 133.326 28.234 133.298 28.2046 133.263C28.1752 133.228 28.1537 133.187 28.1418 133.143C28.1298 133.099 28.1277 133.053 28.1354 133.008C28.1432 132.963 28.1607 132.92 28.1867 132.882L33.9075 124.602C33.9563 124.537 34.0281 124.494 34.108 124.481C34.1879 124.468 34.2697 124.487 34.3363 124.533C34.4029 124.579 34.4491 124.649 34.4653 124.728C34.4815 124.807 34.4664 124.89 34.4232 124.958L28.9143 132.932C31.4919 134.117 47.9977 141.629 51.9295 141.629C51.9799 141.629 52.0295 141.641 52.0741 141.665C52.1188 141.688 52.1572 141.721 52.1861 141.763C52.215 141.804 52.2336 141.851 52.2403 141.901C52.2469 141.951 52.2414 142.002 52.2243 142.049C50.9064 145.698 47.7706 155.603 49.0785 157.604C49.1257 157.687 49.1929 157.756 49.2739 157.806C49.3549 157.856 49.4471 157.884 49.542 157.889C52.7544 158.102 82.9482 157.906 85.4837 157.89C86.3983 156.505 93.7984 145.133 92.5834 141.644C91.246 137.805 90.3377 135.455 90.3283 135.432C90.3017 135.363 90.3001 135.287 90.3239 135.217C90.3476 135.148 90.3951 135.088 90.4581 135.05L95.1998 132.177C94.3805 130.159 88.3059 116.055 75.8135 108.342C75.7426 108.298 75.692 108.228 75.6728 108.147C75.6537 108.066 75.6675 107.98 75.7112 107.909C75.755 107.838 75.8251 107.788 75.9061 107.769C75.9872 107.75 76.0726 107.763 76.1434 107.807C89.738 116.202 95.8227 132.038 95.8823 132.197C95.9081 132.266 95.9093 132.341 95.8854 132.41C95.8616 132.479 95.8143 132.538 95.7518 132.576L91.0076 135.451C91.7574 137.437 92.4801 139.433 93.1755 141.438C94.5656 145.429 86.2672 157.851 85.9134 158.377C85.8849 158.42 85.8464 158.454 85.8014 158.478C85.7564 158.503 85.7061 158.515 85.655 158.516C84.7736 158.522 70.8102 158.617 60.4292 158.617Z" fill="#334155"/>
<path d="M58.4128 126.287L52.2403 141.944L47.9961 140.978L58.4128 126.287ZM90.3951 135.545L83.7333 124.442L92.3823 134.341L90.3951 135.545Z" fill="#334155"/>
<path d="M121.789 193.226C119.742 193.226 117.732 191.862 117.068 191.365C116.748 191.705 116.355 191.968 115.918 192.133C115.481 192.297 115.012 192.359 114.548 192.314C111.799 191.974 109.312 187.564 107.666 184.646C107.286 183.927 106.865 183.23 106.406 182.559C105.848 181.842 104.26 182.738 102.25 183.875C99.676 185.329 96.14 187.323 92.3713 187.197L91.1336 187.157C63.5644 186.3 16.7706 184.002 13.1242 178.244C8.78084 171.387 29.5961 135.483 30.4844 133.957C30.5052 133.922 30.5328 133.891 30.5656 133.866C30.5984 133.841 30.6358 133.822 30.6757 133.812C30.7156 133.802 30.7571 133.799 30.798 133.805C30.8388 133.81 30.8781 133.824 30.9137 133.845C30.9493 133.865 30.9805 133.893 31.0054 133.926C31.0303 133.959 31.0485 133.996 31.059 134.036C31.0694 134.076 31.0719 134.117 31.0663 134.158C31.0607 134.199 31.0471 134.238 31.0263 134.274C30.8105 134.644 9.51289 171.371 13.6536 177.908C16.2042 181.935 44.4515 185.078 91.1531 186.53L92.392 186.57C95.9907 186.68 99.2921 184.826 101.941 183.329C104.304 181.993 106.01 181.027 106.901 182.174C107.381 182.869 107.819 183.591 108.213 184.338C109.797 187.146 112.19 191.39 114.625 191.692C115.041 191.724 115.458 191.654 115.84 191.486C116.222 191.319 116.557 191.06 116.814 190.732C116.869 190.674 116.943 190.639 117.022 190.635C117.102 190.63 117.18 190.655 117.241 190.706C117.272 190.731 120.358 193.229 122.83 192.444C124.094 192.04 125.007 190.825 125.546 188.834C125.559 188.785 125.584 188.74 125.619 188.703C125.653 188.666 125.696 188.638 125.744 188.621C125.792 188.604 125.843 188.599 125.893 188.606C125.943 188.613 125.99 188.632 126.031 188.662C126.065 188.685 129.334 191.003 131.685 189.985C132.97 189.426 133.773 187.947 134.075 185.591C134.372 183.025 133.987 180.426 132.96 178.057C131.68 175.018 129.012 169.499 125.539 166.69C125.479 166.642 125.44 166.573 125.428 166.497C125.415 166.42 125.432 166.343 125.473 166.278C125.515 166.213 125.579 166.166 125.653 166.145C125.728 166.124 125.807 166.132 125.876 166.166C126.265 166.36 135.446 170.97 139.275 174.573C141.251 176.435 143.2 176.53 144.254 175.797C145.441 174.971 145.633 173.165 144.755 171.084C142.634 166.061 129.788 156.095 127.643 155.572C127.586 155.558 127.534 155.528 127.493 155.486C127.452 155.443 127.424 155.391 127.411 155.333C127.399 155.276 127.403 155.216 127.423 155.16C127.443 155.105 127.478 155.057 127.524 155.02C127.571 154.983 132.232 151.324 132.88 147.871C133.306 145.593 133.025 143.835 132.108 143.047C131.353 142.399 130.156 142.356 128.549 142.918C126.562 143.613 124.515 144.996 122.536 146.332C120.04 148.017 117.46 149.759 114.843 150.269C111.867 150.85 108.844 151.203 106.638 151.462C105.354 151.612 104.341 151.731 103.659 151.851C99.6886 152.551 90.0064 154.596 85.8657 158.434C85.8046 158.491 85.7236 158.521 85.6404 158.517C85.5572 158.514 85.4787 158.478 85.4222 158.417C85.3656 158.356 85.3356 158.275 85.3388 158.192C85.342 158.109 85.3781 158.03 85.4391 157.974C89.7022 154.023 99.5248 151.944 103.55 151.233C104.25 151.11 105.271 150.99 106.565 150.839C108.762 150.582 111.771 150.229 114.723 149.653C117.214 149.167 119.741 147.462 122.184 145.812C124.197 144.453 126.279 143.048 128.342 142.327C130.176 141.684 131.58 141.767 132.516 142.571C133.625 143.523 133.972 145.446 133.496 147.987C132.918 151.068 129.544 154.149 128.335 155.169C131.712 156.744 143.271 165.956 145.332 170.841C146.528 173.673 145.744 175.524 144.611 176.311C143.35 177.189 141.078 177.132 138.844 175.03C136.145 172.49 130.547 169.344 127.565 167.752C130.175 170.608 132.211 174.663 133.538 177.813C134.608 180.285 135.008 182.995 134.697 185.67C134.366 188.262 133.436 189.908 131.933 190.561C129.73 191.519 127.007 190.029 126.03 189.413C125.416 191.38 124.405 192.6 123.019 193.041C122.621 193.166 122.206 193.229 121.789 193.226Z" fill="#334155"/>
<path d="M117.04 191.261C117 191.262 116.96 191.254 116.923 191.238C116.845 191.207 116.784 191.146 116.751 191.07C116.719 190.993 116.718 190.907 116.749 190.83C117.902 187.992 112.434 178.749 110.23 175.427C110.206 175.393 110.19 175.354 110.181 175.313C110.173 175.272 110.172 175.23 110.18 175.189C110.188 175.148 110.204 175.11 110.227 175.075C110.25 175.04 110.28 175.011 110.315 174.987C110.35 174.964 110.388 174.949 110.429 174.941C110.47 174.933 110.512 174.933 110.553 174.942C110.594 174.951 110.632 174.967 110.667 174.991C110.701 175.015 110.73 175.045 110.753 175.08C111.084 175.579 118.843 187.342 117.331 191.066C117.307 191.124 117.267 191.173 117.215 191.208C117.164 191.243 117.103 191.261 117.04 191.261ZM125.847 189.23C125.768 189.23 125.693 189.2 125.635 189.147C125.577 189.094 125.541 189.021 125.535 188.942C124.873 180.998 117.05 170.692 116.971 170.589C116.944 170.556 116.924 170.518 116.913 170.478C116.901 170.438 116.897 170.395 116.902 170.354C116.907 170.312 116.92 170.271 116.941 170.235C116.962 170.198 116.99 170.166 117.023 170.141C117.056 170.115 117.095 170.097 117.135 170.086C117.176 170.076 117.219 170.073 117.26 170.08C117.302 170.086 117.342 170.1 117.378 170.123C117.413 170.145 117.445 170.174 117.469 170.208C117.795 170.634 125.483 180.762 126.159 188.89C126.166 188.972 126.14 189.055 126.086 189.118C126.033 189.182 125.956 189.221 125.873 189.228C125.865 189.229 125.856 189.23 125.847 189.23ZM105.088 151.645C105.033 151.645 104.98 151.631 104.933 151.605C104.886 151.578 104.846 151.54 104.818 151.493L93.8654 133.353C93.8223 133.282 93.8092 133.196 93.8291 133.115C93.849 133.035 93.9002 132.965 93.9714 132.922C94.0426 132.879 94.128 132.866 94.2088 132.886C94.2896 132.905 94.3592 132.957 94.4023 133.028L105.356 151.169C105.385 151.217 105.4 151.271 105.401 151.326C105.402 151.382 105.388 151.437 105.36 151.485C105.333 151.533 105.294 151.574 105.246 151.602C105.198 151.63 105.143 151.644 105.088 151.644V151.645ZM15.6458 195.43C15.6176 195.43 15.5896 195.426 15.5623 195.419C15.5226 195.408 15.4854 195.39 15.4528 195.364C15.4202 195.339 15.393 195.308 15.3726 195.272C15.3522 195.236 15.3391 195.196 15.334 195.155C15.3289 195.115 15.3319 195.073 15.3428 195.033L19.2615 180.813C19.2836 180.733 19.3367 180.665 19.409 180.624C19.4814 180.583 19.5671 180.572 19.6472 180.594C19.7274 180.617 19.7955 180.67 19.8366 180.742C19.8777 180.814 19.8883 180.9 19.8662 180.98L15.9481 195.2C15.9299 195.266 15.8904 195.325 15.8358 195.366C15.7812 195.408 15.7144 195.43 15.6458 195.43V195.43ZM92.3799 195.43C92.2968 195.43 92.217 195.397 92.1582 195.338C92.0993 195.279 92.0663 195.199 92.0663 195.116V186.884C92.0663 186.8 92.0993 186.721 92.1582 186.662C92.217 186.603 92.2968 186.57 92.3799 186.57C92.4631 186.57 92.5429 186.603 92.6017 186.662C92.6606 186.721 92.6936 186.8 92.6936 186.884V195.117C92.6936 195.2 92.6606 195.28 92.6017 195.339C92.5429 195.397 92.4631 195.43 92.3799 195.43V195.43Z" fill="#334155"/>
<path d="M259.686 195.429H7.66716C7.58398 195.429 7.5042 195.396 7.44538 195.337C7.38656 195.278 7.35352 195.199 7.35352 195.115C7.35352 195.032 7.38656 194.952 7.44538 194.894C7.5042 194.835 7.58398 194.802 7.66716 194.802H259.686C259.769 194.802 259.849 194.835 259.908 194.894C259.967 194.952 260 195.032 260 195.115C260 195.199 259.967 195.278 259.908 195.337C259.849 195.396 259.769 195.429 259.686 195.429Z" fill="#334155"/>
<path d="M241.604 185.001H158.317L170.863 124.782H253.627C253.813 124.782 253.998 124.823 254.166 124.903C254.334 124.984 254.483 125.1 254.6 125.245C254.718 125.39 254.802 125.559 254.846 125.74C254.89 125.921 254.893 126.11 254.855 126.292L242.832 184.003C242.773 184.285 242.619 184.538 242.395 184.72C242.172 184.902 241.892 185.001 241.604 185.001Z" fill="#FEBF06"/>
<path d="M165.775 125.78L153.751 183.491C153.713 183.673 153.717 183.862 153.761 184.043C153.805 184.224 153.889 184.394 154.006 184.538C154.124 184.683 154.272 184.8 154.441 184.88C154.609 184.96 154.793 185.001 154.98 185.001H158.317L170.863 124.782H167.003C166.715 124.782 166.435 124.881 166.211 125.063C165.988 125.245 165.834 125.498 165.775 125.78Z" fill="#334155"/>
<path d="M231.027 203.669H211.112L198.566 167.538H219.353C219.614 167.538 219.868 167.619 220.08 167.77C220.293 167.921 220.453 168.134 220.538 168.381L232.212 202.003C232.278 202.192 232.297 202.394 232.269 202.592C232.241 202.79 232.165 202.979 232.049 203.142C231.933 203.305 231.78 203.438 231.602 203.53C231.425 203.621 231.227 203.669 231.027 203.669Z" fill="#05AE82"/>
<path d="M194.938 169.204L206.612 202.826C206.697 203.073 206.858 203.286 207.07 203.437C207.282 203.588 207.537 203.669 207.797 203.669H211.11L198.564 167.538H196.124C195.923 167.538 195.726 167.585 195.548 167.677C195.37 167.769 195.217 167.902 195.101 168.065C194.985 168.228 194.91 168.416 194.881 168.614C194.853 168.813 194.872 169.015 194.938 169.204Z" fill="#334155"/>
<path d="M208.399 152.031H205.087C203.507 152.031 202.227 153.311 202.227 154.891C202.227 156.471 203.507 157.752 205.087 157.752H208.399C209.979 157.752 211.259 156.471 211.259 154.891C211.259 153.311 209.979 152.031 208.399 152.031Z" fill="#334155"/>
<path d="M152.25 21.0559H113.555C113.222 21.0559 112.903 21.1881 112.668 21.4234C112.432 21.6586 112.3 21.9777 112.3 22.3105V50.0617C112.3 50.3944 112.432 50.7135 112.668 50.9488C112.903 51.1841 113.222 51.3162 113.555 51.3162H137.545L142.401 59.0488C142.459 59.141 142.54 59.2166 142.636 59.268C142.732 59.3194 142.84 59.3449 142.949 59.3421C143.058 59.3392 143.164 59.3081 143.257 59.2517C143.35 59.1954 143.427 59.1157 143.48 59.0206L147.782 51.3162H152.25C152.583 51.3162 152.902 51.1841 153.137 50.9488C153.373 50.7135 153.505 50.3944 153.505 50.0617V22.3105C153.505 21.9777 153.373 21.6586 153.137 21.4234C152.902 21.1881 152.583 21.0559 152.25 21.0559Z" fill="#DB7E24"/>
<path d="M228.919 47.1467H170.011C169.678 47.1467 169.359 47.2789 169.124 47.5142C168.889 47.7495 168.756 48.0686 168.756 48.4013V81.1997C168.756 81.5324 168.889 81.8515 169.124 82.0868C169.359 82.322 169.678 82.4542 170.011 82.4542H214.026L218.172 89.0539C218.23 89.146 218.311 89.2214 218.407 89.2728C218.503 89.3242 218.61 89.3498 218.719 89.347C218.828 89.3442 218.934 89.3132 219.027 89.2569C219.12 89.2007 219.197 89.1212 219.25 89.0263L222.92 82.4542H228.919C229.252 82.4542 229.571 82.322 229.806 82.0868C230.041 81.8515 230.173 81.5324 230.173 81.1997V48.4013C230.173 48.0686 230.041 47.7495 229.806 47.5142C229.571 47.2789 229.252 47.1467 228.919 47.1467H228.919Z" fill="#DCFEF5"/>
<path d="M123.419 38.6409C125.84 38.6409 125.845 34.8772 123.419 34.8772C120.997 34.8772 120.993 38.6409 123.419 38.6409ZM132.904 38.6409C135.325 38.6409 135.329 34.8772 132.904 34.8772C130.482 34.8772 130.478 38.6409 132.904 38.6409ZM142.388 38.6409C144.809 38.6409 144.814 34.8772 142.388 34.8772C139.966 34.8772 139.962 38.6409 142.388 38.6409ZM222.154 59.9687H200.475C200.309 59.9687 200.149 59.9026 200.031 59.785C199.914 59.6673 199.848 59.5078 199.848 59.3414C199.848 59.175 199.914 59.0155 200.031 58.8978C200.149 58.7802 200.309 58.7141 200.475 58.7141H222.154C222.32 58.7141 222.48 58.7802 222.598 58.8978C222.715 59.0155 222.781 59.175 222.781 59.3414C222.781 59.5078 222.715 59.6673 222.598 59.785C222.48 59.9026 222.32 59.9687 222.154 59.9687ZM222.154 65.6877H200.475C200.309 65.6877 200.149 65.6216 200.031 65.5039C199.914 65.3863 199.848 65.2267 199.848 65.0604C199.848 64.894 199.914 64.7345 200.031 64.6168C200.149 64.4992 200.309 64.4331 200.475 64.4331H222.154C222.32 64.4331 222.48 64.4992 222.598 64.6168C222.715 64.7345 222.781 64.894 222.781 65.0604C222.781 65.2267 222.715 65.3863 222.598 65.5039C222.48 65.6216 222.32 65.6877 222.154 65.6877ZM222.154 71.406H200.475C200.309 71.406 200.149 71.3399 200.031 71.2223C199.914 71.1047 199.848 70.9451 199.848 70.7787C199.848 70.6124 199.914 70.4528 200.031 70.3352C200.149 70.2175 200.309 70.1514 200.475 70.1514H222.154C222.32 70.1514 222.48 70.2175 222.598 70.3352C222.715 70.4528 222.781 70.6124 222.781 70.7787C222.781 70.9451 222.715 71.1047 222.598 71.2223C222.48 71.3399 222.32 71.406 222.154 71.406ZM193.499 74.4195H177.039C176.541 74.419 176.062 74.2206 175.709 73.8678C175.357 73.515 175.158 73.0366 175.158 72.5376V57.5831C175.158 57.0842 175.357 56.6058 175.709 56.253C176.062 55.9002 176.541 55.7017 177.039 55.7012H193.499C193.998 55.7017 194.477 55.9002 194.83 56.253C195.182 56.6058 195.381 57.0842 195.381 57.5831V72.5376C195.381 73.0366 195.182 73.515 194.83 73.8678C194.477 74.2206 193.998 74.419 193.499 74.4195ZM177.039 56.9558C176.873 56.956 176.714 57.0221 176.596 57.1397C176.478 57.2573 176.412 57.4168 176.412 57.5831V72.5376C176.412 72.704 176.478 72.8634 176.596 72.981C176.714 73.0986 176.873 73.1648 177.039 73.1649H193.499C193.666 73.1648 193.825 73.0986 193.943 72.981C194.06 72.8634 194.127 72.704 194.127 72.5376V57.5831C194.127 57.4168 194.06 57.2573 193.943 57.1397C193.825 57.0221 193.666 56.956 193.499 56.9558H177.039Z" fill="#334155"/>
<path d="M197.188 68.5483H158.597C158.264 68.5483 157.945 68.6805 157.71 68.9158C157.474 69.1511 157.342 69.4702 157.342 69.8029V96.3986C157.342 96.7314 157.474 97.0505 157.71 97.2858C157.945 97.521 158.264 97.6532 158.597 97.6532H166.413L170.6 104.319C170.658 104.411 170.739 104.487 170.835 104.538C170.931 104.589 171.039 104.615 171.148 104.612C171.256 104.609 171.363 104.578 171.456 104.522C171.549 104.465 171.626 104.386 171.679 104.291L175.385 97.6532H197.188C197.52 97.6532 197.839 97.521 198.075 97.2858C198.31 97.0505 198.442 96.7314 198.442 96.3986V69.8029C198.442 69.4702 198.31 69.1511 198.075 68.9158C197.839 68.6805 197.52 68.5483 197.188 68.5483Z" fill="#05AE82"/>
<path d="M188.733 78.2131H167.054C166.888 78.2131 166.728 78.147 166.61 78.0293C166.493 77.9117 166.427 77.7522 166.427 77.5858C166.427 77.4194 166.493 77.2599 166.61 77.1422C166.728 77.0246 166.888 76.9585 167.054 76.9585H188.733C188.899 76.9585 189.059 77.0246 189.177 77.1422C189.294 77.2599 189.36 77.4194 189.36 77.5858C189.36 77.7522 189.294 77.9117 189.177 78.0293C189.059 78.147 188.899 78.2131 188.733 78.2131ZM188.733 83.9314H167.054C166.888 83.9314 166.728 83.8653 166.61 83.7477C166.493 83.6301 166.427 83.4705 166.427 83.3041C166.427 83.1378 166.493 82.9782 166.61 82.8606C166.728 82.7429 166.888 82.6768 167.054 82.6768H188.733C188.899 82.6768 189.059 82.7429 189.177 82.8606C189.294 82.9782 189.36 83.1378 189.36 83.3041C189.36 83.4705 189.294 83.6301 189.177 83.7477C189.059 83.8653 188.899 83.9314 188.733 83.9314ZM188.733 89.6504H167.054C166.888 89.6504 166.728 89.5843 166.61 89.4667C166.493 89.349 166.427 89.1895 166.427 89.0231C166.427 88.8567 166.493 88.6972 166.61 88.5796C166.728 88.4619 166.888 88.3958 167.054 88.3958H188.733C188.899 88.3958 189.059 88.4619 189.177 88.5796C189.294 88.6972 189.36 88.8567 189.36 89.0231C189.36 89.1895 189.294 89.349 189.177 89.4667C189.059 89.5843 188.899 89.6504 188.733 89.6504Z" fill="#334155"/>
<path d="M0 155.741H35.214V159.758H0V155.741Z" fill="#FEBF06"/>
<path d="M222.157 110.375H257.371V114.392H222.157V110.375Z" fill="#907AF1"/>
<path d="M35.5986 34.7517H70.8127V38.7689H35.5986V34.7517Z" fill="#DB7E24"/>
<path d="M188.733 23.9365C188.164 23.9365 187.607 23.7676 187.133 23.4511C186.659 23.1346 186.29 22.6847 186.072 22.1584C185.854 21.632 185.797 21.0528 185.908 20.4941C186.019 19.9353 186.294 19.4221 186.697 19.0192C187.099 18.6164 187.613 18.342 188.171 18.2309C188.73 18.1197 189.309 18.1768 189.836 18.3948C190.362 18.6128 190.812 18.982 191.129 19.4557C191.445 19.9294 191.614 20.4863 191.614 21.056C191.613 21.8197 191.309 22.5519 190.769 23.092C190.229 23.632 189.497 23.9357 188.733 23.9365ZM188.733 18.8028C188.288 18.8028 187.852 18.935 187.482 19.1826C187.111 19.4301 186.822 19.7821 186.652 20.1938C186.481 20.6055 186.437 21.0585 186.524 21.4956C186.61 21.9327 186.825 22.3342 187.14 22.6493C187.455 22.9644 187.857 23.179 188.294 23.266C188.731 23.3529 189.184 23.3083 189.596 23.1377C190.007 22.9672 190.359 22.6784 190.607 22.3079C190.855 21.9373 190.987 21.5017 190.987 21.056C190.986 20.4587 190.748 19.8861 190.326 19.4637C189.903 19.0413 189.331 18.8037 188.733 18.8028ZM110.493 103.783C109.924 103.783 109.367 103.614 108.893 103.297C108.419 102.98 108.05 102.531 107.832 102.004C107.614 101.478 107.557 100.899 107.669 100.34C107.78 99.7814 108.054 99.2682 108.457 98.8654C108.86 98.4626 109.373 98.1882 109.932 98.0771C110.49 97.9659 111.07 98.0229 111.596 98.2408C112.122 98.4588 112.572 98.8279 112.889 99.3015C113.205 99.7751 113.374 100.332 113.374 100.902C113.373 101.665 113.07 102.398 112.53 102.938C111.989 103.478 111.257 103.782 110.493 103.783ZM110.493 98.649C110.048 98.6491 109.612 98.7814 109.241 99.0291C108.871 99.2767 108.582 99.6287 108.412 100.041C108.241 100.452 108.197 100.905 108.284 101.342C108.371 101.779 108.586 102.181 108.901 102.496C109.216 102.811 109.618 103.025 110.055 103.112C110.492 103.199 110.945 103.154 111.357 102.984C111.768 102.813 112.12 102.524 112.368 102.153C112.615 101.783 112.747 101.347 112.747 100.902C112.746 100.304 112.508 99.7315 112.086 99.3092C111.663 98.8869 111.091 98.6495 110.493 98.649Z" fill="#334155"/>
<path d="M242.059 93.367L237.467 92.1124L240.804 88.1479L242.059 93.367Z" fill="#DB7E24"/>
<path d="M15.124 120.386L10.5322 119.132L13.8694 115.167L15.124 120.386ZM147.915 5.21903L143.323 3.96446L146.66 0L147.915 5.21903Z" fill="#FEBF06"/>
<path d="M55.5004 53.3987L50.9087 52.1441L54.2459 48.1797L55.5004 53.3987Z" fill="#907AF1"/>
<path d="M135.975 206.534L131.383 205.279L134.72 201.315L135.975 206.534Z" fill="#05AE82"/>
</svg>
