<svg width="36" height="23" viewBox="0 0 36 23" fill="none" xmlns="http://www.w3.org/2000/svg">
<path d="M35.7188 11.5C35.7188 17.35 30.9938 22.1313 25.0875 22.1313C19.2375 22.1313 14.4563 17.35 14.4563 11.5C14.4563 5.65002 19.1813 0.868774 25.0313 0.868774C30.9938 0.868774 35.7188 5.65002 35.7188 11.5Z" fill="#FFB600"/>
<path d="M25.0875 0.868774C30.9375 0.868774 35.7188 5.65002 35.7188 11.5C35.7188 17.35 30.9938 22.1313 25.0875 22.1313C19.2375 22.1313 14.4563 17.35 14.4563 11.5" fill="#F7981D"/>
<path d="M25.0874 0.868774C30.9374 0.868774 35.7187 5.65002 35.7187 11.5C35.7187 17.35 30.9937 22.1313 25.0874 22.1313" fill="#FF8500"/>
<path d="M10.8 0.868774C5.00625 0.925024 0.28125 5.65002 0.28125 11.5C0.28125 17.35 5.00625 22.1313 10.9125 22.1313C13.6687 22.1313 16.1437 21.0625 18.0562 19.375C18.45 19.0375 18.7875 18.6438 19.125 18.25H16.9312C16.65 17.9125 16.3687 17.5188 16.1438 17.1813H19.9125C20.1375 16.8438 20.3625 16.45 20.5312 16.0563H15.525C15.3562 15.7188 15.1875 15.325 15.075 14.9313H20.925C21.2625 13.8625 21.4875 12.7375 21.4875 11.5563C21.4875 10.7688 21.375 10.0375 21.2625 9.30627H14.7375C14.7938 8.91252 14.9062 8.57502 15.0188 8.18127H20.8687C20.7562 7.78752 20.5875 7.39377 20.4187 7.05627H15.4688C15.6375 6.66252 15.8625 6.32502 16.0875 5.93127H19.8562C19.6313 5.53752 19.35 5.14377 19.0125 4.80627H16.9312C17.2688 4.41252 17.6063 4.07502 18 3.73752C16.1438 1.99377 13.6125 0.981274 10.8562 0.981274C10.8562 0.868774 10.8563 0.868774 10.8 0.868774Z" fill="#FF5050"/>
<path d="M0.28125 11.5001C0.28125 17.3501 5.00625 22.1313 10.9125 22.1313C13.6687 22.1313 16.1437 21.0626 18.0562 19.3751C18.45 19.0376 18.7875 18.6438 19.125 18.2501H16.9312C16.65 17.9126 16.3687 17.5188 16.1438 17.1813H19.9125C20.1375 16.8438 20.3625 16.4501 20.5312 16.0563H15.525C15.3562 15.7188 15.1875 15.3251 15.075 14.9313H20.925C21.2625 13.8626 21.4875 12.7376 21.4875 11.5563C21.4875 10.7688 21.375 10.0376 21.2625 9.30632H14.7375C14.7938 8.91257 14.9062 8.57507 15.0188 8.18132H20.8687C20.7562 7.78757 20.5875 7.39382 20.4187 7.05632H15.4688C15.6375 6.66257 15.8625 6.32507 16.0875 5.93132H19.8562C19.6313 5.53757 19.35 5.14382 19.0125 4.80632H16.9312C17.2688 4.41257 17.6063 4.07507 18 3.73757C16.1438 1.99382 13.6125 0.981323 10.8562 0.981323H10.8" fill="#E52836"/>
<path d="M10.9125 22.1313C13.6688 22.1313 16.1438 21.0626 18.0563 19.3751C18.45 19.0376 18.7875 18.6438 19.125 18.2501H16.9313C16.65 17.9126 16.3688 17.5188 16.1438 17.1813H19.9125C20.1375 16.8438 20.3625 16.4501 20.5313 16.0563H15.525C15.3563 15.7188 15.1875 15.3251 15.075 14.9313H20.925C21.2625 13.8626 21.4875 12.7376 21.4875 11.5563C21.4875 10.7688 21.375 10.0376 21.2625 9.30632H14.7375C14.7938 8.91257 14.9063 8.57507 15.0188 8.18132H20.8688C20.7563 7.78757 20.5875 7.39382 20.4188 7.05632H15.4688C15.6375 6.66257 15.8625 6.32507 16.0875 5.93132H19.8563C19.6313 5.53757 19.35 5.14382 19.0125 4.80632H16.9313C17.2688 4.41257 17.6063 4.07507 18 3.73757C16.1438 1.99382 13.6125 0.981323 10.8563 0.981323H10.8" fill="#CB2026"/>
<path d="M14.6812 14.2L14.85 13.2438C14.7937 13.2438 14.6812 13.3 14.5687 13.3C14.175 13.3 14.1187 13.075 14.175 12.9625L14.5125 10.9938H15.1312L15.3 9.92502H14.7375L14.85 9.25002H13.725C13.725 9.25002 13.05 12.9625 13.05 13.4125C13.05 14.0875 13.4437 14.3688 13.95 14.3688C14.2875 14.3688 14.5687 14.2563 14.6812 14.2ZM15.075 12.4C15.075 13.975 16.1437 14.3688 17.0437 14.3688C17.8875 14.3688 18.225 14.2 18.225 14.2L18.45 13.1313C18.45 13.1313 17.8312 13.4125 17.2687 13.4125C16.0312 13.4125 16.2562 12.5125 16.2562 12.5125H18.5625C18.5625 12.5125 18.7312 11.7813 18.7312 11.5C18.7312 10.7688 18.3375 9.86877 17.1 9.86877C15.9187 9.75627 15.075 10.9938 15.075 12.4ZM17.0437 10.7688C17.6625 10.7688 17.55 11.5 17.55 11.5563H16.3125C16.3125 11.5 16.425 10.7688 17.0437 10.7688ZM24.1875 14.2L24.4125 12.9625C24.4125 12.9625 23.85 13.2438 23.4562 13.2438C22.6687 13.2438 22.3312 12.625 22.3312 11.95C22.3312 10.6 23.0062 9.86877 23.7937 9.86877C24.3562 9.86877 24.8062 10.2063 24.8062 10.2063L24.975 9.02502C24.975 9.02502 24.3 8.74377 23.6812 8.74377C22.3875 8.74377 21.0937 9.86878 21.0937 12.0063C21.0937 13.4125 21.7687 14.3688 23.1187 14.3688C23.5687 14.3688 24.1875 14.2 24.1875 14.2ZM8.4937 9.75627C7.7062 9.75627 7.1437 9.98127 7.1437 9.98127L6.97495 10.9375C6.97495 10.9375 7.4812 10.7125 8.21245 10.7125C8.6062 10.7125 8.9437 10.7688 8.9437 11.1063C8.9437 11.3313 8.88745 11.3875 8.88745 11.3875H8.3812C7.42495 11.3875 6.3562 11.7813 6.3562 13.075C6.3562 14.0875 7.0312 14.3125 7.42495 14.3125C8.21245 14.3125 8.54995 13.8063 8.6062 13.8063L8.54995 14.2563H9.56245L10.0125 11.1625C10.0125 9.81252 8.88745 9.75627 8.4937 9.75627ZM8.7187 12.2875C8.7187 12.4563 8.6062 13.3563 7.9312 13.3563C7.5937 13.3563 7.4812 13.075 7.4812 12.9063C7.4812 12.625 7.64995 12.2313 8.4937 12.2313C8.66245 12.2875 8.7187 12.2875 8.7187 12.2875ZM11.0812 14.3125C11.3625 14.3125 12.7687 14.3688 12.7687 12.85C12.7687 11.4438 11.4187 11.725 11.4187 11.1625C11.4187 10.8813 11.6437 10.7688 12.0375 10.7688C12.2062 10.7688 12.825 10.825 12.825 10.825L12.9937 9.81252C12.9937 9.81252 12.6 9.70002 11.925 9.70002C11.0812 9.70002 10.2375 10.0375 10.2375 11.1625C10.2375 12.4563 11.6437 12.3438 11.6437 12.85C11.6437 13.1875 11.25 13.2438 10.9687 13.2438C10.4625 13.2438 9.9562 13.075 9.9562 13.075L9.78745 14.0875C9.8437 14.2 10.125 14.3125 11.0812 14.3125ZM33.525 8.85627L33.3 10.375C33.3 10.375 32.85 9.81252 32.2312 9.81252C31.2187 9.81252 30.3187 11.05 30.3187 12.5125C30.3187 13.4125 30.7687 14.3688 31.725 14.3688C32.4 14.3688 32.7937 13.9188 32.7937 13.9188L32.7375 14.3125H33.8625L34.7062 8.91252L33.525 8.85627ZM33.0187 11.8375C33.0187 12.4563 32.7375 13.2438 32.1187 13.2438C31.725 13.2438 31.5 12.9063 31.5 12.3438C31.5 11.4438 31.8937 10.8813 32.4 10.8813C32.7937 10.8813 33.0187 11.1625 33.0187 11.8375ZM2.36245 14.2563L3.03745 10.2063L3.14995 14.2563H3.93745L5.39995 10.2063L4.7812 14.2563H5.96245L6.86245 8.85627H5.0062L3.8812 12.175L3.82495 8.85627H2.1937L1.2937 14.2563H2.36245ZM19.8 14.2563C20.1375 12.4 20.1937 10.8813 20.9812 11.1625C21.0937 10.4313 21.2625 10.15 21.375 9.86877H21.15C20.6437 9.86877 20.25 10.5438 20.25 10.5438L20.3625 9.92502H19.2937L18.5625 14.3125H19.8V14.2563ZM26.775 9.75627C25.9875 9.75627 25.425 9.98127 25.425 9.98127L25.2562 10.9375C25.2562 10.9375 25.7625 10.7125 26.4937 10.7125C26.8875 10.7125 27.225 10.7688 27.225 11.1063C27.225 11.3313 27.1687 11.3875 27.1687 11.3875H26.6625C25.7062 11.3875 24.6375 11.7813 24.6375 13.075C24.6375 14.0875 25.3125 14.3125 25.7062 14.3125C26.4937 14.3125 26.8312 13.8063 26.8875 13.8063L26.8312 14.2563H27.8437L28.2937 11.1625C28.35 9.81252 27.1687 9.75627 26.775 9.75627ZM27.0562 12.2875C27.0562 12.4563 26.9437 13.3563 26.2687 13.3563C25.9312 13.3563 25.8187 13.075 25.8187 12.9063C25.8187 12.625 25.9875 12.2313 26.8312 12.2313C27 12.2875 27 12.2875 27.0562 12.2875ZM29.25 14.2563C29.5875 12.4 29.6437 10.8813 30.4312 11.1625C30.5437 10.4313 30.7125 10.15 30.825 9.86877H30.6C30.0937 9.86877 29.7 10.5438 29.7 10.5438L29.8125 9.92502H28.7437L28.0125 14.3125H29.25V14.2563Z" fill="white"/>
<path d="M12.9375 13.4125C12.9375 14.0875 13.3312 14.3688 13.8375 14.3688C14.2312 14.3688 14.5687 14.2563 14.6812 14.2L14.85 13.2438C14.7937 13.2438 14.6812 13.3 14.5687 13.3C14.175 13.3 14.1187 13.075 14.175 12.9625L14.5125 10.9938H15.1312L15.3 9.92502H14.7375L14.85 9.25002M15.6375 12.4C15.6375 13.975 16.1437 14.3688 17.0437 14.3688C17.8875 14.3688 18.225 14.2 18.225 14.2L18.45 13.1313C18.45 13.1313 17.8312 13.4125 17.2687 13.4125C16.0312 13.4125 16.2562 12.5125 16.2562 12.5125H18.5625C18.5625 12.5125 18.7312 11.7813 18.7312 11.5C18.7312 10.7688 18.3375 9.86877 17.1 9.86877C15.9187 9.75627 15.6375 10.9938 15.6375 12.4ZM17.0437 10.7688C17.6625 10.7688 17.775 11.5 17.775 11.5563H16.3125C16.3125 11.5 16.425 10.7688 17.0437 10.7688ZM24.1875 14.2L24.4125 12.9625C24.4125 12.9625 23.85 13.2438 23.4562 13.2438C22.6687 13.2438 22.3312 12.625 22.3312 11.95C22.3312 10.6 23.0062 9.86877 23.7937 9.86877C24.3562 9.86877 24.8062 10.2063 24.8062 10.2063L24.975 9.02502C24.975 9.02502 24.3 8.74377 23.6812 8.74377C22.3875 8.74377 21.6562 9.86878 21.6562 12.0063C21.6562 13.4125 21.7687 14.3688 23.1187 14.3688C23.5687 14.3688 24.1875 14.2 24.1875 14.2ZM6.97495 10.9938C6.97495 10.9938 7.4812 10.7688 8.21245 10.7688C8.6062 10.7688 8.9437 10.825 8.9437 11.1625C8.9437 11.3875 8.88745 11.4438 8.88745 11.4438H8.3812C7.42495 11.4438 6.3562 11.8375 6.3562 13.1313C6.3562 14.1438 7.0312 14.3688 7.42495 14.3688C8.21245 14.3688 8.54995 13.8625 8.6062 13.8625L8.54995 14.3125H9.56245L10.0125 11.2188C10.0125 9.92502 8.88745 9.86877 8.43745 9.86877M9.2812 12.2875C9.2812 12.4563 8.6062 13.3563 7.9312 13.3563C7.5937 13.3563 7.4812 13.075 7.4812 12.9063C7.4812 12.625 7.64995 12.2313 8.4937 12.2313C8.66245 12.2875 9.2812 12.2875 9.2812 12.2875ZM9.8437 14.2C9.8437 14.2 10.1812 14.3125 11.1375 14.3125C11.4187 14.3125 12.825 14.3688 12.825 12.85C12.825 11.4438 11.475 11.725 11.475 11.1625C11.475 10.8813 11.7 10.7688 12.0937 10.7688C12.2625 10.7688 12.8812 10.825 12.8812 10.825L13.05 9.81252C13.05 9.81252 12.6562 9.70002 11.9812 9.70002C11.1375 9.70002 10.8562 10.0375 10.8562 11.1625C10.8562 12.4563 11.7 12.3438 11.7 12.85C11.7 13.1875 11.3062 13.2438 11.025 13.2438M33.3 10.375C33.3 10.375 32.85 9.81252 32.2312 9.81252C31.2187 9.81252 30.8812 11.05 30.8812 12.5125C30.8812 13.4125 30.7687 14.3688 31.725 14.3688C32.4 14.3688 32.7937 13.9188 32.7937 13.9188L32.7375 14.3125H33.8625L34.7062 8.91252M33.2437 11.8375C33.2437 12.4563 32.7375 13.2438 32.1187 13.2438C31.725 13.2438 31.5 12.9063 31.5 12.3438C31.5 11.4438 31.8937 10.8813 32.4 10.8813C32.7937 10.8813 33.2437 11.1625 33.2437 11.8375ZM2.36245 14.2563L3.03745 10.2063L3.14995 14.2563H3.93745L5.39995 10.2063L4.7812 14.2563H5.96245L6.86245 8.85627H5.4562L3.8812 12.175L3.82495 8.85627H3.2062L1.2937 14.2563H2.36245ZM18.6187 14.2563H19.8C20.1375 12.4 20.1937 10.8813 20.9812 11.1625C21.0937 10.4313 21.2625 10.15 21.375 9.86877H21.15C20.6437 9.86877 20.25 10.5438 20.25 10.5438L20.3625 9.92502M25.2562 10.9938C25.2562 10.9938 25.7625 10.7688 26.4937 10.7688C26.8875 10.7688 27.225 10.825 27.225 11.1625C27.225 11.3875 27.1687 11.4438 27.1687 11.4438H26.6625C25.7062 11.4438 24.6375 11.8375 24.6375 13.1313C24.6375 14.1438 25.3125 14.3688 25.7062 14.3688C26.4937 14.3688 26.8312 13.8625 26.8875 13.8625L26.8312 14.3125H27.8437L28.2937 11.2188C28.2937 9.92502 27.1687 9.86877 26.7187 9.86877M27.5625 12.2875C27.5625 12.4563 26.8875 13.3563 26.2125 13.3563C25.875 13.3563 25.7625 13.075 25.7625 12.9063C25.7625 12.625 25.9312 12.2313 26.775 12.2313C27 12.2875 27.5625 12.2875 27.5625 12.2875ZM28.0687 14.2563H29.25C29.5875 12.4 29.6437 10.8813 30.4312 11.1625C30.5437 10.4313 30.7125 10.15 30.825 9.86877H30.6C30.0937 9.86877 29.7 10.5438 29.7 10.5438L29.8125 9.92502" fill="#DCE5E5"/>
</svg>
