<svg width="26" height="31" viewBox="0 0 26 31" fill="none" xmlns="http://www.w3.org/2000/svg">
<path d="M21.896 2.7625C20.5073 1.17875 17.996 0.5 14.7835 0.5H5.4598C4.80355 0.5 4.24355 0.9775 4.14105 1.62625L0.261047 26.2475C0.242965 26.3618 0.249896 26.4786 0.28136 26.59C0.312824 26.7014 0.368072 26.8046 0.443294 26.8925C0.518515 26.9805 0.611918 27.051 0.71706 27.0994C0.822201 27.1477 0.936577 27.1726 1.0523 27.1725H6.80855L8.25354 18.0037L8.20854 18.2912C8.30979 17.6437 8.86729 17.1662 9.52229 17.165H12.2573C17.631 17.165 21.8373 14.9825 23.066 8.66875C23.1023 8.4825 23.1335 8.3 23.161 8.1225C23.526 5.78875 23.1585 4.20125 21.896 2.7625Z" fill="#003087"/>
<path d="M21.896 2.7625C20.5073 1.17875 17.996 0.5 14.7835 0.5H5.4598C4.80355 0.5 4.24355 0.9775 4.14105 1.62625L0.261047 26.2475C0.242965 26.3618 0.249896 26.4786 0.28136 26.59C0.312824 26.7014 0.368072 26.8046 0.443294 26.8925C0.518515 26.9805 0.611918 27.051 0.71706 27.0994C0.822201 27.1477 0.936577 27.1726 1.0523 27.1725H6.80855L8.25354 18.0037L8.20854 18.2912C8.30979 17.6437 8.86729 17.1662 9.52229 17.165H12.2573C17.631 17.165 21.8373 14.9825 23.066 8.66875C23.1023 8.4825 23.1335 8.3 23.161 8.1225C23.526 5.78875 23.1585 4.20125 21.896 2.7625Z" fill="#003087"/>
<path d="M9.80482 8.15375C9.84826 7.87927 9.98819 7.62928 10.1994 7.44873C10.4107 7.26818 10.6794 7.1689 10.9573 7.16875H18.2661C19.1311 7.16875 19.9386 7.225 20.6773 7.3425C21.0807 7.40717 21.4798 7.4965 21.8723 7.61C22.3186 7.735 22.7498 7.9075 23.1598 8.1225C23.5261 5.78875 23.1586 4.20125 21.8961 2.76125C20.5061 1.17875 17.9961 0.5 14.7836 0.5H5.45982C4.80358 0.5 4.24483 0.9775 4.14233 1.62625L0.259826 26.2462C0.241761 26.3604 0.248663 26.4772 0.280054 26.5885C0.311446 26.6997 0.366583 26.8029 0.441667 26.8908C0.516751 26.9787 0.609999 27.0493 0.714988 27.0977C0.819976 27.1461 0.934211 27.1712 1.04983 27.1712H6.80607L8.25107 18.0012L9.80482 8.15375Z" fill="#003087"/>
<path d="M23.1612 8.12256C23.1324 8.30506 23.1012 8.48756 23.0662 8.66881C21.8374 14.9813 17.6299 17.1651 12.2574 17.1651H9.51992C8.86492 17.1651 8.30742 17.6438 8.20742 18.2913L6.80618 27.1726L6.40742 29.6913C6.3917 29.7913 6.39785 29.8935 6.42543 29.9909C6.45302 30.0882 6.50139 30.1785 6.56721 30.2553C6.63304 30.3322 6.71475 30.3939 6.80672 30.4361C6.89868 30.4784 6.99872 30.5002 7.09992 30.5001H11.9524C12.5262 30.5001 13.0149 30.0813 13.1049 29.5151L13.1524 29.2676L14.0674 23.4726L14.1249 23.1526C14.1684 22.8779 14.3085 22.6277 14.52 22.4471C14.7315 22.2666 15.0006 22.1674 15.2787 22.1676H16.0049C20.7049 22.1676 24.3849 20.2588 25.4612 14.7351C25.9087 12.4276 25.6774 10.5001 24.4899 9.14756C24.1131 8.72787 23.6628 8.38051 23.1612 8.12256Z" fill="#009CDE"/>
<path d="M21.8735 7.60997C21.682 7.55377 21.4885 7.50415 21.2936 7.46122C21.0893 7.41651 20.8838 7.37774 20.6773 7.34497C19.8795 7.22191 19.0732 7.16297 18.2661 7.16872H10.9573C10.679 7.16815 10.4097 7.26733 10.1983 7.44827C9.98685 7.62921 9.84725 7.87993 9.8048 8.15497L8.25105 18.005L8.20605 18.2912C8.30605 17.6437 8.86355 17.1662 9.51855 17.165H12.2548C17.6286 17.165 21.8348 14.9825 23.0636 8.66872C23.0998 8.48247 23.1311 8.30122 23.1586 8.12247C22.8336 7.95247 22.4961 7.80997 22.1473 7.69622C22.0569 7.66487 21.9656 7.63611 21.8735 7.60997Z" fill="#012169"/>
</svg>
