<svg width="34" height="11" viewBox="0 0 34 11" fill="none" xmlns="http://www.w3.org/2000/svg">
<path d="M14.8058 10.7775H12.1131L13.796 0.434809H16.489L14.8058 10.7775ZM9.84779 0.434809L7.28066 7.54857L6.97689 6.0167L6.97716 6.01725L6.0711 1.36605C6.0711 1.36605 5.96154 0.434809 4.79376 0.434809H0.549799L0.5 0.609934C0.5 0.609934 1.79781 0.879954 3.31667 1.7921L5.65611 10.7777H8.46172L12.7458 0.434809H9.84779ZM31.0275 10.7775H33.5L31.3443 0.434532H29.1797C28.1801 0.434532 27.9366 1.20531 27.9366 1.20531L23.9206 10.7775H26.7276L27.289 9.24117H30.7121L31.0275 10.7775ZM28.0645 7.11891L29.4793 3.24844L30.2753 7.11891H28.0645ZM24.1312 2.92198L24.5155 0.700955C24.5155 0.700955 23.3297 0.25 22.0936 0.25C20.7573 0.25 17.584 0.834029 17.584 3.67394C17.584 6.34593 21.3084 6.37913 21.3084 7.78262C21.3084 9.18612 17.9678 8.93463 16.8653 8.0496L16.4649 10.3719C16.4649 10.3719 17.6673 10.9559 19.5043 10.9559C21.3419 10.9559 24.114 10.0045 24.114 7.41494C24.114 4.7258 20.3562 4.47543 20.3562 3.30626C20.3564 2.13682 22.9789 2.28705 24.1312 2.92198Z" fill="#2566AF"/>
<path d="M6.97716 6.01701L6.0711 1.36581C6.0711 1.36581 5.96154 0.43457 4.79376 0.43457H0.549799L0.5 0.609696C0.5 0.609696 2.53981 1.03243 4.49635 2.61631C6.36713 4.13019 6.97716 6.01701 6.97716 6.01701Z" fill="#E6A540"/>
</svg>
