<svg width="259" height="257" viewBox="0 0 259 257" fill="none" xmlns="http://www.w3.org/2000/svg">
<path d="M235.945 252.686C234.141 252.686 232.377 252.151 230.876 251.148C229.376 250.146 228.206 248.721 227.516 247.053C226.825 245.386 226.644 243.552 226.997 241.782C227.349 240.012 228.218 238.386 229.494 237.11C230.77 235.834 232.395 234.965 234.165 234.613C235.935 234.261 237.77 234.442 239.437 235.132C241.104 235.823 242.529 236.992 243.531 238.493C244.534 239.993 245.069 241.757 245.069 243.562C245.066 245.981 244.104 248.3 242.394 250.01C240.683 251.721 238.364 252.683 235.945 252.686ZM235.945 235.567C234.363 235.567 232.817 236.036 231.501 236.915C230.186 237.794 229.161 239.043 228.556 240.505C227.951 241.966 227.792 243.574 228.101 245.126C228.41 246.677 229.172 248.103 230.291 249.221C231.41 250.339 232.835 251.101 234.387 251.409C235.938 251.717 237.546 251.559 239.008 250.953C240.469 250.347 241.718 249.322 242.597 248.006C243.475 246.69 243.944 245.144 243.943 243.562C243.939 241.443 243.094 239.412 241.595 237.914C240.096 236.417 238.064 235.575 235.945 235.572V235.567ZM17.1671 256.63C17.0561 256.629 16.9477 256.596 16.8555 256.534C16.7634 256.472 16.6916 256.385 16.6492 256.282C16.6067 256.179 16.5956 256.067 16.6171 255.958C16.6387 255.849 16.6919 255.749 16.7702 255.67L31.592 240.848C31.699 240.751 31.8392 240.698 31.9837 240.702C32.1282 240.705 32.2659 240.764 32.3683 240.866C32.4706 240.968 32.5299 241.105 32.5337 241.25C32.5375 241.394 32.4856 241.535 32.3887 241.642L17.5669 256.467C17.5143 256.519 17.4519 256.56 17.3833 256.588C17.3147 256.616 17.2412 256.63 17.1671 256.63Z" fill="#FEBF06"/>
<path d="M31.9809 256.63C31.9068 256.63 31.8333 256.616 31.7647 256.588C31.6961 256.56 31.6337 256.519 31.5811 256.467L16.779 241.642C16.7225 241.591 16.6771 241.528 16.6455 241.459C16.6138 241.389 16.5966 241.314 16.5949 241.238C16.5931 241.162 16.6069 241.086 16.6353 241.015C16.6638 240.945 16.7063 240.88 16.7603 240.826C16.8144 240.773 16.8788 240.73 16.9496 240.702C17.0205 240.674 17.0964 240.66 17.1726 240.662C17.2488 240.664 17.3239 240.682 17.3932 240.714C17.4625 240.746 17.5245 240.791 17.5757 240.848L32.3975 255.67C32.4771 255.75 32.5308 255.852 32.5517 255.962C32.5727 256.073 32.5599 256.188 32.515 256.291C32.4701 256.395 32.3952 256.482 32.2999 256.543C32.2047 256.603 32.0936 256.633 31.9809 256.63ZM146.581 18.7846H126.191C126.092 18.7845 125.995 18.7584 125.909 18.709C125.824 18.6595 125.753 18.5884 125.703 18.5029C125.654 18.4173 125.628 18.3202 125.628 18.2214C125.628 18.1227 125.654 18.0256 125.703 17.9401L135.9 0.280518C135.95 0.195197 136.021 0.124374 136.106 0.0751431C136.192 0.0259117 136.288 0 136.387 0C136.486 0 136.583 0.0259117 136.668 0.0751431C136.754 0.124374 136.825 0.195197 136.874 0.280518L147.071 17.9401C147.12 18.0258 147.146 18.1231 147.146 18.2222C147.146 18.3212 147.12 18.4184 147.07 18.5041C147.02 18.5897 146.949 18.6608 146.863 18.71C146.777 18.7593 146.68 18.785 146.581 18.7846ZM127.156 17.6586H145.595L136.387 1.6881L127.156 17.6586Z" fill="#FEBF06"/>
<path d="M209.936 29.8567C209.853 29.8578 209.772 29.8408 209.697 29.8069C209.621 29.773 209.555 29.723 209.501 29.6604C209.447 29.5978 209.408 29.5242 209.386 29.4448C209.364 29.3654 209.359 29.282 209.373 29.2007L212.151 12.6391C212.176 12.4898 212.259 12.3563 212.382 12.2682C212.505 12.18 212.658 12.1443 212.807 12.169C212.957 12.1936 213.09 12.2765 213.178 12.3996C213.266 12.5226 213.302 12.6756 213.278 12.8249L210.493 29.3865C210.471 29.5183 210.403 29.6379 210.301 29.724C210.199 29.8101 210.069 29.8572 209.936 29.8567ZM220.808 34.8198C220.702 34.8195 220.597 34.789 220.507 34.7318C220.417 34.6746 220.346 34.5931 220.3 34.4967C220.255 34.4002 220.238 34.2929 220.251 34.1872C220.264 34.0814 220.307 33.9816 220.375 33.8992L231.072 20.9495C231.119 20.8903 231.176 20.841 231.242 20.8046C231.308 20.7681 231.38 20.7452 231.455 20.7372C231.53 20.7291 231.605 20.7362 231.677 20.7578C231.749 20.7795 231.816 20.8153 231.874 20.8633C231.932 20.9112 231.98 20.9703 232.015 21.037C232.049 21.1037 232.07 21.1767 232.076 21.2516C232.082 21.3265 232.073 21.4019 232.05 21.4733C232.026 21.5447 231.989 21.6107 231.939 21.6673L221.242 34.6171C221.189 34.6807 221.122 34.7318 221.047 34.7668C220.973 34.8018 220.891 34.8199 220.808 34.8198ZM225.996 45.2078C225.864 45.209 225.735 45.1631 225.632 45.0784C225.53 44.9937 225.461 44.8755 225.437 44.7447C225.414 44.614 225.437 44.4791 225.503 44.364C225.57 44.2488 225.674 44.1608 225.799 44.1155L243.282 37.5927C243.351 37.5655 243.426 37.5523 243.5 37.5541C243.575 37.5559 243.649 37.5726 243.717 37.6032C243.785 37.6338 243.847 37.6777 243.898 37.7323C243.949 37.7869 243.989 37.8512 244.015 37.9213C244.041 37.9915 244.053 38.0661 244.049 38.1408C244.046 38.2156 244.028 38.2889 243.996 38.3566C243.965 38.4243 243.92 38.485 243.864 38.5351C243.808 38.5852 243.743 38.6237 243.673 38.6484C224.952 45.6357 226.151 45.2078 225.996 45.2078ZM205.541 142.475C205.409 142.477 205.281 142.433 205.178 142.35C205.075 142.267 205.004 142.151 204.978 142.021L201.654 125.477C201.628 125.332 201.66 125.183 201.743 125.062C201.826 124.94 201.953 124.856 202.097 124.827C202.241 124.798 202.391 124.826 202.514 124.906C202.637 124.986 202.725 125.111 202.757 125.254L205.983 141.264L256.98 131.017L249.562 94.0735L198.563 104.321L201.302 117.946C201.318 118.019 201.32 118.095 201.307 118.169C201.294 118.243 201.266 118.314 201.225 118.377C201.185 118.44 201.132 118.494 201.07 118.536C201.007 118.578 200.938 118.608 200.864 118.623C200.79 118.638 200.714 118.637 200.641 118.623C200.567 118.608 200.497 118.578 200.435 118.536C200.373 118.494 200.32 118.439 200.28 118.376C200.239 118.313 200.211 118.242 200.198 118.169L197.349 103.991C197.334 103.919 197.334 103.844 197.348 103.772C197.362 103.699 197.39 103.63 197.431 103.568C197.472 103.506 197.525 103.453 197.586 103.412C197.647 103.371 197.716 103.342 197.788 103.327L249.892 92.8601C249.964 92.8453 250.039 92.845 250.111 92.859C250.184 92.8731 250.253 92.9013 250.315 92.9421C250.376 92.9829 250.43 93.0354 250.471 93.0967C250.512 93.158 250.541 93.2268 250.556 93.2993L258.196 131.332C258.225 131.479 258.195 131.63 258.112 131.754C258.029 131.879 257.901 131.965 257.754 131.994C203.23 142.953 205.629 142.475 205.541 142.475Z" fill="#FEBF06"/>
<path d="M223.13 122.805L197.574 104.338C197.46 104.248 197.385 104.117 197.365 103.973C197.345 103.829 197.381 103.683 197.466 103.565C197.551 103.448 197.678 103.367 197.821 103.341C197.964 103.315 198.112 103.345 198.233 103.425L223.789 121.893C224.511 122.414 225.332 122.78 226.201 122.969C227.071 123.158 227.97 123.164 228.843 122.989C229.715 122.813 230.542 122.459 231.271 121.949C232 121.439 232.616 120.783 233.079 120.024L249.523 93.1248C249.559 93.0575 249.609 92.9983 249.668 92.9508C249.728 92.9032 249.797 92.8684 249.871 92.8485C249.945 92.8285 250.022 92.8237 250.098 92.8345C250.174 92.8453 250.246 92.8714 250.311 92.9113C250.377 92.9511 250.433 93.0038 250.478 93.0661C250.522 93.1285 250.553 93.1992 250.569 93.274C250.585 93.3488 250.585 93.426 250.571 93.5011C250.556 93.5761 250.526 93.6473 250.483 93.7103L234.045 120.618C233.498 121.507 232.773 122.275 231.916 122.872C231.059 123.469 230.088 123.883 229.064 124.089C228.04 124.294 226.984 124.286 225.964 124.065C224.943 123.844 223.978 123.415 223.13 122.805Z" fill="#FEBF06"/>
<path d="M257.642 132.005C257.523 132.004 257.409 131.966 257.312 131.898L235.894 116.415C235.773 116.327 235.691 116.195 235.667 116.048C235.643 115.9 235.679 115.749 235.766 115.628C235.854 115.507 235.986 115.425 236.133 115.401C236.281 115.377 236.432 115.412 236.553 115.5L257.974 130.983C258.072 131.053 258.145 131.152 258.182 131.265C258.22 131.379 258.22 131.502 258.183 131.616C258.146 131.73 258.073 131.829 257.976 131.899C257.879 131.969 257.761 132.006 257.642 132.005ZM205.538 142.475C205.44 142.473 205.344 142.446 205.26 142.396C205.176 142.346 205.106 142.275 205.058 142.189C205.009 142.104 204.984 142.008 204.984 141.909C204.985 141.811 205.011 141.715 205.06 141.63L218.837 119.081C218.916 118.956 219.042 118.867 219.186 118.834C219.33 118.8 219.481 118.825 219.607 118.902C219.733 118.979 219.824 119.103 219.859 119.247C219.895 119.39 219.873 119.542 219.797 119.669L206.02 142.219C205.968 142.299 205.896 142.364 205.812 142.409C205.728 142.454 205.634 142.476 205.538 142.475Z" fill="#FEBF06"/>
<path d="M172.789 242.247C172.64 242.247 172.497 242.188 172.391 242.082C172.286 241.977 172.226 241.833 172.226 241.684C172.226 241.535 172.286 241.392 172.391 241.286C172.497 241.18 172.64 241.121 172.789 241.121C176.596 241.117 180.245 239.602 182.937 236.911C185.628 234.219 187.142 230.57 187.147 226.764V56.1644C187.15 53.0792 188.074 50.0651 189.799 47.5075C191.525 44.95 193.974 42.9652 196.834 41.8071H163.001C162.852 41.8071 162.708 41.7477 162.603 41.6422C162.497 41.5366 162.438 41.3934 162.438 41.244C162.438 41.0947 162.497 40.9515 162.603 40.8459C162.708 40.7403 162.852 40.681 163.001 40.681H202.63C202.779 40.681 202.923 40.7403 203.028 40.8459C203.134 40.9515 203.193 41.0947 203.193 41.244C203.193 41.3934 203.134 41.5366 203.028 41.6422C202.923 41.7477 202.779 41.8071 202.63 41.8071C198.824 41.8115 195.174 43.3256 192.483 46.0172C189.791 48.7087 188.277 52.358 188.273 56.1644V226.764C188.268 230.869 186.636 234.804 183.733 237.707C180.83 240.61 176.894 242.243 172.789 242.247ZM71.1617 213.814C71.0123 213.814 70.8691 213.755 70.7635 213.649C70.658 213.543 70.5986 213.4 70.5986 213.251V56.1644C70.6031 52.0593 72.2358 48.1237 75.1386 45.2209C78.0413 42.3182 81.977 40.6855 86.0821 40.681H145.431C145.581 40.681 145.724 40.7403 145.83 40.8459C145.935 40.9515 145.994 41.0947 145.994 41.244C145.994 41.3934 145.935 41.5366 145.83 41.6422C145.724 41.7477 145.581 41.8071 145.431 41.8071H86.0821C82.2756 41.8115 78.6264 43.3256 75.9348 46.0172C73.2433 48.7087 71.7292 52.358 71.7247 56.1644V213.251C71.7247 213.4 71.6654 213.543 71.5598 213.649C71.4542 213.755 71.311 213.814 71.1617 213.814Z" fill="#6950E8"/>
<path d="M217.551 81.5009H187.711C187.561 81.5009 187.418 81.4416 187.313 81.336C187.207 81.2304 187.148 81.0872 187.148 80.9379V56.1644C187.148 52.058 188.779 48.1197 191.683 45.216C194.586 42.3123 198.525 40.681 202.631 40.681C206.737 40.681 210.676 42.3123 213.579 45.216C216.483 48.1197 218.114 52.058 218.114 56.1644V80.9379C218.114 81.0872 218.055 81.2304 217.95 81.336C217.844 81.4416 217.701 81.5009 217.551 81.5009ZM188.274 80.3749H216.988V56.1644C216.988 52.3566 215.476 48.7048 212.783 46.0122C210.091 43.3197 206.439 41.8071 202.631 41.8071C198.823 41.8071 195.171 43.3197 192.479 46.0122C189.786 48.7048 188.274 52.3566 188.274 56.1644V80.3749ZM172.79 242.247H56.2422C52.1371 242.243 48.2015 240.61 45.2987 237.707C42.396 234.804 40.7633 230.869 40.7588 226.764V221.696C40.7588 221.547 40.8181 221.404 40.9237 221.298C41.0293 221.193 41.1725 221.133 41.3218 221.133H157.87C158.019 221.133 158.162 221.193 158.268 221.298C158.374 221.404 158.433 221.547 158.433 221.696V226.764C158.437 230.57 159.951 234.219 162.643 236.911C165.335 239.602 168.984 241.117 172.79 241.121C172.94 241.121 173.083 241.18 173.188 241.286C173.294 241.392 173.353 241.535 173.353 241.684C173.353 241.833 173.294 241.977 173.188 242.082C173.083 242.188 172.94 242.247 172.79 242.247ZM41.8849 222.259V226.764C41.8893 230.57 43.4034 234.219 46.095 236.911C48.7865 239.602 52.4358 241.117 56.2422 241.121H166.994C164.134 239.963 161.685 237.978 159.959 235.421C158.234 232.863 157.31 229.849 157.307 226.764V222.259H41.8849Z" fill="#6950E8"/>
<path d="M202.63 41.244C204.59 41.244 206.53 41.63 208.34 42.3798C210.151 43.1296 211.795 44.2286 213.181 45.6141C214.566 46.9996 215.665 48.6444 216.415 50.4546C217.165 52.2649 217.551 54.2051 217.551 56.1644V80.9379H187.71V56.1644C187.71 52.2073 189.282 48.4122 192.08 45.6141C194.878 42.816 198.673 41.244 202.63 41.244ZM172.79 241.684C168.833 241.684 165.038 240.112 162.239 237.314C159.441 234.516 157.869 230.721 157.869 226.764V221.696H41.3213V226.764C41.3213 230.721 42.8933 234.516 45.6914 237.314C48.4895 240.112 52.2846 241.684 56.2417 241.684H172.79Z" fill="#6950E8"/>
<path d="M159.699 107.285H107.455C107.305 107.285 107.162 107.226 107.057 107.12C106.951 107.015 106.892 106.871 106.892 106.722C106.892 106.573 106.951 106.43 107.057 106.324C107.162 106.218 107.305 106.159 107.455 106.159H159.699C159.848 106.159 159.991 106.218 160.097 106.324C160.202 106.43 160.262 106.573 160.262 106.722C160.262 106.871 160.202 107.015 160.097 107.12C159.991 107.226 159.848 107.285 159.699 107.285ZM145.64 113.143H107.455C107.305 113.143 107.162 113.084 107.057 112.979C106.951 112.873 106.892 112.73 106.892 112.58C106.892 112.431 106.951 112.288 107.057 112.182C107.162 112.077 107.305 112.017 107.455 112.017H145.64C145.789 112.017 145.932 112.077 146.038 112.182C146.143 112.288 146.203 112.431 146.203 112.58C146.203 112.73 146.143 112.873 146.038 112.979C145.932 113.084 145.789 113.143 145.64 113.143Z" fill="#FEBF06"/>
<path d="M94.432 115.41C97.4109 115.41 99.8258 112.995 99.8258 110.016C99.8258 107.037 97.4109 104.622 94.432 104.622C91.453 104.622 89.0381 107.037 89.0381 110.016C89.0381 112.995 91.453 115.41 94.432 115.41Z" fill="#FEBF06"/>
<path d="M164.44 132.419C167.419 132.419 169.834 130.004 169.834 127.025C169.834 124.046 167.419 121.631 164.44 121.631C161.461 121.631 159.046 124.046 159.046 127.025C159.046 130.004 161.461 132.419 164.44 132.419Z" fill="#08C7D1"/>
<path d="M150.285 124.779H100.648C100.499 124.779 100.355 124.719 100.25 124.614C100.144 124.508 100.085 124.365 100.085 124.216C100.085 124.066 100.144 123.923 100.25 123.817C100.355 123.712 100.499 123.653 100.648 123.653H150.285C150.434 123.653 150.578 123.712 150.683 123.817C150.789 123.923 150.848 124.066 150.848 124.216C150.848 124.365 150.789 124.508 150.683 124.614C150.578 124.719 150.434 124.779 150.285 124.779ZM150.285 130.395H114.13C113.981 130.395 113.837 130.336 113.732 130.23C113.626 130.124 113.567 129.981 113.567 129.832C113.567 129.682 113.626 129.539 113.732 129.434C113.837 129.328 113.981 129.269 114.13 129.269H150.285C150.434 129.269 150.578 129.328 150.683 129.434C150.789 129.539 150.848 129.682 150.848 129.832C150.848 129.981 150.789 130.124 150.683 130.23C150.578 130.336 150.434 130.395 150.285 130.395Z" fill="#08C7D1"/>
<path d="M159.699 145.571H107.455C107.305 145.571 107.162 145.512 107.057 145.407C106.951 145.301 106.892 145.158 106.892 145.008C106.892 144.859 106.951 144.716 107.057 144.61C107.162 144.505 107.305 144.445 107.455 144.445H159.699C159.848 144.445 159.991 144.505 160.097 144.61C160.202 144.716 160.262 144.859 160.262 145.008C160.262 145.158 160.202 145.301 160.097 145.407C159.991 145.512 159.848 145.571 159.699 145.571ZM145.64 151.43H107.455C107.305 151.43 107.162 151.37 107.057 151.265C106.951 151.159 106.892 151.016 106.892 150.867C106.892 150.717 106.951 150.574 107.057 150.469C107.162 150.363 107.305 150.304 107.455 150.304H145.64C145.789 150.304 145.932 150.363 146.038 150.469C146.143 150.574 146.203 150.717 146.203 150.867C146.203 151.016 146.143 151.159 146.038 151.265C145.932 151.37 145.789 151.43 145.64 151.43Z" fill="#FEBF06"/>
<path d="M94.432 153.696C97.4109 153.696 99.8258 151.281 99.8258 148.302C99.8258 145.323 97.4109 142.908 94.432 142.908C91.453 142.908 89.0381 145.323 89.0381 148.302C89.0381 151.281 91.453 153.696 94.432 153.696Z" fill="#FEBF06"/>
<path d="M164.44 170.705C167.419 170.705 169.834 168.29 169.834 165.311C169.834 162.332 167.419 159.918 164.44 159.918C161.461 159.918 159.046 162.332 159.046 165.311C159.046 168.29 161.461 170.705 164.44 170.705Z" fill="#08C7D1"/>
<path d="M150.285 163.065H100.648C100.499 163.065 100.355 163.006 100.25 162.9C100.144 162.794 100.085 162.651 100.085 162.502C100.085 162.352 100.144 162.209 100.25 162.104C100.355 161.998 100.499 161.939 100.648 161.939H150.285C150.434 161.939 150.578 161.998 150.683 162.104C150.789 162.209 150.848 162.352 150.848 162.502C150.848 162.651 150.789 162.794 150.683 162.9C150.578 163.006 150.434 163.065 150.285 163.065ZM150.285 168.681H114.13C113.981 168.681 113.837 168.622 113.732 168.516C113.626 168.411 113.567 168.267 113.567 168.118C113.567 167.969 113.626 167.826 113.732 167.72C113.837 167.614 113.981 167.555 114.13 167.555H150.285C150.434 167.555 150.578 167.614 150.683 167.72C150.789 167.826 150.848 167.969 150.848 168.118C150.848 168.267 150.789 168.411 150.683 168.516C150.578 168.622 150.434 168.681 150.285 168.681Z" fill="#08C7D1"/>
<path d="M159.699 183.858H107.455C107.305 183.858 107.162 183.798 107.057 183.693C106.951 183.587 106.892 183.444 106.892 183.295C106.892 183.145 106.951 183.002 107.057 182.897C107.162 182.791 107.305 182.732 107.455 182.732H159.699C159.848 182.732 159.991 182.791 160.097 182.897C160.202 183.002 160.262 183.145 160.262 183.295C160.262 183.444 160.202 183.587 160.097 183.693C159.991 183.798 159.848 183.858 159.699 183.858ZM145.64 189.716H107.455C107.305 189.716 107.162 189.657 107.057 189.551C106.951 189.446 106.892 189.302 106.892 189.153C106.892 189.004 106.951 188.861 107.057 188.755C107.162 188.649 107.305 188.59 107.455 188.59H145.64C145.789 188.59 145.932 188.649 146.038 188.755C146.143 188.861 146.203 189.004 146.203 189.153C146.203 189.302 146.143 189.446 146.038 189.551C145.932 189.657 145.789 189.716 145.64 189.716Z" fill="#FEBF06"/>
<path d="M94.432 191.982C97.4109 191.982 99.8258 189.567 99.8258 186.588C99.8258 183.609 97.4109 181.195 94.432 181.195C91.453 181.195 89.0381 183.609 89.0381 186.588C89.0381 189.567 91.453 191.982 94.432 191.982Z" fill="#FEBF06"/>
<path d="M164.44 208.992C167.419 208.992 169.834 206.577 169.834 203.598C169.834 200.619 167.419 198.204 164.44 198.204C161.461 198.204 159.046 200.619 159.046 203.598C159.046 206.577 161.461 208.992 164.44 208.992Z" fill="#08C7D1"/>
<path d="M150.285 201.351H100.648C100.499 201.351 100.355 201.292 100.25 201.186C100.144 201.081 100.085 200.937 100.085 200.788C100.085 200.639 100.144 200.496 100.25 200.39C100.355 200.284 100.499 200.225 100.648 200.225H150.285C150.434 200.225 150.578 200.284 150.683 200.39C150.789 200.496 150.848 200.639 150.848 200.788C150.848 200.937 150.789 201.081 150.683 201.186C150.578 201.292 150.434 201.351 150.285 201.351ZM150.285 206.967H114.13C113.981 206.967 113.837 206.908 113.732 206.803C113.626 206.697 113.567 206.554 113.567 206.404C113.567 206.255 113.626 206.112 113.732 206.006C113.837 205.901 113.981 205.841 114.13 205.841H150.285C150.434 205.841 150.578 205.901 150.683 206.006C150.789 206.112 150.848 206.255 150.848 206.404C150.848 206.554 150.789 206.697 150.683 206.803C150.578 206.908 150.434 206.967 150.285 206.967Z" fill="#08C7D1"/>
<path d="M102.483 60.6687H105.862V86.5683H102.483V60.6687Z" fill="#FEBF06"/>
<path d="M114.307 75.3076H102.483V60.6687H117.122V64.0469H105.862V71.9294H114.307V75.3076ZM133.02 78.1228H120.368L121.269 74.7446H132.119L133.02 78.1228Z" fill="#FEBF06"/>
<path d="M135.271 86.5683H131.778C127.873 71.9294 129.306 77.2979 126.693 67.5068C124.098 77.236 125.359 72.5009 121.609 86.5683H118.124C121.837 72.6388 124.543 62.4986 125.03 60.6687H128.374L135.271 86.5683ZM146.963 86.5683C145.021 86.5683 143.16 85.7971 141.787 84.4245C140.414 83.0518 139.643 81.1901 139.643 79.2488V67.9881C139.643 66.0469 140.414 64.1852 141.787 62.8125C143.16 61.4399 145.021 60.6687 146.963 60.6687C148.904 60.6687 150.766 61.4399 152.138 62.8125C153.511 64.1852 154.282 66.0469 154.282 67.9881V79.2488C154.282 81.1901 153.511 83.0518 152.138 84.4245C150.766 85.7971 148.904 86.5683 146.963 86.5683ZM146.963 64.0469C145.917 64.0469 144.915 64.4622 144.176 65.2013C143.437 65.9404 143.021 66.9429 143.021 67.9881V79.2488C143.021 80.2941 143.437 81.2966 144.176 82.0357C144.915 82.7748 145.917 83.1901 146.963 83.1901C148.008 83.1901 149.01 82.7748 149.749 82.0357C150.489 81.2966 150.904 80.2941 150.904 79.2488V67.9881C150.904 66.9429 150.489 65.9404 149.749 65.2013C149.01 64.4622 148.008 64.0469 146.963 64.0469Z" fill="#FEBF06"/>
<path d="M145.278 78.5441L147.667 76.1554L156.39 84.8783L154.001 87.267L145.278 78.5441Z" fill="#FEBF06"/>
<path d="M246.265 173.076C246.265 171.693 245.716 170.367 244.738 169.389C243.76 168.411 242.434 167.862 241.051 167.862H187.324C186.639 167.862 185.961 167.996 185.327 168.258C184.694 168.52 184.119 168.904 183.635 169.388C183.15 169.872 182.765 170.447 182.503 171.08C182.24 171.712 182.105 172.391 182.105 173.076V206.858L172.722 218.017H241.113C242.485 218.001 243.796 217.444 244.76 216.468C245.724 215.492 246.265 214.175 246.265 212.803V173.076Z" fill="#FEBF06"/>
<path d="M233.266 183.388H194.577C194.427 183.388 194.284 183.328 194.179 183.223C194.073 183.117 194.014 182.974 194.014 182.825C194.014 182.675 194.073 182.532 194.179 182.426C194.284 182.321 194.427 182.262 194.577 182.262H233.266C233.415 182.262 233.558 182.321 233.664 182.426C233.769 182.532 233.829 182.675 233.829 182.825C233.829 182.974 233.769 183.117 233.664 183.223C233.558 183.328 233.415 183.388 233.266 183.388ZM233.266 194.063H194.577C194.427 194.063 194.284 194.003 194.179 193.898C194.073 193.792 194.014 193.649 194.014 193.5C194.014 193.35 194.073 193.207 194.179 193.102C194.284 192.996 194.427 192.937 194.577 192.937H233.266C233.415 192.937 233.558 192.996 233.664 193.102C233.769 193.207 233.829 193.35 233.829 193.5C233.829 193.649 233.769 193.792 233.664 193.898C233.558 194.003 233.415 194.063 233.266 194.063ZM222.849 204.741H194.577C194.427 204.741 194.284 204.681 194.179 204.576C194.073 204.47 194.014 204.327 194.014 204.178C194.014 204.028 194.073 203.885 194.179 203.779C194.284 203.674 194.427 203.615 194.577 203.615H222.849C222.999 203.615 223.142 203.674 223.248 203.779C223.353 203.885 223.412 204.028 223.412 204.178C223.412 204.327 223.353 204.47 223.248 204.576C223.142 204.681 222.999 204.741 222.849 204.741Z" fill="white"/>
<path d="M17.6738 66.4877C17.6737 67.8112 18.1952 69.0815 19.1253 70.0232C20.0554 70.9649 21.3191 71.5021 22.6426 71.5184H88.6161L79.5569 60.7504V28.1591C79.5565 27.4985 79.426 26.8444 79.1729 26.2342C78.9197 25.624 78.5488 25.0696 78.0814 24.6027C77.614 24.1358 77.0592 23.7656 76.4487 23.5131C75.8382 23.2606 75.184 23.1309 74.5234 23.1312H22.7045C21.3708 23.1312 20.0916 23.6609 19.1483 24.6037C18.2049 25.5465 17.6746 26.8254 17.6738 28.1591V66.4877Z" fill="#FEBF06"/>
<path d="M67.5328 38.1136H30.2037C30.0543 38.1136 29.9111 38.0543 29.8055 37.9487C29.6999 37.8431 29.6406 37.6999 29.6406 37.5505C29.6406 37.4012 29.6999 37.258 29.8055 37.1524C29.9111 37.0468 30.0543 36.9875 30.2037 36.9875H67.5328C67.6821 36.9875 67.8253 37.0468 67.9309 37.1524C68.0365 37.258 68.0958 37.4012 68.0958 37.5505C68.0958 37.6999 68.0365 37.8431 67.9309 37.9487C67.8253 38.0543 67.6821 38.1136 67.5328 38.1136ZM67.5328 48.4143H30.2037C30.0543 48.4143 29.9111 48.355 29.8055 48.2494C29.6999 48.1438 29.6406 48.0006 29.6406 47.8512C29.6406 47.7019 29.6999 47.5587 29.8055 47.4531C29.9111 47.3475 30.0543 47.2882 30.2037 47.2882H67.5328C67.6821 47.2882 67.8253 47.3475 67.9309 47.4531C68.0365 47.5587 68.0958 47.7019 68.0958 47.8512C68.0958 48.0006 68.0365 48.1438 67.9309 48.2494C67.8253 48.355 67.6821 48.4143 67.5328 48.4143ZM57.4714 58.7122H30.2037C30.0543 58.7122 29.9111 58.6528 29.8055 58.5473C29.6999 58.4417 29.6406 58.2985 29.6406 58.1491C29.6406 57.9998 29.6999 57.8566 29.8055 57.751C29.9111 57.6454 30.0543 57.5861 30.2037 57.5861H57.4714C57.6207 57.5861 57.7639 57.6454 57.8695 57.751C57.9751 57.8566 58.0344 57.9998 58.0344 58.1491C58.0344 58.2985 57.9751 58.4417 57.8695 58.5473C57.7639 58.6528 57.6207 58.7122 57.4714 58.7122Z" fill="white"/>
<path d="M27.8392 189.992C43.2144 189.992 55.6784 177.528 55.6784 162.153C55.6784 146.778 43.2144 134.314 27.8392 134.314C12.464 134.314 0 146.778 0 162.153C0 177.528 12.464 189.992 27.8392 189.992Z" fill="#FEBF06"/>
<path d="M37.9998 153.947C37.8352 151.306 36.6489 148.833 34.6921 147.052C32.7354 145.27 30.162 144.321 27.5173 144.405C24.8727 144.489 22.3646 145.599 20.5245 147.501C18.6845 149.402 17.6571 151.945 17.6602 154.591H21.4494C21.4487 153.717 21.6274 152.852 21.9745 152.05C22.3216 151.248 22.8297 150.526 23.4674 149.928C24.105 149.33 24.8585 148.87 25.6813 148.575C26.5041 148.28 27.3787 148.158 28.2508 148.215C29.797 148.328 31.2511 148.993 32.3489 150.087C33.4466 151.182 34.1152 152.634 34.2331 154.18C34.3158 155.446 34.0196 156.708 33.3824 157.805C32.7451 158.902 31.7957 159.784 30.655 160.34C29.2333 161.061 28.0408 162.163 27.2113 163.525C26.3818 164.886 25.9482 166.451 25.9593 168.045V170.277H29.7288V168.045C29.7159 167.16 29.9495 166.289 30.4034 165.529C30.8573 164.77 31.5137 164.151 32.299 163.743C34.1151 162.861 35.6272 161.459 36.6425 159.714C37.6579 157.969 38.1304 155.961 37.9998 153.947ZM27.8398 174.331C27.2897 174.331 26.752 174.494 26.2946 174.8C25.8372 175.106 25.4807 175.54 25.2701 176.048C25.0596 176.556 25.0045 177.116 25.1119 177.655C25.2192 178.195 25.4841 178.69 25.8731 179.079C26.2621 179.468 26.7577 179.733 27.2972 179.84C27.8367 179.948 28.396 179.893 28.9042 179.682C29.4124 179.472 29.8468 179.115 30.1525 178.658C30.4581 178.2 30.6212 177.663 30.6212 177.113C30.6216 176.747 30.5499 176.385 30.4102 176.048C30.2706 175.71 30.0657 175.403 29.8074 175.145C29.549 174.887 29.2423 174.682 28.9046 174.542C28.567 174.402 28.2052 174.331 27.8398 174.331Z" fill="white"/>
</svg>
