<svg width="573" height="512" viewBox="0 0 573 512" fill="none" xmlns="http://www.w3.org/2000/svg">
<path d="M65.4951 497.24C65.4951 489.627 118.371 483.449 183.587 483.449C248.803 483.449 301.679 489.627 301.679 497.24C301.679 504.852 248.811 511.038 183.587 511.038C118.364 511.038 65.4951 504.86 65.4951 497.24ZM222.728 462.101C222.728 454.488 296.126 448.31 386.668 448.31C477.21 448.31 550.616 454.488 550.616 462.101C550.616 469.713 477.21 475.899 386.668 475.899C296.126 475.899 222.728 469.721 222.728 462.101Z" fill="#E9EDF7"/>
<path d="M74.9096 451.11C71.2046 458.614 63.3422 457.811 58.7246 456.937C60.035 454.722 65.8538 446.087 74.9096 451.11Z" fill="#DDE2F8"/>
<path d="M147.652 437.64C130.29 435.986 101.679 439.02 73.958 451.516" stroke="#DDE2F8" stroke-width="2" stroke-linecap="round" stroke-linejoin="round"/>
<path d="M136.28 433.467C121.343 425.526 124.494 413.507 126.53 404.248C130.913 407.025 146.958 415.488 136.28 433.467ZM120.079 433.857C106.874 430.667 106.92 420.69 106.655 413.085C110.618 414.365 124.79 417.758 120.079 433.857ZM102.864 437.772C91.1643 437.772 89.2299 429.419 87.4749 423.108C91.0473 423.381 103.566 423.358 102.864 437.772ZM86.5857 442.889C79.6203 444.909 76.9995 440.268 74.8857 436.805C77.0385 436.353 84.4719 434.138 86.5857 442.889ZM135 442.203C121.187 447.866 122.903 458.692 123.878 467.007C127.973 464.955 142.8 458.926 135 442.203ZM117.388 442.959C104.861 445.923 104.861 455.385 104.573 462.6C108.34 461.438 121.787 458.255 117.388 442.959ZM96.7881 446.969C89.1285 451.29 90.9147 457.499 92.1081 462.288C94.3389 460.79 102.568 456.18 96.7881 446.969ZM83.1069 450.65C78.2553 452.304 78.6141 456.056 78.7779 458.926C80.2209 458.318 85.4313 456.547 83.1069 450.65Z" fill="#DDE2F8"/>
<path d="M143.752 390.777C124.345 386.23 111.616 399.864 109.479 423.249C127.785 423.857 148.182 412.11 143.752 390.777Z" fill="#6B67E9"/>
<path d="M153.931 322.995C169.492 290.618 150.413 262.873 110.072 250.058C101.882 282.077 114.635 322.598 153.931 322.995Z" fill="#DDE2F8"/>
<path d="M153.931 322.995C145.414 310.515 128.745 277.755 115.867 258.708" stroke="#CED3F8" stroke-width="2" stroke-linecap="round" stroke-linejoin="round"/>
<path d="M184.983 111.218C194.085 91.9515 182.682 75.5949 158.72 68.1147C153.978 87.1077 161.692 111.062 184.983 111.218Z" fill="#5652CC"/>
<path d="M187.705 111.748C218.086 106.616 228.062 79.5652 217.126 44.9722C190.63 55.0576 168.587 84.0111 187.705 111.748Z" fill="#807DFB"/>
<path d="M187.705 111.748C192.245 99.6111 206.924 71.7573 213.913 53.3181" stroke="#6B67E9" stroke-width="2" stroke-linecap="round" stroke-linejoin="round"/>
<path d="M514.12 264.761C528.48 249.012 522.38 230.035 501.64 215.855C491.547 232.656 491.882 257.858 514.12 264.761Z" fill="#DDE2F8"/>
<path d="M516.07 267.756C545.398 277.217 566.723 257.819 572.971 222.079C544.805 218.858 511.912 234.333 516.07 267.756Z" fill="#E9EDF7"/>
<path d="M516.069 267.756C525.695 259.082 551.567 241.142 566.27 227.976" stroke="white" stroke-width="2" stroke-linecap="round" stroke-linejoin="round"/>
<path d="M158.065 362.378C162.191 351.114 162.956 320.109 137.785 311.342C126.405 307.372 123.176 306.99 118.886 309.252C116.093 310.734 114.494 313.362 111.796 312.559C106.85 311.085 112.576 292.965 95.1425 285.938C77.7095 278.91 69.7145 289.838 65.0345 287.911C60.3545 285.984 61.1345 278.169 52.1099 277.865C43.0853 277.56 42.2663 292.006 30.6521 293.176C18.5621 294.393 -1.05487 300.758 0.0761251 311.99C1.20713 323.222 10.4813 321.818 15.8321 327.496C21.1829 333.174 22.8521 355.358 40.7375 353.587C58.6229 351.816 64.8239 348.595 74.6831 368.181C84.5423 387.767 106.765 390.372 116.093 384.74C125.422 379.109 124.884 385.294 120.812 390.2C116.741 395.106 126.53 396.284 133.573 392.54C140.617 388.796 152.87 376.503 158.065 362.378Z" fill="#E9EDF7"/>
<path d="M162.948 365.95C118.925 328.393 62.3279 312.528 20.7773 311.943M54.3719 315.351C53.3345 312.754 50.4719 301.241 51.4781 294.33M45.5579 313.924C41.9465 316.42 35.1995 324.493 33.6629 327.067M90.7121 325C88.8089 321.217 85.3926 313.386 87.3894 300.929M76.7423 320.57C72.9749 322.052 63.3419 331.568 59.5823 336.115M117.763 336.365C112.412 338.962 108.223 344.984 105.049 348.782M132.278 344.196C129.088 339.516 126.764 329.079 126.904 321.24" stroke="#DDE2F8" stroke-width="2" stroke-linecap="round" stroke-linejoin="round"/>
<path d="M114.486 147.456C114.962 144.828 116.78 134.532 115.625 133.939C114.471 133.346 113.855 139.009 112.981 139.235C111.281 139.376 106.164 139.758 103.52 139.968C105.275 143.907 107.42 147.729 109.424 149.391C111.062 148.624 112.754 147.977 114.486 147.456ZM246.345 148.065C245.277 145.631 241.587 135.889 242.57 135.047C243.553 134.204 245.386 139.259 246.283 139.274C247.18 139.29 252.749 139.641 255.393 139.984C254.574 144.102 252.975 148.463 251.821 149.57C249.951 149.247 248.117 148.743 246.345 148.065Z" fill="#F0CCC0"/>
<path d="M188.641 217.446C183.665 214.388 187.627 202.626 188.36 198.726C189.351 193.523 188.462 167.307 188.462 167.307C200.731 175.107 213.071 197.876 205.458 210.363C207.517 211.392 209.238 212.989 210.417 214.967C211.595 216.944 212.181 219.218 212.106 221.519C212.03 223.82 211.296 226.05 209.99 227.946C208.685 229.842 206.863 231.323 204.74 232.214C202.617 233.105 200.284 233.368 198.016 232.973C195.749 232.577 193.642 231.538 191.947 229.981C190.252 228.423 189.04 226.412 188.453 224.186C187.867 221.96 187.933 219.613 188.641 217.422V217.446ZM220.239 495.836C219.541 495.928 218.891 496.239 218.38 496.723C217.87 497.208 217.527 497.842 217.4 498.534H215.239C213.935 496.018 213.58 493.116 214.241 490.36C214.943 487.466 215.684 488.16 216.44 488.917C218.156 490.305 225.153 490.766 225.707 488.418C227.508 488.683 246.111 494.034 246.111 495.758C246.111 498.542 243.927 498.534 242.438 498.534C224.872 498.534 227.212 497.458 220.239 495.836Z" fill="#362E94"/>
<path d="M223.803 485.462C223.195 482.81 215.535 480.821 215.925 485.462C216.033 486.465 215.897 487.479 215.527 488.418C217.087 490.617 233.257 494.759 235.901 491.319C234.06 490.337 223.803 488.27 223.803 485.462Z" fill="#F7D3C9"/>
<path d="M139.002 495.836C139.699 495.928 140.35 496.239 140.86 496.723C141.37 497.208 141.713 497.842 141.841 498.534H144.001C145.306 496.018 145.66 493.116 145 490.36C144.298 487.466 143.557 488.16 142.8 488.917C141.084 490.305 134.087 490.766 133.534 488.418C131.732 488.683 113.129 494.034 113.129 495.758C113.129 498.542 115.313 498.534 116.803 498.534C134.392 498.534 132.052 497.458 139.002 495.836Z" fill="#362E94"/>
<path d="M135.438 485.462C136.046 482.81 143.706 480.821 143.316 485.462C143.21 486.465 143.347 487.478 143.713 488.418C142.153 490.617 125.984 494.759 123.34 491.319C125.181 490.337 135.438 488.27 135.438 485.462Z" fill="#F7D3C9"/>
<path d="M206.823 290.438C224.459 321.17 224.077 437.858 224.077 485.298H215.66C210.934 473.535 170.202 312.816 167.004 290.438H206.823Z" fill="#362E94"/>
<path d="M155.327 290.438C134.961 322.598 135.102 437.671 135.102 485.111H143.518C148.252 473.348 190.045 312.816 193.235 290.438H155.327Z" fill="#423EAF"/>
<path d="M198.212 209.256C206.215 206.214 222.033 190.731 226.698 186.511C228.827 184.592 238.218 165.381 245.62 147.573C248.155 148.353 252.36 149.484 252.36 149.484C249.778 162.159 245.979 180.435 238.6 194.724C234.864 201.971 218.851 221.315 208.719 234.177C202.697 226.806 198.212 209.256 198.212 209.256Z" fill="#ED9F00"/>
<path d="M155.327 290.438H206.807C203.407 256.118 215.996 248.256 210.598 235.838C204.717 222.282 203.687 219.614 198.196 209.256C188.368 208.679 178.899 210.652 164.157 201.838C158.44 206.518 153.541 212.555 150.187 223.475C149.485 239.535 160.639 258.708 155.327 290.438Z" fill="#FCBA06"/>
<path d="M170.015 208.164C177.085 207.905 184.164 208.218 191.184 209.1C198.009 217.922 181.613 223.062 170.015 208.164Z" fill="#E19100"/>
<path d="M162.792 205.403C154.212 204.123 133.729 190.38 130.204 184.616C125.524 176.964 120.844 165.896 114.916 146.216C112.295 146.661 107.404 147.729 107.404 147.729C107.662 161.473 111.133 176.675 114.885 192.322C116.78 200.255 139.197 221.276 150.85 232.781C155.913 224.715 162.792 205.403 162.792 205.403Z" fill="#FCBA06"/>
<path d="M109.534 147.254C109.76 149.726 117.287 185.684 123.457 194.888C127.708 201.23 151.474 220.418 155.211 224.318C154.477 225.761 151.537 231.696 150.85 232.788C139.197 221.276 116.78 200.255 114.892 192.338C111.141 176.691 107.67 161.489 107.412 147.745C107.404 147.729 108.559 147.456 109.534 147.254Z" fill="#ED9F00"/>
<path d="M175.732 209.404C176.32 204.366 175.164 199.278 172.456 194.99C172.456 194.99 166.832 187.088 166.996 179.031C167.183 168.75 183.462 166.176 188.126 168.54C194.14 172.073 195.076 177.432 196.378 184.53C196.378 184.53 199.264 191.136 199.327 191.55C199.405 192.197 197.385 192.143 197.291 192.462C197.197 192.782 197.884 196.784 196.682 198.5C195.481 200.216 191.495 199.826 190.31 200.606C188.469 201.822 186.348 203.804 189.436 208.476C193.524 217.079 184.312 216.338 175.732 209.404Z" fill="#F7D3C9"/>
<path d="M139.735 226.837C138.68 225.457 137.967 223.847 137.654 222.138C137.341 220.429 137.438 218.671 137.935 217.007C138.433 215.343 139.318 213.82 140.517 212.564C141.717 211.307 143.197 210.353 144.836 209.778L145.234 209.638C151.177 207.789 161.895 199.826 162.698 188.508C163.626 175.458 166.598 168.454 174.749 166.145C182.9 163.836 189.608 166.426 191.262 170.825C193.43 183.134 189.647 186.558 184.71 187.431C180.271 188.211 178.47 191.768 179.858 195.153C181.067 198.133 179.858 203.96 178.524 207.47C182.674 210.878 186.699 221.385 181.309 227.929C179.61 230.055 177.275 231.581 174.646 232.283C172.017 232.985 169.232 232.826 166.699 231.829C166.928 232.638 167.084 233.465 167.167 234.302C167.412 236.756 167.056 239.233 166.13 241.519C165.205 243.805 163.738 245.832 161.855 247.425C159.972 249.018 157.731 250.13 155.323 250.665C152.915 251.199 150.414 251.141 148.034 250.494C145.654 249.847 143.467 248.632 141.661 246.952C139.855 245.272 138.484 243.179 137.667 240.852C136.849 238.525 136.61 236.034 136.969 233.594C137.328 231.154 138.274 228.838 139.727 226.845L139.735 226.837ZM303.199 294.354L303.043 294.471L296.585 300.492C296.632 300.447 296.684 300.408 296.741 300.375L298.488 299.315C298.549 299.282 298.604 299.24 298.652 299.19L305.11 293.176C305.061 293.224 305.006 293.266 304.947 293.301L303.199 294.354ZM279.066 281.531L278.364 283.535C278.316 283.693 278.228 283.836 278.107 283.949L284.565 277.927C284.686 277.816 284.777 277.676 284.83 277.521L285.532 275.509C285.585 275.351 285.676 275.209 285.798 275.096L279.339 281.117C279.218 281.232 279.124 281.374 279.066 281.531ZM300.36 314.751C300.476 314.645 300.613 314.566 300.763 314.519C300.912 314.471 301.071 314.457 301.226 314.478L303.566 314.665C303.723 314.682 303.881 314.667 304.031 314.62C304.182 314.573 304.321 314.495 304.44 314.392L310.898 308.37C310.78 308.475 310.641 308.554 310.491 308.603C310.34 308.651 310.182 308.668 310.024 308.651L307.684 308.456C307.529 308.439 307.372 308.455 307.223 308.502C307.074 308.549 306.936 308.626 306.819 308.729L300.36 314.751ZM264.114 278.551L264.644 280.985C264.705 281.189 264.709 281.407 264.657 281.614C264.605 281.821 264.498 282.011 264.348 282.162L270.806 276.141C270.956 275.989 271.063 275.8 271.115 275.592C271.167 275.385 271.163 275.168 271.102 274.963L270.572 272.529C270.513 272.322 270.509 272.103 270.561 271.893C270.613 271.684 270.719 271.492 270.868 271.336L264.41 277.358C264.26 277.513 264.154 277.705 264.102 277.915C264.05 278.124 264.054 278.344 264.114 278.551ZM296.874 326.911C297.114 326.729 297.407 326.63 297.708 326.63C298.01 326.63 298.303 326.729 298.543 326.911L300.828 328.292C301.069 328.473 301.362 328.57 301.663 328.57C301.964 328.57 302.257 328.473 302.497 328.292L308.964 322.27C308.721 322.45 308.427 322.548 308.125 322.548C307.823 322.548 307.529 322.45 307.287 322.27L305.001 320.889C304.761 320.707 304.468 320.609 304.167 320.609C303.865 320.609 303.572 320.707 303.332 320.889L296.874 326.911ZM265.284 298.215C268.224 295.477 273.247 295.313 278.052 298.215C284.292 301.982 287.787 309.494 285.852 315C285.442 316.189 284.749 317.26 283.832 318.12L290.298 312.099C291.212 311.237 291.902 310.166 292.311 308.979C294.229 303.519 290.751 295.961 284.511 292.201C279.706 289.299 274.683 289.455 271.742 292.201L265.284 298.215ZM284.76 338.978L289.604 334.461L291.102 336.497C291.289 336.749 291.522 336.963 291.788 337.129C291.99 337.266 292.222 337.354 292.465 337.385C292.707 337.416 292.954 337.39 293.184 337.308C294.629 336.667 295.988 335.85 297.232 334.875L297.303 334.812L303.761 328.799L303.691 328.853C302.448 329.83 301.088 330.647 299.643 331.287C299.412 331.368 299.166 331.395 298.923 331.363C298.681 331.332 298.449 331.245 298.246 331.107C297.978 330.944 297.745 330.729 297.56 330.476L295.938 328.284C295.757 328.033 295.526 327.823 295.259 327.668C295.077 327.545 294.871 327.461 294.655 327.421C294.439 327.381 294.217 327.385 294.003 327.434C293.294 327.621 292.575 327.772 291.85 327.886C291.64 327.919 291.442 328.011 291.281 328.151L286.133 332.948C285.79 332.901 285.454 332.862 285.111 332.8C284.879 332.758 284.657 332.673 284.456 332.55C284.193 332.391 283.964 332.182 283.782 331.934C283.6 331.687 283.469 331.406 283.395 331.107L282.865 328.674C282.713 328.077 282.332 327.564 281.804 327.246C281.655 327.155 281.495 327.085 281.328 327.036C280.548 326.794 279.706 326.521 278.887 326.209C278.668 326.103 278.423 326.062 278.182 326.09C277.94 326.117 277.711 326.213 277.522 326.365L274.534 329.15C273.715 328.728 272.904 328.276 272.093 327.792C271.282 327.309 270.33 326.685 269.488 326.084C269.141 325.867 268.87 325.549 268.71 325.172C268.551 324.795 268.512 324.378 268.599 323.978L269.308 321.958C269.385 321.588 269.353 321.203 269.214 320.851C269.076 320.499 268.837 320.195 268.528 319.977C267.819 319.361 267.132 318.737 266.469 318.081C266.337 317.953 266.19 317.841 266.032 317.746C265.815 317.591 265.56 317.497 265.294 317.474C265.028 317.45 264.76 317.499 264.519 317.613L262.803 318.698C262.562 318.814 262.293 318.864 262.026 318.842C261.758 318.82 261.502 318.727 261.282 318.573C261.068 318.44 260.875 318.274 260.713 318.081C259.349 316.468 258.093 314.766 256.953 312.988C256.779 312.713 256.677 312.4 256.657 312.075L259.051 309.837C259.247 309.608 259.364 309.321 259.384 309.02C259.403 308.719 259.325 308.42 259.161 308.168C258.747 307.388 258.381 306.537 258.022 305.718C257.824 305.259 257.489 304.872 257.062 304.611C256.827 304.46 256.56 304.367 256.282 304.338L253.942 304.151C253.666 304.116 253.4 304.023 253.162 303.878C252.686 303.587 252.329 303.136 252.156 302.606C251.82 301.519 251.539 300.415 251.314 299.299L255.307 295.586C255.422 295.474 255.511 295.339 255.569 295.19C255.627 295.04 255.652 294.88 255.643 294.72C255.635 293.939 255.666 293.158 255.736 292.38C255.741 291.993 255.643 291.612 255.453 291.275C255.263 290.938 254.986 290.657 254.652 290.462L252.577 289.214L258.778 283.434C258.833 283.389 258.88 283.337 258.919 283.278C259.307 282.708 259.737 282.168 260.206 281.663C260.41 281.373 260.509 281.021 260.487 280.666C260.464 280.312 260.321 279.975 260.081 279.713L258.412 277.475C258.161 277.21 258.015 276.864 257.999 276.5C257.983 276.136 258.099 275.779 258.326 275.493L251.868 281.515C251.669 281.754 251.555 282.052 251.543 282.362C251.532 282.673 251.624 282.978 251.805 283.231L246.969 287.739L246.642 288.044C246.554 288.126 246.483 288.224 246.431 288.332C246.08 289.07 245.768 289.825 245.495 290.594C245.224 291.38 244.992 292.179 244.801 292.989C244.753 293.402 244.83 293.819 245.02 294.188C245.21 294.558 245.506 294.862 245.869 295.064L248.147 296.444C248.645 296.747 249.013 297.226 249.177 297.786L244.738 301.92C244.606 302.054 244.508 302.219 244.452 302.399C244.396 302.58 244.385 302.771 244.419 302.957C244.672 304.866 245.087 306.75 245.659 308.589C245.834 309.116 246.19 309.564 246.665 309.852C246.901 310.003 247.167 310.099 247.445 310.133L249.785 310.313C250.062 310.348 250.329 310.444 250.565 310.593C250.993 310.852 251.329 311.24 251.524 311.701C251.868 312.481 252.25 313.339 252.663 314.142C252.786 314.385 252.855 314.651 252.866 314.922L250.518 317.138C250.305 317.397 250.189 317.722 250.189 318.058C250.189 318.394 250.305 318.719 250.518 318.978C251.656 320.761 252.912 322.465 254.278 324.08C254.441 324.27 254.633 324.433 254.847 324.563C255.071 324.725 255.335 324.822 255.61 324.844C255.885 324.866 256.161 324.812 256.407 324.688L258.154 323.635C258.401 323.511 258.677 323.457 258.952 323.479C259.227 323.501 259.491 323.598 259.714 323.76C259.869 323.855 260.013 323.968 260.143 324.095C260.814 324.75 261.501 325.382 262.21 325.991C262.512 326.216 262.742 326.523 262.874 326.876C263.005 327.229 263.032 327.612 262.951 327.98L262.242 329.992C262.155 330.393 262.193 330.811 262.353 331.189C262.512 331.567 262.783 331.887 263.131 332.106C263.973 332.699 264.847 333.268 265.736 333.806C266.625 334.344 267.522 334.844 268.411 335.296C268.642 335.441 268.912 335.511 269.184 335.497C269.456 335.483 269.718 335.386 269.932 335.218L272.974 332.387C273.637 332.636 274.308 332.862 274.971 333.05C275.137 333.104 275.297 333.178 275.447 333.268C275.975 333.586 276.356 334.099 276.508 334.695L277.038 337.129C277.188 337.729 277.57 338.245 278.099 338.564C278.3 338.689 278.522 338.776 278.754 338.822C280.534 339.129 282.338 339.27 284.144 339.243C284.373 339.224 284.589 339.131 284.76 338.978ZM252.336 289.058C251.973 288.855 251.679 288.55 251.489 288.181C251.299 287.812 251.222 287.395 251.267 286.983C251.456 286.17 251.69 285.367 251.969 284.58C252.047 284.339 252.141 284.112 252.234 283.878L253.584 285.704C253.825 285.965 253.969 286.301 253.993 286.655C254.017 287.01 253.92 287.362 253.716 287.654C253.28 288.128 252.876 288.631 252.507 289.159L252.336 289.058Z" fill="#5652CC"/>
<path d="M310.82 317.309C310.631 318.122 310.4 318.924 310.126 319.712C309.858 320.481 309.546 321.233 309.19 321.966C308.885 322.59 308.066 322.746 307.302 322.254L305.017 320.874C304.752 320.661 304.415 320.56 304.077 320.592C303.739 320.624 303.427 320.787 303.207 321.045C302.808 321.606 302.376 322.143 301.912 322.652C301.711 322.943 301.614 323.294 301.638 323.646C301.663 323.999 301.806 324.334 302.045 324.594L303.667 326.802C303.931 327.075 304.078 327.44 304.078 327.82C304.078 328.199 303.931 328.564 303.667 328.838C302.424 329.814 301.065 330.632 299.619 331.271C299.389 331.353 299.142 331.379 298.9 331.348C298.657 331.317 298.425 331.229 298.223 331.092C297.955 330.928 297.722 330.714 297.536 330.46L295.914 328.268C295.733 328.018 295.502 327.808 295.235 327.652C295.053 327.53 294.848 327.446 294.632 327.405C294.416 327.365 294.194 327.369 293.98 327.418C293.27 327.605 292.552 327.756 291.827 327.87C291.669 327.896 291.518 327.955 291.385 328.045C291.252 328.135 291.141 328.253 291.058 328.39C290.976 328.528 290.924 328.682 290.908 328.841C290.891 329.001 290.909 329.162 290.961 329.313L291.491 331.747C291.551 331.911 291.571 332.087 291.549 332.26C291.527 332.433 291.463 332.599 291.364 332.742C291.265 332.886 291.132 333.004 290.978 333.086C290.824 333.168 290.652 333.211 290.477 333.213C288.672 333.234 286.868 333.091 285.088 332.784C284.856 332.742 284.634 332.657 284.432 332.535C284.17 332.376 283.941 332.166 283.759 331.919C283.577 331.671 283.445 331.39 283.372 331.092L282.841 328.658C282.689 328.061 282.308 327.548 281.78 327.231C281.632 327.14 281.472 327.069 281.305 327.02C280.525 326.778 279.682 326.505 278.863 326.193C278.722 326.112 278.565 326.063 278.403 326.047C278.241 326.032 278.078 326.052 277.924 326.105C277.771 326.158 277.63 326.244 277.512 326.356C277.394 326.468 277.302 326.604 277.241 326.755L276.539 328.767C276.467 328.93 276.359 329.075 276.224 329.191C276.089 329.307 275.93 329.391 275.758 329.438C275.587 329.485 275.407 329.494 275.231 329.463C275.056 329.432 274.89 329.362 274.745 329.259C273.856 328.806 272.959 328.315 272.069 327.777C271.18 327.239 270.307 326.669 269.464 326.069C269.118 325.852 268.846 325.533 268.687 325.156C268.528 324.779 268.489 324.362 268.575 323.963L269.285 321.942C269.362 321.572 269.329 321.187 269.191 320.835C269.052 320.483 268.814 320.18 268.505 319.961C267.795 319.345 267.109 318.721 266.446 318.066C266.313 317.938 266.167 317.825 266.009 317.73C265.791 317.575 265.536 317.481 265.27 317.458C265.004 317.435 264.737 317.483 264.496 317.598L262.803 318.698C262.561 318.814 262.293 318.864 262.026 318.842C261.758 318.82 261.501 318.727 261.282 318.573C261.068 318.44 260.875 318.274 260.713 318.081C259.349 316.468 258.093 314.766 256.953 312.988C256.833 312.848 256.743 312.685 256.687 312.51C256.632 312.334 256.612 312.149 256.63 311.965C256.647 311.782 256.701 311.604 256.789 311.442C256.877 311.28 256.996 311.137 257.14 311.022L258.887 309.962C259.156 309.756 259.334 309.454 259.385 309.119C259.436 308.785 259.355 308.444 259.16 308.168C258.747 307.388 258.38 306.537 258.022 305.718C257.824 305.259 257.489 304.872 257.062 304.611C256.827 304.46 256.56 304.367 256.282 304.338L253.942 304.151C253.666 304.116 253.4 304.023 253.162 303.878C252.686 303.587 252.329 303.136 252.156 302.606C251.588 300.766 251.173 298.883 250.916 296.975C250.876 296.806 250.878 296.63 250.922 296.462C250.966 296.294 251.049 296.14 251.166 296.011C251.283 295.883 251.429 295.785 251.592 295.726C251.755 295.667 251.93 295.648 252.101 295.672L254.441 295.859C254.599 295.881 254.759 295.867 254.91 295.818C255.062 295.769 255.2 295.687 255.315 295.578C255.431 295.469 255.52 295.335 255.577 295.186C255.633 295.038 255.656 294.879 255.643 294.72C255.634 293.939 255.666 293.158 255.736 292.38C255.741 291.993 255.643 291.612 255.453 291.275C255.262 290.938 254.986 290.657 254.652 290.462L252.335 289.058C251.973 288.855 251.679 288.55 251.489 288.181C251.299 287.812 251.222 287.395 251.267 286.983C251.456 286.169 251.69 285.367 251.969 284.58C252.236 283.812 252.546 283.059 252.897 282.326C253.201 281.694 254.028 281.546 254.792 282.038L257.07 283.41C257.336 283.623 257.673 283.724 258.012 283.694C258.35 283.663 258.664 283.503 258.887 283.247C259.275 282.677 259.706 282.137 260.175 281.632C260.379 281.341 260.478 280.99 260.455 280.635C260.433 280.28 260.289 279.944 260.05 279.682L258.412 277.475C258.15 277.2 258.004 276.836 258.004 276.457C258.004 276.078 258.15 275.713 258.412 275.439C259.657 274.462 261.02 273.645 262.468 273.005C262.698 272.924 262.945 272.897 263.187 272.928C263.43 272.96 263.662 273.047 263.864 273.185C264.128 273.348 264.358 273.559 264.542 273.809L266.165 276.008C266.352 276.258 266.585 276.469 266.851 276.632C267.034 276.755 267.239 276.838 267.455 276.879C267.671 276.919 267.893 276.915 268.107 276.866C268.815 276.671 269.534 276.517 270.26 276.406C270.418 276.381 270.569 276.321 270.701 276.231C270.834 276.141 270.945 276.023 271.027 275.886C271.109 275.748 271.16 275.594 271.175 275.434C271.191 275.275 271.171 275.114 271.118 274.963L270.587 272.529C270.529 272.365 270.511 272.19 270.534 272.017C270.557 271.845 270.621 271.68 270.72 271.537C270.819 271.394 270.95 271.276 271.104 271.194C271.257 271.111 271.427 271.067 271.601 271.063C273.407 271.042 275.211 271.186 276.991 271.492C277.224 271.536 277.446 271.623 277.646 271.749C277.91 271.906 278.14 272.113 278.322 272.359C278.504 272.606 278.635 272.887 278.707 273.185L279.238 275.61C279.332 275.997 279.526 276.352 279.799 276.64C280.073 276.929 280.417 277.141 280.798 277.256C281.578 277.49 282.412 277.771 283.231 278.091C283.374 278.168 283.532 278.214 283.694 278.227C283.856 278.24 284.018 278.219 284.172 278.165C284.325 278.112 284.466 278.027 284.584 277.916C284.703 277.805 284.798 277.671 284.861 277.521L285.563 275.509C285.797 274.838 286.57 274.62 287.357 275.018C288.145 275.415 289.144 275.969 290.033 276.507C290.922 277.046 291.796 277.615 292.638 278.208C292.982 278.429 293.25 278.75 293.406 279.128C293.562 279.506 293.599 279.922 293.512 280.322L292.81 282.326C292.726 282.694 292.751 283.079 292.881 283.433C293.012 283.787 293.241 284.096 293.543 284.323C294.253 284.931 294.947 285.555 295.61 286.211C295.743 286.34 295.889 286.456 296.047 286.554C296.265 286.709 296.521 286.801 296.787 286.822C297.054 286.843 297.321 286.79 297.56 286.671L299.307 285.626C299.546 285.505 299.813 285.452 300.08 285.473C300.347 285.494 300.603 285.587 300.82 285.743C301.039 285.873 301.234 286.039 301.397 286.234C302.764 287.845 304.02 289.547 305.157 291.327C305.277 291.468 305.368 291.631 305.423 291.808C305.479 291.984 305.499 292.17 305.481 292.354C305.464 292.538 305.409 292.716 305.322 292.879C305.234 293.042 305.114 293.185 304.97 293.301L303.223 294.354C302.957 294.563 302.781 294.867 302.732 295.202C302.683 295.537 302.763 295.878 302.957 296.156C303.363 296.936 303.737 297.778 304.096 298.605C304.287 299.062 304.617 299.447 305.04 299.705C305.278 299.85 305.544 299.943 305.82 299.978L308.16 300.165C308.438 300.194 308.705 300.287 308.94 300.438C309.424 300.727 309.786 301.181 309.962 301.717C310.528 303.554 310.941 305.435 311.194 307.341C311.233 307.51 311.231 307.686 311.187 307.854C311.144 308.022 311.06 308.177 310.944 308.306C310.827 308.434 310.681 308.533 310.519 308.593C310.356 308.653 310.181 308.673 310.009 308.651L307.669 308.456C307.511 308.435 307.35 308.449 307.199 308.498C307.047 308.546 306.908 308.628 306.793 308.737C306.677 308.846 306.587 308.98 306.529 309.128C306.472 309.277 306.448 309.436 306.46 309.595C306.474 310.376 306.445 311.157 306.374 311.935C306.366 312.322 306.462 312.703 306.653 313.04C306.844 313.376 307.122 313.655 307.458 313.846L309.743 315.227C310.111 315.426 310.409 315.732 310.601 316.103C310.793 316.474 310.869 316.894 310.82 317.309ZM277.568 312.099C283.808 315.866 290.415 314.439 292.342 308.979C294.268 303.519 290.782 295.961 284.542 292.201C278.302 288.441 271.687 289.861 269.722 295.321C267.756 300.781 271.282 308.339 277.522 312.107" fill="#807DFB"/>
<path d="M482.342 280.275C482.402 280.345 482.47 280.408 482.545 280.462L484.791 282.131C484.869 282.185 484.939 282.248 485.002 282.318L478.949 275.899C478.885 275.833 478.818 275.77 478.746 275.712L476.492 274.043C476.419 273.986 476.351 273.924 476.289 273.855L482.342 280.275ZM501.062 258.341C501.139 258.549 501.255 258.74 501.405 258.903L507.458 265.322C507.306 265.16 507.187 264.969 507.107 264.761L506.14 262.093C506.064 261.885 505.948 261.694 505.797 261.531C505.609 261.344 505.368 261.087 505.188 260.892L502.77 258.326L502.466 258.006C501.561 257.039 500.649 256.079 499.744 255.12C499.895 255.279 500.012 255.468 500.087 255.674L501.062 258.341ZM480.907 299.432L474.862 293.012C474.568 292.711 474.174 292.527 473.754 292.497L470.837 292.263C470.416 292.231 470.022 292.045 469.729 291.741L475.774 298.152C476.064 298.461 476.46 298.647 476.882 298.675L479.807 298.917C480.226 298.94 480.62 299.125 480.907 299.432ZM518.737 254.972L518.183 257.904C518.119 258.178 518.124 258.464 518.196 258.736C518.268 259.008 518.406 259.258 518.597 259.464L524.649 265.884C524.456 265.678 524.317 265.429 524.244 265.156C524.17 264.884 524.165 264.598 524.228 264.324L524.79 261.391C524.846 261.116 524.837 260.831 524.762 260.56C524.687 260.289 524.55 260.039 524.361 259.831L518.316 253.412C518.508 253.621 518.646 253.873 518.719 254.148C518.793 254.422 518.799 254.71 518.737 254.987V254.972ZM484.69 314.798C485.114 314.827 485.511 315.013 485.805 315.32C483.793 313.183 481.778 311.043 479.76 308.901C479.464 308.597 479.068 308.411 478.645 308.378C478.3 308.354 477.954 308.416 477.639 308.558L474.846 309.821C474.532 309.969 474.186 310.033 473.84 310.008C473.421 309.975 473.028 309.792 472.733 309.494L478.785 315.905C479.076 316.211 479.472 316.395 479.893 316.42C480.236 316.447 480.58 316.386 480.891 316.241L483.692 314.977C484.005 314.836 484.347 314.774 484.69 314.798ZM534.228 263.622L532.285 266.055C531.998 266.384 531.832 266.801 531.816 267.237C531.801 267.674 531.936 268.102 532.2 268.45C532.812 269.182 533.382 269.947 533.908 270.743C533.964 270.826 534.027 270.904 534.095 270.977L540.148 277.397C540.079 277.324 540.016 277.246 539.961 277.163C539.43 276.383 538.861 275.603 538.253 274.869C537.987 274.522 537.851 274.093 537.867 273.657C537.882 273.22 538.049 272.802 538.338 272.475L540.273 270.041C540.569 269.696 540.732 269.256 540.732 268.801C540.732 268.346 540.569 267.906 540.273 267.561L534.22 261.141C534.527 261.487 534.698 261.933 534.7 262.396C534.701 262.858 534.533 263.305 534.228 263.653V263.622ZM509.689 275.392C501.717 274.745 494.027 280.727 492.529 288.769C492.085 290.842 492.144 292.991 492.702 295.036C493.26 297.082 494.3 298.963 495.735 300.524L501.772 306.998C500.337 305.435 499.297 303.553 498.738 301.506C498.179 299.46 498.117 297.31 498.558 295.235C500.118 287.201 507.778 281.195 515.718 281.858C518.935 282.081 521.954 283.497 524.181 285.828L518.152 279.386C515.926 277.053 512.906 275.639 509.689 275.423V275.392ZM497.256 325.265C497.452 325.28 497.644 325.328 497.825 325.406C498.717 325.787 499.628 326.12 500.555 326.404C500.831 326.492 501.08 326.648 501.281 326.856L495.228 320.437C495.032 320.228 494.784 320.075 494.51 319.992C493.583 319.705 492.672 319.369 491.78 318.986C491.596 318.909 491.401 318.862 491.203 318.846C490.855 318.825 490.508 318.889 490.191 319.033C489.874 319.177 489.598 319.397 489.386 319.673L487.443 322.091C487.23 322.368 486.952 322.588 486.634 322.732C486.316 322.876 485.967 322.94 485.618 322.917C485.342 322.903 485.074 322.82 484.838 322.676C482.977 321.561 481.239 320.254 479.651 318.776L479.565 318.69L485.618 325.109L485.704 325.195C487.292 326.673 489.03 327.98 490.891 329.095C491.128 329.235 491.396 329.318 491.671 329.337C492.019 329.356 492.367 329.291 492.685 329.147C493.002 329.003 493.281 328.784 493.496 328.51L495.431 326.092C495.647 325.821 495.927 325.607 496.245 325.469C496.563 325.33 496.91 325.271 497.256 325.296V325.265ZM543.634 276.952C543.736 277.433 543.668 277.934 543.44 278.37C543.212 278.805 542.84 279.148 542.387 279.339L539.578 280.602C539.165 280.788 538.82 281.098 538.592 281.49C538.364 281.882 538.264 282.335 538.307 282.786C538.429 283.77 538.499 284.759 538.518 285.75C538.522 286.174 538.687 286.581 538.978 286.889L544.142 292.349C544.142 292.529 544.095 292.716 544.063 292.903C543.845 294.065 543.58 295.188 543.283 296.296C543.144 296.767 542.849 297.178 542.447 297.461C542.045 297.744 541.559 297.883 541.068 297.856L538.159 297.622C537.702 297.595 537.249 297.713 536.863 297.958C536.476 298.203 536.177 298.563 536.006 298.987C535.616 299.954 535.172 300.898 534.696 301.826C534.504 302.155 534.42 302.536 534.456 302.916C534.493 303.295 534.647 303.653 534.898 303.94L538.018 307.239C538.014 307.624 537.894 307.999 537.675 308.316C536.339 310.314 534.836 312.195 533.183 313.94C532.969 314.17 532.707 314.35 532.416 314.466C532.124 314.582 531.811 314.631 531.498 314.61C531.17 314.59 530.855 314.473 530.593 314.275L528.292 312.692C528.031 312.501 527.724 312.385 527.403 312.356C526.836 312.319 526.276 312.504 525.843 312.871C525.063 313.565 524.197 314.22 523.331 314.829C522.959 315.077 522.678 315.44 522.53 315.862C522.382 316.284 522.376 316.743 522.512 317.169L523.479 319.836C523.622 320.301 523.599 320.801 523.414 321.25C523.229 321.7 522.894 322.071 522.465 322.301C520.465 323.409 518.378 324.353 516.225 325.125L512.325 321.022C512.038 320.716 511.644 320.532 511.226 320.507C511.024 320.488 510.821 320.504 510.625 320.554C509.626 320.772 508.62 320.96 507.606 321.084C507.151 321.148 506.727 321.35 506.392 321.665C506.056 321.979 505.827 322.389 505.734 322.839L505.173 325.772C505.079 326.257 504.824 326.695 504.448 327.016C504.072 327.336 503.599 327.519 503.106 327.535C501.968 327.554 500.831 327.515 499.697 327.418C498.575 327.335 497.458 327.191 496.351 326.989C496.034 326.912 495.748 326.741 495.532 326.498C497.544 328.635 499.559 330.775 501.577 332.917C501.826 333.174 502.152 333.343 502.505 333.401C503.609 333.604 504.724 333.747 505.843 333.83C506.977 333.927 508.115 333.966 509.252 333.947C509.746 333.931 510.219 333.748 510.594 333.427C510.97 333.107 511.226 332.668 511.319 332.184L511.881 329.251C511.973 328.801 512.203 328.39 512.538 328.076C512.873 327.762 513.298 327.559 513.753 327.496C514.587 327.395 515.406 327.231 516.225 327.059C517.536 328.448 518.846 329.844 520.125 331.232C520.412 331.54 520.805 331.727 521.225 331.755C521.49 331.771 521.756 331.731 522.005 331.638C524.25 330.85 526.424 329.871 528.503 328.713C528.931 328.483 529.265 328.111 529.449 327.661C529.632 327.211 529.654 326.712 529.509 326.248L528.542 323.58C528.408 323.154 528.416 322.696 528.563 322.275C528.711 321.853 528.99 321.49 529.361 321.24C530.234 320.632 531.069 319.977 531.88 319.283C532.312 318.912 532.872 318.727 533.44 318.768C533.763 318.788 534.073 318.905 534.329 319.103L536.583 320.772C536.842 320.972 537.154 321.089 537.48 321.108C537.793 321.127 538.107 321.077 538.398 320.961C538.689 320.845 538.951 320.666 539.165 320.437C540.817 318.689 542.322 316.808 543.666 314.813C543.921 314.472 544.051 314.053 544.034 313.627C544.017 313.2 543.854 312.793 543.572 312.473L540.452 309.182C540.453 308.872 540.528 308.567 540.671 308.292C541.146 307.364 541.599 306.428 541.989 305.453C542.159 305.03 542.457 304.671 542.842 304.426C543.227 304.182 543.678 304.063 544.134 304.088L547.043 304.33C547.534 304.359 548.021 304.22 548.423 303.937C548.825 303.653 549.12 303.242 549.258 302.77C549.578 301.662 549.843 300.539 550.038 299.377C550.233 298.215 550.428 297.099 550.53 295.976C550.559 295.731 550.535 295.482 550.46 295.246C550.385 295.011 550.259 294.794 550.093 294.611L544.337 288.504C544.419 288.185 544.571 287.888 544.783 287.636C544.995 287.383 545.261 287.181 545.561 287.045L548.369 285.782C548.82 285.588 549.19 285.245 549.416 284.81C549.642 284.375 549.71 283.875 549.609 283.395C549.071 281.271 548.316 279.209 547.355 277.241C547.282 277.09 547.187 276.951 547.074 276.827L541.022 270.408C541.139 270.527 541.235 270.667 541.302 270.821C542.287 272.791 543.068 274.855 543.634 276.983V276.952ZM544.555 289.533C544.555 289.806 544.469 290.079 544.438 290.352C544.399 289.97 544.399 289.572 544.352 289.206C544.321 289.012 544.321 288.815 544.352 288.621C544.506 288.911 544.576 289.237 544.555 289.565V289.533Z" fill="#5652CC"/>
<path d="M469.277 290.376C469.394 289.245 469.55 288.114 469.776 286.959C470.002 285.805 470.268 284.69 470.556 283.582C470.697 283.111 470.992 282.702 471.394 282.419C471.796 282.136 472.281 281.996 472.771 282.022L475.696 282.256C476.151 282.28 476.601 282.162 476.984 281.917C477.368 281.672 477.665 281.313 477.834 280.891C478.231 279.924 478.668 278.98 479.144 278.052C479.372 277.678 479.456 277.234 479.38 276.803C479.304 276.373 479.073 275.984 478.731 275.712L476.476 274.043C476.114 273.741 475.88 273.312 475.824 272.843C475.767 272.375 475.892 271.903 476.172 271.523C477.519 269.538 479.021 267.662 480.665 265.915C480.879 265.683 481.142 265.502 481.435 265.385C481.727 265.267 482.043 265.216 482.358 265.236C482.685 265.263 482.999 265.382 483.262 265.58L485.501 267.249C485.764 267.439 486.074 267.555 486.398 267.584C486.68 267.605 486.964 267.568 487.232 267.477C487.5 267.386 487.747 267.242 487.958 267.054C488.738 266.375 489.604 265.72 490.462 265.104C490.837 264.858 491.121 264.496 491.272 264.074C491.422 263.651 491.431 263.191 491.296 262.764L490.329 260.096C490.18 259.632 490.2 259.13 490.386 258.678C490.571 258.227 490.91 257.857 491.343 257.631C493.419 256.476 495.587 255.495 497.825 254.699C498.074 254.607 498.34 254.57 498.605 254.589C498.928 254.609 499.238 254.722 499.498 254.915C499.759 255.107 499.958 255.371 500.071 255.674L501.046 258.341C501.163 258.649 501.368 258.916 501.636 259.107C501.904 259.299 502.223 259.407 502.552 259.418C502.756 259.432 502.961 259.417 503.16 259.371C504.159 259.147 505.165 258.968 506.179 258.833C506.627 258.762 507.043 258.556 507.37 258.242C507.698 257.929 507.922 257.522 508.012 257.078L508.566 254.137C508.663 253.652 508.921 253.214 509.297 252.893C509.673 252.572 510.146 252.386 510.64 252.366C511.779 252.366 512.91 252.366 514.041 252.483C515.172 252.6 516.295 252.725 517.387 252.912C517.613 252.954 517.827 253.041 518.018 253.168C518.209 253.294 518.372 253.459 518.498 253.651C518.623 253.842 518.708 254.058 518.748 254.283C518.788 254.509 518.781 254.741 518.729 254.964L518.175 257.897C518.082 258.313 518.149 258.748 518.363 259.117C518.577 259.486 518.922 259.76 519.33 259.886C520.266 260.182 521.17 260.51 522.06 260.884C522.238 260.969 522.432 261.017 522.629 261.024C522.971 261.05 523.315 260.993 523.63 260.857C523.945 260.721 524.222 260.511 524.439 260.244L526.396 257.811C526.612 257.537 526.89 257.319 527.208 257.176C527.526 257.034 527.874 256.97 528.222 256.992C528.496 257.008 528.763 257.088 529.002 257.226C530.856 258.353 532.596 259.659 534.196 261.126C534.526 261.466 534.716 261.919 534.727 262.393C534.739 262.867 534.572 263.328 534.259 263.684L532.317 266.118C532.029 266.446 531.863 266.863 531.847 267.3C531.832 267.736 531.967 268.164 532.231 268.512C532.843 269.244 533.413 270.01 533.939 270.806C534.081 271.025 534.272 271.21 534.496 271.345C534.721 271.48 534.973 271.562 535.234 271.586C535.575 271.61 535.916 271.545 536.224 271.398L539.025 270.143C539.336 269.996 539.68 269.931 540.023 269.955C540.315 269.972 540.598 270.067 540.841 270.23C541.083 270.393 541.278 270.619 541.404 270.884C542.364 272.853 543.122 274.915 543.666 277.038C543.768 277.519 543.699 278.02 543.471 278.456C543.243 278.891 542.871 279.234 542.418 279.425L539.61 280.688C539.196 280.874 538.851 281.184 538.623 281.576C538.395 281.968 538.295 282.421 538.338 282.872C538.46 283.856 538.53 284.845 538.549 285.836C538.55 286.259 538.711 286.666 539.001 286.975C539.291 287.283 539.687 287.47 540.109 287.498L543.026 287.732C543.255 287.746 543.479 287.807 543.683 287.911C543.888 288.015 544.069 288.16 544.215 288.337C544.362 288.514 544.47 288.719 544.534 288.94C544.597 289.16 544.615 289.391 544.586 289.619C544.477 290.75 544.313 291.881 544.095 293.02C543.876 294.159 543.611 295.305 543.315 296.413C543.175 296.884 542.88 297.295 542.478 297.578C542.076 297.861 541.59 298 541.099 297.973L538.19 297.739C537.733 297.712 537.28 297.83 536.894 298.075C536.507 298.32 536.208 298.68 536.037 299.104C535.647 300.071 535.203 301.015 534.727 301.943C534.508 302.312 534.429 302.748 534.505 303.171C534.581 303.593 534.806 303.974 535.14 304.244L537.394 305.929C537.763 306.223 538.001 306.651 538.058 307.119C538.114 307.587 537.986 308.059 537.699 308.433C536.362 310.431 534.859 312.312 533.206 314.057C532.993 314.287 532.731 314.467 532.439 314.583C532.148 314.699 531.834 314.748 531.521 314.727C531.193 314.707 530.878 314.59 530.616 314.392L528.292 312.692C528.031 312.501 527.724 312.385 527.403 312.356C526.835 312.319 526.276 312.504 525.843 312.871C525.063 313.565 524.197 314.22 523.331 314.829C522.959 315.077 522.678 315.44 522.53 315.862C522.382 316.284 522.376 316.743 522.512 317.169L523.479 319.836C523.622 320.301 523.599 320.801 523.414 321.25C523.229 321.7 522.894 322.071 522.465 322.301C520.388 323.459 518.217 324.44 515.976 325.234C515.725 325.321 515.46 325.358 515.196 325.343C514.873 325.322 514.563 325.208 514.304 325.014C514.045 324.82 513.848 324.555 513.737 324.251L512.754 321.599C512.65 321.293 512.456 321.025 512.197 320.83C511.938 320.635 511.627 320.523 511.303 320.507C511.102 320.488 510.899 320.504 510.703 320.554C509.704 320.772 508.698 320.96 507.684 321.084C507.229 321.148 506.805 321.35 506.469 321.664C506.134 321.979 505.905 322.389 505.812 322.839L505.251 325.772C505.157 326.257 504.901 326.695 504.526 327.016C504.15 327.336 503.677 327.519 503.184 327.535C502.046 327.554 500.908 327.515 499.775 327.418C498.653 327.335 497.536 327.191 496.429 326.989C496.203 326.95 495.988 326.866 495.797 326.741C495.606 326.616 495.442 326.453 495.316 326.262C495.19 326.071 495.105 325.857 495.066 325.631C495.026 325.406 495.034 325.175 495.087 324.953L495.641 322.02C495.737 321.605 495.674 321.169 495.463 320.799C495.251 320.429 494.908 320.152 494.502 320.024C493.575 319.736 492.664 319.4 491.772 319.017C491.588 318.94 491.394 318.893 491.195 318.877C490.848 318.856 490.5 318.92 490.183 319.064C489.867 319.208 489.59 319.428 489.378 319.704L487.435 322.122C487.222 322.399 486.944 322.619 486.626 322.763C486.308 322.907 485.959 322.971 485.61 322.949C485.334 322.934 485.066 322.851 484.83 322.707C482.969 321.592 481.231 320.285 479.643 318.807C479.312 318.469 479.122 318.019 479.112 317.546C479.102 317.074 479.272 316.615 479.589 316.264L481.523 313.83C481.813 313.501 481.979 313.081 481.992 312.642C482.005 312.203 481.864 311.774 481.593 311.428C480.993 310.695 480.431 309.93 479.901 309.135C479.761 308.914 479.572 308.728 479.349 308.593C479.126 308.458 478.874 308.376 478.614 308.355C478.269 308.331 477.923 308.393 477.607 308.534L474.815 309.798C474.501 309.945 474.155 310.01 473.809 309.985C473.517 309.967 473.235 309.871 472.993 309.708C472.75 309.545 472.555 309.32 472.428 309.057C471.482 307.077 470.727 305.011 470.174 302.887C470.079 302.408 470.151 301.912 470.376 301.48C470.602 301.047 470.968 300.704 471.414 300.508L474.222 299.237C474.636 299.056 474.982 298.749 475.21 298.359C475.439 297.969 475.538 297.518 475.494 297.068C475.377 296.093 475.314 295.11 475.283 294.104C475.286 293.68 475.125 293.271 474.835 292.962C474.545 292.653 474.146 292.467 473.723 292.443L470.806 292.209C470.36 292.167 469.95 291.951 469.663 291.608C469.377 291.264 469.238 290.821 469.277 290.376ZM509.689 275.423C501.717 274.776 494.026 280.758 492.529 288.8C491.031 296.842 496.179 303.878 504.112 304.517C512.044 305.157 519.79 299.166 521.319 291.132C522.847 283.098 517.621 276.063 509.619 275.423" fill="#807DFB"/>
<path d="M447.305 87.8722C448.678 85.033 450.056 82.1964 451.439 79.3624C452.289 77.5996 450.659 74.0506 449.746 72.4516L445.612 80.9614C446.541 82.5604 448.155 86.1094 447.305 87.8722ZM496.312 107.318L500.446 98.8156C498.45 98.9326 494.152 99.5956 493.278 101.397C491.9 104.237 490.522 107.073 489.144 109.907C490.01 108.098 494.308 107.427 496.312 107.318ZM458.872 97.5987H458.943C464.707 97.2789 471.61 100.883 474.402 105.672C475.713 107.942 475.876 110.071 475.073 111.732L479.207 103.223C479.987 101.569 479.847 99.4396 478.528 97.1698C475.744 92.3728 468.841 88.7692 463.077 89.0968H463.006C459.941 89.284 457.827 90.5476 456.922 92.404L452.788 100.914C453.701 99.0339 455.823 97.7704 458.872 97.5832V97.5987ZM498.988 116.74C496.944 115.671 492.202 113.573 489.487 113.729C488.983 113.728 488.491 113.881 488.076 114.166C487.332 114.625 486.549 115.017 485.736 115.336C485.504 115.402 485.29 115.516 485.106 115.67C484.921 115.825 484.772 116.017 484.667 116.233L481.157 123.464L479.402 123.573C478.248 121.592 474.722 116.709 471.235 116.233C470.073 116.015 468.895 115.734 467.764 115.406C467.2 115.217 466.604 115.138 466.009 115.172C463.287 115.32 461.205 117.863 460.487 119.072L453.202 115.281L453.412 114.837C454.263 113.09 455.261 109.494 452.547 107.474C451.634 106.694 450.768 105.953 449.949 105.134C447.656 102.614 441.533 102.411 439.099 102.544L438.92 102.24C440.22 99.5462 441.52 96.8577 442.82 94.1745C442.991 93.8281 443.027 93.4307 442.921 93.0592C442.776 92.2405 442.705 91.4102 442.711 90.5787C443.007 88.1685 437.04 84.526 434.552 83.239L430.418 91.741C432.906 93.0358 438.873 96.6784 438.577 99.0808C438.571 99.9148 438.641 100.748 438.787 101.569C438.84 101.751 438.858 101.942 438.842 102.131L435.644 96.7564L431.572 105.29L435.02 111.077C437.446 110.945 443.6 111.147 445.862 113.659C446.684 114.47 447.549 115.25 448.459 115.999C450.963 117.863 450.316 121.053 449.536 122.918L449.099 123.807L456.4 127.605C457.117 126.357 459.2 123.822 461.922 123.666C462.517 123.634 463.113 123.717 463.677 123.908C464.824 124.236 466.017 124.517 467.148 124.727C470.65 125.211 474.168 130.094 475.315 132.075L482.272 131.646L486.406 123.136L482.686 123.362C483.13 123.144 483.559 122.918 483.965 122.668C484.378 122.383 484.867 122.231 485.369 122.231C488.083 122.075 492.826 124.173 494.877 125.234L497.412 120.835L501.546 112.333L498.988 116.74Z" fill="#ED9F00"/>
<path d="M493.379 104.978C493.091 107.388 499.05 111.03 501.538 112.325L498.995 116.724C496.952 115.656 492.209 113.558 489.495 113.714C488.991 113.713 488.499 113.865 488.083 114.15C487.34 114.61 486.557 115.001 485.743 115.32C483.021 116.186 485.221 121.147 486.367 123.12L479.41 123.549C478.255 121.568 474.73 116.685 471.243 116.21C470.081 115.991 468.903 115.71 467.772 115.383C467.207 115.194 466.612 115.114 466.017 115.149C463.295 115.297 461.212 117.84 460.495 119.049L453.194 115.25C454.052 113.753 455.534 109.658 452.554 107.45C451.642 106.67 450.776 105.929 449.957 105.11C447.664 102.591 441.541 102.388 439.107 102.521L435.667 96.7329C438.007 96.5847 443.639 95.68 442.945 93.0358C442.799 92.2171 442.729 91.3868 442.734 90.5553C443.03 88.1451 437.063 84.5026 434.575 83.2156L437.118 78.8164C439.162 79.8772 443.904 81.9364 446.618 81.8194C447.122 81.8201 447.615 81.6678 448.03 81.3826C448.775 80.9261 449.558 80.5347 450.37 80.2126C453.092 79.339 450.893 74.386 449.746 72.4126L456.704 71.9836C457.85 73.9648 461.384 78.8397 464.878 79.3311C466.033 79.5417 467.218 79.8225 468.349 80.1111C468.914 80.3027 469.509 80.3848 470.104 80.3529C472.826 80.2047 474.901 77.6619 475.619 76.4529L482.92 80.2516C482.062 81.7492 480.58 85.8442 483.559 88.0516C484.48 88.8316 485.338 89.6116 486.157 90.3916C488.434 92.9032 494.518 93.1138 496.967 92.9734L500.438 98.7687C498.098 98.9091 492.475 99.8218 493.169 102.466C493.324 103.294 493.394 104.135 493.379 104.978ZM473.099 106.499C478.879 106.148 481.297 101.959 478.497 97.1385C475.697 92.3181 468.809 88.738 463.045 89.0656H462.975C457.187 89.4244 454.769 93.613 457.562 98.4256C460.354 103.238 467.304 106.826 473.068 106.538H473.138" fill="#FCBA06"/>
<path d="M424.092 321.451C424.092 321.584 424.155 321.755 424.186 321.88L425.543 327.902C425.451 327.502 425.404 327.094 425.403 326.685L423.468 318.105C423.469 318.514 423.517 318.922 423.609 319.322C423.773 320.024 423.929 320.741 424.092 321.451ZM397.424 335.218C396.774 332.348 396.129 329.488 395.49 326.638C395.363 326.092 395.158 325.566 394.881 325.078L396.816 333.658C397.095 334.145 397.3 334.671 397.424 335.218ZM445.254 330.632C445.254 330.756 445.324 330.928 445.347 331.061C445.191 329.856 445.42 328.632 446.003 327.566L444.068 318.986C443.486 320.052 443.256 321.276 443.413 322.481C444.032 325.195 444.645 327.912 445.254 330.632ZM381.575 346.824C380.935 343.964 380.29 341.104 379.64 338.244C379.205 337.01 378.363 335.959 377.253 335.265L379.188 343.845C380.3 344.537 381.142 345.588 381.575 346.824ZM461.213 337.878C460.885 336.45 462.437 334.493 463.599 333.408L461.665 324.828C460.503 325.913 458.951 327.87 459.278 329.298C459.933 332.153 460.578 335.013 461.213 337.878ZM371.037 359.991C371.037 359.858 370.967 359.687 370.943 359.562C370.33 356.837 369.716 354.115 369.102 351.395C368.767 349.929 366.333 348.876 364.719 348.439L366.653 357.019C368.276 357.471 370.733 358.524 371.037 359.991ZM476.157 343.494L474.223 334.914C472.663 335.694 470.323 337.254 469.878 338.814L471.813 347.394C472.281 345.865 474.597 344.297 476.157 343.494ZM362.816 371.738C364.578 371.956 366.419 372.518 366.895 373.586L364.953 365.006C364.485 363.906 362.613 363.376 360.881 363.158C360.185 363.071 359.484 363.027 358.783 363.025L360.717 371.605C361.419 371.607 362.12 371.651 362.816 371.738ZM482.085 365.646L480.182 357.183C480.806 356.957 481.441 356.764 482.085 356.606L480.151 348.026C478.412 348.447 475.666 349.43 474.457 350.779C474.625 352.423 474.625 354.08 474.457 355.724L476.017 362.814C474.734 362.971 473.491 363.365 472.351 363.977C472.016 364.811 471.649 365.638 471.228 366.48C470.807 367.323 470.346 368.126 469.863 368.937L471.314 375.372L470.175 376.854C469.531 376.687 468.877 376.562 468.217 376.48C466.773 376.26 465.3 376.34 463.888 376.714C462.417 378.26 460.854 379.716 459.208 381.074C459.161 381.332 459.161 381.596 459.208 381.854C459.512 383.196 459.809 384.53 460.113 385.871L455.433 389.093C454.183 388.244 452.755 387.692 451.26 387.478C450.816 387.435 450.37 387.435 449.926 387.478C447.934 388.617 445.878 389.657 443.756 390.598C443.486 391.019 443.307 391.492 443.232 391.987C443.156 392.481 443.186 392.986 443.319 393.468L443.694 395.122L436.416 397.821C435.985 397.052 435.39 396.386 434.675 395.87C433.96 395.354 433.141 395 432.275 394.833C430.059 395.465 427.79 396.011 425.504 396.464C424.82 397.006 424.269 397.698 423.893 398.486C423.517 399.274 423.327 400.138 423.336 401.011L415.473 401.978L415.2 400.777C415.101 400.168 414.855 399.592 414.484 399.099C414.114 398.606 413.629 398.21 413.071 397.946C410.918 398.031 408.765 398.039 406.62 397.946C404.717 398.734 403.167 400.19 402.26 402.041L396.231 401.261C395.958 400.028 395.677 398.796 395.396 397.571C395.304 397.105 395.06 396.683 394.702 396.37C392.846 395.949 391.052 395.465 389.343 394.911C387.003 395.028 384.492 396.807 383.244 397.977L380.904 396.932C380.444 394.872 379.983 392.821 379.515 390.762C379.484 390.623 379.435 390.489 379.367 390.364C378.089 389.587 376.859 388.733 375.686 387.806C375.506 387.759 375.324 387.725 375.14 387.704C373.646 387.626 372.153 387.873 370.764 388.43L369.017 380.63C368.329 379.597 367.713 378.518 367.176 377.4C366.607 377.011 365.945 376.78 365.257 376.73C363.51 376.593 361.753 376.743 360.054 377.174L358.666 371.995L360.6 380.575L361.989 385.754C362.863 385.552 363.748 385.406 364.641 385.317L366.528 393.695L370.53 397.907C372.09 397.127 374.999 395.988 377.082 396.245L377.386 396.3L379.071 403.78L385.186 406.518C386.442 405.348 388.969 403.569 391.293 403.452C392.658 403.897 394.094 404.287 395.568 404.638L396.691 409.614L404.202 410.55C405.112 408.7 406.665 407.244 408.57 406.455C410.708 406.541 412.86 406.533 415.013 406.455C415.789 406.794 416.411 407.408 416.76 408.179L417.283 410.519L425.278 409.536C425.269 408.663 425.459 407.799 425.835 407.011C426.211 406.223 426.762 405.531 427.446 404.989C429.74 404.537 431.999 403.993 434.225 403.359C435.089 403.527 435.906 403.882 436.62 404.398C437.334 404.913 437.927 405.578 438.359 406.346L445.87 403.562L445.176 400.488C445.236 400 445.416 399.534 445.698 399.131C447.82 398.156 449.887 397.103 451.868 395.964C452.313 395.934 452.76 395.947 453.202 396.003C454.698 396.217 456.125 396.77 457.375 397.618L463.498 393.367L462.39 388.445C463.568 387.408 464.73 386.347 465.76 385.239C467.17 384.869 468.64 384.789 470.081 385.005C470.741 385.088 471.395 385.213 472.039 385.38L476.04 380.177L474.301 372.455C476.04 371.441 478.872 371.129 480.58 371.121L482.085 365.646ZM368.712 389.397L364.906 385.388C365.705 385.305 366.51 385.305 367.308 385.388C367.996 385.438 368.658 385.669 369.227 386.058C369.647 386.913 370.111 387.746 370.616 388.554C369.967 388.802 369.332 389.083 368.712 389.397ZM478.763 362.588C478.006 362.592 477.251 362.644 476.501 362.744C476.543 361.617 476.506 360.489 476.391 359.367C477.457 358.383 478.728 357.648 480.112 357.214L478.763 362.588Z" fill="#BBC0E6"/>
<path d="M469.909 368.93C470.439 370.271 472.686 371.27 474.214 371.644L470.221 376.847C469.577 376.68 468.923 376.555 468.263 376.472C466.819 376.252 465.346 376.332 463.934 376.706C462.463 378.252 460.9 379.708 459.254 381.066C459.043 382.541 460.541 384.046 461.672 384.834L455.557 389.085C454.307 388.236 452.88 387.684 451.384 387.47C450.94 387.427 450.494 387.427 450.05 387.47C448.058 388.609 446.002 389.649 443.88 390.59C442.866 392.025 443.436 393.952 444.052 395.028L436.54 397.813C436.109 397.044 435.514 396.378 434.799 395.862C434.084 395.346 433.265 394.993 432.399 394.826C430.183 395.457 427.914 396.003 425.628 396.456C424.944 396.998 424.393 397.69 424.017 398.478C423.641 399.266 423.451 400.13 423.46 401.003L415.465 401.986C415.465 400.722 414.958 398.671 413.195 397.938C411.042 398.024 408.889 398.031 406.744 397.938C404.841 398.727 403.291 400.183 402.384 402.033L394.873 401.097C395.528 399.786 396.136 397.517 394.826 396.417C392.97 395.996 391.176 395.512 389.467 394.958C387.127 395.075 384.616 396.854 383.368 398.024L377.253 395.286C378.524 394.085 380.256 391.854 379.483 390.411C378.205 389.634 376.976 388.78 375.802 387.852C375.622 387.806 375.44 387.772 375.256 387.751C373.181 387.494 370.303 388.593 368.712 389.412L364.71 385.2C366.481 384.28 369.234 382.392 369.133 380.715C368.445 379.683 367.83 378.604 367.292 377.486C366.723 377.097 366.061 376.865 365.373 376.815C363.626 376.679 361.869 376.829 360.171 377.26L358.782 372.081C360.826 371.582 364.242 370.318 364.952 368.586C364.87 367.397 364.87 366.203 364.952 365.014C364.484 363.914 362.612 363.384 360.88 363.165C360.184 363.079 359.484 363.035 358.782 363.033L360.171 357.503C362.261 357.503 366.005 357.035 367.417 355.389C367.666 354.827 367.924 354.258 368.197 353.696C368.47 353.135 368.797 352.565 369.102 352.011C369.421 350.233 366.543 348.946 364.71 348.455L368.704 343.244C369.352 343.418 370.011 343.545 370.677 343.626C372.44 343.845 374.577 343.798 376.028 342.94C377.068 341.858 378.189 340.818 379.39 339.82C380.419 338.135 378.61 336.216 377.245 335.296L383.376 331.045C384.624 331.892 386.048 332.444 387.541 332.66C388.322 332.767 389.118 332.72 389.881 332.519C391.394 331.661 392.954 330.853 394.561 330.093C396.222 328.643 395.583 326.326 394.888 325.101L402.4 322.309C402.839 323.089 403.445 323.763 404.174 324.282C404.904 324.801 405.739 325.153 406.62 325.312C406.806 325.337 406.993 325.35 407.181 325.351C409.053 324.831 410.946 324.363 412.86 323.947C414.903 322.855 415.48 320.476 415.488 319.119L423.475 318.136C423.475 319.462 424.029 321.615 425.971 322.27C427.999 322.176 430.035 322.161 432.063 322.27C434.294 321.584 435.893 319.439 436.556 318.128L444.075 319.056C443.428 320.343 442.835 322.543 444.075 323.697C445.995 324.101 447.893 324.603 449.761 325.203C452.008 324.969 454.395 323.276 455.588 322.161L461.719 324.899C460.541 325.998 458.973 328.019 459.34 329.415C460.885 330.32 462.365 331.331 463.77 332.441C465.845 332.667 468.684 331.583 470.26 330.764L474.253 334.984C472.693 335.764 470.353 337.324 469.909 338.884C470.858 340.216 471.68 341.634 472.366 343.119C472.759 343.259 473.168 343.353 473.583 343.4C475.332 343.538 477.093 343.385 478.793 342.948L480.181 348.135C478.442 348.556 475.696 349.539 474.487 350.888C474.655 352.532 474.655 354.189 474.487 355.833C475.556 356.552 476.798 356.972 478.083 357.05C478.774 357.134 479.47 357.176 480.166 357.175L478.777 362.705C477.038 362.705 474.144 363.033 472.413 364.086C472.077 364.92 471.711 365.747 471.289 366.59C470.868 367.432 470.392 368.118 469.909 368.93ZM411.354 376.277C423.709 377.837 437.367 371.784 441.868 362.822C446.368 353.86 439.996 345.342 427.641 343.806C415.285 342.269 401.628 348.299 397.127 357.269C392.626 366.239 398.999 374.741 411.354 376.277Z" fill="#E9EDF7"/>
<path d="M399.677 364.094C404.178 355.124 417.836 349.102 430.191 350.631C436.127 351.364 440.674 353.751 443.303 356.949C443.217 350.397 437.234 344.999 427.64 343.806C415.285 342.246 401.627 348.299 397.127 357.269C394.787 361.949 395.395 366.457 398.234 369.951C398.236 367.911 398.731 365.901 399.677 364.094Z" fill="#BBC0E6"/>
<path d="M339.993 162.339L323.737 151.895L312.037 147.215L328.293 157.659L339.993 162.339ZM318.472 231.15L306.772 226.47L287.218 226.548L298.918 231.228L318.472 231.15ZM361.45 143.79L349.922 127.52L338.222 122.84L349.75 139.11L361.45 143.79ZM350.351 185.13L338.651 180.45C335.531 179.21 331.795 180.872 330.071 184.35C328.254 188.04 329.385 192.384 332.598 194.054C332.773 194.144 332.953 194.225 333.136 194.295L344.836 198.975C344.653 198.905 344.473 198.824 344.298 198.734C341.092 197.064 339.954 192.72 341.771 189.03C343.432 185.583 347.192 183.921 350.312 185.162L350.351 185.13ZM313.964 253.279L295.018 260.72L306.718 265.4L325.664 257.959L313.964 253.279ZM386.707 133.861L381.325 113.737L369.625 109.057L375.015 129.181L386.707 133.861ZM329.283 275.018L313.239 288.925L324.939 293.605L340.983 279.698L329.283 275.018ZM414.132 112.247L402.432 107.567L401.051 129.158L412.751 133.838L414.132 112.247ZM370.966 261.617L359.266 256.937C356.146 255.697 352.418 257.351 350.686 260.837C348.869 264.542 350 268.879 353.214 270.556C353.393 270.642 353.565 270.728 353.752 270.798L365.452 275.478C365.272 275.408 365.093 275.322 364.914 275.236C361.7 273.559 360.569 269.222 362.386 265.517C364.11 262.031 367.846 260.377 370.966 261.617ZM366.708 242.055C367.534 242.486 368.369 242.869 369.211 243.201L380.911 247.881C380.055 247.543 379.217 247.16 378.4 246.735C363.4 238.935 358.12 218.655 366.591 201.386C374.632 185.076 392.05 177.362 406.612 183.157L394.912 178.477C380.358 172.682 362.932 180.396 354.891 196.682C346.42 213.944 351.708 234.255 366.708 242.055ZM404.319 164.554C404.491 164.644 404.668 164.725 404.85 164.796L416.55 169.476C416.366 169.405 416.186 169.324 416.011 169.234C412.798 167.565 411.667 163.205 413.476 159.515C415.192 156.021 418.936 154.367 422.056 155.615L410.356 150.935C407.236 149.695 403.492 151.349 401.776 154.835C399.967 158.525 401.106 162.885 404.319 164.554ZM373.969 296.858L362.269 292.178C358.407 291.427 354.621 290.325 350.959 288.886L339.727 307.606L351.427 312.286L362.659 293.566C366.322 295.004 370.107 296.106 373.969 296.858ZM424.779 138.915C428.082 141.107 431.186 143.587 434.053 146.325L445.753 151.005C442.882 148.271 439.779 145.791 436.479 143.595L444.481 123.191L435.285 118.409L423.585 113.729L432.781 118.511L424.779 138.915ZM388.345 292.068C384.392 292.838 380.382 293.276 376.356 293.379L371.31 314.595L360.897 313.706L372.597 318.386L383.002 319.275L388.048 298.059C392.077 297.956 396.089 297.518 400.045 296.748L388.345 292.068ZM443.319 157.238C445.637 160.636 447.669 164.221 449.395 167.955L461.095 172.635C459.354 168.899 457.306 165.315 454.972 161.918L468.615 145.163L461.758 137.059L450.058 132.379L456.907 140.483L443.319 157.238ZM424.981 240.994C425.153 241.088 425.332 241.166 425.512 241.244L437.212 245.924C437.032 245.846 436.861 245.768 436.681 245.674C433.468 244.005 432.329 239.66 434.139 235.963C435.862 232.469 439.599 230.815 442.719 232.063L431.019 227.383C427.899 226.135 424.155 227.789 422.439 231.283C420.652 234.98 421.768 239.325 424.981 240.994ZM425.293 286.803L413.593 282.123C410.01 284.315 406.259 286.221 402.377 287.825L404.116 309.049L393.735 312.169L405.435 316.849L415.824 313.729L414.077 292.505C417.972 290.901 421.735 288.995 425.332 286.803H425.293ZM446.704 268.278L435.004 263.598C432.204 266.96 429.156 270.107 425.886 273.013L434.217 291.639L425.13 298.418L436.83 303.098L445.932 296.327L437.61 277.709C440.87 274.795 443.91 271.643 446.704 268.278ZM472.062 170.997L454.387 182.12C455.444 186.284 456.177 190.525 456.579 194.802L468.279 199.482C467.876 195.205 467.146 190.965 466.095 186.8L483.77 175.677L480.057 165.217L468.357 160.537L472.062 170.997ZM468.412 215.051L487.912 210.917L487.834 199.358L476.134 194.678L476.227 206.214L456.727 210.348C456.392 214.787 455.73 219.196 454.746 223.538L472.554 230.831L469.012 242.055L449.957 238.693C449.115 240.737 448.225 242.788 447.235 244.808C446.244 246.828 445.168 248.771 444.06 250.674L457.975 264.488L451.26 274.066L462.96 278.746L469.683 269.168L455.752 255.33C456.86 253.427 457.936 251.485 458.927 249.465C459.918 247.445 460.807 245.393 461.649 243.35L480.712 246.711L484.238 235.479L466.438 228.218C467.414 223.882 468.074 219.482 468.412 215.051Z" fill="#CED3F8"/>
<path d="M447.258 244.808C446.26 246.828 445.191 248.771 444.083 250.674L457.999 264.488L451.283 274.066L435.02 263.622C432.22 266.983 429.172 270.13 425.902 273.036L434.232 291.663L425.129 298.418L413.632 282.147C410.048 284.338 406.298 286.244 402.416 287.849L404.155 309.072L393.773 312.192L388.376 292.076C384.423 292.846 380.413 293.284 376.387 293.387L371.341 314.603L360.928 313.713L362.316 292.185C358.454 291.434 354.668 290.333 351.006 288.894L339.774 307.614L330.586 302.817L338.581 282.428C335.264 280.243 332.152 277.763 329.283 275.018L313.238 288.925L306.374 280.821L320.032 264.035C317.709 260.634 315.672 257.047 313.94 253.31L294.994 260.751L291.289 250.292L308.941 239.184C307.909 235.012 307.179 230.771 306.757 226.494L287.202 226.572L287.108 215.036L306.608 210.902C306.947 206.491 307.607 202.112 308.582 197.798L290.774 190.505L294.292 179.234L313.355 182.603C314.19 180.552 315.071 178.516 316.07 176.496C317.068 174.476 318.137 172.526 319.244 170.615L305.329 156.809L312.045 147.238L328.3 157.682C331.107 154.324 334.157 151.178 337.426 148.268L329.104 129.633L338.198 122.918L349.727 139.188C353.309 136.997 357.06 135.093 360.943 133.494L359.204 112.263L369.593 109.143L374.983 129.267C378.934 128.482 382.945 128.044 386.972 127.956L392.018 106.74L402.447 107.622L401.051 129.158C404.91 129.909 408.694 131.01 412.353 132.449L423.585 113.729L432.781 118.511L424.778 138.915C428.082 141.107 431.185 143.587 434.053 146.325L450.105 132.434L456.953 140.538L443.319 157.238C445.637 160.636 447.669 164.221 449.395 167.955L468.357 160.506L472.062 170.966L454.387 182.12C455.444 186.284 456.176 190.525 456.579 194.802L476.149 194.724L476.243 206.261L456.743 210.395C456.4 214.818 455.732 219.211 454.746 223.538L472.553 230.831L469.012 242.055L449.957 238.693C449.138 240.737 448.249 242.788 447.258 244.808ZM366.707 242.055C381.715 249.855 400.747 242.234 409.225 225.004C417.704 207.774 412.423 187.463 397.416 179.647C382.409 171.831 363.377 179.468 354.89 196.706C346.404 213.944 351.708 234.255 366.707 242.055ZM410.894 151.169C407.681 149.5 403.601 151.169 401.784 154.835C399.967 158.501 401.105 162.885 404.319 164.554C407.533 166.223 411.612 164.554 413.422 160.888C415.231 157.222 414.108 152.846 410.894 151.169ZM424.981 240.994C428.195 242.671 432.266 241.033 434.076 237.344C435.886 233.654 434.762 229.294 431.549 227.625C428.335 225.956 424.256 227.586 422.438 231.291C420.621 234.996 421.768 239.325 424.981 240.994ZM332.582 194.124C335.796 195.793 339.875 194.124 341.693 190.473C343.51 186.823 342.371 182.424 339.158 180.755C335.944 179.085 331.865 180.755 330.055 184.421C328.246 188.087 329.369 192.455 332.582 194.124ZM353.237 270.564C356.45 272.233 360.53 270.603 362.347 266.898C364.165 263.193 363.026 258.864 359.812 257.187C356.599 255.51 352.527 257.187 350.71 260.845C348.892 264.503 350.023 268.887 353.237 270.564Z" fill="#E9EDF7"/>
<path d="M401.55 171.231C382.51 161.317 358.338 171.012 347.566 192.899C336.794 214.786 343.526 240.565 362.566 250.463C381.606 260.361 405.785 250.689 416.549 228.818C427.313 206.947 420.606 181.16 401.55 171.231ZM409.225 225.004C400.747 242.234 381.715 249.87 366.708 242.055C351.7 234.239 346.428 213.975 354.891 196.706C363.354 179.436 382.417 171.831 397.416 179.647C412.416 187.463 417.712 207.766 409.225 225.004Z" fill="#F6F6FB"/>
<path d="M52.2508 116.163L71.1502 105.828L88.8796 115.898L85.7596 110.399L68.0302 100.298L49.1308 110.656L47.9608 131.061L51.0808 136.56L52.2508 116.163ZM294.41 116.943C294.69 111.966 299.043 107.848 304.55 107.583L342.356 107.31L339.236 101.811L301.43 102.084C295.923 102.333 291.57 106.452 291.29 111.444L290.393 126.864L293.513 132.363L294.41 116.943ZM302.576 156.957C302.038 156.957 301.5 156.957 300.954 157.004C287.156 157.105 275.432 150.311 269.021 139.984H269.333L266.213 134.485L95.8684 135.702C92.7623 140.821 88.4495 145.101 83.3071 148.169C78.1646 151.236 72.3491 152.998 66.3688 153.299C65.9086 153.299 65.4484 153.299 64.9882 153.338C52.672 153.423 42.2668 147.137 36.9082 137.683L40.0282 143.182C45.3868 152.643 55.792 158.922 68.1082 158.837C68.5684 158.837 69.0364 158.837 69.4966 158.798C75.4769 158.497 81.2924 156.735 86.4349 153.668C91.5773 150.6 95.8901 146.32 98.9962 141.201L268.95 139.992L271.392 144.297C277.632 155.303 289.73 162.612 304.066 162.51C304.586 162.51 305.124 162.495 305.681 162.464C312.769 162.109 319.657 159.991 325.719 156.302C331.782 152.612 336.827 147.467 340.398 141.333L337.278 135.834C333.704 141.958 328.659 147.094 322.6 150.777C316.54 154.46 309.658 156.573 302.576 156.926V156.957ZM96.8044 103.823L99.9244 109.283C100.21 109.803 100.47 110.323 100.704 110.843L97.5844 105.344C97.3556 104.84 97.0956 104.333 96.8044 103.823Z" fill="#BBC0E6"/>
<path d="M294.612 137.09L291.492 131.63C290.683 130.192 290.307 128.55 290.408 126.903L293.528 132.402C293.428 134.037 293.805 135.665 294.612 137.09Z" fill="#BBC0E6"/>
<path d="M290.392 126.864C290.333 128.078 290.526 129.291 290.96 130.426C291.394 131.561 292.058 132.594 292.912 133.459C293.765 134.324 294.789 135.002 295.918 135.452C297.047 135.901 298.257 136.111 299.471 136.068L337.278 135.795C333.707 141.929 328.661 147.074 322.599 150.764C316.536 154.453 309.648 156.571 302.56 156.926C302.022 156.926 301.484 156.926 300.938 156.972C284.815 157.089 271.5 147.815 266.212 134.446L95.8678 135.663C92.7616 140.782 88.4489 145.062 83.3064 148.13C78.164 151.197 72.3484 152.959 66.3682 153.26C65.908 153.26 65.4478 153.26 64.9876 153.299C46.3377 153.431 32.056 138.954 33.0856 120.968C34.0918 103.425 49.2783 89.0343 67.3275 88.2075C67.7878 88.2075 68.2558 88.1685 68.716 88.1685C81.6874 88.0749 92.545 95.0637 97.576 105.375L267.959 104.198C271.371 97.5702 276.464 91.9553 282.728 87.9144C288.992 83.8735 296.207 81.5485 303.652 81.1719C304.19 81.1719 304.728 81.1719 305.274 81.1251C320.64 81.0237 333.464 89.4399 339.212 101.795L301.406 102.068C295.899 102.318 291.546 106.436 291.266 111.428L290.392 126.864ZM84.5812 130.764L85.7512 110.367L68.0296 100.298L49.1302 110.656L47.9602 131.061L65.6896 141.131L84.5968 130.796" fill="#DDE2F8"/>
<path d="M103.434 122.364C103.543 121.085 104.115 119.889 105.043 119.002C105.971 118.114 107.19 117.596 108.473 117.543L246.712 116.553C247.846 116.528 248.952 116.907 249.832 117.621C249.39 117.003 248.804 116.501 248.124 116.16C247.445 115.819 246.692 115.649 245.932 115.664L107.662 116.678C106.38 116.728 105.16 117.245 104.232 118.131C103.304 119.017 102.732 120.212 102.623 121.49C102.575 122.183 102.691 122.878 102.962 123.518C103.233 124.157 103.651 124.724 104.183 125.172C103.624 124.347 103.36 123.357 103.434 122.364Z" fill="#BBC0E6"/>
<path d="M107.326 126.225L245.55 125.258C246.833 125.2 248.052 124.679 248.98 123.791C249.908 122.903 250.483 121.709 250.596 120.429C250.652 119.438 250.378 118.456 249.816 117.637C248.936 116.923 247.83 116.544 246.696 116.568L108.457 117.559C107.174 117.611 105.955 118.13 105.027 119.017C104.099 119.905 103.527 121.1 103.418 122.379C103.358 123.369 103.633 124.35 104.198 125.164C105.08 125.882 106.19 126.258 107.326 126.225Z" fill="#CED3F8"/>
<path d="M539.212 377.978L528.947 380.068C528.59 380.132 528.257 380.291 527.982 380.529C527.708 380.766 527.502 381.073 527.387 381.417L524.057 391.347C523.946 391.686 523.925 392.049 523.996 392.399C524.068 392.749 524.228 393.074 524.462 393.344L531.404 401.19C531.641 401.457 531.944 401.657 532.282 401.771C532.619 401.884 532.981 401.907 533.331 401.838L543.596 399.755C543.952 399.688 544.284 399.528 544.558 399.291C544.832 399.054 545.038 398.748 545.156 398.406L548.486 388.476C548.599 388.137 548.621 387.774 548.55 387.424C548.479 387.073 548.317 386.748 548.081 386.48L541.139 378.625C540.902 378.359 540.599 378.159 540.261 378.046C539.923 377.932 539.562 377.909 539.212 377.978Z" fill="#FCBA06"/>
<path d="M35.6833 403.569L40.0123 418.912C40.1182 419.291 40.322 419.635 40.6034 419.91C40.8847 420.185 41.2335 420.381 41.6147 420.478C41.9959 420.576 42.396 420.571 42.7747 420.464C43.1534 420.358 43.4974 420.153 43.7719 419.871L54.9025 408.476C55.1775 408.194 55.3736 407.845 55.4712 407.463C55.5688 407.082 55.5644 406.682 55.4586 406.302C55.3527 405.923 55.1491 405.578 54.868 405.303C54.587 405.027 54.2384 404.83 53.8573 404.732L38.4211 400.832C38.0421 400.731 37.6435 400.732 37.2649 400.834C36.8864 400.936 36.5413 401.135 36.2641 401.412C35.9869 401.69 35.7873 402.035 35.6854 402.413C35.5835 402.792 35.5827 403.19 35.6833 403.569ZM337.013 0.0051496L321.109 0.902151C320.717 0.924812 320.339 1.04986 320.011 1.26479C319.683 1.47973 319.417 1.777 319.24 2.12687C319.063 2.47674 318.982 2.86693 319.003 3.2584C319.024 3.64988 319.148 4.0289 319.361 4.35755L328.09 17.68C328.303 18.0157 328.602 18.2884 328.956 18.4701C329.31 18.6517 329.706 18.7358 330.104 18.7135C330.501 18.6913 330.885 18.5636 331.217 18.3435C331.548 18.1234 331.815 17.819 331.99 17.4616L339.166 3.24215C339.343 2.88935 339.423 2.49604 339.399 2.1021C339.375 1.70815 339.247 1.32756 339.029 0.998925C338.81 0.670286 338.508 0.405272 338.154 0.230749C337.8 0.0562262 337.407 -0.0216043 337.013 0.0051496Z" fill="#807DFB"/>
</svg>
