<svg width="48" height="43" viewBox="0 0 48 43" fill="none" xmlns="http://www.w3.org/2000/svg">
<path d="M22.3039 10.6712C23.3161 10.0261 24.6839 10.0261 25.6961 10.6712L46.8025 24.1222C48.3992 25.1398 48.3992 27.235 46.8025 28.2526L25.6961 41.7036C24.6839 42.3486 23.3161 42.3486 22.3039 41.7036L1.19753 28.2526C-0.399176 27.235 -0.399175 25.1398 1.19753 24.1222L22.3039 10.6712Z" fill="url(#paint0_linear_1951_83086)"/>
<path d="M22.3039 6.17118C23.3161 5.52611 24.6839 5.52611 25.6961 6.17118L46.8025 19.6222C48.3992 20.6398 48.3992 22.735 46.8025 23.7526L25.6961 37.2036C24.6839 37.8486 23.3161 37.8486 22.3039 37.2036L1.19753 23.7526C-0.399176 22.735 -0.399175 20.6398 1.19753 19.6222L22.3039 6.17118Z" fill="url(#paint1_linear_1951_83086)"/>
<path d="M22.3039 0.671243C23.3161 0.0261701 24.6839 0.0261714 25.6961 0.671244L46.8025 14.1223C48.3992 15.1398 48.3992 17.2351 46.8025 18.2526L25.6961 31.7036C24.6839 32.3487 23.3161 32.3487 22.3039 31.7036L1.19753 18.2526C-0.399176 17.2351 -0.399175 15.1398 1.19753 14.1223L22.3039 0.671243Z" fill="url(#paint2_linear_1951_83086)"/>
<defs>
<linearGradient id="paint0_linear_1951_83086" x1="1.4361e-06" y1="7.68738" x2="19.2787" y2="51.753" gradientUnits="userSpaceOnUse">
<stop stop-color="#85D8F2"/>
<stop offset="1" stop-color="#EBD4FD"/>
</linearGradient>
<linearGradient id="paint1_linear_1951_83086" x1="1.4361e-06" y1="3.18738" x2="19.2787" y2="47.253" gradientUnits="userSpaceOnUse">
<stop stop-color="#51CEF5"/>
<stop offset="1" stop-color="#C585F8"/>
</linearGradient>
<linearGradient id="paint2_linear_1951_83086" x1="1.4361e-06" y1="-2.31256" x2="19.2787" y2="41.753" gradientUnits="userSpaceOnUse">
<stop stop-color="#00B0E8"/>
<stop offset="1" stop-color="#8D2FD7"/>
</linearGradient>
</defs>
</svg>
