<svg width="206" height="182" viewBox="0 0 206 182" fill="none" xmlns="http://www.w3.org/2000/svg">
<path d="M145.117 167.514C145.117 167.514 151.126 173.049 150.812 175.091C150.497 177.132 149.579 182 150.824 182H194.308C194.57 182 194.821 181.897 195.007 181.713C195.193 181.528 195.298 181.277 195.299 181.016C195.309 179.055 194.893 174.748 191.171 173.535H196.946C197.117 173.536 197.284 173.492 197.433 173.408C197.582 173.324 197.706 173.203 197.795 173.057C197.883 172.911 197.932 172.745 197.937 172.574C197.942 172.403 197.903 172.234 197.824 172.083C196.433 169.459 193.252 164.177 190.071 163.941C190.071 163.941 184.104 162.265 179.822 159.231C175.54 156.198 163.987 145.661 163.987 145.661L158.978 150.044L160.556 151.693L145.117 167.514Z" fill="#6950E8"/>
<path d="M75.9453 138.502C110.219 108.115 118.934 120.128 118.934 120.128C129.657 110.907 160.296 137.807 165.697 142.699C165.801 142.793 165.883 142.907 165.939 143.035C165.995 143.163 166.023 143.302 166.022 143.441C166.021 143.581 165.99 143.719 165.931 143.846C165.873 143.973 165.788 144.086 165.682 144.177L159.365 149.705L160.631 150.983C160.723 151.076 160.796 151.186 160.845 151.307C160.894 151.428 160.919 151.558 160.918 151.689C160.917 151.82 160.89 151.949 160.838 152.069C160.787 152.19 160.713 152.299 160.619 152.39L142.675 169.896C142.496 170.07 142.258 170.171 142.009 170.177C141.759 170.184 141.516 170.096 141.329 169.931L118.531 149.909C117.526 149.026 116.247 148.516 114.91 148.467C113.573 148.418 112.26 148.832 111.193 149.64C102.466 156.251 80.5106 172 67.7008 173.389C51.4478 175.151 46.7095 160.432 46.7095 160.432" fill="#FEBF06"/>
<path d="M9.51931 170.608C9.45986 170.608 9.40261 170.586 9.35799 170.547C9.31337 170.507 9.28436 170.453 9.27625 170.395C9.26813 170.336 9.28146 170.276 9.31379 170.226C9.34613 170.176 9.39532 170.139 9.4524 170.123L17.5784 167.826C17.61 167.816 17.6432 167.813 17.6761 167.816C17.709 167.819 17.7408 167.829 17.7699 167.845C17.7989 167.861 17.8245 167.882 17.8451 167.908C17.8657 167.934 17.881 167.964 17.89 167.995C17.899 168.027 17.9015 168.06 17.8975 168.093C17.8934 168.126 17.8828 168.158 17.8664 168.186C17.8499 168.215 17.8279 168.24 17.8016 168.26C17.7753 168.28 17.7452 168.295 17.7132 168.303L9.58672 170.599C9.56484 170.606 9.54214 170.609 9.51931 170.609V170.608ZM22.6706 170.785C22.6111 170.786 22.5535 170.764 22.5084 170.725C22.4634 170.686 22.4338 170.633 22.4251 170.574C22.4165 170.515 22.4293 170.455 22.4613 170.405C22.4932 170.354 22.5422 170.317 22.5992 170.3L26.9966 168.975C27.0593 168.957 27.1268 168.964 27.1844 168.995C27.242 169.026 27.2849 169.079 27.3039 169.141C27.3229 169.204 27.3163 169.271 27.2857 169.329C27.255 169.387 27.2028 169.43 27.1403 169.45L22.7425 170.775C22.7194 170.782 22.6953 170.785 22.6711 170.785H22.6706Z" fill="#0F172A"/>
<path d="M140.262 29.6269L148.643 22.8044L146.971 20.577L140.262 29.6269Z" fill="#6950E8"/>
<path d="M77.485 128.465C77.485 128.465 73.4049 140.67 57.9409 151.97L75.9455 138.502L77.485 128.465ZM68.2468 105.617C61.7901 107.051 58.8425 99.0201 58.8425 99.0201C60.7471 100.543 63.0148 101.545 65.4231 101.927C65.5123 103.891 66.0759 104.664 66.6211 104.989C66.6211 104.989 66.7569 105.069 68.2468 105.617ZM91.1513 87.9896C91.1063 87.9897 91.0621 87.9775 91.0235 87.9544C90.9849 87.9312 90.9534 87.898 90.9322 87.8583L82.6139 72.2645C82.537 72.1203 82.4893 71.9624 82.4737 71.7997C82.4581 71.6371 82.4748 71.473 82.5228 71.3168C82.5708 71.1606 82.6493 71.0155 82.7536 70.8898C82.858 70.7641 82.9862 70.6602 83.1308 70.5843L91.5022 66.182C91.6511 66.1037 91.8144 66.0565 91.9822 66.0433C92.1499 66.0302 92.3186 66.0513 92.4779 66.1055C92.6372 66.1597 92.7838 66.2457 92.9087 66.3584C93.0337 66.4711 93.1344 66.608 93.2047 66.7609L99.2317 79.8547C99.2464 79.8844 99.255 79.9167 99.257 79.9498C99.259 79.9829 99.2543 80.016 99.2433 80.0473C99.2322 80.0785 99.215 80.1072 99.1927 80.1317C99.1704 80.1562 99.1434 80.176 99.1133 80.1898C99.0832 80.2037 99.0506 80.2114 99.0175 80.2124C98.9843 80.2135 98.9513 80.2078 98.9204 80.1959C98.8895 80.184 98.8613 80.166 98.8375 80.143C98.8136 80.1199 98.7946 80.0924 98.7817 80.0619L92.7547 66.9681C92.7125 66.8763 92.652 66.7941 92.577 66.7265C92.5019 66.6589 92.4139 66.6073 92.3183 66.5748C92.2227 66.5422 92.1215 66.5295 92.0208 66.5374C91.9201 66.5453 91.8221 66.5736 91.7327 66.6206L83.3613 71.0229C83.2745 71.0685 83.1977 71.1309 83.1351 71.2063C83.0725 71.2818 83.0255 71.3688 82.9967 71.4625C82.9679 71.5562 82.9579 71.6547 82.9674 71.7523C82.9768 71.8498 83.0054 71.9446 83.0515 72.031L91.3699 87.6249C91.3901 87.6626 91.4002 87.705 91.3991 87.7478C91.3981 87.7906 91.386 87.8325 91.364 87.8692C91.3419 87.9059 91.3108 87.9364 91.2735 87.9575C91.2362 87.9786 91.1941 87.9897 91.1513 87.9896Z" fill="#0F172A"/>
<path d="M99.9049 80.7829C99.6682 80.7832 99.4365 80.7154 99.2372 80.5876C99.038 80.4598 98.8797 80.2775 98.7813 80.0622L93.6167 68.8419C93.5145 68.6208 93.4801 68.3743 93.5175 68.1336C93.555 67.8928 93.6628 67.6685 93.8273 67.4888L114.916 45.0155C114.938 44.9901 114.965 44.9693 114.995 44.9545C115.025 44.9396 115.058 44.931 115.091 44.9292C115.125 44.9274 115.158 44.9324 115.19 44.9438C115.221 44.9553 115.25 44.9731 115.274 44.996C115.299 45.019 115.318 45.0467 115.332 45.0774C115.345 45.1081 115.352 45.1412 115.352 45.1747C115.353 45.2082 115.346 45.2414 115.333 45.2723C115.32 45.3033 115.301 45.3312 115.277 45.3546L94.1906 67.8254C94.0927 67.9332 94.0288 68.0675 94.0067 68.2114C93.9847 68.3554 94.0056 68.5026 94.0667 68.6348L99.2313 79.8546C99.2964 79.9984 99.4061 80.1176 99.544 80.1945C99.6819 80.2714 99.8409 80.302 99.9976 80.2818L129.178 76.5853C129.243 76.5787 129.308 76.5973 129.359 76.6373C129.411 76.6772 129.445 76.7355 129.455 76.7999C129.459 76.8323 129.457 76.8652 129.448 76.8966C129.44 76.9281 129.425 76.9576 129.405 76.9834C129.385 77.0092 129.36 77.0308 129.332 77.0469C129.303 77.0631 129.272 77.0735 129.24 77.0775L100.059 80.7735C100.008 80.7797 99.9564 80.7829 99.9049 80.7829ZM83.978 76.1735L81.1806 77.2961C81.0544 77.3466 80.94 77.4226 80.8445 77.5192C80.7489 77.6159 80.6743 77.7311 80.6251 77.8578C80.576 77.9845 80.5535 78.12 80.5589 78.2558C80.5643 78.3916 80.5976 78.5248 80.6567 78.6472L83.5532 84.6504C83.6648 84.8816 83.8617 85.0605 84.1026 85.1494C84.3434 85.2383 84.6093 85.2304 84.8444 85.1272L87.8445 83.8108C87.9695 83.7559 88.0818 83.6757 88.1744 83.5753C88.267 83.4749 88.3379 83.3565 88.3825 83.2275C88.4272 83.0984 88.4447 82.9616 88.434 82.8254C88.4233 82.6893 88.3846 82.5568 88.3203 82.4364L85.2215 76.6275C85.1067 76.4118 84.9162 76.2462 84.6867 76.1624C84.4571 76.0787 84.2048 76.0826 83.978 76.1735Z" fill="#0F172A"/>
<path d="M129.209 76.8316C131.864 75.6476 130.857 67.6036 126.96 58.8647C123.063 50.1259 117.751 44.0014 115.096 45.1854C112.441 46.3694 113.448 54.4135 117.345 63.1523C121.242 71.8912 126.554 78.0156 129.209 76.8316Z" fill="#DB7E24"/>
<path d="M118.808 59.1343C117.821 59.1343 116.86 59.4541 116.07 60.0458C116.453 61.0643 116.878 62.1027 117.346 63.1519C118.111 64.8731 118.965 66.5535 119.905 68.1862C120.995 67.9186 121.949 67.2609 122.588 66.3374C123.226 65.4138 123.504 64.2885 123.369 63.174C123.234 62.0595 122.695 61.0331 121.855 60.2887C121.014 59.5444 119.93 59.1337 118.808 59.1343ZM34.7146 139.961C34.6751 139.961 34.6363 139.952 34.6012 139.934C34.5661 139.916 34.5358 139.89 34.5128 139.858C30.2092 133.864 28.4546 127.429 29.5713 121.738C30.5908 116.539 33.9691 112.008 39.3404 108.636C45.0615 105.042 45.0561 101.32 45.0496 97.0096C45.0422 92.2738 45.0343 86.906 52.2181 80.309C56.8077 76.0936 61.0653 74.3613 64.8738 75.1593C70.0472 76.2438 72.4442 81.5679 72.5448 81.7949V81.7954C75.5925 88.7513 76.0708 94.7029 73.8909 98.553C73.3573 99.5431 72.5952 100.392 71.668 101.028C70.7407 101.665 69.675 102.071 68.5593 102.213C63.4265 102.87 59.3285 99.7337 58.7501 99.2643C55.2093 99.1389 53.2604 97.3595 53.2604 94.2474C53.2521 94.1161 53.2737 93.9845 53.3237 93.8628C53.3736 93.741 53.4506 93.6322 53.5489 93.5446C53.995 93.1719 54.8043 93.3176 55.8298 93.5025C56.3215 93.5996 56.8178 93.6721 57.3167 93.7196C57.3772 93.7212 57.4373 93.7104 57.4935 93.6878C57.5496 93.6652 57.6004 93.6313 57.6429 93.5882C58.7471 92.6331 59.3122 87.6485 59.4371 85.8086C59.441 85.7506 59.4653 85.6958 59.5056 85.6538C59.546 85.6119 59.5998 85.5854 59.6576 85.5792C63.979 85.1423 68.1717 83.8572 71.9956 81.7974C71.5089 80.825 69.1457 76.5585 64.7692 75.6431C61.1252 74.8813 57.0174 76.5749 52.5531 80.6738C45.5299 87.1236 45.5378 92.3759 45.5448 97.0091C45.5522 101.467 45.5577 105.317 39.6035 109.055C34.3512 112.353 31.0508 116.772 30.0575 121.833C28.9671 127.389 30.6929 133.687 34.9158 139.569C34.9423 139.606 34.9581 139.65 34.9614 139.695C34.9647 139.741 34.9555 139.786 34.9346 139.827C34.9138 139.867 34.8821 139.901 34.8432 139.925C34.8043 139.949 34.7596 139.961 34.7141 139.961H34.7146ZM54.3642 93.8098C54.1904 93.793 54.0159 93.8334 53.8671 93.9247C53.8245 93.9659 53.7923 94.0166 53.773 94.0725C53.7537 94.1285 53.7479 94.1883 53.7561 94.2469C53.7561 97.1147 55.5176 98.6794 58.8493 98.7721C58.9064 98.7738 58.9612 98.7951 59.0044 98.8326C59.0455 98.8683 63.2015 102.4 68.4959 101.722C69.535 101.589 70.5274 101.21 71.3907 100.616C72.254 100.023 72.9633 99.2317 73.4597 98.3092C74.6651 96.1799 76.0896 91.2746 72.2018 82.2504C68.3895 84.296 64.2179 85.5856 59.9164 86.0485C59.8252 87.2182 59.3236 92.7897 57.967 93.9629C57.8754 94.0492 57.7673 94.1159 57.6491 94.159C57.5309 94.2021 57.4052 94.2207 57.2796 94.2137C56.7635 94.1655 56.2501 94.091 55.7416 93.9907C55.2878 93.8942 54.827 93.8337 54.3637 93.8098H54.3642Z" fill="#0F172A"/>
<path d="M66.1974 119.345C66.129 119.345 66.0601 119.343 65.9902 119.34C59.2743 119.055 57.0078 107.587 56.9141 107.099C56.9023 107.037 56.9143 106.973 56.9476 106.92C56.9809 106.867 57.033 106.829 57.0935 106.813C58.3861 106.464 58.7004 101.854 58.5943 99.0296C58.5919 98.9639 58.6157 98.9 58.6604 98.8518C58.7051 98.8037 58.7671 98.7753 58.8327 98.7728C58.8655 98.7705 58.8984 98.7749 58.9294 98.7859C58.9604 98.7968 58.9889 98.8139 59.013 98.8363C59.0371 98.8586 59.0563 98.8857 59.0696 98.9158C59.0828 98.9459 59.0898 98.9783 59.0899 99.0112C59.1182 99.7705 59.3031 106.228 57.4429 107.204C57.7765 108.739 60.1491 118.596 66.0116 118.845C66.4717 118.896 66.9372 118.828 67.3638 118.648C67.7905 118.468 68.1642 118.183 68.4496 117.818C70.6423 114.955 68.4367 107.122 68.0625 105.863C67.4831 105.822 66.9328 105.593 66.4953 105.211C65.7216 104.543 65.2775 103.444 65.1754 101.945C65.1709 101.879 65.1927 101.815 65.2359 101.765C65.2792 101.716 65.3403 101.685 65.4059 101.681C65.4715 101.676 65.5362 101.698 65.5857 101.741C65.6352 101.784 65.6656 101.846 65.6701 101.911C65.7717 103.406 66.247 104.477 67.046 105.008C67.3951 105.245 67.807 105.371 68.2286 105.37C68.2839 105.368 68.3387 105.383 68.3845 105.414C68.4304 105.445 68.4649 105.49 68.4828 105.543C68.6023 105.92 71.3744 114.814 68.8431 118.12C68.5335 118.522 68.1312 118.843 67.6706 119.057C67.2099 119.27 66.7045 119.369 66.1974 119.345Z" fill="#0F172A"/>
<path d="M53.1705 128.25C49.9399 128.25 43.8995 125.03 43.0852 124.587C43.0377 124.561 42.9999 124.521 42.9776 124.471C42.9553 124.422 42.9497 124.367 42.9618 124.314C42.9955 124.165 46.4729 109.316 57.1009 106.811C57.1326 106.803 57.1655 106.802 57.1976 106.807C57.2297 106.813 57.2605 106.824 57.2882 106.841C57.3159 106.858 57.3399 106.881 57.3589 106.907C57.378 106.934 57.3916 106.964 57.399 106.995C57.4065 107.027 57.4076 107.06 57.4024 107.092C57.3971 107.124 57.3856 107.155 57.3685 107.183C57.3513 107.21 57.3289 107.234 57.3024 107.253C57.276 107.272 57.2461 107.286 57.2144 107.294C47.5197 109.579 43.9208 122.546 43.4901 124.242C46.2196 125.704 53.0391 128.876 54.4472 127.379C55.5945 126.049 56.3469 124.425 56.6196 122.69C56.623 122.657 56.6328 122.625 56.6486 122.596C56.6645 122.567 56.6859 122.541 56.7117 122.521C56.7376 122.5 56.7673 122.485 56.7991 122.476C56.8309 122.467 56.8642 122.464 56.8969 122.469C56.9297 122.473 56.9614 122.483 56.99 122.5C57.0186 122.516 57.0436 122.538 57.0636 122.565C57.0836 122.591 57.0981 122.621 57.1063 122.653C57.1145 122.685 57.1162 122.718 57.1113 122.751C56.8325 124.593 56.0334 126.316 54.8081 127.719C54.5852 127.913 54.3252 128.061 54.0437 128.152C53.7622 128.243 53.4651 128.276 53.1705 128.249V128.25Z" fill="#0F172A"/>
<path d="M26.1941 173.326C25.5645 173.349 24.9347 173.283 24.3236 173.129C23.3328 172.82 22.6979 172.35 22.4352 171.733C22.3214 171.464 22.282 171.17 22.3212 170.881C19.8688 171.496 9.72204 173.947 8.3739 172.765C8.19008 172.635 8.04438 172.459 7.95198 172.254C7.85958 172.049 7.82385 171.822 7.84851 171.599C7.91734 171.362 8.03264 171.141 8.18769 170.949C8.34273 170.758 8.53442 170.599 8.75157 170.482C8.11616 170.334 7.2929 170.03 7.14867 169.433C7.02476 168.919 7.40739 168.365 8.31739 167.742C8.2495 167.577 8.21549 167.4 8.21736 167.222C8.21923 167.044 8.25696 166.868 8.3283 166.705C8.6237 166.048 9.47322 165.592 10.8556 165.348C10.7842 165.181 10.7684 164.995 10.8105 164.818C10.9934 164.051 12.1903 163.435 14.4713 162.934C19.5615 161.816 23.0399 160.491 23.5479 159.473C24.1328 158.304 42.2167 125.639 42.9864 124.249C43.0186 124.192 43.0719 124.15 43.1347 124.133C43.1975 124.115 43.2648 124.123 43.3219 124.154C43.379 124.186 43.4214 124.239 43.4397 124.301C43.4581 124.364 43.4511 124.431 43.4201 124.489C43.2318 124.829 24.5709 158.535 23.991 159.694C23.1519 161.375 17.1284 162.858 14.5773 163.418C11.7923 164.029 11.3527 164.681 11.2922 164.932C11.2807 165.007 11.2884 165.084 11.3146 165.155C11.3407 165.226 11.3846 165.289 11.4419 165.339C11.4795 165.369 11.5074 165.41 11.5221 165.456C11.5368 165.502 11.5377 165.552 11.5246 165.598C11.5116 165.645 11.4853 165.686 11.4488 165.718C11.4124 165.75 11.3674 165.77 11.3195 165.777C9.52973 166.025 8.95033 166.529 8.78032 166.908C8.72973 167.034 8.70895 167.171 8.71961 167.307C8.73027 167.442 8.77207 167.574 8.84178 167.691C8.85999 167.718 8.87259 167.749 8.87886 167.781C8.88513 167.813 8.88494 167.846 8.8783 167.878C8.87167 167.91 8.85871 167.941 8.84018 167.968C8.82166 167.995 8.79794 168.018 8.77041 168.036C7.97342 168.551 7.55807 169.018 7.63044 169.316C7.74443 169.787 8.96817 170.057 9.54361 170.114C9.59882 170.119 9.65058 170.143 9.69058 170.182C9.73058 170.22 9.75652 170.271 9.76423 170.326C9.77194 170.381 9.76098 170.437 9.73311 170.485C9.70524 170.533 9.66207 170.57 9.61052 170.591C9.28637 170.72 8.42594 171.168 8.33672 171.684C8.33099 171.824 8.36154 171.962 8.42539 172.086C8.48924 172.21 8.58421 172.316 8.70102 172.392C9.64125 173.22 17.7316 171.545 22.6087 170.297C22.6547 170.285 22.7032 170.286 22.7484 170.301C22.7936 170.316 22.8335 170.344 22.8634 170.381C22.8932 170.418 22.9119 170.463 22.917 170.51C22.9221 170.557 22.9135 170.605 22.8922 170.648C22.8319 170.79 22.8011 170.943 22.8015 171.097C22.8019 171.252 22.8336 171.405 22.8947 171.547C23.0999 172.02 23.6302 172.393 24.4718 172.656C25.4893 172.974 27.9998 172.856 31.7314 172.315C33.1951 172.107 34.5807 171.526 35.7549 170.628C36.9291 169.73 37.8526 168.544 38.4364 167.186C48.2848 144.545 53.9718 129.887 53.6491 127.976C53.6383 127.911 53.6536 127.845 53.6919 127.791C53.7301 127.738 53.788 127.701 53.8528 127.691C53.9177 127.68 53.9842 127.695 54.0378 127.733C54.0913 127.771 54.1275 127.829 54.1383 127.894C54.6072 130.675 44.7871 153.83 38.8914 167.384C38.274 168.82 37.2976 170.073 36.0561 171.022C34.8146 171.972 33.3497 172.586 31.8023 172.806C29.9468 173.105 28.0731 173.279 26.1941 173.326Z" fill="#0F172A"/>
<path d="M8.63527 168.076C8.5739 168.076 8.51477 168.053 8.46935 168.011C8.42393 167.97 8.39544 167.913 8.38939 167.852C8.38334 167.791 8.40018 167.73 8.43663 167.681C8.47308 167.631 8.52655 167.597 8.5867 167.585L14.4164 166.407C14.4487 166.4 14.4821 166.399 14.5148 166.405C14.5474 166.411 14.5786 166.423 14.6064 166.441C14.6343 166.459 14.6582 166.482 14.6769 166.509C14.6955 166.537 14.7085 166.568 14.715 166.6C14.7216 166.633 14.7215 166.666 14.7149 166.699C14.7083 166.731 14.6952 166.762 14.6765 166.789C14.6577 166.816 14.6337 166.84 14.6058 166.858C14.5779 166.876 14.5467 166.888 14.5141 166.893L8.68483 168.071C8.66852 168.075 8.65192 168.076 8.63527 168.076V168.076ZM11.2855 165.78C11.2253 165.78 11.1672 165.758 11.1219 165.718C11.0766 165.679 11.0473 165.624 11.0394 165.564C11.0315 165.505 11.0456 165.444 11.079 165.394C11.1124 165.344 11.1629 165.308 11.221 165.292L15.8146 164.056C15.8781 164.039 15.9458 164.047 16.0028 164.08C16.0597 164.113 16.1014 164.167 16.1184 164.231C16.1355 164.294 16.1267 164.362 16.0939 164.419C16.0611 164.476 16.007 164.517 15.9435 164.534L11.3504 165.771C11.3294 165.776 11.3077 165.779 11.286 165.78H11.2855ZM45.04 161.623C44.8625 161.622 44.6906 161.56 44.5528 161.448C43.393 160.538 43.5412 155.808 43.5615 155.271C43.5603 155.238 43.5663 155.205 43.5791 155.174C43.5919 155.143 43.6112 155.116 43.6357 155.093C43.6602 155.071 43.6893 155.054 43.7209 155.043C43.7526 155.033 43.7862 155.03 43.8193 155.034C43.8848 155.036 43.9467 155.065 43.9913 155.113C44.0359 155.161 44.0596 155.225 44.0572 155.29C43.9828 157.219 44.1345 160.49 44.8586 161.058C44.8962 161.091 44.9417 161.113 44.9906 161.123C45.0396 161.132 45.0901 161.128 45.1372 161.112C46.4477 160.738 67.5471 144.648 75.6983 138.379C75.7211 136.542 76.2475 133.748 76.7575 131.045C77.0896 129.283 77.4034 127.62 77.5838 126.221C78.0407 122.68 75.2756 116.405 75.2478 116.343C75.2333 116.31 75.2259 116.275 75.2263 116.239C75.2268 116.203 75.2349 116.168 75.2502 116.136C75.2655 116.104 75.2876 116.075 75.315 116.052C75.3424 116.029 75.3744 116.012 75.4089 116.003C79.9519 114.764 81.0532 107.963 81.2123 106.765C74.939 104.134 68.3768 105.839 68.3108 105.857C68.2792 105.866 68.2461 105.868 68.2134 105.864C68.1808 105.86 68.1492 105.85 68.1206 105.834C68.092 105.818 68.0669 105.796 68.0468 105.77C68.0267 105.744 68.012 105.714 68.0035 105.682C67.995 105.65 67.9929 105.617 67.9974 105.585C68.0018 105.552 68.0127 105.521 68.0294 105.492C68.0461 105.464 68.0683 105.439 68.0947 105.42C68.121 105.4 68.151 105.386 68.183 105.378C68.2504 105.36 75.0971 103.58 81.5791 106.383C81.6274 106.403 81.6679 106.439 81.6945 106.484C81.7212 106.53 81.7327 106.582 81.7273 106.635C81.6936 106.972 80.855 114.76 75.8123 116.399C76.3427 117.647 78.5012 122.983 78.0754 126.284C77.893 127.697 77.5783 129.367 77.2447 131.136C76.7278 133.879 76.193 136.714 76.193 138.501C76.1931 138.539 76.1844 138.577 76.1676 138.611C76.1508 138.645 76.1265 138.675 76.0963 138.698C74.9068 139.613 46.9487 161.11 45.2735 161.589C45.1978 161.611 45.1194 161.622 45.0405 161.623H45.04ZM128.106 118.613C124.435 117.851 121.226 118.157 118.934 120.129L141.076 134.733L128.106 118.613Z" fill="#0F172A"/>
<path d="M85.1576 109.511C84.1515 109.511 82.2948 108.935 81.1083 108.528C81.0461 108.507 80.9949 108.461 80.9661 108.402C80.9372 108.343 80.933 108.275 80.9544 108.213C80.9757 108.151 81.0209 108.1 81.08 108.071C81.1391 108.042 81.2072 108.038 81.2693 108.059C83.0358 108.666 85.1309 109.188 85.4342 108.994C85.9497 108.462 91.8364 98.1339 91.4052 97.1842C85.1864 88.6691 84.8315 86.6092 85.2171 85.7666C85.3339 85.5648 85.5043 85.3992 85.7093 85.2882C85.9143 85.1771 86.146 85.1248 86.3789 85.1372C87.8757 85.0172 91.3685 87.7081 91.7616 88.0159C91.7937 88.041 91.8191 88.0736 91.8357 88.1108C91.8523 88.1481 91.8595 88.1888 91.8567 88.2295C91.8552 88.2458 91.7427 89.8701 92.505 90.5193C92.683 90.6544 92.8915 90.7435 93.1122 90.7787C93.3328 90.8139 93.5587 90.7941 93.7699 90.7211C93.8039 90.713 93.8392 90.7122 93.8735 90.7187C93.9078 90.7253 93.9403 90.739 93.969 90.7589C93.9976 90.7789 94.0217 90.8047 94.0397 90.8347C94.0576 90.8646 94.0691 90.898 94.0732 90.9327C94.0752 90.9476 94.269 92.4697 95.1602 93.0838C95.3549 93.2124 95.576 93.2959 95.8072 93.3283C96.0383 93.3606 96.2738 93.3409 96.4964 93.2706C96.5316 93.2616 96.5684 93.2605 96.604 93.2674C96.6397 93.2744 96.6734 93.2892 96.7026 93.3108C96.7319 93.3322 96.7562 93.3599 96.7737 93.3917C96.7911 93.4236 96.8014 93.4589 96.8037 93.4952C96.8047 93.514 96.9355 95.3796 97.9803 96.2083C98.205 96.3796 98.4641 96.5001 98.7398 96.5615C99.0155 96.623 99.3012 96.6239 99.5773 96.5642C99.6162 96.5577 99.656 96.5605 99.6936 96.5725C99.7311 96.5845 99.7653 96.6052 99.7932 96.633C99.8211 96.6609 99.842 96.6949 99.8541 96.7324C99.8662 96.7699 99.8692 96.8098 99.8628 96.8487C99.8603 96.8635 99.6398 98.3078 100.705 99.0929C101.155 99.3957 101.695 99.5342 102.235 99.4851C102.775 99.436 103.282 99.2023 103.67 98.8233L105.456 97.147C105.504 97.104 105.567 97.0816 105.632 97.0846C105.696 97.0875 105.757 97.1156 105.801 97.1628C105.846 97.21 105.869 97.2727 105.868 97.3373C105.867 97.402 105.84 97.4635 105.794 97.5089L104.009 99.1846C103.624 99.5947 103.12 99.8743 102.568 99.9846C102.017 100.095 101.444 100.03 100.931 99.7997C100.418 99.5692 99.9893 99.1843 99.7052 98.6987C99.4212 98.213 99.2957 97.6509 99.3463 97.0905C98.745 97.1467 98.1451 96.9696 97.6706 96.5959C96.708 95.8306 96.4196 94.4101 96.3383 93.8064C95.8289 93.8962 95.3045 93.7829 94.8776 93.4907C94.0425 92.9148 93.7278 91.7708 93.6252 91.2534C93.3733 91.3044 93.1132 91.2988 92.8638 91.237C92.6144 91.1752 92.3818 91.0587 92.1828 90.896C91.3685 90.2006 91.3422 88.7762 91.3561 88.3276C90.2508 87.4776 87.4817 85.5401 86.4195 85.6313C85.9799 85.667 85.7618 85.7662 85.6677 85.9733C85.1983 86.9983 87.2651 90.674 91.8096 96.8977C92.7355 98.1661 85.8654 109.263 85.7777 109.35C85.5977 109.478 85.377 109.535 85.1576 109.511Z" fill="#0F172A"/>
<path d="M91.5511 121.636C87.1142 121.637 75.8884 116.696 75.3739 116.468C75.3154 116.441 75.2701 116.391 75.2475 116.331C75.2249 116.27 75.227 116.203 75.2532 116.144C75.2794 116.085 75.3277 116.038 75.3878 116.014C75.4478 115.99 75.5149 115.991 75.5747 116.015C75.709 116.075 89.0709 121.963 92.3704 121.052C94.4234 120.486 98.6145 115.225 104.826 105.418C108.348 99.86 109.045 93.5748 109.146 90.3234C109.184 89.1151 108.907 88.2066 108.321 87.6232C107.861 87.1876 107.255 86.9396 106.622 86.9278C106.586 86.9321 106.549 86.927 106.516 86.9131C106.483 86.8992 106.453 86.877 106.431 86.8485C106.407 86.8224 106.389 86.7913 106.377 86.7574C106.366 86.7236 106.362 86.6877 106.366 86.6522C106.409 86.4184 106.398 86.178 106.334 85.9491C106.27 85.7201 106.155 85.5087 105.998 85.3309C105.26 84.5378 103.704 84.5933 103.689 84.5928C103.651 84.5951 103.612 84.5881 103.577 84.5726C103.542 84.5571 103.512 84.5334 103.488 84.5036C103.463 84.4743 103.446 84.4398 103.437 84.4027C103.429 84.3657 103.428 84.3271 103.437 84.29C103.528 84.0447 103.555 83.7803 103.515 83.5218C103.475 83.2634 103.369 83.0194 103.209 82.813C102.54 82.1305 100.981 82.4432 100.964 82.4472C100.919 82.4566 100.871 82.453 100.828 82.4368C100.784 82.4205 100.746 82.3923 100.718 82.3554C100.689 82.3185 100.672 82.2743 100.667 82.2279C100.663 82.1816 100.672 82.1349 100.693 82.0933C100.741 81.9533 100.735 81.8004 100.676 81.6646C100.583 81.4237 100.308 81.0644 99.519 80.7189C98.3612 80.2129 94.177 85.1371 91.8099 88.3577C91.771 88.4108 91.7127 88.4462 91.6477 88.4562C91.5827 88.4663 91.5164 88.4501 91.4634 88.4113C91.4104 88.3724 91.3749 88.3141 91.3649 88.2491C91.3548 88.1841 91.371 88.1178 91.4099 88.0648C92.472 86.62 97.8661 79.4516 99.7178 80.2649C100.028 80.3659 100.314 80.5283 100.56 80.7424C100.805 80.9565 101.005 81.2179 101.148 81.511C101.194 81.6383 101.219 81.7728 101.219 81.9085C101.797 81.844 102.927 81.8178 103.562 82.4656C103.757 82.6851 103.896 82.9481 103.968 83.2326C104.041 83.5171 104.043 83.8148 103.977 84.1007C104.528 84.1245 105.681 84.2642 106.359 84.9913C106.538 85.1866 106.676 85.4158 106.765 85.6654C106.854 85.915 106.892 86.18 106.877 86.4446C107.549 86.5073 108.18 86.7969 108.665 87.2658C109.356 87.9498 109.684 88.9837 109.642 90.3388C109.538 93.6412 108.83 100.026 105.246 105.683C98.8767 115.737 94.7084 120.921 92.5018 121.53C92.191 121.607 91.8713 121.643 91.5511 121.636V121.636Z" fill="#0F172A"/>
<path d="M93.8277 91.2096C93.7807 91.2096 93.7347 91.1962 93.695 91.1711C93.6553 91.1459 93.6235 91.11 93.6035 91.0675C93.5834 91.025 93.5759 90.9777 93.5817 90.931C93.5875 90.8844 93.6065 90.8404 93.6364 90.8041L98.7206 84.6379C98.7407 84.611 98.766 84.5884 98.795 84.5716C98.8241 84.5548 98.8562 84.544 98.8895 84.54C98.9228 84.5359 98.9566 84.5387 98.9888 84.5481C99.021 84.5575 99.051 84.5734 99.0769 84.5947C99.1028 84.616 99.1241 84.6424 99.1395 84.6722C99.1549 84.702 99.1641 84.7346 99.1665 84.7681C99.1689 84.8016 99.1645 84.8352 99.1536 84.8669C99.1426 84.8986 99.1253 84.9278 99.1028 84.9526L94.019 91.1194C93.9958 91.1476 93.9666 91.1704 93.9335 91.186C93.9004 91.2016 93.8643 91.2097 93.8277 91.2096ZM96.5567 93.7582C96.5104 93.7582 96.4651 93.7452 96.4259 93.7208C96.3866 93.6964 96.3549 93.6615 96.3344 93.6201C96.314 93.5786 96.3055 93.5322 96.31 93.4862C96.3145 93.4402 96.3318 93.3964 96.3599 93.3596L101.424 86.7642C101.465 86.7133 101.524 86.6803 101.588 86.6724C101.653 86.6644 101.718 86.6822 101.769 86.7218C101.821 86.7614 101.855 86.8197 101.864 86.8841C101.873 86.9485 101.856 87.0138 101.817 87.066L96.7529 93.6615C96.7298 93.6916 96.7001 93.7159 96.666 93.7326C96.632 93.7494 96.5946 93.7581 96.5567 93.7582ZM99.6187 97.0566C99.5629 97.0568 99.5087 97.0379 99.4651 97.0031C99.4134 96.9625 99.38 96.903 99.3722 96.8378C99.3644 96.7725 99.3828 96.7068 99.4235 96.6552L104.606 90.0597C104.646 90.008 104.706 89.9745 104.771 89.9666C104.837 89.9588 104.902 89.9772 104.954 90.0178C105.006 90.0584 105.039 90.1179 105.047 90.1832C105.055 90.2485 105.037 90.3143 104.996 90.366L99.8135 96.9615C99.7903 96.991 99.7608 97.0148 99.727 97.0312C99.6933 97.0476 99.6563 97.0561 99.6187 97.0561V97.0566ZM191.17 173.535C191.17 173.535 187.673 172.614 181.071 169.402C174.469 166.19 160.902 151.504 160.902 151.504C160.902 151.504 176.075 164.406 181.25 166.19C186.424 167.974 196.897 170.433 196.897 170.433L197.774 172.078C197.855 172.229 197.895 172.398 197.891 172.569C197.886 172.741 197.838 172.908 197.749 173.054C197.661 173.201 197.537 173.323 197.388 173.407C197.239 173.491 197.07 173.535 196.899 173.535H191.17ZM69.0179 94.175C68.8278 94.1755 68.6389 94.1445 68.4588 94.0833C67.9933 93.9072 67.6132 93.5588 67.3972 93.1103C67.3804 93.0812 67.3697 93.049 67.3658 93.0156C67.3619 92.9822 67.3648 92.9483 67.3743 92.9161C67.3839 92.8839 67.3999 92.8539 67.4215 92.8281C67.443 92.8022 67.4695 92.781 67.4995 92.7658C67.5295 92.7505 67.5622 92.7415 67.5958 92.7393C67.6293 92.7371 67.663 92.7418 67.6947 92.753C67.7264 92.7643 67.7555 92.7818 67.7801 92.8047C67.8048 92.8275 67.8246 92.8551 67.8383 92.8858C67.9965 93.2194 68.2761 93.48 68.6199 93.6144C68.9524 93.7002 69.3037 93.6751 69.6206 93.5431C69.9375 93.4111 70.2027 93.1793 70.376 92.8829C70.6288 92.4021 70.3433 91.6447 69.7272 90.1132C69.5619 89.7026 69.3828 89.2976 69.1904 88.8989C68.9697 88.463 68.7905 88.0073 68.6551 87.5379C68.3032 86.3186 68.0479 85.4378 68.5624 84.8282C69.062 84.2359 70.1733 84.1521 71.3915 84.6151C71.4232 84.6257 71.4524 84.6426 71.4774 84.6647C71.5023 84.6869 71.5226 84.7138 71.5369 84.744C71.5511 84.7742 71.5592 84.8069 71.5605 84.8403C71.5618 84.8736 71.5564 84.9069 71.5445 84.9381C71.5327 84.9693 71.5146 84.9978 71.4915 85.0219C71.4683 85.0459 71.4406 85.0651 71.4099 85.0781C71.3791 85.0912 71.3461 85.0979 71.3127 85.0979C71.2793 85.0979 71.2463 85.0911 71.2156 85.078C70.2119 84.6974 69.2985 84.7251 68.9411 85.1474C68.5981 85.5548 68.8221 86.329 69.1319 87.4001C69.2596 87.8439 69.4289 88.2747 69.6375 88.6868C69.7802 88.9871 69.9586 89.3608 70.1871 89.9283C70.831 91.5273 71.1854 92.4085 70.8141 93.1138C70.6319 93.4308 70.3706 93.6951 70.0559 93.8811C69.7411 94.0671 69.3835 94.1683 69.0179 94.175ZM67.4324 97.8685C66.9455 97.8854 66.4665 97.7418 66.0694 97.4596C65.7737 97.1977 65.5399 96.8734 65.3848 96.5101C65.2296 96.1469 65.157 95.7538 65.1722 95.3591C65.1719 95.326 65.1785 95.2933 65.1916 95.263C65.2048 95.2326 65.2242 95.2055 65.2485 95.1831C65.2729 95.1608 65.3017 95.1439 65.333 95.1335C65.3644 95.1231 65.3976 95.1194 65.4305 95.1226C65.4961 95.1255 65.558 95.1542 65.6026 95.2025C65.6471 95.2507 65.6708 95.3147 65.6684 95.3804C65.658 95.6947 65.7151 96.0077 65.8358 96.2981C65.9565 96.5885 66.1381 96.8497 66.3682 97.0641C66.9134 97.469 67.7585 97.4774 68.8836 97.0879C68.9146 97.0762 68.9476 97.071 68.9807 97.0723C69.0137 97.0737 69.0462 97.0816 69.0761 97.0957C69.1061 97.1098 69.1329 97.1297 69.155 97.1544C69.1771 97.179 69.1941 97.2078 69.2049 97.2391C69.2157 97.2704 69.2201 97.3035 69.2178 97.3365C69.2156 97.3696 69.2068 97.4018 69.1919 97.4314C69.1771 97.4609 69.1564 97.4872 69.1312 97.5087C69.106 97.5301 69.0767 97.5463 69.0452 97.5562C68.5285 97.7485 67.9835 97.854 67.4324 97.8685ZM62.2212 88.6496C62.1799 88.6495 62.1392 88.6392 62.103 88.6194C62.0667 88.5997 62.0359 88.5712 62.0134 88.5365C61.991 88.5018 61.9776 88.4621 61.9744 88.4209C61.9712 88.3797 61.9783 88.3384 61.9952 88.3007C62.352 87.5626 62.9753 86.9872 63.7394 86.6903C64.1691 86.5636 64.6207 86.5288 65.0648 86.5882C65.5088 86.6477 65.9354 86.8 66.3167 87.0353C66.3747 87.0662 66.4181 87.1189 66.4373 87.1817C66.4565 87.2446 66.4499 87.3126 66.419 87.3706C66.4037 87.3993 66.3829 87.4248 66.3578 87.4455C66.3327 87.4662 66.3037 87.4817 66.2726 87.4912C66.2097 87.5104 66.1418 87.5038 66.0837 87.4729C65.7624 87.2717 65.4026 87.1397 65.0273 87.0855C64.652 87.0313 64.2696 87.0561 63.9044 87.1582C63.2696 87.4124 62.7508 87.8917 62.4472 88.5044C62.4275 88.5477 62.3957 88.5845 62.3556 88.6103C62.3155 88.636 62.2689 88.6497 62.2212 88.6496Z" fill="#0F172A"/>
<path d="M65.1317 90.8065C65.5626 90.8065 65.9118 90.4572 65.9118 90.0263C65.9118 89.5955 65.5626 89.2462 65.1317 89.2462C64.7008 89.2462 64.3516 89.5955 64.3516 90.0263C64.3516 90.4572 64.7008 90.8065 65.1317 90.8065Z" fill="#0F172A"/>
<path d="M71.3036 88.7505C71.7344 88.7505 72.0837 88.4012 72.0837 87.9703C72.0837 87.5395 71.7344 87.1902 71.3036 87.1902C70.8727 87.1902 70.5234 87.5395 70.5234 87.9703C70.5234 88.4012 70.8727 88.7505 71.3036 88.7505Z" fill="#0F172A"/>
<path d="M140.262 29.8746C140.241 29.8746 140.22 29.8719 140.199 29.8667C140.151 29.8542 140.108 29.8277 140.076 29.7906C140.043 29.7535 140.022 29.7075 140.016 29.6585L138.617 18.7108L126.352 17.2026C126.298 17.196 126.248 17.172 126.209 17.1342C126.17 17.0964 126.145 17.0469 126.137 16.9933C126.129 16.9397 126.139 16.885 126.165 16.8375C126.191 16.79 126.232 16.7523 126.281 16.7302L163.75 0.0216935C163.794 0.00189917 163.843 -0.00454163 163.891 0.00316446C163.939 0.0108705 163.983 0.0323857 164.019 0.065059C164.055 0.0977322 164.08 0.140133 164.092 0.187033C164.104 0.233933 164.102 0.283279 164.086 0.328988L153.957 29.6481C153.943 29.6906 153.917 29.7283 153.882 29.7572C153.848 29.7861 153.806 29.8051 153.762 29.8121C153.717 29.8191 153.672 29.8139 153.63 29.7971C153.588 29.7803 153.552 29.7524 153.525 29.7165L146.973 20.9917L140.461 29.7745C140.438 29.8056 140.408 29.8308 140.373 29.8482C140.339 29.8656 140.3 29.8746 140.262 29.8746ZM146.971 20.3296C147.01 20.3296 147.047 20.3385 147.082 20.3557C147.116 20.3729 147.146 20.3979 147.169 20.4287L153.642 29.0454L163.43 0.706666L127.298 16.8199L138.869 18.2424C138.924 18.2491 138.975 18.2739 139.014 18.3127C139.053 18.3516 139.078 18.4024 139.085 18.457L140.43 28.9844L146.772 20.4297C146.795 20.3987 146.825 20.3735 146.859 20.3562C146.894 20.3388 146.932 20.3297 146.97 20.3296H146.971Z" fill="#0F172A"/>
<path d="M138.839 18.4888L163.851 0.247803L146.971 20.577L140.262 29.6269L138.839 18.4888ZM83.1851 119.303C83.1851 119.303 80.0765 117.714 79.6547 112.568C78.5841 115.108 75.474 116.242 75.474 116.242C75.474 116.242 79.168 117.876 83.1841 119.303H83.1851ZM123.404 52.6702C123.359 52.6701 123.314 52.6574 123.275 52.6336C123.236 52.6098 123.205 52.5757 123.184 52.5352C123.163 52.4946 123.154 52.4491 123.158 52.4037C123.161 52.3582 123.177 52.3146 123.204 52.2776C123.685 51.6095 124.158 50.9345 124.62 50.2529C124.657 50.1985 124.714 50.161 124.779 50.1486C124.843 50.1361 124.91 50.1499 124.964 50.1868C125.019 50.2236 125.056 50.2806 125.069 50.3452C125.081 50.4097 125.067 50.4766 125.031 50.531C124.565 51.2164 124.09 51.8951 123.606 52.5671C123.583 52.599 123.553 52.625 123.518 52.643C123.483 52.6609 123.444 52.6702 123.405 52.6702H123.404ZM126.187 48.5697C126.143 48.5696 126.099 48.5576 126.061 48.5349C126.023 48.5122 125.992 48.4797 125.971 48.4407C125.949 48.4018 125.939 48.3578 125.94 48.3135C125.942 48.2691 125.955 48.226 125.979 48.1886C126.422 47.4943 126.856 46.794 127.281 46.0881C127.315 46.0317 127.369 45.991 127.433 45.9751C127.497 45.9592 127.565 45.9692 127.621 46.0031C127.677 46.0369 127.718 46.0918 127.734 46.1556C127.75 46.2194 127.74 46.2869 127.706 46.3433C127.279 47.0531 126.842 47.7571 126.396 48.4552C126.374 48.4904 126.343 48.5193 126.306 48.5393C126.27 48.5593 126.229 48.5698 126.187 48.5697ZM128.744 44.3241C128.701 44.324 128.658 44.3126 128.62 44.291C128.583 44.2693 128.552 44.2382 128.53 44.2008C128.508 44.1633 128.497 44.1208 128.496 44.0775C128.496 44.0341 128.507 43.9915 128.529 43.9538C128.93 43.2487 129.328 42.5272 129.723 41.7894C129.737 41.7589 129.757 41.7317 129.783 41.7094C129.808 41.687 129.837 41.6701 129.869 41.6595C129.901 41.6489 129.935 41.645 129.968 41.6479C130.002 41.6508 130.035 41.6605 130.064 41.6764C130.094 41.6923 130.12 41.7141 130.141 41.7404C130.162 41.7667 130.177 41.797 130.186 41.8295C130.195 41.862 130.197 41.8959 130.192 41.9292C130.188 41.9625 130.176 41.9946 130.159 42.0233C129.762 42.7648 129.363 43.4901 128.959 44.1992C128.938 44.2372 128.906 44.2688 128.869 44.2908C128.831 44.3127 128.788 44.3242 128.744 44.3241ZM72.2072 81.4842C72.1452 81.4839 72.0855 81.4604 72.04 81.4182C71.9945 81.3761 71.9664 81.3184 71.9614 81.2565C71.9563 81.1947 71.9746 81.1332 72.0127 81.0843C72.0508 81.0353 72.1059 81.0024 72.1671 80.992L74.6115 80.5856C74.6437 80.5803 74.6765 80.5813 74.7082 80.5887C74.74 80.596 74.7699 80.6096 74.7964 80.6285C74.8229 80.6475 74.8454 80.6714 74.8626 80.6991C74.8798 80.7267 74.8914 80.7574 74.8968 80.7896C74.9021 80.8217 74.9011 80.8545 74.8937 80.8863C74.8864 80.918 74.8728 80.9479 74.8539 80.9744C74.8349 81.0009 74.811 81.0234 74.7833 81.0406C74.7557 81.0579 74.725 81.0695 74.6928 81.0748L72.2483 81.4807C72.2347 81.4831 72.221 81.4843 72.2072 81.4842ZM77.0947 80.6624C77.0325 80.6626 76.9725 80.6394 76.9266 80.5975C76.8807 80.5555 76.8523 80.4977 76.847 80.4358C76.8417 80.3738 76.8599 80.3121 76.898 80.2629C76.936 80.2137 76.9912 80.1806 77.0526 80.1703C77.8658 80.0285 78.6776 79.882 79.4881 79.7306C79.5517 79.7207 79.6166 79.7359 79.6692 79.773C79.7217 79.8101 79.7578 79.8662 79.7697 79.9294C79.7817 79.9926 79.7686 80.058 79.7333 80.1117C79.698 80.1654 79.6431 80.2033 79.5803 80.2174C78.7665 80.3703 77.9523 80.5174 77.1378 80.6585C77.1236 80.661 77.1092 80.6623 77.0947 80.6624ZM81.9644 79.7415C81.9029 79.7416 81.8436 79.7188 81.798 79.6776C81.7524 79.6364 81.7237 79.5798 81.7176 79.5186C81.7114 79.4575 81.7281 79.3962 81.7646 79.3467C81.801 79.2972 81.8546 79.2631 81.9148 79.2508C82.7191 79.0837 83.5237 78.9064 84.3286 78.719C84.3607 78.7103 84.3942 78.7081 84.4272 78.7126C84.4602 78.7171 84.492 78.7282 84.5206 78.7452C84.5492 78.7623 84.574 78.7849 84.5937 78.8118C84.6134 78.8386 84.6274 78.8692 84.635 78.9016C84.6426 78.934 84.6436 78.9676 84.6379 79.0004C84.6322 79.0332 84.62 79.0645 84.6019 79.0925C84.5839 79.1205 84.5604 79.1445 84.5328 79.1632C84.5053 79.1819 84.4742 79.1949 84.4416 79.2013C83.6324 79.3909 82.8236 79.5694 82.0154 79.7366C81.9986 79.7399 81.9815 79.7416 81.9644 79.7415ZM0.24819 153.17C0.241074 153.17 0.233961 153.17 0.226878 153.169C0.161427 153.164 0.100857 153.132 0.0584778 153.082C0.0160984 153.032 -0.00462213 152.967 0.000867693 152.901C0.0712486 152.067 0.153028 151.235 0.24373 150.427C0.251092 150.361 0.284104 150.302 0.335506 150.261C0.386907 150.22 0.452488 150.201 0.51782 150.208C0.583152 150.216 0.642883 150.249 0.683874 150.3C0.724865 150.351 0.743758 150.417 0.736396 150.482C0.644212 151.301 0.56358 152.122 0.494524 152.943C0.489315 153.005 0.461124 153.063 0.415519 153.105C0.369913 153.147 0.310207 153.17 0.24819 153.17ZM0.802316 148.243C0.790708 148.243 0.779116 148.242 0.767621 148.24C0.735313 148.236 0.70421 148.225 0.676098 148.209C0.647985 148.192 0.623417 148.17 0.6038 148.144C0.584184 148.118 0.569905 148.088 0.561785 148.057C0.553664 148.025 0.551862 147.992 0.556479 147.96C0.67345 147.137 0.802317 146.311 0.941097 145.504C0.946364 145.472 0.957993 145.441 0.975307 145.413C0.992621 145.386 1.01527 145.362 1.04194 145.343C1.06861 145.324 1.09876 145.311 1.13063 145.304C1.1625 145.297 1.19546 145.296 1.22758 145.302C1.2923 145.313 1.34995 145.349 1.38787 145.403C1.42578 145.457 1.44086 145.523 1.4298 145.588C1.29034 146.4 1.16295 147.214 1.04766 148.03C1.0393 148.089 1.00988 148.143 0.964801 148.182C0.919724 148.221 0.862025 148.243 0.802316 148.243ZM1.64193 143.357C1.62528 143.357 1.60868 143.355 1.59237 143.352C1.56043 143.346 1.53007 143.333 1.50304 143.315C1.476 143.296 1.45282 143.273 1.43482 143.246C1.41682 143.219 1.40435 143.188 1.39813 143.156C1.39191 143.124 1.39206 143.091 1.39857 143.06C1.56362 142.243 1.74156 141.425 1.92841 140.63C1.93484 140.598 1.94778 140.567 1.96647 140.539C1.98516 140.512 2.00921 140.488 2.03718 140.47C2.06515 140.452 2.09647 140.44 2.12928 140.434C2.16208 140.428 2.19569 140.429 2.22811 140.437C2.26052 140.445 2.29107 140.459 2.31794 140.478C2.3448 140.498 2.36743 140.523 2.38447 140.551C2.40151 140.58 2.41261 140.612 2.41711 140.645C2.42161 140.678 2.41942 140.711 2.41067 140.743C2.2258 141.534 2.04885 142.346 1.8843 143.158C1.87287 143.214 1.84246 143.264 1.7982 143.301C1.75395 143.337 1.69857 143.356 1.64144 143.356L1.64193 143.357ZM2.76951 138.53C2.74793 138.53 2.72645 138.527 2.70557 138.522C2.64216 138.505 2.5881 138.463 2.55521 138.407C2.52233 138.35 2.51331 138.282 2.53012 138.219C2.74523 137.408 2.97322 136.603 3.20716 135.826C3.21564 135.794 3.2305 135.763 3.25087 135.737C3.27124 135.711 3.2967 135.689 3.32573 135.673C3.35476 135.656 3.38676 135.646 3.41983 135.642C3.4529 135.639 3.48637 135.642 3.51822 135.652C3.55008 135.661 3.57968 135.677 3.60526 135.698C3.63084 135.72 3.65188 135.746 3.66711 135.775C3.68235 135.805 3.69147 135.837 3.69394 135.87C3.69641 135.904 3.69218 135.937 3.68149 135.968C3.44487 136.757 3.22081 137.55 3.0094 138.346C2.99539 138.399 2.96426 138.446 2.92086 138.479C2.87746 138.512 2.82425 138.53 2.76951 138.53ZM4.192 133.782C4.15265 133.782 4.11385 133.773 4.07881 133.755C4.04377 133.737 4.01349 133.711 3.99049 133.679C3.96748 133.647 3.9524 133.61 3.94651 133.572C3.94061 133.533 3.94406 133.493 3.95657 133.456C4.21931 132.669 4.49442 131.888 4.78181 131.11C4.79214 131.078 4.80877 131.049 4.83071 131.024C4.85265 130.999 4.87945 130.978 4.9095 130.964C4.93955 130.949 4.97222 130.941 5.00557 130.939C5.03891 130.938 5.07224 130.943 5.10355 130.954C5.13485 130.966 5.1635 130.984 5.18775 131.007C5.21201 131.03 5.23138 131.057 5.24471 131.088C5.25803 131.118 5.26504 131.151 5.2653 131.185C5.26556 131.218 5.25907 131.251 5.24623 131.282C4.96085 132.055 4.68772 132.832 4.42693 133.613C4.41033 133.662 4.37867 133.705 4.33643 133.735C4.29419 133.765 4.2435 133.782 4.1915 133.782L4.192 133.782ZM5.91138 129.134C5.87938 129.134 5.84771 129.128 5.81819 129.115C5.75736 129.09 5.70883 129.043 5.68327 128.982C5.65772 128.922 5.65722 128.853 5.68189 128.793C5.99469 128.025 6.32021 127.263 6.6583 126.506C6.67065 126.475 6.68915 126.446 6.7127 126.423C6.73625 126.399 6.76435 126.38 6.79532 126.368C6.82629 126.355 6.85948 126.349 6.89291 126.349C6.92633 126.35 6.95929 126.357 6.9898 126.371C7.02032 126.385 7.04775 126.404 7.07046 126.429C7.09317 126.453 7.11068 126.482 7.12194 126.514C7.1332 126.545 7.13797 126.579 7.13598 126.612C7.13398 126.645 7.12526 126.678 7.11033 126.708C6.7747 127.46 6.4515 128.217 6.14086 128.979C6.12232 129.025 6.09059 129.064 6.04971 129.092C6.00883 129.119 5.96067 129.134 5.91138 129.134ZM7.9321 124.609C7.88998 124.609 7.84854 124.598 7.81169 124.578C7.77483 124.558 7.74377 124.528 7.72145 124.492C7.69913 124.457 7.68628 124.416 7.68411 124.374C7.68194 124.332 7.69053 124.29 7.70906 124.252C8.07234 123.507 8.44809 122.768 8.83615 122.035C8.85067 122.006 8.87109 121.979 8.89617 121.957C8.92125 121.935 8.95048 121.918 8.98213 121.908C9.01377 121.898 9.04717 121.894 9.08035 121.897C9.11352 121.9 9.14577 121.909 9.17519 121.925C9.20461 121.94 9.23058 121.962 9.25156 121.987C9.27254 122.013 9.28809 122.043 9.2973 122.075C9.3065 122.107 9.30916 122.141 9.30513 122.174C9.30109 122.207 9.29043 122.239 9.2738 122.267C8.88863 122.995 8.51553 123.729 8.15464 124.469C8.13436 124.511 8.10273 124.546 8.06337 124.571C8.02402 124.595 7.97853 124.608 7.9321 124.608V124.609ZM10.2527 120.23C10.2091 120.23 10.1663 120.219 10.1286 120.197C10.0909 120.175 10.0595 120.144 10.0377 120.106C10.0159 120.068 10.0044 120.026 10.0044 119.982C10.0044 119.939 10.0158 119.896 10.0376 119.858C10.449 119.143 10.8782 118.425 11.3129 117.724C11.33 117.697 11.3524 117.673 11.3789 117.654C11.4053 117.635 11.4352 117.621 11.4669 117.614C11.4986 117.606 11.5314 117.605 11.5636 117.61C11.5957 117.616 11.6264 117.627 11.6541 117.644C11.6818 117.662 11.7058 117.684 11.7248 117.71C11.7438 117.737 11.7574 117.767 11.7648 117.798C11.7722 117.83 11.7734 117.863 11.7681 117.895C11.7628 117.927 11.7513 117.958 11.7342 117.986C11.2998 118.685 10.8774 119.392 10.4673 120.105C10.4455 120.143 10.4143 120.174 10.3766 120.196C10.3389 120.218 10.2962 120.229 10.2527 120.229V120.23ZM12.8677 116.021C12.8186 116.021 12.7705 116.006 12.7299 115.979C12.7029 115.961 12.6797 115.937 12.6616 115.91C12.6436 115.883 12.631 115.853 12.6247 115.821C12.6184 115.789 12.6184 115.756 12.6248 115.724C12.6312 115.693 12.6439 115.662 12.662 115.635C13.1236 114.947 13.5972 114.267 14.0825 113.595C14.1012 113.568 14.1252 113.544 14.153 113.527C14.1809 113.509 14.212 113.497 14.2445 113.491C14.277 113.486 14.3103 113.487 14.3425 113.494C14.3747 113.502 14.405 113.515 14.4318 113.535C14.4585 113.554 14.4811 113.579 14.4983 113.607C14.5154 113.635 14.5267 113.666 14.5316 113.699C14.5365 113.732 14.5348 113.765 14.5266 113.797C14.5184 113.829 14.5039 113.859 14.484 113.885C14.0022 114.552 13.5319 115.228 13.0734 115.911C13.0507 115.945 13.0201 115.973 12.9842 115.992C12.9483 116.011 12.9083 116.021 12.8677 116.021ZM15.7702 112.005C15.7237 112.005 15.6783 111.992 15.6389 111.967C15.5995 111.943 15.5678 111.908 15.5474 111.866C15.527 111.824 15.5187 111.778 15.5235 111.731C15.5282 111.685 15.5459 111.641 15.5744 111.605L15.7543 111.374C16.0437 111.005 16.5017 110.427 17.1441 109.672C17.1872 109.624 17.2473 109.594 17.3117 109.59C17.3761 109.586 17.4397 109.607 17.4889 109.648C17.5381 109.69 17.5691 109.749 17.5752 109.814C17.5814 109.878 17.5622 109.942 17.5217 109.992C17.0515 110.545 16.5924 111.108 16.1449 111.679L15.9654 111.91C15.9422 111.939 15.9126 111.963 15.8788 111.98C15.8449 111.996 15.8078 112.005 15.7702 112.005ZM18.975 108.223C18.9269 108.223 18.8798 108.209 18.8396 108.183C18.7993 108.156 18.7676 108.119 18.7483 108.075C18.7289 108.031 18.7228 107.982 18.7307 107.935C18.7386 107.887 18.7601 107.843 18.7926 107.808C19.3538 107.197 19.9256 106.596 20.5075 106.005C20.5302 105.982 20.5574 105.963 20.5875 105.95C20.6177 105.936 20.6501 105.929 20.683 105.929C20.7158 105.928 20.7485 105.934 20.779 105.947C20.8095 105.959 20.8373 105.977 20.8607 106C20.8841 106.023 20.9027 106.051 20.9154 106.081C20.928 106.111 20.9345 106.144 20.9345 106.177C20.9345 106.21 20.9279 106.242 20.9152 106.273C20.9025 106.303 20.8838 106.33 20.8604 106.353C20.2755 106.948 19.7021 107.55 19.1579 108.143C19.1347 108.168 19.1065 108.189 19.075 108.202C19.0435 108.216 19.0094 108.224 18.975 108.223V108.223ZM22.4514 104.689C22.402 104.689 22.3537 104.674 22.3128 104.646C22.2719 104.619 22.2402 104.579 22.2218 104.533C22.2034 104.488 22.1992 104.437 22.2096 104.389C22.2201 104.341 22.2447 104.297 22.2804 104.262C22.8803 103.691 23.4888 103.128 24.1058 102.575C24.1549 102.532 24.2188 102.51 24.2838 102.514C24.3487 102.518 24.4094 102.548 24.4529 102.596C24.4964 102.644 24.5191 102.708 24.5161 102.773C24.5131 102.838 24.4846 102.899 24.4369 102.943C23.8238 103.494 23.2188 104.053 22.6224 104.621C22.5763 104.665 22.5151 104.69 22.4514 104.69V104.689ZM26.1404 101.379C26.0897 101.379 26.0403 101.363 25.9988 101.334C25.9572 101.305 25.9256 101.264 25.9081 101.217C25.8907 101.169 25.8883 101.117 25.9012 101.068C25.9141 101.019 25.9417 100.975 25.9803 100.943C26.6133 100.408 27.2539 99.8816 27.9019 99.3649C27.9535 99.3254 28.0184 99.3077 28.0829 99.3156C28.1473 99.3235 28.2061 99.3564 28.2465 99.4072C28.287 99.4579 28.3059 99.5226 28.2992 99.5872C28.2925 99.6517 28.2607 99.7111 28.2107 99.7525C27.5666 100.266 26.93 100.789 26.301 101.321C26.2561 101.359 26.1992 101.379 26.1404 101.379ZM30.0148 98.2879C29.9628 98.2879 29.9121 98.2715 29.8699 98.2411C29.8277 98.2107 29.7962 98.1678 29.7797 98.1184C29.7633 98.0691 29.7628 98.0158 29.7783 97.9662C29.7938 97.9165 29.8245 97.873 29.8662 97.8418C30.5278 97.3438 31.1962 96.8547 31.871 96.3747C31.9246 96.339 31.99 96.3256 32.0533 96.3373C32.1166 96.3489 32.1728 96.3848 32.2102 96.4372C32.2475 96.4896 32.263 96.5545 32.2534 96.6181C32.2437 96.6818 32.2097 96.7392 32.1585 96.7782C31.4872 97.2559 30.8223 97.7427 30.164 98.2383C30.1211 98.2707 30.0687 98.2881 30.0148 98.2879ZM34.0533 95.4156C34.0002 95.4156 33.9486 95.3984 33.906 95.3668C33.8634 95.3352 33.8321 95.2906 33.8166 95.2399C33.8012 95.1891 33.8025 95.1347 33.8203 95.0847C33.8381 95.0347 33.8715 94.9918 33.9155 94.9622C34.2995 94.7044 34.6894 94.4467 35.0852 94.1889C35.3902 93.991 35.6942 93.7962 35.9972 93.6046C36.0248 93.5872 36.0554 93.5754 36.0875 93.5699C36.1196 93.5644 36.1525 93.5652 36.1842 93.5724C36.216 93.5796 36.246 93.593 36.2726 93.6118C36.2992 93.6305 36.3218 93.6544 36.3392 93.6819C36.3566 93.7094 36.3684 93.7401 36.3739 93.7722C36.3794 93.8043 36.3786 93.8372 36.3714 93.8689C36.3642 93.9007 36.3508 93.9307 36.3321 93.9573C36.3133 93.9839 36.2894 94.0065 36.2619 94.0239C35.9605 94.2139 35.6584 94.4075 35.3554 94.6048C34.9615 94.8609 34.5736 95.1169 34.1916 95.373C34.1509 95.4009 34.1027 95.4157 34.0533 95.4156ZM38.2415 92.7655C38.1872 92.7654 38.1344 92.7476 38.0912 92.7147C38.0481 92.6817 38.0169 92.6355 38.0026 92.5832C37.9882 92.5308 37.9914 92.4752 38.0118 92.4249C38.0321 92.3745 38.0684 92.3322 38.1151 92.3045C38.8323 91.8783 39.5574 91.4619 40.2696 91.0654C40.2981 91.0496 40.3294 91.0395 40.3618 91.0358C40.3942 91.032 40.427 91.0347 40.4583 91.0436C40.4897 91.0525 40.5189 91.0675 40.5445 91.0878C40.57 91.108 40.5913 91.1331 40.6072 91.1616C40.623 91.1901 40.6331 91.2214 40.6368 91.2537C40.6406 91.2861 40.6379 91.3189 40.629 91.3503C40.6201 91.3816 40.6051 91.4109 40.5848 91.4364C40.5646 91.462 40.5395 91.4833 40.511 91.4991C39.8022 91.8922 39.0816 92.307 38.3684 92.7308C38.3301 92.7535 38.2865 92.7655 38.242 92.7655H38.2415ZM42.5734 90.3601C42.5179 90.36 42.464 90.3413 42.4205 90.307C42.3769 90.2726 42.3461 90.2247 42.333 90.1707C42.3199 90.1168 42.3253 90.0601 42.3483 90.0096C42.3713 89.9591 42.4106 89.9178 42.4599 89.8922C43.1965 89.5122 43.9391 89.1437 44.6873 88.787C44.7168 88.7715 44.7492 88.7621 44.7824 88.7594C44.8156 88.7567 44.8491 88.7607 44.8807 88.7712C44.9124 88.7818 44.9416 88.7986 44.9666 88.8206C44.9916 88.8427 45.0118 88.8696 45.0262 88.8997C45.0406 88.9298 45.0487 88.9625 45.0501 88.9958C45.0515 89.0292 45.0462 89.0624 45.0344 89.0937C45.0227 89.1249 45.0048 89.1534 44.9817 89.1775C44.9587 89.2016 44.931 89.2209 44.9004 89.234C44.157 89.5886 43.4193 89.9547 42.6874 90.3324C42.6521 90.3506 42.613 90.3601 42.5734 90.3601Z" fill="#0F172A"/>
<path d="M18.7095 138.923H46.5332V142.097H18.7095V138.923Z" fill="#FEBF06"/>
<path d="M145.101 77.7623H172.924V80.9364H145.101V77.7623Z" fill="#6950E8"/>
<path d="M47.0342 16.1233H74.8579V19.2974H47.0342V16.1233Z" fill="#DB7E24"/>
<path d="M122.005 95.7434C121.555 95.7435 121.115 95.6101 120.74 95.36C120.366 95.1099 120.074 94.7544 119.901 94.3384C119.729 93.9224 119.684 93.4646 119.772 93.023C119.86 92.5813 120.076 92.1756 120.395 91.8572C120.713 91.5388 121.119 91.322 121.561 91.2342C122.002 91.1464 122.46 91.1915 122.876 91.3639C123.292 91.5362 123.647 91.8281 123.898 92.2025C124.148 92.577 124.281 93.0172 124.281 93.4675C124.28 94.0708 124.04 94.6493 123.613 95.0759C123.187 95.5026 122.608 95.7427 122.005 95.7434ZM122.005 91.6866C121.653 91.6865 121.308 91.7909 121.015 91.9865C120.723 92.1821 120.494 92.4602 120.359 92.7856C120.225 93.111 120.189 93.4691 120.258 93.8146C120.326 94.1601 120.496 94.4774 120.745 94.7265C120.994 94.9756 121.311 95.1453 121.657 95.214C122.002 95.2828 122.36 95.2476 122.686 95.1128C123.011 94.978 123.289 94.7498 123.485 94.4569C123.681 94.164 123.785 93.8197 123.785 93.4675C123.785 92.9954 123.597 92.5428 123.263 92.209C122.93 91.8751 122.477 91.6873 122.005 91.6866ZM168.537 55.2214C168.087 55.2214 167.647 55.0879 167.273 54.8379C166.898 54.5878 166.607 54.2324 166.434 53.8165C166.262 53.4007 166.217 52.9431 166.305 52.5016C166.393 52.0601 166.609 51.6545 166.928 51.3362C167.246 51.0179 167.651 50.8011 168.093 50.7132C168.534 50.6254 168.992 50.6704 169.408 50.8425C169.824 51.0147 170.179 51.3064 170.429 51.6806C170.679 52.0548 170.813 52.4948 170.813 52.9449C170.812 53.5485 170.572 54.1271 170.146 54.5539C169.719 54.9807 169.14 55.2207 168.537 55.2214H168.537ZM168.537 51.1646C168.185 51.1646 167.841 51.269 167.548 51.4646C167.255 51.6602 167.027 51.9383 166.892 52.2636C166.758 52.5889 166.722 52.9469 166.791 53.2922C166.86 53.6376 167.029 53.9548 167.278 54.2038C167.527 54.4528 167.844 54.6224 168.19 54.691C168.535 54.7597 168.893 54.7245 169.218 54.5897C169.544 54.455 169.822 54.2268 170.017 53.934C170.213 53.6412 170.318 53.297 170.318 52.9449C170.317 52.4728 170.129 52.0202 169.795 51.6864C169.461 51.3527 169.009 51.165 168.537 51.1646H168.537Z" fill="#0F172A"/>
<path d="M19.651 77.9609L16.0229 76.9696L18.6598 73.8372L19.651 77.9609Z" fill="#DB7E24"/>
<path d="M205.164 91.0081L201.536 90.0168L204.173 86.8844L205.164 91.0081ZM79.2985 57.036L75.6704 56.0447L78.3072 52.9122L79.2985 57.036Z" fill="#FEBF06"/>
<path d="M183.161 27.278L179.533 26.2867L182.17 23.1543L183.161 27.278Z" fill="#6950E8"/>
<path d="M94.3234 16.0562L90.6953 15.0649L93.3321 11.9325L94.3234 16.0562Z" fill="#05AE82"/>
</svg>
