<svg width="334" height="255" viewBox="0 0 334 255" fill="none" xmlns="http://www.w3.org/2000/svg">
<rect x="108" y="120" width="172" height="90" rx="20" fill="#F4F1FE"/>
<g filter="url(#filter0_d_262_49712)">
<rect x="82" y="110" width="224" height="90" rx="20" fill="#E4DCFD"/>
</g>
<rect x="54" y="15" width="280" height="175" rx="20" fill="url(#paint0_linear_262_49712)"/>
<g filter="url(#filter1_f_262_49712)">
<circle cx="127.5" cy="127.5" r="27.5" fill="#16F8BE"/>
</g>
<circle opacity="0.3" cx="85" cy="46" r="11" fill="white"/>
<circle opacity="0.3" cx="101" cy="46" r="11" fill="white"/>
<path d="M286.75 50.5H284.057V41.7727H286.869C287.716 41.7727 288.44 41.9474 289.043 42.2969C289.645 42.6435 290.107 43.142 290.428 43.7926C290.749 44.4403 290.909 45.2159 290.909 46.1193C290.909 47.0284 290.747 47.8111 290.423 48.4673C290.099 49.1207 289.628 49.6236 289.009 49.9759C288.389 50.3253 287.636 50.5 286.75 50.5ZM285.114 49.5625H286.682C287.403 49.5625 288.001 49.4233 288.476 49.1449C288.95 48.8665 289.304 48.4702 289.537 47.956C289.77 47.4418 289.886 46.8295 289.886 46.1193C289.886 45.4148 289.771 44.8082 289.541 44.2997C289.311 43.7884 288.967 43.3963 288.51 43.1236C288.053 42.848 287.483 42.7102 286.801 42.7102H285.114V49.5625ZM295.29 50.6364C294.659 50.6364 294.115 50.4972 293.658 50.2188C293.203 49.9375 292.852 49.5455 292.605 49.0426C292.361 48.5369 292.239 47.9489 292.239 47.2784C292.239 46.608 292.361 46.017 292.605 45.5057C292.852 44.9915 293.196 44.5909 293.636 44.304C294.08 44.0142 294.597 43.8693 295.188 43.8693C295.528 43.8693 295.865 43.9261 296.197 44.0398C296.53 44.1534 296.832 44.3381 297.105 44.5938C297.378 44.8466 297.595 45.1818 297.757 45.5994C297.919 46.017 298 46.5312 298 47.142V47.5682H292.955V46.6989H296.977C296.977 46.3295 296.903 46 296.756 45.7102C296.611 45.4205 296.403 45.1918 296.134 45.0241C295.866 44.8565 295.551 44.7727 295.188 44.7727C294.787 44.7727 294.44 44.8722 294.148 45.071C293.858 45.267 293.635 45.5227 293.479 45.8381C293.322 46.1534 293.244 46.4915 293.244 46.8523V47.4318C293.244 47.9261 293.33 48.3452 293.5 48.6889C293.673 49.0298 293.913 49.2898 294.22 49.4688C294.527 49.6449 294.884 49.733 295.29 49.733C295.554 49.733 295.793 49.696 296.006 49.6222C296.222 49.5455 296.408 49.4318 296.564 49.2812C296.72 49.1278 296.841 48.9375 296.926 48.7102L297.898 48.983C297.795 49.3125 297.624 49.6023 297.382 49.8523C297.141 50.0994 296.842 50.2926 296.487 50.4318C296.132 50.5682 295.733 50.6364 295.29 50.6364ZM299.666 50.5V41.7727H300.672V44.9943H300.757C300.831 44.8807 300.933 44.7358 301.064 44.5597C301.197 44.3807 301.388 44.2216 301.635 44.0824C301.885 43.9403 302.223 43.8693 302.649 43.8693C303.2 43.8693 303.686 44.0071 304.107 44.2827C304.527 44.5582 304.855 44.9489 305.091 45.4545C305.327 45.9602 305.445 46.5568 305.445 47.2443C305.445 47.9375 305.327 48.5384 305.091 49.0469C304.855 49.5526 304.528 49.9446 304.111 50.223C303.693 50.4986 303.212 50.6364 302.666 50.6364C302.246 50.6364 301.909 50.5668 301.656 50.4276C301.403 50.2855 301.209 50.125 301.072 49.946C300.936 49.7642 300.831 49.6136 300.757 49.4943H300.638V50.5H299.666ZM300.655 47.2273C300.655 47.7216 300.727 48.1577 300.872 48.5355C301.017 48.9105 301.229 49.2045 301.507 49.4176C301.786 49.6278 302.126 49.733 302.53 49.733C302.95 49.733 303.301 49.6222 303.582 49.4006C303.866 49.1761 304.08 48.875 304.222 48.4972C304.366 48.1165 304.439 47.6932 304.439 47.2273C304.439 46.767 304.368 46.3523 304.226 45.983C304.087 45.6108 303.875 45.3168 303.591 45.1009C303.31 44.8821 302.956 44.7727 302.53 44.7727C302.121 44.7727 301.777 44.8764 301.499 45.0838C301.22 45.2884 301.01 45.5753 300.868 45.9446C300.726 46.3111 300.655 46.7386 300.655 47.2273ZM306.983 50.5V43.9545H307.989V50.5H306.983ZM307.494 42.8636C307.298 42.8636 307.129 42.7969 306.987 42.6634C306.848 42.5298 306.778 42.3693 306.778 42.1818C306.778 41.9943 306.848 41.8338 306.987 41.7003C307.129 41.5668 307.298 41.5 307.494 41.5C307.69 41.5 307.858 41.5668 307.997 41.7003C308.139 41.8338 308.21 41.9943 308.21 42.1818C308.21 42.3693 308.139 42.5298 307.997 42.6634C307.858 42.7969 307.69 42.8636 307.494 42.8636ZM312.677 43.9545V44.8068H309.285V43.9545H312.677ZM310.274 42.3864H311.279V48.625C311.279 48.9091 311.321 49.1222 311.403 49.2642C311.488 49.4034 311.596 49.4972 311.727 49.5455C311.86 49.5909 312.001 49.6136 312.149 49.6136C312.26 49.6136 312.35 49.608 312.422 49.5966C312.493 49.5824 312.549 49.571 312.592 49.5625L312.797 50.4659C312.728 50.4915 312.633 50.517 312.511 50.5426C312.389 50.571 312.234 50.5852 312.047 50.5852C311.762 50.5852 311.484 50.5241 311.211 50.402C310.941 50.2798 310.717 50.0938 310.538 49.8438C310.362 49.5938 310.274 49.2784 310.274 48.8977V42.3864Z" fill="white"/>
<path d="M77.576 100.084C77.024 100.084 76.528 99.988 76.088 99.796C75.656 99.596 75.316 99.324 75.068 98.98C74.82 98.628 74.692 98.224 74.684 97.768H75.848C75.888 98.16 76.048 98.492 76.328 98.764C76.616 99.028 77.032 99.16 77.576 99.16C78.096 99.16 78.504 99.032 78.8 98.776C79.104 98.512 79.256 98.176 79.256 97.768C79.256 97.448 79.168 97.188 78.992 96.988C78.816 96.788 78.596 96.636 78.332 96.532C78.068 96.428 77.712 96.316 77.264 96.196C76.712 96.052 76.268 95.908 75.932 95.764C75.604 95.62 75.32 95.396 75.08 95.092C74.848 94.78 74.732 94.364 74.732 93.844C74.732 93.388 74.848 92.984 75.08 92.632C75.312 92.28 75.636 92.008 76.052 91.816C76.476 91.624 76.96 91.528 77.504 91.528C78.288 91.528 78.928 91.724 79.424 92.116C79.928 92.508 80.212 93.028 80.276 93.676H79.076C79.036 93.356 78.868 93.076 78.572 92.836C78.276 92.588 77.884 92.464 77.396 92.464C76.94 92.464 76.568 92.584 76.28 92.824C75.992 93.056 75.848 93.384 75.848 93.808C75.848 94.112 75.932 94.36 76.1 94.552C76.276 94.744 76.488 94.892 76.736 94.996C76.992 95.092 77.348 95.204 77.804 95.332C78.356 95.484 78.8 95.636 79.136 95.788C79.472 95.932 79.76 96.16 80 96.472C80.24 96.776 80.36 97.192 80.36 97.72C80.36 98.128 80.252 98.512 80.036 98.872C79.82 99.232 79.5 99.524 79.076 99.748C78.652 99.972 78.152 100.084 77.576 100.084ZM88.411 91.636V100H87.319V96.208H83.059V100H81.967V91.636H83.059V95.308H87.319V91.636H88.411ZM95.2196 98.14H91.5716L90.8996 100H89.7476L92.7716 91.684H94.0316L97.0436 100H95.8916L95.2196 98.14ZM94.9076 97.252L93.3956 93.028L91.8836 97.252H94.9076ZM102.898 100L99.4535 96.184V100H98.3615V91.636H99.4535V95.512L102.91 91.636H104.29L100.498 95.824L104.326 100H102.898ZM106.637 92.524V95.32H109.685V96.22H106.637V99.1H110.045V100H105.545V91.624H110.045V92.524H106.637ZM116.101 100L114.109 96.58H112.789V100H111.697V91.636H114.397C115.029 91.636 115.561 91.744 115.993 91.96C116.433 92.176 116.761 92.468 116.977 92.836C117.193 93.204 117.301 93.624 117.301 94.096C117.301 94.672 117.133 95.18 116.797 95.62C116.469 96.06 115.973 96.352 115.309 96.496L117.409 100H116.101ZM112.789 95.704H114.397C114.989 95.704 115.433 95.56 115.729 95.272C116.025 94.976 116.173 94.584 116.173 94.096C116.173 93.6 116.025 93.216 115.729 92.944C115.441 92.672 114.997 92.536 114.397 92.536H112.789V95.704ZM127.141 98.14H123.493L122.821 100H121.669L124.693 91.684H125.953L128.965 100H127.813L127.141 98.14ZM126.829 97.252L125.317 93.028L123.805 97.252H126.829ZM136.727 91.636V100H135.635V96.208H131.375V100H130.283V91.636H131.375V95.308H135.635V91.636H136.727ZM147.076 91.696V100H145.984V93.808L143.224 100H142.456L139.684 93.796V100H138.592V91.696H139.768L142.84 98.56L145.912 91.696H147.076ZM150.02 92.524V95.32H153.068V96.22H150.02V99.1H153.428V100H148.928V91.624H153.428V92.524H150.02ZM157.684 91.636C158.596 91.636 159.384 91.808 160.048 92.152C160.72 92.488 161.232 92.972 161.584 93.604C161.944 94.236 162.124 94.98 162.124 95.836C162.124 96.692 161.944 97.436 161.584 98.068C161.232 98.692 160.72 99.172 160.048 99.508C159.384 99.836 158.596 100 157.684 100H155.08V91.636H157.684ZM157.684 99.1C158.764 99.1 159.588 98.816 160.156 98.248C160.724 97.672 161.008 96.868 161.008 95.836C161.008 94.796 160.72 93.984 160.144 93.4C159.576 92.816 158.756 92.524 157.684 92.524H156.172V99.1H157.684Z" fill="#F7F5FE"/>
<path d="M74.3403 116.899L80.209 109.097H82.2095V116.899H83.8115V118.535H82.2095V121H80.5078V118.535H74.3403V116.899ZM80.5078 116.899V111.155L76.1914 116.899H80.5078ZM94.1543 118.111C94.1377 119.08 93.8942 119.805 93.4238 120.286C92.9535 120.762 92.234 121 91.2656 121H88.0698C86.1385 121 85.1729 120.037 85.1729 118.111V117.397H86.8413V118.028C86.8413 118.477 86.9409 118.806 87.1401 119.016C87.3394 119.226 87.6659 119.332 88.1196 119.332H91.2075C91.6613 119.332 91.9878 119.226 92.187 119.016C92.3862 118.806 92.4858 118.477 92.4858 118.028V116.426C92.4858 115.978 92.3862 115.652 92.187 115.447C91.9878 115.236 91.6613 115.131 91.2075 115.131H85.5132V109.097H93.8472V110.798H87.2148V113.471H91.2656C92.2396 113.471 92.9645 113.709 93.4404 114.185C93.9163 114.655 94.1543 115.38 94.1543 116.36V118.111ZM105.551 119.298C105.551 119.531 105.507 119.752 105.418 119.962C105.33 120.167 105.208 120.347 105.053 120.502C104.898 120.657 104.716 120.779 104.505 120.867C104.301 120.956 104.082 121 103.85 121H98.4126C98.1802 121 97.9588 120.956 97.7485 120.867C97.5438 120.779 97.3639 120.657 97.209 120.502C97.054 120.347 96.9323 120.167 96.8438 119.962C96.7552 119.752 96.7109 119.531 96.7109 119.298V117.771H98.4126V119.298H103.85V115.903H98.4126C98.1802 115.903 97.9588 115.859 97.7485 115.771C97.5438 115.676 97.3639 115.555 97.209 115.405C97.054 115.25 96.9323 115.07 96.8438 114.866C96.7552 114.655 96.7109 114.434 96.7109 114.202V110.798C96.7109 110.566 96.7552 110.347 96.8438 110.143C96.9323 109.932 97.054 109.752 97.209 109.603C97.3639 109.448 97.5438 109.326 97.7485 109.238C97.9588 109.144 98.1802 109.097 98.4126 109.097H103.85C104.082 109.097 104.301 109.144 104.505 109.238C104.716 109.326 104.898 109.448 105.053 109.603C105.208 109.752 105.33 109.932 105.418 110.143C105.507 110.347 105.551 110.566 105.551 110.798V119.298ZM103.85 114.202V110.798H98.4126V114.202H103.85ZM117.969 119.298C117.969 119.531 117.925 119.752 117.836 119.962C117.748 120.167 117.626 120.347 117.471 120.502C117.316 120.657 117.134 120.779 116.923 120.867C116.719 120.956 116.5 121 116.268 121H110.316C110.083 121 109.862 120.956 109.652 120.867C109.447 120.779 109.267 120.657 109.112 120.502C108.957 120.347 108.836 120.167 108.747 119.962C108.659 119.752 108.614 119.531 108.614 119.298V110.798C108.614 110.566 108.659 110.347 108.747 110.143C108.836 109.932 108.957 109.752 109.112 109.603C109.267 109.448 109.447 109.326 109.652 109.238C109.862 109.144 110.083 109.097 110.316 109.097H116.268C116.5 109.097 116.719 109.144 116.923 109.238C117.134 109.326 117.316 109.448 117.471 109.603C117.626 109.752 117.748 109.932 117.836 110.143C117.925 110.347 117.969 110.566 117.969 110.798V119.298ZM110.316 110.798V119.298H116.268V110.798H110.316ZM132.828 116.036L131.69 115.206L133.384 113.023L130.719 112.259L131.159 110.923L133.757 111.869L133.658 109.097H135.069L134.969 111.869L137.567 110.923L138.007 112.259L135.343 113.023L137.044 115.206L135.907 116.036L134.355 113.72L132.828 116.036ZM142.158 116.036L141.021 115.206L142.714 113.023L140.049 112.259L140.489 110.923L143.087 111.869L142.988 109.097H144.399L144.299 111.869L146.897 110.923L147.337 112.259L144.673 113.023L146.375 115.206L145.237 116.036L143.685 113.72L142.158 116.036ZM151.488 116.036L150.351 115.206L152.044 113.023L149.379 112.259L149.819 110.923L152.417 111.869L152.318 109.097H153.729L153.629 111.869L156.228 110.923L156.667 112.259L154.003 113.023L155.705 115.206L154.567 116.036L153.015 113.72L151.488 116.036ZM160.818 116.036L159.681 115.206L161.374 113.023L158.709 112.259L159.149 110.923L161.748 111.869L161.648 109.097H163.059L162.959 111.869L165.558 110.923L165.998 112.259L163.333 113.023L165.035 115.206L163.897 116.036L162.345 113.72L160.818 116.036ZM180.341 116.036L179.204 115.206L180.897 113.023L178.233 112.259L178.673 110.923L181.271 111.869L181.171 109.097H182.583L182.483 111.869L185.081 110.923L185.521 112.259L182.856 113.023L184.558 115.206L183.421 116.036L181.869 113.72L180.341 116.036ZM189.671 116.036L188.534 115.206L190.228 113.023L187.563 112.259L188.003 110.923L190.601 111.869L190.501 109.097H191.913L191.813 111.869L194.411 110.923L194.851 112.259L192.187 113.023L193.888 115.206L192.751 116.036L191.199 113.72L189.671 116.036ZM199.001 116.036L197.864 115.206L199.558 113.023L196.893 112.259L197.333 110.923L199.931 111.869L199.832 109.097H201.243L201.143 111.869L203.741 110.923L204.181 112.259L201.517 113.023L203.218 115.206L202.081 116.036L200.529 113.72L199.001 116.036ZM208.332 116.036L207.194 115.206L208.888 113.023L206.223 112.259L206.663 110.923L209.261 111.869L209.162 109.097H210.573L210.473 111.869L213.071 110.923L213.511 112.259L210.847 113.023L212.548 115.206L211.411 116.036L209.859 113.72L208.332 116.036ZM227.789 110.798V112.334H226.087V110.798C226.087 110.566 226.131 110.347 226.22 110.143C226.308 109.932 226.43 109.752 226.585 109.603C226.74 109.448 226.92 109.326 227.125 109.238C227.335 109.144 227.556 109.097 227.789 109.097H233.176C233.408 109.097 233.627 109.144 233.832 109.238C234.042 109.326 234.222 109.448 234.371 109.603C234.526 109.752 234.648 109.932 234.736 110.143C234.83 110.347 234.877 110.566 234.877 110.798V112.973C234.877 113.206 234.855 113.413 234.811 113.596C234.767 113.778 234.695 113.944 234.595 114.094C234.501 114.238 234.379 114.368 234.23 114.484C234.081 114.6 233.898 114.711 233.682 114.816L227.789 117.58V119.298H233.392V117.771H235.093V121H226.087V117.871C226.087 117.638 226.109 117.431 226.153 117.248C226.203 117.065 226.275 116.902 226.369 116.758C226.463 116.614 226.585 116.484 226.734 116.368C226.889 116.246 227.069 116.136 227.274 116.036L233.176 113.264V110.798H227.789ZM237.31 117.397H238.978V118.028C238.978 118.477 239.078 118.806 239.277 119.016C239.476 119.226 239.803 119.332 240.256 119.332H243.685C244.138 119.332 244.465 119.226 244.664 119.016C244.863 118.806 244.963 118.477 244.963 118.028V117.107C244.963 116.653 244.863 116.324 244.664 116.119C244.465 115.914 244.138 115.812 243.685 115.812H240.165V114.152H243.635C244.05 114.135 244.346 114.025 244.523 113.82C244.706 113.61 244.797 113.289 244.797 112.857V112.077C244.797 111.623 244.694 111.291 244.49 111.081C244.291 110.87 243.967 110.765 243.519 110.765H240.422C239.974 110.765 239.65 110.87 239.451 111.081C239.252 111.291 239.152 111.623 239.152 112.077V112.708H237.484V111.994C237.484 110.062 238.447 109.097 240.373 109.097H243.568C244.548 109.097 245.273 109.335 245.743 109.811C246.219 110.286 246.457 111.014 246.457 111.994V112.209C246.457 112.879 246.338 113.432 246.1 113.87C245.868 114.301 245.527 114.622 245.079 114.833C245.583 114.982 245.967 115.281 246.233 115.729C246.499 116.177 246.631 116.772 246.631 117.514V118.111C246.631 120.037 245.668 121 243.743 121H240.207C238.275 121 237.31 120.037 237.31 118.111V117.397ZM249.18 110.798C249.18 110.566 249.224 110.347 249.312 110.143C249.401 109.932 249.523 109.752 249.678 109.603C249.833 109.448 250.013 109.326 250.217 109.238C250.428 109.144 250.649 109.097 250.881 109.097H256.318C256.551 109.097 256.769 109.144 256.974 109.238C257.184 109.326 257.367 109.448 257.522 109.603C257.677 109.752 257.799 109.932 257.887 110.143C257.976 110.347 258.02 110.566 258.02 110.798V112.334H256.318V110.798H250.881V114.202H256.318C256.551 114.202 256.769 114.246 256.974 114.334C257.184 114.423 257.367 114.545 257.522 114.7C257.677 114.855 257.799 115.037 257.887 115.248C257.976 115.452 258.02 115.671 258.02 115.903V119.298C258.02 119.531 257.976 119.752 257.887 119.962C257.799 120.167 257.677 120.347 257.522 120.502C257.367 120.657 257.184 120.779 256.974 120.867C256.769 120.956 256.551 121 256.318 121H250.881C250.649 121 250.428 120.956 250.217 120.867C250.013 120.779 249.833 120.657 249.678 120.502C249.523 120.347 249.401 120.167 249.312 119.962C249.224 119.752 249.18 119.531 249.18 119.298V110.798ZM250.881 115.903V119.298H256.318V115.903H250.881Z" fill="#F7F5FE"/>
<path d="M79.224 158.424L77.12 164H76.28L74.176 158.424H74.952L76.704 163.232L78.456 158.424H79.224ZM79.7503 161.792C79.7503 161.344 79.8409 160.952 80.0223 160.616C80.2036 160.275 80.4516 160.011 80.7663 159.824C81.0863 159.637 81.4409 159.544 81.8303 159.544C82.2143 159.544 82.5476 159.627 82.8303 159.792C83.1129 159.957 83.3236 160.165 83.4623 160.416V159.616H84.1983V164H83.4623V163.184C83.3183 163.44 83.1023 163.653 82.8143 163.824C82.5316 163.989 82.2009 164.072 81.8223 164.072C81.4329 164.072 81.0809 163.976 80.7663 163.784C80.4516 163.592 80.2036 163.323 80.0223 162.976C79.8409 162.629 79.7503 162.235 79.7503 161.792ZM83.4623 161.8C83.4623 161.469 83.3956 161.181 83.2623 160.936C83.1289 160.691 82.9476 160.504 82.7183 160.376C82.4943 160.243 82.2463 160.176 81.9743 160.176C81.7023 160.176 81.4543 160.24 81.2303 160.368C81.0063 160.496 80.8276 160.683 80.6943 160.928C80.5609 161.173 80.4943 161.461 80.4943 161.792C80.4943 162.128 80.5609 162.421 80.6943 162.672C80.8276 162.917 81.0063 163.107 81.2303 163.24C81.4543 163.368 81.7023 163.432 81.9743 163.432C82.2463 163.432 82.4943 163.368 82.7183 163.24C82.9476 163.107 83.1289 162.917 83.2623 162.672C83.3956 162.421 83.4623 162.131 83.4623 161.8ZM86.1565 158.08V164H85.4285V158.08H86.1565ZM87.7733 158.904C87.6346 158.904 87.5173 158.856 87.4213 158.76C87.3253 158.664 87.2773 158.547 87.2773 158.408C87.2773 158.269 87.3253 158.152 87.4213 158.056C87.5173 157.96 87.6346 157.912 87.7733 157.912C87.9066 157.912 88.0186 157.96 88.1093 158.056C88.2053 158.152 88.2533 158.269 88.2533 158.408C88.2533 158.547 88.2053 158.664 88.1093 158.76C88.0186 158.856 87.9066 158.904 87.7733 158.904ZM88.1253 159.616V164H87.3973V159.616H88.1253ZM89.094 161.792C89.094 161.344 89.1847 160.952 89.366 160.616C89.5473 160.275 89.7953 160.011 90.11 159.824C90.43 159.637 90.7873 159.544 91.182 159.544C91.5233 159.544 91.8407 159.624 92.134 159.784C92.4273 159.939 92.6513 160.144 92.806 160.4V158.08H93.542V164H92.806V163.176C92.662 163.437 92.4487 163.653 92.166 163.824C91.8833 163.989 91.5527 164.072 91.174 164.072C90.7847 164.072 90.43 163.976 90.11 163.784C89.7953 163.592 89.5473 163.323 89.366 162.976C89.1847 162.629 89.094 162.235 89.094 161.792ZM92.806 161.8C92.806 161.469 92.7393 161.181 92.606 160.936C92.4727 160.691 92.2913 160.504 92.062 160.376C91.838 160.243 91.59 160.176 91.318 160.176C91.046 160.176 90.798 160.24 90.574 160.368C90.35 160.496 90.1713 160.683 90.038 160.928C89.9047 161.173 89.838 161.461 89.838 161.792C89.838 162.128 89.9047 162.421 90.038 162.672C90.1713 162.917 90.35 163.107 90.574 163.24C90.798 163.368 91.046 163.432 91.318 163.432C91.59 163.432 91.838 163.368 92.062 163.24C92.2913 163.107 92.4727 162.917 92.606 162.672C92.7393 162.421 92.806 162.131 92.806 161.8ZM95.0043 164.048C94.8656 164.048 94.7483 164 94.6523 163.904C94.5563 163.808 94.5083 163.691 94.5083 163.552C94.5083 163.413 94.5563 163.296 94.6523 163.2C94.7483 163.104 94.8656 163.056 95.0043 163.056C95.1376 163.056 95.2496 163.104 95.3403 163.2C95.4363 163.296 95.4843 163.413 95.4843 163.552C95.4843 163.691 95.4363 163.808 95.3403 163.904C95.2496 164 95.1376 164.048 95.0043 164.048ZM95.0043 160.624C94.8656 160.624 94.7483 160.576 94.6523 160.48C94.5563 160.384 94.5083 160.267 94.5083 160.128C94.5083 159.989 94.5563 159.872 94.6523 159.776C94.7483 159.68 94.8656 159.632 95.0043 159.632C95.1376 159.632 95.2496 159.68 95.3403 159.776C95.4363 159.872 95.4843 159.989 95.4843 160.128C95.4843 160.267 95.4363 160.384 95.3403 160.48C95.2496 160.576 95.1376 160.624 95.0043 160.624ZM101.117 164.099C100.582 164.099 100.126 163.954 99.75 163.663C99.3736 163.369 99.0859 162.944 98.8871 162.388C98.6882 161.829 98.5888 161.154 98.5888 160.364C98.5888 159.578 98.6882 158.906 98.8871 158.35C99.0883 157.791 99.3771 157.365 99.7536 157.072C100.132 156.776 100.587 156.628 101.117 156.628C101.647 156.628 102.101 156.776 102.477 157.072C102.856 157.365 103.145 157.791 103.344 158.35C103.545 158.906 103.646 159.578 103.646 160.364C103.646 161.154 103.546 161.829 103.347 162.388C103.148 162.944 102.861 163.369 102.484 163.663C102.108 163.954 101.652 164.099 101.117 164.099ZM101.117 163.318C101.647 163.318 102.059 163.062 102.353 162.551C102.647 162.04 102.793 161.311 102.793 160.364C102.793 159.734 102.726 159.198 102.591 158.755C102.458 158.312 102.267 157.975 102.016 157.743C101.767 157.511 101.468 157.395 101.117 157.395C100.592 157.395 100.181 157.654 99.8849 158.173C99.589 158.689 99.4411 159.419 99.4411 160.364C99.4411 160.993 99.5073 161.528 99.6399 161.969C99.7725 162.409 99.9631 162.744 100.212 162.974C100.463 163.203 100.764 163.318 101.117 163.318ZM107.452 164.099C106.984 164.099 106.566 164.019 106.199 163.858C105.834 163.697 105.544 163.473 105.329 163.187C105.116 162.898 105 162.563 104.981 162.182H105.876C105.895 162.416 105.975 162.619 106.117 162.789C106.259 162.957 106.445 163.087 106.675 163.18C106.904 163.272 107.159 163.318 107.438 163.318C107.751 163.318 108.028 163.264 108.269 163.155C108.511 163.046 108.7 162.894 108.837 162.7C108.975 162.506 109.043 162.281 109.043 162.026C109.043 161.758 108.977 161.522 108.844 161.319C108.712 161.113 108.518 160.952 108.262 160.836C108.006 160.72 107.694 160.662 107.325 160.662H106.742V159.881H107.325C107.613 159.881 107.867 159.829 108.085 159.724C108.305 159.62 108.476 159.473 108.599 159.284C108.725 159.095 108.788 158.872 108.788 158.616C108.788 158.37 108.733 158.156 108.624 157.974C108.515 157.791 108.362 157.649 108.163 157.548C107.966 157.446 107.734 157.395 107.467 157.395C107.216 157.395 106.979 157.441 106.756 157.533C106.536 157.623 106.356 157.755 106.217 157.928C106.077 158.098 106.001 158.304 105.989 158.545H105.137C105.151 158.164 105.266 157.83 105.482 157.544C105.697 157.255 105.979 157.03 106.327 156.869C106.677 156.708 107.062 156.628 107.481 156.628C107.931 156.628 108.317 156.719 108.638 156.901C108.96 157.081 109.208 157.319 109.381 157.615C109.554 157.911 109.64 158.231 109.64 158.574C109.64 158.983 109.532 159.333 109.317 159.621C109.104 159.91 108.814 160.11 108.447 160.222V160.278C108.906 160.354 109.265 160.549 109.523 160.864C109.781 161.177 109.91 161.564 109.91 162.026C109.91 162.421 109.802 162.776 109.587 163.091C109.374 163.403 109.082 163.65 108.713 163.83C108.344 164.009 107.924 164.099 107.452 164.099ZM113.947 156.386L111.604 165.094H110.837L113.18 156.386H113.947ZM114.927 164V163.361L117.327 160.733C117.609 160.425 117.841 160.158 118.023 159.93C118.206 159.701 118.34 159.485 118.428 159.284C118.518 159.08 118.563 158.867 118.563 158.645C118.563 158.389 118.501 158.168 118.378 157.981C118.258 157.794 118.092 157.649 117.881 157.548C117.671 157.446 117.434 157.395 117.171 157.395C116.892 157.395 116.648 157.453 116.439 157.569C116.233 157.683 116.074 157.842 115.96 158.048C115.849 158.254 115.793 158.496 115.793 158.773H114.955C114.955 158.347 115.053 157.973 115.25 157.651C115.446 157.329 115.714 157.078 116.052 156.898C116.393 156.718 116.776 156.628 117.199 156.628C117.626 156.628 118.003 156.718 118.332 156.898C118.661 157.078 118.919 157.32 119.106 157.626C119.293 157.931 119.387 158.271 119.387 158.645C119.387 158.912 119.338 159.174 119.241 159.43C119.147 159.683 118.981 159.966 118.744 160.278C118.51 160.589 118.184 160.967 117.768 161.415L116.134 163.162V163.219H119.515V164H114.927ZM121.209 164L124.461 157.565V157.509H120.711V156.727H125.371V157.551L122.132 164H121.209Z" fill="#E4DCFD"/>
<path d="M294.847 166.793H292.099L293.813 156.201H296.55L294.847 166.793ZM304.77 156.457C303.995 156.156 303.17 156.003 302.338 156.007C299.638 156.007 297.729 157.454 297.717 159.509C297.717 161.029 299.079 161.88 300.149 162.391C301.219 162.902 301.56 163.242 301.56 163.704C301.56 164.41 300.708 164.738 299.918 164.738C299.03 164.762 298.15 164.57 297.352 164.179L296.987 164.008L296.598 166.441C297.577 166.814 298.615 167.004 299.663 167C302.533 167 304.405 165.577 304.43 163.352C304.43 162.136 303.7 161.224 302.131 160.47C301.171 159.983 300.587 159.655 300.587 159.169C300.587 158.682 301.073 158.256 302.156 158.256C302.858 158.231 303.558 158.368 304.199 158.658L304.454 158.767L304.819 156.481L304.77 156.457ZM308.418 163.036H310.692L310.06 159.971L309.865 159.059C309.732 159.46 309.501 160.093 309.513 160.081C309.525 160.068 308.637 162.428 308.418 163.036ZM311.799 156.201L314 166.793H311.471C311.471 166.793 311.215 165.577 311.142 165.2H307.628C307.518 165.48 307.044 166.793 307.044 166.793H304.174L308.248 157.065C308.352 156.78 308.55 156.539 308.808 156.38C309.066 156.222 309.37 156.154 309.671 156.189L311.799 156.201ZM289.8 156.201L287.125 163.425L286.821 161.953C286.16 160.053 284.811 158.469 283.039 157.515L285.471 166.781H288.365L292.67 156.201H289.8ZM284.632 156.201H280.23V156.408C281.708 156.715 283.087 157.381 284.245 158.348C285.403 159.316 286.305 160.554 286.87 161.953L285.921 157.089C285.863 156.818 285.707 156.577 285.482 156.413C285.258 156.25 284.981 156.174 284.705 156.201H284.632Z" fill="white"/>
<defs>
<filter id="filter0_d_262_49712" x="64" y="94" width="264" height="130" filterUnits="userSpaceOnUse" color-interpolation-filters="sRGB">
<feFlood flood-opacity="0" result="BackgroundImageFix"/>
<feColorMatrix in="SourceAlpha" type="matrix" values="0 0 0 0 0 0 0 0 0 0 0 0 0 0 0 0 0 0 127 0" result="hardAlpha"/>
<feOffset dx="2" dy="4"/>
<feGaussianBlur stdDeviation="10"/>
<feComposite in2="hardAlpha" operator="out"/>
<feColorMatrix type="matrix" values="0 0 0 0 0 0 0 0 0 0 0 0 0 0 0 0 0 0 0.05 0"/>
<feBlend mode="normal" in2="BackgroundImageFix" result="effect1_dropShadow_262_49712"/>
<feBlend mode="normal" in="SourceGraphic" in2="effect1_dropShadow_262_49712" result="shape"/>
</filter>
<filter id="filter1_f_262_49712" x="0" y="0" width="255" height="255" filterUnits="userSpaceOnUse" color-interpolation-filters="sRGB">
<feFlood flood-opacity="0" result="BackgroundImageFix"/>
<feBlend mode="normal" in="SourceGraphic" in2="BackgroundImageFix" result="shape"/>
<feGaussianBlur stdDeviation="50" result="effect1_foregroundBlur_262_49712"/>
</filter>
<linearGradient id="paint0_linear_262_49712" x1="104.229" y1="96" x2="330.347" y2="182.545" gradientUnits="userSpaceOnUse">
<stop stop-color="#6950E8"/>
<stop offset="1" stop-color="#DAC9FE"/>
</linearGradient>
</defs>
</svg>
