<svg width="303" height="192" viewBox="0 0 303 192" fill="none" xmlns="http://www.w3.org/2000/svg">
<path d="M140.066 189.578H110.345C109.825 189.578 109.327 189.371 108.959 189.004C108.591 188.636 108.385 188.137 108.385 187.617C108.385 187.098 108.591 186.599 108.959 186.231C109.327 185.864 109.825 185.657 110.345 185.657H140.066C140.586 185.657 141.084 185.864 141.452 186.231C141.82 186.599 142.026 187.098 142.026 187.617C142.026 188.137 141.82 188.636 141.452 189.004C141.084 189.371 140.586 189.578 140.066 189.578ZM59.1366 138.142H59.1327C59.0898 138.141 59.0474 138.132 59.008 138.115C58.9685 138.099 58.9328 138.074 58.9028 138.043C58.8728 138.013 58.8492 137.976 58.8332 137.936C58.8173 137.897 58.8094 137.854 58.8099 137.811L59.2797 100.807C59.2784 100.473 59.1447 100.153 58.908 99.9171C58.6712 99.6812 58.3507 99.5487 58.0166 99.5485H49.092C48.7573 99.549 48.4365 99.6822 48.1998 99.9189C47.9631 100.156 47.83 100.476 47.8294 100.811V101.53C47.8286 102.038 47.6263 102.525 47.2668 102.884C46.9074 103.243 46.4202 103.445 45.9121 103.446H7.44563C7.11061 103.446 6.78935 103.579 6.55239 103.816C6.31543 104.053 6.18215 104.374 6.1818 104.709V107.838C6.1818 107.925 6.14737 108.008 6.0861 108.069C6.02482 108.13 5.94172 108.165 5.85506 108.165C5.7684 108.165 5.6853 108.13 5.62402 108.069C5.56274 108.008 5.52832 107.925 5.52832 107.838V104.709C5.52901 104.201 5.73126 103.714 6.09069 103.354C6.45013 102.995 6.9374 102.793 7.44563 102.792H45.9121C46.247 102.792 46.5682 102.659 46.8051 102.422C47.0421 102.186 47.1754 101.865 47.176 101.53V100.811C47.1767 100.303 47.3787 99.8162 47.7379 99.457C48.0971 99.0978 48.584 98.8957 49.092 98.895H58.0166C58.5246 98.8955 59.0117 99.0976 59.371 99.4567C59.7304 99.8159 59.9325 100.303 59.9332 100.811L59.4634 137.82C59.4622 137.905 59.4272 137.987 59.3661 138.048C59.3049 138.108 59.2225 138.142 59.1366 138.142Z" fill="#334155"/>
<path d="M10.7074 139.227H57.5463C57.7895 139.227 58.0293 139.171 58.2475 139.064C58.4657 138.957 58.6564 138.801 58.8049 138.609C58.9534 138.416 59.0558 138.192 59.1041 137.954C59.1525 137.716 59.1456 137.469 59.084 137.234L51.6408 108.82C51.5518 108.48 51.3525 108.179 51.0742 107.964C50.7958 107.749 50.4541 107.633 50.1025 107.633H1.58941C1.33906 107.633 1.09227 107.692 0.869126 107.806C0.645981 107.919 0.452791 108.084 0.305285 108.286C0.157779 108.488 0.0601246 108.722 0.0202731 108.97C-0.0195784 109.217 -0.000501254 109.47 0.0759518 109.708L9.19332 138.123C9.29618 138.444 9.49824 138.723 9.77036 138.922C10.0425 139.12 10.3706 139.227 10.7074 139.227Z" fill="#FEBF06"/>
<path d="M241.952 120.166C241.829 120.166 241.707 120.155 241.587 120.133C238.241 119.521 237.843 110.609 237.807 109.595C237.997 107.179 237.691 104.75 236.907 102.458C233.121 103.224 229.85 102.514 227.181 100.345C219.078 93.7607 219.163 76.1775 219.171 75.4319C219.172 75.3458 219.206 75.2635 219.268 75.2029C219.329 75.1424 219.411 75.1084 219.497 75.1084H219.501C219.544 75.1088 219.586 75.1177 219.626 75.1345C219.665 75.1513 219.701 75.1758 219.731 75.2064C219.761 75.237 219.785 75.2733 219.801 75.3131C219.817 75.3529 219.825 75.3955 219.824 75.4384C219.822 75.6175 219.734 93.4536 227.594 99.8381C230.166 101.928 233.348 102.574 237.046 101.761C237.121 101.744 237.2 101.754 237.268 101.79C237.337 101.826 237.39 101.885 237.419 101.957C238.321 104.402 238.676 107.016 238.459 109.614C238.55 112.182 239.306 119.052 241.705 119.49C243.311 119.776 246.357 117.383 251.823 104.307C251.859 104.232 251.923 104.174 252.001 104.145C252.079 104.116 252.165 104.117 252.242 104.149C252.319 104.182 252.381 104.242 252.414 104.318C252.448 104.394 252.452 104.48 252.424 104.559C248.042 115.048 244.609 120.166 241.952 120.166Z" fill="#334155"/>
<path d="M228.867 91.2479C228.437 91.257 228.015 91.1387 227.653 90.9081C227.368 90.6933 227.131 90.4232 226.953 90.1142C226.776 89.8052 226.663 89.4635 226.621 89.1097C226.474 88.2669 226.565 87.3997 226.883 86.6056C226.985 86.273 227.096 85.9077 227.196 85.4744C227.49 84.1969 227.855 82.6083 227.213 81.0968C226.997 80.5498 226.665 80.056 226.24 79.6491C225.815 79.2422 225.307 78.9318 224.751 78.739C223.961 78.5165 223.12 78.5578 222.355 78.8566C222.314 78.8746 222.271 78.8841 222.227 78.8847C222.182 78.8853 222.139 78.8769 222.098 78.8601C222.057 78.8432 222.02 78.8182 221.989 78.7867C221.958 78.7551 221.934 78.7176 221.918 78.6764C221.902 78.6352 221.894 78.5912 221.896 78.547C221.897 78.5028 221.908 78.4594 221.926 78.4194C221.945 78.3794 221.972 78.3436 222.005 78.3142C222.038 78.2847 222.076 78.2623 222.118 78.2482C223.017 77.8961 224.007 77.8483 224.936 78.1123C225.584 78.3319 226.177 78.6894 226.674 79.16C227.17 79.6307 227.559 80.2033 227.813 80.8386C228.539 82.5482 228.131 84.3237 227.833 85.6202C227.729 86.0704 227.615 86.4501 227.509 86.7958C227.226 87.4872 227.141 88.2438 227.262 88.981C227.29 89.2492 227.37 89.5093 227.499 89.7462C227.627 89.9832 227.802 90.1924 228.011 90.3618C228.244 90.4858 228.499 90.5625 228.761 90.5875C229.024 90.6125 229.289 90.5854 229.54 90.5076C230.269 90.324 230.902 89.8728 231.313 89.2437C231.363 89.1747 231.438 89.1277 231.521 89.1128C231.605 89.0978 231.691 89.1161 231.762 89.1638C231.832 89.2114 231.881 89.2846 231.899 89.3679C231.916 89.4512 231.9 89.5379 231.854 89.6097C231.529 90.107 231.086 90.5166 230.565 90.8024C230.044 91.0882 229.461 91.2415 228.867 91.2486V91.2479ZM229.931 79.5271C229.873 79.5272 229.815 79.5115 229.765 79.4816C229.714 79.4518 229.673 79.4089 229.644 79.3576C229.616 79.3062 229.602 79.2481 229.604 79.1896C229.606 79.131 229.624 79.074 229.655 79.0246C231.843 75.5958 236.895 77.5399 237.109 77.6248C237.188 77.6578 237.251 77.7204 237.284 77.7992C237.317 77.878 237.318 77.9667 237.287 78.0462C237.256 78.1257 237.194 78.1898 237.116 78.2247C237.038 78.2595 236.949 78.2623 236.869 78.2326C236.822 78.2136 232.104 76.4041 230.206 79.3761C230.177 79.4223 230.136 79.4602 230.088 79.4865C230.04 79.5127 229.986 79.5265 229.931 79.5265V79.5271Z" fill="#334155"/>
<path d="M233.11 85.716C233.788 85.6179 234.209 84.6508 234.051 83.5561C233.892 82.4613 233.214 81.6534 232.536 81.7515C231.858 81.8496 231.437 82.8167 231.596 83.9115C231.754 85.0062 232.432 85.8142 233.11 85.716Z" fill="#334155"/>
<path d="M224.085 87.0241C224.763 86.926 225.184 85.9589 225.026 84.8642C224.867 83.7694 224.189 82.9615 223.511 83.0596C222.833 83.1577 222.412 84.1248 222.571 85.2196C222.729 86.3143 223.407 87.1223 224.085 87.0241Z" fill="#334155"/>
<path d="M232.537 94.5229C232.453 94.5226 232.372 94.49 232.312 94.4317C232.251 94.3735 232.215 94.2942 232.212 94.2102C232.208 94.1263 232.237 94.0441 232.292 93.9809C232.348 93.9177 232.425 93.8782 232.509 93.8707C234.331 93.7106 235.535 93.1591 236.087 92.2311C236.29 91.8173 236.404 91.3651 236.42 90.9041C236.436 90.4432 236.355 89.9841 236.18 89.5571C236.146 89.4775 236.144 89.3876 236.176 89.307C236.208 89.2264 236.271 89.1618 236.35 89.1274C236.43 89.093 236.52 89.0916 236.601 89.1236C236.681 89.1555 236.746 89.2181 236.78 89.2977C236.997 89.8193 237.097 90.3818 237.074 90.9462C237.052 91.5105 236.906 92.0631 236.649 92.5657C235.982 93.6845 234.609 94.3425 232.566 94.5216C232.557 94.5223 232.547 94.5228 232.537 94.5229ZM237.116 101.795C240.694 101.349 243.957 99.5241 246.209 96.7081C245.135 101.609 242.266 105.932 238.167 108.826C238.316 106.434 237.958 104.038 237.116 101.795Z" fill="#334155"/>
<path d="M229.995 151.498C229.911 151.498 229.831 151.466 229.77 151.408C228.377 150.085 226.696 149.101 224.86 148.534L224.214 148.336C224.146 148.315 224.086 148.272 224.044 148.213C224.003 148.155 223.981 148.085 223.983 148.013L224.555 130.854L220.523 128.41C220.452 128.367 220.4 128.299 220.378 128.22C220.355 128.14 220.363 128.055 220.401 127.981C224.522 119.893 230.441 112.857 237.705 107.414C237.74 107.388 237.779 107.369 237.82 107.358C237.862 107.348 237.905 107.345 237.948 107.351C237.99 107.358 238.031 107.372 238.068 107.394C238.105 107.416 238.137 107.445 238.163 107.479C238.188 107.513 238.207 107.552 238.218 107.594C238.228 107.635 238.231 107.679 238.225 107.721C238.219 107.764 238.204 107.804 238.182 107.841C238.161 107.878 238.132 107.911 238.097 107.936C230.995 113.259 225.192 120.122 221.122 128.009L225.058 130.394C225.107 130.424 225.148 130.467 225.176 130.518C225.203 130.569 225.217 130.626 225.215 130.684L224.645 147.785L225.052 147.91C226.94 148.493 228.673 149.494 230.12 150.84C232.193 150.764 256.868 149.86 259.586 149.678C259.657 149.675 259.725 149.653 259.786 149.616C259.846 149.579 259.896 149.527 259.93 149.465C261.021 147.795 258.377 139.454 257.266 136.38C257.248 136.331 257.242 136.278 257.249 136.226C257.256 136.174 257.276 136.125 257.306 136.082C257.336 136.039 257.376 136.004 257.422 135.979C257.469 135.955 257.521 135.943 257.573 135.943C259.04 135.943 262.905 134.654 268.751 132.216C271.531 131.056 274.401 129.859 276.962 128.622C271.302 118.268 262.575 109.921 251.98 104.726C251.902 104.688 251.843 104.62 251.815 104.538C251.787 104.456 251.792 104.366 251.831 104.288C251.869 104.21 251.936 104.151 252.018 104.123C252.1 104.095 252.19 104.101 252.268 104.139C263.089 109.446 271.981 118.001 277.7 128.61C277.721 128.649 277.734 128.691 277.738 128.735C277.743 128.779 277.738 128.823 277.724 128.865C277.711 128.907 277.689 128.946 277.66 128.98C277.631 129.013 277.596 129.04 277.557 129.059C274.902 130.359 271.903 131.609 269.002 132.82C263.507 135.111 259.821 136.369 258.027 136.568C258.821 138.82 261.833 147.748 260.477 149.822C260.387 149.969 260.263 150.092 260.116 150.181C259.968 150.269 259.801 150.321 259.63 150.331C256.797 150.52 230.275 151.488 230.007 151.498H229.995Z" fill="#334155"/>
<path d="M252.123 123.427L257.337 136.654L260.922 135.838L252.123 123.427ZM225.201 130.823L225.789 122.927L223.26 129.805L225.201 130.823Z" fill="#334155"/>
<path d="M199.84 180.523C199.497 180.524 199.155 180.48 198.823 180.393C197.584 180.067 196.6 179.129 195.894 177.602C195.041 178.135 192.744 179.373 190.874 178.562C189.582 178 188.785 176.594 188.502 174.381C188.238 172.111 188.577 169.81 189.485 167.712C190.668 164.733 192.294 161.95 194.309 159.457C191.732 160.844 187.287 163.374 185.102 165.43C183.189 167.23 181.239 167.273 180.153 166.518C179.176 165.839 178.498 164.248 179.522 161.822C181.249 157.729 190.849 150.052 193.826 148.593C192.744 147.672 189.997 145.114 189.517 142.55C189.111 140.383 189.412 138.737 190.365 137.918C191.174 137.222 192.381 137.148 193.952 137.699C195.805 138.465 197.556 139.457 199.167 140.651C201.227 142.041 203.356 143.479 205.448 143.887C207.94 144.373 210.48 144.671 212.336 144.887C213.429 145.016 214.293 145.117 214.885 145.221C218.293 145.823 226.606 147.584 230.217 150.931C230.28 150.99 230.318 151.071 230.321 151.158C230.324 151.245 230.293 151.329 230.234 151.393C230.175 151.456 230.094 151.494 230.007 151.497C229.92 151.5 229.836 151.469 229.772 151.41C226.289 148.182 218.121 146.457 214.772 145.864C214.198 145.764 213.3 145.658 212.26 145.536C210.395 145.318 207.84 145.02 205.323 144.529C203.1 144.095 200.915 142.62 198.801 141.192C197.236 140.032 195.535 139.066 193.737 138.316C192.4 137.848 191.41 137.881 190.791 138.414C190.033 139.065 189.802 140.529 190.159 142.431C190.702 145.324 194.62 148.402 194.66 148.433C194.708 148.471 194.745 148.521 194.766 148.579C194.787 148.637 194.791 148.699 194.779 148.759C194.766 148.819 194.736 148.874 194.693 148.918C194.651 148.963 194.596 148.994 194.537 149.008C192.731 149.448 181.911 157.843 180.124 162.076C179.394 163.805 179.548 165.301 180.525 165.982C181.395 166.585 183.008 166.504 184.654 164.954C187.895 161.904 195.659 158.007 195.987 157.842C196.059 157.807 196.142 157.799 196.219 157.82C196.296 157.842 196.363 157.891 196.406 157.958C196.449 158.026 196.467 158.106 196.454 158.186C196.442 158.265 196.401 158.337 196.339 158.388C193.414 160.752 191.167 165.404 190.088 167.966C189.224 169.958 188.901 172.142 189.151 174.298C189.401 176.265 190.069 177.499 191.132 177.961C193.089 178.811 195.819 176.869 195.847 176.85C195.887 176.821 195.933 176.802 195.981 176.793C196.03 176.785 196.08 176.787 196.128 176.801C196.175 176.815 196.219 176.839 196.256 176.871C196.292 176.904 196.321 176.945 196.34 176.991C196.971 178.532 197.863 179.464 198.987 179.762C201.033 180.302 203.255 178.593 203.276 178.575C203.34 178.525 203.421 178.501 203.502 178.507C203.583 178.513 203.658 178.548 203.715 178.607C203.926 178.876 204.201 179.09 204.514 179.228C204.828 179.366 205.17 179.425 205.512 179.399C207.538 179.148 209.631 175.436 210.882 173.217C211.216 172.584 211.588 171.971 211.996 171.382C212.782 170.37 214.244 171.199 216.264 172.341C218.495 173.603 221.261 175.171 224.299 175.072L225.342 175.039C264.775 173.813 288.62 171.168 290.764 167.783C294.244 162.29 275.896 129.903 275.71 129.576C275.689 129.539 275.675 129.498 275.67 129.455C275.664 129.412 275.667 129.369 275.679 129.328C275.69 129.286 275.71 129.248 275.736 129.214C275.762 129.18 275.795 129.151 275.833 129.13C275.87 129.109 275.911 129.095 275.954 129.09C275.996 129.085 276.039 129.088 276.081 129.099C276.122 129.11 276.161 129.13 276.195 129.156C276.229 129.183 276.257 129.215 276.279 129.253C277.044 130.6 295.004 162.311 291.316 168.134C288.219 173.022 248.665 174.968 225.363 175.692L224.321 175.724C221.099 175.827 218.123 174.143 215.943 172.91C214.338 172.003 212.951 171.218 212.511 171.783C212.125 172.348 211.772 172.934 211.451 173.538C210.055 176.015 207.945 179.756 205.591 180.047C205.197 180.087 204.799 180.037 204.428 179.9C204.056 179.764 203.72 179.545 203.445 179.259C202.388 180.014 201.137 180.452 199.84 180.523Z" fill="#334155"/>
<path d="M203.477 179.158C203.412 179.159 203.348 179.14 203.294 179.103C203.24 179.067 203.199 179.016 203.174 178.956C201.884 175.779 208.456 165.816 208.736 165.393C208.76 165.357 208.791 165.326 208.826 165.302C208.862 165.278 208.902 165.262 208.944 165.253C208.986 165.245 209.029 165.244 209.072 165.253C209.114 165.261 209.154 165.277 209.19 165.301C209.225 165.325 209.256 165.355 209.28 165.391C209.304 165.427 209.321 165.467 209.329 165.509C209.338 165.551 209.338 165.594 209.33 165.636C209.322 165.678 209.305 165.718 209.281 165.754C207.424 168.553 202.815 176.337 203.779 178.709C203.799 178.758 203.807 178.812 203.802 178.866C203.796 178.919 203.778 178.97 203.748 179.015C203.718 179.059 203.678 179.096 203.63 179.121C203.583 179.146 203.53 179.159 203.477 179.159V179.158ZM196.037 177.442L196.009 177.44C195.922 177.433 195.842 177.392 195.787 177.326C195.731 177.26 195.703 177.174 195.711 177.088C196.284 170.204 202.788 161.635 203.065 161.273C203.118 161.204 203.195 161.159 203.281 161.148C203.367 161.136 203.454 161.16 203.523 161.212C203.592 161.265 203.637 161.343 203.649 161.429C203.66 161.515 203.637 161.602 203.584 161.671C203.518 161.758 196.919 170.451 196.361 177.142C196.355 177.224 196.317 177.3 196.257 177.355C196.197 177.411 196.118 177.442 196.037 177.442ZM213.574 145.692C213.515 145.692 213.458 145.676 213.407 145.647C213.357 145.617 213.316 145.575 213.287 145.524C213.259 145.473 213.245 145.415 213.246 145.357C213.248 145.298 213.265 145.241 213.296 145.192L222.982 129.632C223.028 129.558 223.101 129.506 223.185 129.486C223.27 129.466 223.359 129.481 223.432 129.527C223.506 129.573 223.558 129.646 223.578 129.73C223.598 129.815 223.583 129.904 223.537 129.978L213.851 145.538C213.822 145.585 213.781 145.624 213.732 145.651C213.684 145.678 213.629 145.692 213.574 145.692ZM289.131 182.679C289.059 182.679 288.99 182.656 288.933 182.613C288.876 182.569 288.835 182.508 288.816 182.44L285.505 170.427C285.494 170.386 285.491 170.343 285.496 170.3C285.502 170.257 285.515 170.216 285.536 170.179C285.558 170.142 285.586 170.109 285.62 170.083C285.654 170.056 285.693 170.037 285.734 170.025C285.818 170.003 285.907 170.015 285.982 170.058C286.057 170.101 286.112 170.171 286.136 170.254L289.447 182.266C289.458 182.308 289.461 182.351 289.456 182.394C289.45 182.436 289.437 182.477 289.416 182.515C289.394 182.552 289.366 182.585 289.332 182.611C289.298 182.638 289.259 182.657 289.218 182.668C289.189 182.676 289.16 182.68 289.131 182.679ZM224.308 182.679C224.222 182.679 224.138 182.645 224.077 182.584C224.016 182.522 223.982 182.439 223.982 182.353V175.398C223.982 175.312 224.016 175.229 224.077 175.167C224.138 175.106 224.222 175.072 224.308 175.072C224.395 175.072 224.478 175.106 224.539 175.167C224.601 175.229 224.635 175.312 224.635 175.398V182.353C224.635 182.439 224.601 182.522 224.539 182.584C224.478 182.645 224.395 182.679 224.308 182.679Z" fill="#334155"/>
<path d="M295.873 182.679H82.9766C82.89 182.679 82.8069 182.644 82.7456 182.583C82.6843 182.522 82.6499 182.439 82.6499 182.352C82.6499 182.265 82.6843 182.182 82.7456 182.121C82.8069 182.06 82.89 182.025 82.9766 182.025H295.873C295.96 182.025 296.043 182.06 296.104 182.121C296.165 182.182 296.2 182.265 296.2 182.352C296.2 182.439 296.165 182.522 296.104 182.583C296.043 182.644 295.96 182.679 295.873 182.679Z" fill="#334155"/>
<path d="M98.2526 173.809H168.61L158.012 122.937H88.0962C87.9386 122.937 87.783 122.972 87.6408 123.04C87.4985 123.107 87.3731 123.206 87.2737 123.328C87.1743 123.451 87.1034 123.593 87.0662 123.746C87.0289 123.9 87.0263 124.059 87.0584 124.213L97.2148 172.965C97.2645 173.203 97.3949 173.417 97.5839 173.571C97.7728 173.725 98.009 173.809 98.2526 173.809Z" fill="#05AE82"/>
<path d="M162.308 123.781L172.465 172.532C172.497 172.687 172.495 172.846 172.458 172.999C172.42 173.152 172.349 173.295 172.25 173.417C172.151 173.54 172.025 173.638 171.883 173.706C171.741 173.773 171.585 173.809 171.428 173.809H168.608L158.01 122.937H161.271C161.515 122.937 161.751 123.021 161.939 123.175C162.128 123.328 162.259 123.542 162.308 123.781Z" fill="#334155"/>
<path d="M107.188 189.579H124.012L134.61 159.056H117.05C116.829 159.056 116.615 159.125 116.435 159.252C116.256 159.38 116.121 159.56 116.048 159.768L106.186 188.171C106.131 188.331 106.114 188.502 106.138 188.669C106.162 188.836 106.226 188.996 106.324 189.133C106.422 189.271 106.551 189.383 106.701 189.461C106.852 189.538 107.018 189.579 107.187 189.579H107.188Z" fill="#907AF1"/>
<path d="M137.673 160.463L127.81 188.867C127.738 189.075 127.603 189.255 127.424 189.383C127.244 189.51 127.029 189.579 126.809 189.579H124.012L134.61 159.056H136.672C136.841 159.056 137.007 159.097 137.157 159.174C137.307 159.252 137.437 159.364 137.535 159.502C137.633 159.639 137.696 159.798 137.72 159.966C137.744 160.133 137.728 160.303 137.673 160.463Z" fill="#334155"/>
<path d="M126.302 150.79H129.1C130.435 150.79 131.517 149.708 131.517 148.374C131.517 147.039 130.435 145.958 129.1 145.958H126.302C124.968 145.958 123.886 147.039 123.886 148.374C123.886 149.708 124.968 150.79 126.302 150.79Z" fill="#334155"/>
<path d="M302.351 152.486H272.604V149.092H302.351L302.351 152.486Z" fill="#FEBF06"/>
<path d="M84.9346 110.769H114.682V114.163H84.9346V110.769Z" fill="#907AF1"/>
<path d="M242.533 46.8838H272.28V50.2773H242.533V46.8838Z" fill="#FE8969"/>
<path d="M209.01 105.26C208.516 105.26 208.034 105.114 207.624 104.84C207.213 104.565 206.893 104.176 206.705 103.72C206.516 103.264 206.466 102.762 206.563 102.279C206.659 101.795 206.896 101.35 207.245 101.001C207.594 100.652 208.039 100.414 208.522 100.318C209.006 100.222 209.508 100.271 209.964 100.46C210.42 100.648 210.81 100.968 211.084 101.378C211.358 101.789 211.505 102.271 211.505 102.764C211.504 103.426 211.241 104.06 210.773 104.528C210.305 104.996 209.671 105.259 209.01 105.26ZM209.01 100.923C208.645 100.923 208.289 101.031 207.987 101.233C207.684 101.436 207.448 101.723 207.308 102.06C207.169 102.396 207.132 102.766 207.203 103.124C207.275 103.481 207.45 103.809 207.707 104.067C207.965 104.324 208.293 104.499 208.65 104.57C209.008 104.642 209.378 104.605 209.714 104.466C210.051 104.326 210.338 104.09 210.541 103.787C210.743 103.485 210.851 103.129 210.851 102.764C210.85 102.276 210.656 101.808 210.311 101.463C209.966 101.118 209.498 100.924 209.01 100.923Z" fill="#334155"/>
<path d="M72.5083 128.338L76.3874 127.278L73.5683 123.929L72.5083 128.338Z" fill="#FE8969"/>
<path d="M289.576 119.224L293.455 118.165L290.636 114.816L289.576 119.224ZM212.774 41.7684L216.653 40.7085L213.834 37.3594L212.774 41.7684Z" fill="#FEBF06"/>
<path d="M255.467 62.6366L259.345 61.5766L256.526 58.2275L255.467 62.6366Z" fill="#907AF1"/>
<path d="M187.485 192L191.364 190.94L188.545 187.591L187.485 192Z" fill="#05AE82"/>
<path d="M250.173 75.4408C250.173 75.4408 249.376 61.6216 244.061 61.0903C238.746 60.559 239.277 57.1041 236.354 57.37C233.431 57.636 230.64 61.7549 228.648 61.6216C226.655 61.4883 221.074 54.5797 215.759 59.3632C210.443 64.1466 211.64 77.4339 224.13 75.4408C236.62 73.4476 231.305 68.7968 238.613 71.3212C245.921 73.8456 245.124 82.35 246.32 82.35C247.516 82.35 247.915 75.3074 250.173 75.4408Z" fill="#334155"/>
<path d="M252.123 104.759C252.067 104.759 252.012 104.745 251.964 104.718C251.915 104.691 251.874 104.652 251.845 104.604C247.901 98.2322 248.79 88.2895 248.829 87.8693C248.836 87.8062 248.86 87.7463 248.9 87.6968C251.601 84.3098 252.72 81.3645 252.226 78.9434C252.096 78.2853 251.833 77.6606 251.453 77.1075C251.073 76.5544 250.585 76.0845 250.017 75.7263C249.946 75.6827 249.894 75.6132 249.872 75.5323C249.85 75.4514 249.86 75.3652 249.9 75.2915C249.94 75.2179 250.007 75.1624 250.087 75.1365C250.166 75.1106 250.253 75.1164 250.328 75.1525C250.982 75.5541 251.544 76.0868 251.981 76.7169C252.418 77.347 252.72 78.0608 252.867 78.8133C253.396 81.4142 252.255 84.513 249.472 88.0261C249.39 89.0697 248.773 98.3995 252.4 104.261C252.43 104.311 252.447 104.367 252.448 104.425C252.45 104.483 252.435 104.541 252.407 104.591C252.379 104.642 252.338 104.684 252.288 104.714C252.238 104.743 252.181 104.759 252.123 104.759ZM107.461 97.0428H74.4473C74.3607 97.0428 74.2776 97.0084 74.2163 96.9471C74.155 96.8859 74.1206 96.8028 74.1206 96.7161V54.4967C74.1206 54.41 74.155 54.3269 74.2163 54.2656C74.2776 54.2043 74.3607 54.1699 74.4473 54.1699H98.9039C98.9905 54.1699 99.0736 54.2043 99.1349 54.2656C99.1962 54.3269 99.2306 54.41 99.2306 54.4967C99.2306 54.5833 99.1962 54.6664 99.1349 54.7277C99.0736 54.789 98.9905 54.8234 98.9039 54.8234H74.7747V96.3894H107.135V63.054C107.135 62.9673 107.17 62.8842 107.231 62.8229C107.292 62.7617 107.375 62.7273 107.462 62.7273C107.549 62.7273 107.632 62.7617 107.693 62.8229C107.754 62.8842 107.789 62.9673 107.789 63.054V96.7148C107.789 96.8015 107.754 96.8846 107.693 96.9458C107.632 97.0071 107.549 97.0415 107.462 97.0415L107.461 97.0428Z" fill="#334155"/>
<path d="M107.461 63.388H98.8979C98.8112 63.388 98.7281 63.3536 98.6669 63.2923C98.6056 63.231 98.5712 63.1479 98.5712 63.0612V54.4974C98.5713 54.4328 98.5905 54.3698 98.6265 54.3162C98.6624 54.2626 98.7133 54.2208 98.773 54.1962C98.8326 54.1715 98.8982 54.165 98.9614 54.1776C99.0247 54.1901 99.0829 54.2211 99.1286 54.2667L107.692 62.8299C107.738 62.8756 107.769 62.9339 107.782 62.9973C107.795 63.0608 107.788 63.1266 107.764 63.1864C107.739 63.2461 107.697 63.2972 107.643 63.3331C107.589 63.369 107.526 63.3881 107.461 63.388ZM99.2246 62.7345H106.672L99.2246 55.2861V62.7345ZM118.254 85.2979H107.461C107.374 85.2979 107.291 85.2635 107.23 85.2022C107.169 85.1409 107.134 85.0578 107.134 84.9711C107.134 84.8845 107.169 84.8014 107.23 84.7401C107.291 84.6788 107.374 84.6444 107.461 84.6444H117.927V51.3103C117.927 51.2237 117.962 51.1406 118.023 51.0793C118.084 51.018 118.167 50.9836 118.254 50.9836C118.341 50.9836 118.424 51.018 118.485 51.0793C118.546 51.1406 118.581 51.2237 118.581 51.3103V84.9711C118.581 85.0578 118.546 85.1409 118.485 85.2022C118.424 85.2635 118.341 85.2979 118.254 85.2979ZM85.2408 54.8241C85.1541 54.8241 85.071 54.7897 85.0098 54.7284C84.9485 54.6671 84.9141 54.584 84.9141 54.4974V42.753C84.9141 42.6664 84.9485 42.5832 85.0098 42.522C85.071 42.4607 85.1541 42.4263 85.2408 42.4263H109.696C109.783 42.4263 109.866 42.4607 109.927 42.522C109.988 42.5832 110.023 42.6664 110.023 42.753C110.023 42.8397 109.988 42.9228 109.927 42.984C109.866 43.0453 109.783 43.0798 109.696 43.0798H85.5675V54.4974C85.5675 54.584 85.5331 54.6671 85.4718 54.7284C85.4106 54.7897 85.3275 54.8241 85.2408 54.8241Z" fill="#334155"/>
<path d="M118.254 51.6424H109.691C109.604 51.6424 109.521 51.6079 109.46 51.5467C109.399 51.4854 109.364 51.4023 109.364 51.3156V42.7518C109.364 42.6872 109.384 42.6242 109.419 42.5706C109.455 42.517 109.506 42.4753 109.566 42.4506C109.626 42.4259 109.691 42.4194 109.754 42.432C109.818 42.4445 109.876 42.4755 109.922 42.5211L118.485 51.0843C118.531 51.13 118.562 51.1883 118.575 51.2517C118.588 51.3152 118.581 51.381 118.557 51.4407C118.532 51.5005 118.49 51.5516 118.436 51.5875C118.382 51.6234 118.319 51.6425 118.254 51.6424ZM110.018 50.9889H117.465L110.018 43.5412V50.9889ZM129.047 73.5523H118.254C118.167 73.5523 118.084 73.5179 118.023 73.4566C117.962 73.3953 117.927 73.3122 117.927 73.2255C117.927 73.1389 117.962 73.0558 118.023 72.9945C118.084 72.9332 118.167 72.8988 118.254 72.8988H128.72V39.5647C128.72 39.4781 128.755 39.395 128.816 39.3337C128.877 39.2724 128.96 39.238 129.047 39.238C129.134 39.238 129.217 39.2724 129.278 39.3337C129.339 39.395 129.374 39.4781 129.374 39.5647V73.2255C129.374 73.3122 129.339 73.3953 129.278 73.4566C129.217 73.5179 129.134 73.5523 129.047 73.5523ZM96.0338 43.0792C95.9471 43.0792 95.864 43.0447 95.8027 42.9835C95.7415 42.9222 95.707 42.8391 95.707 42.7524V31.0074C95.707 30.9207 95.7415 30.8376 95.8027 30.7764C95.864 30.7151 95.9471 30.6807 96.0338 30.6807H120.489C120.576 30.6807 120.659 30.7151 120.72 30.7764C120.781 30.8376 120.816 30.9207 120.816 31.0074C120.816 31.0941 120.781 31.1772 120.72 31.2385C120.659 31.2997 120.576 31.3341 120.489 31.3341H96.3605V42.7518C96.3605 42.8384 96.3261 42.9215 96.2648 42.9828C96.2035 43.0441 96.1204 43.0785 96.0338 43.0785V43.0792Z" fill="#334155"/>
<path d="M129.047 39.8979H120.483C120.397 39.8979 120.314 39.8635 120.252 39.8022C120.191 39.741 120.157 39.6579 120.157 39.5712V31.008C120.157 30.9433 120.176 30.88 120.212 30.8262C120.247 30.7723 120.298 30.7303 120.358 30.7056C120.418 30.6808 120.484 30.6743 120.547 30.687C120.611 30.6996 120.669 30.7308 120.715 30.7767L129.278 39.3405C129.323 39.3862 129.354 39.4444 129.367 39.5077C129.38 39.5709 129.373 39.6365 129.348 39.6961C129.324 39.7558 129.282 39.8067 129.228 39.8427C129.175 39.8786 129.112 39.8978 129.047 39.8979ZM120.81 39.2445H128.258L120.81 31.7967V39.2445ZM92.3301 59.8507H78.5221C78.4354 59.8507 78.3523 59.8163 78.291 59.755C78.2297 59.6937 78.1953 59.6106 78.1953 59.5239C78.1953 59.4373 78.2297 59.3542 78.291 59.2929C78.3523 59.2316 78.4354 59.1972 78.5221 59.1972H92.3301C92.4168 59.1972 92.4999 59.2316 92.5611 59.2929C92.6224 59.3542 92.6568 59.4373 92.6568 59.5239C92.6568 59.6106 92.6224 59.6937 92.5611 59.755C92.4999 59.8163 92.4168 59.8507 92.3301 59.8507ZM92.3301 64.4531H78.5221C78.4354 64.4531 78.3523 64.4187 78.291 64.3574C78.2297 64.2962 78.1953 64.2131 78.1953 64.1264C78.1953 64.0397 78.2297 63.9566 78.291 63.8954C78.3523 63.8341 78.4354 63.7997 78.5221 63.7997H92.3301C92.4168 63.7997 92.4999 63.8341 92.5611 63.8954C92.6224 63.9566 92.6568 64.0397 92.6568 64.1264C92.6568 64.2131 92.6224 64.2962 92.5611 64.3574C92.4999 64.4187 92.4168 64.4531 92.3301 64.4531ZM102.541 69.0556H78.5221C78.4354 69.0556 78.3523 69.0212 78.291 68.9599C78.2297 68.8986 78.1953 68.8155 78.1953 68.7289C78.1953 68.6422 78.2297 68.5591 78.291 68.4978C78.3523 68.4366 78.4354 68.4021 78.5221 68.4021H102.541C102.628 68.4021 102.711 68.4366 102.772 68.4978C102.834 68.5591 102.868 68.6422 102.868 68.7289C102.868 68.8155 102.834 68.8986 102.772 68.9599C102.711 69.0212 102.628 69.0556 102.541 69.0556ZM102.541 73.6587H78.5221C78.4354 73.6587 78.3523 73.6243 78.291 73.563C78.2297 73.5018 78.1953 73.4186 78.1953 73.332C78.1953 73.2453 78.2297 73.1622 78.291 73.101C78.3523 73.0397 78.4354 73.0052 78.5221 73.0052H102.541C102.628 73.0052 102.711 73.0397 102.772 73.101C102.834 73.1622 102.868 73.2453 102.868 73.332C102.868 73.4186 102.834 73.5018 102.772 73.563C102.711 73.6243 102.628 73.6587 102.541 73.6587ZM102.541 78.2612H78.5221C78.4354 78.2612 78.3523 78.2268 78.291 78.1655C78.2297 78.1042 78.1953 78.0211 78.1953 77.9345C78.1953 77.8478 78.2297 77.7647 78.291 77.7034C78.3523 77.6421 78.4354 77.6077 78.5221 77.6077H102.541C102.628 77.6077 102.711 77.6421 102.772 77.7034C102.834 77.7647 102.868 77.8478 102.868 77.9345C102.868 78.0211 102.834 78.1042 102.772 78.1655C102.711 78.2268 102.628 78.2612 102.541 78.2612ZM102.541 82.8643H78.5221C78.4354 82.8643 78.3523 82.8299 78.291 82.7686C78.2297 82.7073 78.1953 82.6242 78.1953 82.5376C78.1953 82.4509 78.2297 82.3678 78.291 82.3065C78.3523 82.2453 78.4354 82.2108 78.5221 82.2108H102.541C102.628 82.2108 102.711 82.2453 102.772 82.3065C102.834 82.3678 102.868 82.4509 102.868 82.5376C102.868 82.6242 102.834 82.7073 102.772 82.7686C102.711 82.8299 102.628 82.8643 102.541 82.8643ZM102.541 87.4668H78.5221C78.4354 87.4668 78.3523 87.4324 78.291 87.3711C78.2297 87.3098 78.1953 87.2267 78.1953 87.14C78.1953 87.0534 78.2297 86.9703 78.291 86.909C78.3523 86.8477 78.4354 86.8133 78.5221 86.8133H102.541C102.628 86.8133 102.711 86.8477 102.772 86.909C102.834 86.9703 102.868 87.0534 102.868 87.14C102.868 87.2267 102.834 87.3098 102.772 87.3711C102.711 87.4324 102.628 87.4668 102.541 87.4668ZM102.541 92.0699H78.5221C78.4354 92.0699 78.3523 92.0355 78.291 91.9742C78.2297 91.9129 78.1953 91.8298 78.1953 91.7432C78.1953 91.6565 78.2297 91.5734 78.291 91.5121C78.3523 91.4508 78.4354 91.4164 78.5221 91.4164H102.541C102.628 91.4164 102.711 91.4508 102.772 91.5121C102.834 91.5734 102.868 91.6565 102.868 91.7432C102.868 91.8298 102.834 91.9129 102.772 91.9742C102.711 92.0355 102.628 92.0699 102.541 92.0699ZM102.647 50.2216H88.8392C88.7525 50.2216 88.6694 50.1872 88.6082 50.1259C88.5469 50.0647 88.5125 49.9816 88.5125 49.8949C88.5125 49.8082 88.5469 49.7251 88.6082 49.6639C88.6694 49.6026 88.7525 49.5682 88.8392 49.5682H102.647C102.734 49.5682 102.817 49.6026 102.878 49.6639C102.94 49.7251 102.974 49.8082 102.974 49.8949C102.974 49.9816 102.94 50.0647 102.878 50.1259C102.817 50.1872 102.734 50.2216 102.647 50.2216ZM102.647 54.8241H88.8392C88.7525 54.8241 88.6694 54.7897 88.6082 54.7284C88.5469 54.6671 88.5125 54.584 88.5125 54.4974C88.5125 54.4107 88.5469 54.3276 88.6082 54.2663C88.6694 54.205 88.7525 54.1706 88.8392 54.1706H102.647C102.734 54.1706 102.817 54.205 102.878 54.2663C102.94 54.3276 102.974 54.4107 102.974 54.4974C102.974 54.584 102.94 54.6671 102.878 54.7284C102.817 54.7897 102.734 54.8241 102.647 54.8241ZM112.858 59.4279H103.5C103.413 59.4279 103.33 59.3934 103.269 59.3322C103.208 59.2709 103.173 59.1878 103.173 59.1011C103.173 59.0145 103.208 58.9314 103.269 58.8701C103.33 58.8088 103.413 58.7744 103.5 58.7744H112.858C112.945 58.7744 113.028 58.8088 113.089 58.8701C113.15 58.9314 113.185 59.0145 113.185 59.1011C113.185 59.1878 113.15 59.2709 113.089 59.3322C113.028 59.3934 112.945 59.4279 112.858 59.4279ZM112.858 64.0297H107.461C107.375 64.0297 107.292 63.9953 107.23 63.934C107.169 63.8727 107.135 63.7896 107.135 63.7029C107.135 63.6163 107.169 63.5332 107.23 63.4719C107.292 63.4106 107.375 63.3762 107.461 63.3762H112.858C112.945 63.3762 113.028 63.4106 113.089 63.4719C113.15 63.5332 113.185 63.6163 113.185 63.7029C113.185 63.7896 113.15 63.8727 113.089 63.934C113.028 63.9953 112.945 64.0297 112.858 64.0297ZM112.858 68.6328H107.461C107.375 68.6328 107.292 68.5984 107.23 68.5371C107.169 68.4758 107.135 68.3927 107.135 68.3061C107.135 68.2194 107.169 68.1363 107.23 68.075C107.292 68.0138 107.375 67.9793 107.461 67.9793H112.858C112.945 67.9793 113.028 68.0138 113.089 68.075C113.15 68.1363 113.185 68.2194 113.185 68.3061C113.185 68.3927 113.15 68.4758 113.089 68.5371C113.028 68.5984 112.945 68.6328 112.858 68.6328ZM112.858 73.2353H107.461C107.375 73.2353 107.292 73.2008 107.23 73.1396C107.169 73.0783 107.135 72.9952 107.135 72.9085C107.135 72.8219 107.169 72.7388 107.23 72.6775C107.292 72.6162 107.375 72.5818 107.461 72.5818H112.858C112.945 72.5818 113.028 72.6162 113.089 72.6775C113.15 72.7388 113.185 72.8219 113.185 72.9085C113.185 72.9952 113.15 73.0783 113.089 73.1396C113.028 73.2008 112.945 73.2353 112.858 73.2353ZM112.858 77.8384H107.461C107.375 77.8384 107.292 77.804 107.23 77.7427C107.169 77.6814 107.135 77.5983 107.135 77.5117C107.135 77.425 107.169 77.3419 107.23 77.2806C107.292 77.2193 107.375 77.1849 107.461 77.1849H112.858C112.945 77.1849 113.028 77.2193 113.089 77.2806C113.15 77.3419 113.185 77.425 113.185 77.5117C113.185 77.5983 113.15 77.6814 113.089 77.7427C113.028 77.804 112.945 77.8384 112.858 77.8384ZM112.858 82.4415H107.461C107.375 82.4415 107.292 82.4071 107.23 82.3458C107.169 82.2845 107.135 82.2014 107.135 82.1148C107.135 82.0281 107.169 81.945 107.23 81.8837C107.292 81.8225 107.375 81.788 107.461 81.788H112.858C112.945 81.788 113.028 81.8225 113.089 81.8837C113.15 81.945 113.185 82.0281 113.185 82.1148C113.185 82.2014 113.15 82.2845 113.089 82.3458C113.028 82.4071 112.945 82.4415 112.858 82.4415ZM113.44 38.4766H99.6314C99.5448 38.4766 99.4617 38.4422 99.4004 38.3809C99.3391 38.3197 99.3047 38.2365 99.3047 38.1499C99.3047 38.0632 99.3391 37.9801 99.4004 37.9188C99.4617 37.8576 99.5448 37.8231 99.6314 37.8231H113.439C113.526 37.8231 113.609 37.8576 113.671 37.9188C113.732 37.9801 113.766 38.0632 113.766 38.1499C113.766 38.2365 113.732 38.3197 113.671 38.3809C113.609 38.4422 113.526 38.4766 113.439 38.4766H113.44ZM113.44 43.0797H99.6314C99.5448 43.0797 99.4617 43.0453 99.4004 42.984C99.3391 42.9228 99.3047 42.8397 99.3047 42.753C99.3047 42.6664 99.3391 42.5832 99.4004 42.522C99.4617 42.4607 99.5448 42.4263 99.6314 42.4263H113.439C113.526 42.4263 113.609 42.4607 113.671 42.522C113.732 42.5832 113.766 42.6664 113.766 42.753C113.766 42.8397 113.732 42.9228 113.671 42.984C113.609 43.0453 113.526 43.0797 113.439 43.0797H113.44ZM123.65 47.6822H114.294C114.207 47.6822 114.124 47.6478 114.063 47.5865C114.001 47.5252 113.967 47.4421 113.967 47.3555C113.967 47.2688 114.001 47.1857 114.063 47.1244C114.124 47.0632 114.207 47.0287 114.294 47.0287H123.651C123.737 47.0287 123.821 47.0632 123.882 47.1244C123.943 47.1857 123.978 47.2688 123.978 47.3555C123.978 47.4421 123.943 47.5252 123.882 47.5865C123.821 47.6478 123.737 47.6822 123.651 47.6822H123.65ZM123.65 52.2853H118.254C118.168 52.2853 118.085 52.2509 118.023 52.1896C117.962 52.1284 117.928 52.0452 117.928 51.9586C117.928 51.8719 117.962 51.7888 118.023 51.7276C118.085 51.6663 118.168 51.6318 118.254 51.6318H123.651C123.737 51.6318 123.821 51.6663 123.882 51.7276C123.943 51.7888 123.978 51.8719 123.978 51.9586C123.978 52.0452 123.943 52.1284 123.882 52.1896C123.821 52.2509 123.737 52.2853 123.651 52.2853H123.65ZM123.65 56.8878H118.254C118.168 56.8878 118.085 56.8534 118.023 56.7921C117.962 56.7308 117.928 56.6477 117.928 56.5611C117.928 56.4744 117.962 56.3913 118.023 56.33C118.085 56.2687 118.168 56.2343 118.254 56.2343H123.651C123.737 56.2343 123.821 56.2687 123.882 56.33C123.943 56.3913 123.978 56.4744 123.978 56.5611C123.978 56.6477 123.943 56.7308 123.882 56.7921C123.821 56.8534 123.737 56.8878 123.651 56.8878H123.65ZM123.65 61.4903H118.254C118.168 61.4903 118.085 61.4558 118.023 61.3946C117.962 61.3333 117.928 61.2502 117.928 61.1635C117.928 61.0769 117.962 60.9938 118.023 60.9325C118.085 60.8712 118.168 60.8368 118.254 60.8368H123.651C123.737 60.8368 123.821 60.8712 123.882 60.9325C123.943 60.9938 123.978 61.0769 123.978 61.1635C123.978 61.2502 123.943 61.3333 123.882 61.3946C123.821 61.4558 123.737 61.4903 123.651 61.4903H123.65ZM123.65 66.0934H118.254C118.168 66.0934 118.085 66.059 118.023 65.9977C117.962 65.9364 117.928 65.8533 117.928 65.7666C117.928 65.68 117.962 65.5969 118.023 65.5356C118.085 65.4743 118.168 65.4399 118.254 65.4399H123.651C123.737 65.4399 123.821 65.4743 123.882 65.5356C123.943 65.5969 123.978 65.68 123.978 65.7666C123.978 65.8533 123.943 65.9364 123.882 65.9977C123.821 66.059 123.737 66.0934 123.651 66.0934H123.65ZM123.65 70.6958H118.254C118.168 70.6958 118.085 70.6614 118.023 70.6002C117.962 70.5389 117.928 70.4558 117.928 70.3691C117.928 70.2824 117.962 70.1993 118.023 70.1381C118.085 70.0768 118.168 70.0424 118.254 70.0424H123.651C123.737 70.0424 123.821 70.0768 123.882 70.1381C123.943 70.1993 123.978 70.2824 123.978 70.3691C123.978 70.4558 123.943 70.5389 123.882 70.6002C123.821 70.6614 123.737 70.6958 123.651 70.6958H123.65Z" fill="#334155"/>
<path d="M138.007 32.2581C138.394 30.751 139.159 29.3672 140.228 28.2366C141.297 27.1061 142.636 26.2659 144.119 25.7952C145.602 25.3244 147.18 25.2385 148.706 25.5456C150.231 25.8526 151.653 26.5425 152.839 27.5504C153.296 25.8975 154.081 24.3534 155.147 23.0102C156.213 21.667 157.539 20.5522 159.045 19.732C160.551 18.9119 162.207 18.4033 163.914 18.2365C165.621 18.0697 167.344 18.2481 168.98 18.7611C168.974 18.5663 168.966 18.3723 168.966 18.1756C168.966 13.4261 170.853 8.87111 174.211 5.51271C177.57 2.15431 182.124 0.267578 186.874 0.267578C191.623 0.267578 196.178 2.15431 199.537 5.51271C202.895 8.87111 204.782 13.4261 204.782 18.1756C204.782 18.3089 204.775 18.4402 204.772 18.5729C206.763 18.0723 208.845 18.0588 210.842 18.5333C212.839 19.0078 214.693 19.9565 216.246 21.2991C217.799 22.6416 219.005 24.3385 219.763 26.2461C220.521 28.1537 220.809 30.2158 220.601 32.2581H138.007Z" fill="#907AF1"/>
<path d="M29.5069 100.542C29.4203 100.542 29.3372 100.508 29.2759 100.447C29.2146 100.385 29.1802 100.302 29.1802 100.216V94.9896C29.1814 94.0599 29.5513 93.1687 30.2088 92.5114C30.8663 91.8542 31.7577 91.4846 32.6874 91.4837H58.0693C58.8256 91.483 59.5508 91.1823 60.0857 90.6475C60.6206 90.1128 60.9215 89.3876 60.9224 88.6313V68.9465C60.9217 68.19 60.6208 67.4647 60.0859 66.9298C59.551 66.3949 58.8257 66.0941 58.0693 66.0934H43.0627C42.133 66.0923 41.2417 65.7225 40.5843 65.0652C39.927 64.4078 39.5572 63.5165 39.5561 62.5868V42.7445C39.5574 41.8149 39.9272 40.9238 40.5846 40.2665C41.2419 39.6093 42.1332 39.2396 43.0627 39.2386H95.7071V31.008C95.7071 30.9213 95.7416 30.8382 95.8028 30.7769C95.8641 30.7157 95.9472 30.6812 96.0339 30.6812H105.8V11.316C105.801 10.3863 106.171 9.49506 106.828 8.83779C107.486 8.18053 108.377 7.81092 109.307 7.81006H120.832C121.761 7.8111 122.652 8.18078 123.31 8.83802C123.967 9.49527 124.337 10.3864 124.338 11.316V15.2166C124.339 15.9729 124.64 16.6979 125.175 17.2326C125.709 17.7674 126.434 18.0682 127.191 18.069H155.312C155.399 18.069 155.482 18.1035 155.543 18.1648C155.605 18.226 155.639 18.3091 155.639 18.3958C155.639 18.4824 155.605 18.5656 155.543 18.6268C155.482 18.6881 155.399 18.7225 155.312 18.7225H127.191C126.261 18.7213 125.37 18.3516 124.713 17.6943C124.056 17.0371 123.686 16.1461 123.685 15.2166V11.316C123.684 10.5596 123.383 9.83449 122.848 9.29972C122.313 8.76496 121.588 8.46423 120.832 8.46354H109.307C108.55 8.46406 107.825 8.7647 107.29 9.29949C106.755 9.83428 106.454 10.5595 106.453 11.316V31.008C106.453 31.0946 106.419 31.1777 106.357 31.239C106.296 31.3003 106.213 31.3347 106.126 31.3347H96.36V39.5653C96.36 39.652 96.3255 39.7351 96.2643 39.7964C96.203 39.8576 96.1199 39.892 96.0332 39.892H43.0621C42.3058 39.8929 41.5808 40.1937 41.046 40.7285C40.5113 41.2632 40.2105 41.9882 40.2096 42.7445V62.5868C40.2103 63.3433 40.5111 64.0686 41.046 64.6035C41.581 65.1384 42.3062 65.4392 43.0627 65.4399H58.0693C58.9989 65.4409 59.8903 65.8107 60.5476 66.4681C61.205 67.1255 61.5748 68.0168 61.5758 68.9465V88.6313C61.5746 89.5608 61.2048 90.452 60.5474 91.1092C59.89 91.7665 58.9988 92.1362 58.0693 92.1372H32.6874C31.9309 92.1377 31.2056 92.4384 30.6705 92.9732C30.1355 93.5079 29.8345 94.2332 29.8337 94.9896V100.216C29.8337 100.302 29.7992 100.385 29.738 100.447C29.6767 100.508 29.5936 100.542 29.5069 100.542ZM148.62 117.965C148.533 117.965 148.45 117.93 148.389 117.869C148.328 117.808 148.293 117.725 148.293 117.638V102.402C148.293 101.646 147.992 100.921 147.457 100.386C146.922 99.8513 146.197 99.5505 145.441 99.5496H137.789C136.859 99.5484 135.968 99.1786 135.311 98.5212C134.653 97.8638 134.284 96.9726 134.283 96.043V81.4469C134.284 80.5172 134.654 79.6259 135.311 78.9685C135.968 78.3111 136.86 77.9414 137.789 77.9403H187.791C188.547 77.9395 189.272 77.6386 189.807 77.1039C190.342 76.5692 190.643 75.8441 190.644 75.0879V57.6765C190.643 56.9202 190.342 56.195 189.807 55.6601C189.273 55.1252 188.547 54.8243 187.791 54.8234H162.865C161.935 54.8226 161.044 54.453 160.386 53.7957C159.729 53.1384 159.359 52.2472 159.357 51.3175V44.9487C159.359 44.0189 159.728 43.1275 160.386 42.4701C161.043 41.8127 161.935 41.443 162.865 41.4421H176.157C176.914 41.4414 177.639 41.1406 178.174 40.6057C178.709 40.0708 179.01 39.3455 179.01 38.589V36.192C179.01 36.1054 179.045 36.0223 179.106 35.961C179.167 35.8997 179.25 35.8653 179.337 35.8653C179.424 35.8653 179.507 35.8997 179.568 35.961C179.629 36.0223 179.664 36.1054 179.664 36.192V38.589C179.663 39.5187 179.293 40.41 178.636 41.0674C177.978 41.7248 177.087 42.0946 176.157 42.0956H162.865C162.108 42.0965 161.383 42.3973 160.848 42.9322C160.313 43.467 160.012 44.1922 160.011 44.9487V51.3175C160.012 52.074 160.313 52.7992 160.848 53.334C161.383 53.8688 162.108 54.1694 162.865 54.1699H187.791C188.721 54.1712 189.612 54.541 190.269 55.1984C190.926 55.8557 191.296 56.747 191.297 57.6765V75.0872C191.296 76.0167 190.926 76.9077 190.269 77.5649C189.612 78.2222 188.721 78.5919 187.791 78.5931H137.789C137.033 78.5938 136.308 78.8947 135.773 79.4296C135.238 79.9645 134.937 80.6898 134.936 81.4462V96.0424C134.937 96.7989 135.238 97.5242 135.773 98.0591C136.308 98.594 137.033 98.8948 137.789 98.8955H145.441C146.37 98.8967 147.261 99.2665 147.919 99.9237C148.576 100.581 148.946 101.472 148.947 102.401V117.637C148.947 117.724 148.912 117.807 148.851 117.868C148.79 117.93 148.707 117.964 148.62 117.964V117.965ZM195.179 18.3618C195.182 19.4908 194.898 20.602 194.355 21.5916C193.812 22.5812 193.027 23.417 192.073 24.021C191.901 24.1301 191.693 24.1667 191.495 24.1226C191.296 24.0785 191.123 23.9573 191.014 23.7857C190.905 23.6141 190.868 23.4062 190.912 23.2077C190.957 23.0091 191.078 22.8363 191.249 22.7271C192.194 22.1263 192.918 21.2353 193.313 20.1878C193.708 19.1403 193.753 17.9928 193.44 16.9179C193.128 15.8429 192.475 14.8984 191.579 14.2262C190.684 13.554 189.595 13.1905 188.475 13.1902H185.345L186.241 14.0867C186.316 14.157 186.376 14.2416 186.418 14.3355C186.46 14.4295 186.482 14.5308 186.483 14.6336C186.485 14.7364 186.466 14.8384 186.427 14.9336C186.389 15.0289 186.331 15.1154 186.259 15.188C186.186 15.2606 186.099 15.3178 186.004 15.3562C185.909 15.3947 185.807 15.4135 185.704 15.4117C185.601 15.4098 185.5 15.3873 185.406 15.3455C185.312 15.3037 185.228 15.2434 185.158 15.1682L182.953 12.966C182.918 12.93 182.885 12.8906 182.857 12.8484C182.846 12.8302 182.836 12.8114 182.827 12.7922C182.796 12.7457 182.775 12.6938 182.763 12.6393C182.757 12.6184 182.748 12.5961 182.744 12.5739C182.724 12.4749 182.724 12.373 182.744 12.274C182.748 12.2505 182.757 12.2295 182.763 12.2073C182.775 12.1532 182.796 12.1017 182.827 12.0557C182.836 12.036 182.846 12.017 182.857 11.9989C182.885 11.9567 182.918 11.9173 182.953 11.8812L185.158 9.6777C185.301 9.53403 185.496 9.45331 185.699 9.45331C185.902 9.45331 186.097 9.53403 186.241 9.6777C186.385 9.82138 186.465 10.0163 186.465 10.2194C186.465 10.4226 186.385 10.6175 186.241 10.7612L185.344 11.6577H188.475C190.253 11.6598 191.957 12.3669 193.214 13.6238C194.471 14.8807 195.178 16.5849 195.18 18.3625L195.179 18.3618ZM189.183 24.5934C189.192 24.5679 189.2 24.5424 189.207 24.5169C189.214 24.4947 189.222 24.4738 189.227 24.4496C189.246 24.3508 189.246 24.2492 189.227 24.1503C189.222 24.1281 189.214 24.1053 189.207 24.085C189.196 24.0303 189.174 23.9784 189.142 23.9321C189.134 23.9125 189.124 23.8935 189.112 23.8752C189.084 23.8332 189.053 23.7941 189.017 23.7583L186.813 21.556C186.668 21.4203 186.476 21.3462 186.277 21.3494C186.079 21.3526 185.889 21.4328 185.748 21.5732C185.608 21.7135 185.527 21.9029 185.524 22.1015C185.52 22.3001 185.594 22.4923 185.729 22.6375L186.626 23.5341H183.495C182.375 23.5342 181.286 23.1708 180.39 22.4987C179.495 21.8265 178.841 20.8819 178.528 19.8066C178.216 18.7314 178.26 17.5838 178.655 16.536C179.051 15.4883 179.775 14.5972 180.72 13.9966C180.892 13.8874 181.013 13.7145 181.057 13.5161C181.101 13.3176 181.065 13.1097 180.955 12.9383C180.846 12.7668 180.673 12.6457 180.475 12.6016C180.276 12.5575 180.069 12.5941 179.897 12.7033C178.672 13.482 177.733 14.6373 177.22 15.9955C176.708 17.3537 176.65 18.8415 177.056 20.2354C177.462 21.6292 178.309 22.8537 179.47 23.7249C180.631 24.5961 182.043 25.0669 183.495 25.0665H186.625L185.729 25.9631C185.658 26.0342 185.602 26.1187 185.563 26.2117C185.525 26.3046 185.505 26.4042 185.505 26.5048C185.505 26.6054 185.525 26.7051 185.563 26.798C185.602 26.891 185.658 26.9754 185.729 27.0466C185.801 27.1177 185.885 27.1741 185.978 27.2126C186.071 27.2511 186.171 27.271 186.271 27.271C186.372 27.271 186.471 27.2511 186.564 27.2126C186.657 27.1741 186.742 27.1177 186.813 27.0466L189.017 24.8437C189.053 24.8072 189.085 24.7674 189.112 24.7248C189.124 24.7069 189.134 24.6881 189.142 24.6686C189.157 24.6442 189.171 24.6191 189.183 24.5934Z" fill="#334155"/>
</svg>
