<svg width="22" height="22" viewBox="0 0 22 22" fill="none" xmlns="http://www.w3.org/2000/svg">
<path d="M10.9988 0.200195C5.0359 0.200195 0.200202 5.158 0.200202 11.2739C0.197765 13.595 0.909646 15.8582 2.23523 17.7436C3.56082 19.6291 5.43308 21.0414 7.5874 21.781C8.1274 21.883 8.3245 21.5411 8.3245 21.2474C8.3245 20.9841 8.31505 20.2879 8.30965 19.3641C5.3059 20.0328 4.6714 17.8793 4.6714 17.8793C4.18135 16.5998 3.4726 16.2593 3.4726 16.2593C2.49115 15.5727 3.5455 15.5865 3.5455 15.5865C4.62955 15.6651 5.19925 16.7281 5.19925 16.7281C6.16315 18.4197 7.7278 17.9317 8.3434 17.6476C8.4406 16.9321 8.72005 16.444 9.0292 16.1669C6.6316 15.887 4.1098 14.9371 4.1098 10.6949C4.1098 9.48574 4.531 8.49721 5.2222 7.72238C5.11015 7.44251 4.74025 6.31611 5.3275 4.79265C5.3275 4.79265 6.2347 4.49485 8.2975 5.92732C9.17871 5.68137 10.088 5.55619 11.0015 5.55507C11.9151 5.55692 12.8244 5.68256 13.7056 5.92869C15.767 4.49623 16.6729 4.79402 16.6729 4.79402C17.2615 6.31887 16.8916 7.44389 16.7809 7.72376C17.4734 8.49859 17.8906 9.48712 17.8906 10.6962C17.8906 14.9495 15.3661 15.8857 12.9604 16.16C13.3478 16.5019 13.6934 17.1775 13.6934 18.2102C13.6934 19.6909 13.6799 20.8848 13.6799 21.2474C13.6799 21.5439 13.8743 21.8885 14.4224 21.7796C16.5747 21.0383 18.4446 19.6254 19.7684 17.7404C21.0921 15.8555 21.8028 13.5936 21.8002 11.2739C21.8002 5.158 16.9645 0.200195 10.9988 0.200195Z" fill="#5C6BC0"/>
</svg>
