<svg width="28" height="29" viewBox="0 0 28 29" fill="none" xmlns="http://www.w3.org/2000/svg">
<path d="M28 14.5C28 22.2327 21.7327 28.5 14 28.5C6.26726 28.5 0 22.2327 0 14.5C0 6.76726 6.26726 0.5 14 0.5C21.7327 0.5 28 6.76726 28 14.5Z" fill="#45ABF6"/>
<path d="M22.5744 10.5717C21.982 10.8523 21.3272 11.0082 20.6413 11.1018C21.3272 10.6964 21.8573 10.0416 22.1067 9.26214C21.4519 9.6363 20.7348 9.91693 19.9865 10.0728C19.3629 9.41804 18.521 9.0127 17.5544 9.0127C15.7148 9.0127 14.2181 10.5094 14.2181 12.349C14.2181 12.5984 14.2493 12.8791 14.3116 13.0973C11.5366 12.9726 9.07333 11.6319 7.42076 9.60512C7.14014 10.104 6.95306 10.6653 6.95306 11.2889C6.95306 12.4425 7.54549 13.4715 8.44972 14.0639C7.88847 14.0327 7.38958 13.908 6.92188 13.6586V13.6898C6.92188 15.3111 8.07555 16.6519 9.60339 16.9637C9.32277 17.0261 9.04215 17.0884 8.73034 17.0884C8.51208 17.0884 8.29382 17.0572 8.10673 17.0261C8.54326 18.3668 9.75929 19.3334 11.2248 19.3334C10.0711 20.2376 8.6368 20.7677 7.07778 20.7677C6.79716 20.7677 6.54771 20.7677 6.26709 20.7365C7.73257 21.6719 9.50985 22.2332 11.3807 22.2332C17.5544 22.2332 20.8907 17.1508 20.8907 12.7232C20.8907 12.5673 20.8907 12.4425 20.8907 12.2866C21.5455 11.8189 22.1067 11.2265 22.5744 10.5717Z" fill="white"/>
</svg>
