<svg width="36" height="23" viewBox="0 0 36 23" fill="none" xmlns="http://www.w3.org/2000/svg">
<path fill-rule="evenodd" clip-rule="evenodd" d="M33.5997 0.25H2.4C1.0746 0.25 0 1.31283 0 2.62079V20.3792C0 21.6887 1.0773 22.75 2.4003 22.75H33.6C34.9257 22.75 36.0003 21.6872 36.0003 20.3792V2.62079C36 1.31135 34.9227 0.25 33.5997 0.25Z" fill="#9C56B8"/>
<path fill-rule="evenodd" clip-rule="evenodd" d="M24.531 9.11147C25.2009 9.11147 25.7439 8.58568 25.7439 7.93762C25.7439 7.28927 25.2009 6.76318 24.5307 6.76318C23.8617 6.76318 23.3187 7.28927 23.3187 7.93762C23.3187 8.58598 23.8617 9.11147 24.5307 9.11147C24.5307 9.11147 23.8617 9.11147 24.5307 9.11147H24.531ZM15.2394 9.74503C15.1848 9.87825 14.7906 10.9559 13.8378 12.0726V7.29726L11.2989 7.78338V16.4388H13.8378V13.7633C14.5731 14.8312 14.9364 16.4388 14.9364 16.4388H17.9775C17.6766 15.2279 16.3605 12.9957 16.3605 12.9957C17.5416 11.5456 18.0603 10.0011 18.1428 9.74503H15.2394ZM21.9144 9.65473C19.6404 9.72578 18.4857 10.7134 18.4857 12.6771V16.4388H20.9667V13.3711C20.9667 12.1952 21.1257 11.6913 22.5669 11.6433V9.68937C22.3242 9.63934 21.9144 9.65473 21.9144 9.65473ZM7.04045 10.6983C6.72965 10.6785 6.00965 10.6335 6.00965 10.0058C6.00965 9.24855 7.04645 9.24855 7.43525 9.24855C8.11865 9.24855 9.00425 9.44394 9.63635 9.62749C9.63635 9.62749 9.98915 9.74769 10.2891 9.87114L10.317 9.87825V7.8044L10.2789 7.79345C9.53255 7.54062 8.66495 7.29726 7.05635 7.29726C4.28285 7.29726 3.30005 8.8622 3.30005 10.2021C3.30005 10.9748 3.64205 12.7926 6.81845 13.0025C7.08785 13.0185 7.80245 13.0582 7.80245 13.7071C7.80245 14.2424 7.21745 14.558 6.23345 14.558C5.15495 14.558 4.10885 14.2915 3.47345 14.0393V16.1753C4.42445 16.4169 5.49695 16.5374 6.75365 16.5374C9.46565 16.5374 10.68 15.0571 10.68 13.5902C10.68 11.9269 9.32105 10.8463 7.04075 10.6983C7.04075 10.6983 9.32075 10.8463 7.04075 10.6983H7.04045ZM23.301 16.4388H25.7619V9.75272H23.301V16.4388ZM30.3958 7.72358V16.4388H32.857V7.29726L30.3958 7.72358ZM26.8044 7.72358L29.2633 7.29726V16.4388H26.8044V7.72358Z" fill="white"/>
</svg>
