<svg width="28" height="28" viewBox="0 0 28 28" fill="none" xmlns="http://www.w3.org/2000/svg">
<path d="M18.1729 7.44824H9.8275C8.50159 7.44824 7.40967 8.54016 7.40967 9.86607V18.2115C7.40967 19.5374 8.50159 20.6293 9.8275 20.6293H18.1729C19.4988 20.6293 20.5907 19.5374 20.5907 18.2115V9.86607C20.5907 8.54016 19.4988 7.44824 18.1729 7.44824ZM14.0002 18.3675C11.6214 18.3675 9.67151 16.4176 9.67151 14.0388C9.67151 11.6599 11.6214 9.71008 14.0002 9.71008C16.379 9.71008 18.3289 11.6599 18.3289 14.0388C18.3289 16.4176 16.379 18.3675 14.0002 18.3675ZM18.4849 10.607C17.8999 10.607 17.4709 10.139 17.4709 9.59309C17.4709 9.04713 17.9389 8.57916 18.4849 8.57916C19.0308 8.57916 19.4988 9.04713 19.4988 9.59309C19.4988 10.139 19.0308 10.607 18.4849 10.607Z" fill="#EF4770"/>
<path d="M14.0002 11.543C12.6353 11.543 11.5044 12.6739 11.5044 14.0388C11.5044 15.4037 12.6353 16.5346 14.0002 16.5346C15.3651 16.5346 16.496 15.4037 16.496 14.0388C16.496 12.6739 15.3651 11.543 14.0002 11.543Z" fill="#EF4770"/>
<path d="M14 0C6.27855 0 0 6.27855 0 14C0 21.7214 6.27855 28 14 28C21.7214 28 28 21.7214 28 14C28 6.27855 21.7214 0 14 0ZM22.4234 18.2117C22.4234 20.5515 20.5125 22.4624 18.1727 22.4624H9.8273C7.48746 22.4624 5.5766 20.5515 5.5766 18.2117V9.86629C5.5766 7.52646 7.48746 5.6156 9.8273 5.6156H18.1727C20.5125 5.6156 22.4234 7.52646 22.4234 9.86629V18.2117Z" fill="#EF4770"/>
</svg>
