<svg width="704" height="481" viewBox="0 0 704 481" fill="none" xmlns="http://www.w3.org/2000/svg">
<path opacity="0.07" d="M540.485 480.016H368.878C364.672 480.016 361.263 476.606 361.263 472.4V453.401C361.263 449.195 364.672 445.785 368.878 445.785H540.485C544.691 445.785 548.1 449.195 548.1 453.401V472.4C548.1 476.606 544.691 480.016 540.485 480.016ZM253.093 480.016H7.61572C3.40963 480.016 0 476.606 0 472.4V453.401C0 449.195 3.40963 445.785 7.61572 445.785H253.093C257.299 445.785 260.708 449.195 260.708 453.401V472.4C260.708 476.606 257.299 480.016 253.093 480.016Z" fill="#A996F8"/>
<path opacity="0.9" d="M690.478 383.023H641.719L685.18 165.173L703.029 369.328C703.672 376.69 697.869 383.023 690.478 383.023Z" fill="#A996F8"/>
<path opacity="0.4" d="M685.18 165.173L641.718 383.023L640.202 390.624C638.666 398.317 631.913 403.856 624.068 403.856H405.758L504.829 165.173H685.18Z" fill="#A996F8"/>
<path opacity="0.9" d="M566.605 181.253C567.092 179.192 565.816 177.126 563.754 176.639C561.693 176.153 559.628 177.429 559.141 179.49C558.654 181.551 559.931 183.617 561.992 184.104C564.053 184.59 566.119 183.314 566.605 181.253Z" fill="#A996F8"/>
<path opacity="0.9" d="M563.169 182.258C563.111 182.258 563.051 182.252 562.992 182.241C562.054 182.058 560.855 181.295 560.469 178.695C559.668 173.272 560.256 167.734 562.18 162.601C562.765 161.041 563.968 159.721 565.319 159.154C566.368 158.715 567.47 158.725 568.507 159.185C570.634 160.128 570.81 162.08 570.951 163.649C570.985 164.022 571.016 164.374 571.07 164.709C571.089 164.829 571.084 164.952 571.056 165.07C571.028 165.188 570.976 165.3 570.905 165.398C570.834 165.497 570.744 165.58 570.64 165.644C570.536 165.707 570.421 165.75 570.301 165.769C570.181 165.788 570.059 165.784 569.94 165.755C569.822 165.727 569.711 165.676 569.612 165.604C569.514 165.533 569.43 165.443 569.367 165.339C569.303 165.236 569.26 165.121 569.241 165.001C569.177 164.603 569.142 164.203 569.107 163.816C568.967 162.259 568.835 161.356 567.756 160.877C567.188 160.626 566.609 160.621 566.035 160.862C565.152 161.232 564.319 162.17 563.913 163.252C562.101 168.077 561.544 173.323 562.301 178.423C562.365 178.857 562.631 180.284 563.345 180.423C563.586 180.47 563.798 180.61 563.936 180.814C564.073 181.018 564.124 181.267 564.077 181.508C564.036 181.719 563.923 181.909 563.758 182.046C563.592 182.183 563.384 182.258 563.169 182.258Z" fill="#A996F8"/>
<path opacity="0.9" d="M535.119 183.032C536.617 181.534 536.617 179.106 535.119 177.609C533.621 176.111 531.193 176.111 529.696 177.609C528.198 179.106 528.198 181.534 529.696 183.032C531.194 184.529 533.622 184.529 535.119 183.032Z" fill="#A996F8"/>
<path opacity="0.9" d="M532.757 182.258C532.699 182.258 532.639 182.252 532.58 182.241C531.642 182.058 530.443 181.295 530.057 178.695C529.255 173.272 529.844 167.734 531.768 162.601C532.353 161.041 533.556 159.721 534.907 159.154C535.956 158.715 537.058 158.725 538.095 159.185C540.222 160.128 540.398 162.08 540.539 163.649C540.573 164.022 540.604 164.374 540.658 164.709C540.677 164.829 540.672 164.952 540.644 165.07C540.616 165.188 540.564 165.3 540.493 165.398C540.422 165.497 540.332 165.58 540.228 165.644C540.124 165.707 540.009 165.75 539.889 165.769C539.769 165.788 539.647 165.784 539.528 165.755C539.41 165.727 539.299 165.676 539.2 165.604C539.102 165.533 539.018 165.443 538.955 165.339C538.891 165.236 538.848 165.121 538.829 165.001C538.766 164.603 538.73 164.203 538.695 163.816C538.555 162.259 538.423 161.356 537.345 160.877C536.776 160.626 536.198 160.621 535.623 160.862C534.74 161.232 533.907 162.17 533.501 163.252C531.689 168.077 531.132 173.323 531.889 178.423C531.953 178.857 532.219 180.284 532.933 180.423C533.174 180.47 533.386 180.61 533.524 180.814C533.661 181.018 533.712 181.267 533.665 181.508C533.624 181.719 533.511 181.909 533.346 182.046C533.18 182.183 532.972 182.258 532.757 182.258Z" fill="#A996F8"/>
<path opacity="0.9" d="M597.808 181.254C598.295 179.193 597.019 177.128 594.958 176.641C592.896 176.154 590.831 177.431 590.344 179.492C589.857 181.553 591.134 183.618 593.195 184.105C595.256 184.592 597.322 183.316 597.808 181.254Z" fill="#A996F8"/>
<path opacity="0.9" d="M594.369 182.258C594.31 182.258 594.251 182.252 594.191 182.241C593.253 182.058 592.054 181.295 591.668 178.695C590.867 173.272 591.455 167.734 593.379 162.601C593.964 161.041 595.167 159.721 596.519 159.154C597.567 158.715 598.669 158.725 599.707 159.185C601.834 160.128 602.009 162.08 602.151 163.649C602.184 164.022 602.216 164.374 602.269 164.709C602.288 164.829 602.283 164.952 602.255 165.07C602.227 165.188 602.176 165.3 602.104 165.398C602.033 165.497 601.943 165.58 601.839 165.644C601.736 165.707 601.621 165.75 601.501 165.769C601.381 165.788 601.258 165.784 601.14 165.755C601.022 165.727 600.91 165.676 600.812 165.604C600.713 165.533 600.63 165.443 600.566 165.339C600.502 165.236 600.46 165.121 600.441 165.001C600.377 164.603 600.341 164.203 600.306 163.816C600.166 162.259 600.034 161.356 598.956 160.877C598.388 160.626 597.809 160.621 597.235 160.862C596.351 161.232 595.518 162.17 595.112 163.252C593.301 168.077 592.743 173.323 593.5 178.423C593.564 178.857 593.83 180.284 594.544 180.423C594.785 180.47 594.998 180.61 595.135 180.814C595.272 181.018 595.323 181.267 595.276 181.508C595.235 181.719 595.123 181.909 594.957 182.046C594.791 182.183 594.583 182.258 594.369 182.258Z" fill="#A996F8"/>
<path opacity="0.9" d="M629.01 181.256C629.496 179.195 628.22 177.129 626.159 176.642C624.098 176.156 622.032 177.432 621.545 179.493C621.059 181.554 622.335 183.62 624.396 184.107C626.457 184.593 628.523 183.317 629.01 181.256Z" fill="#A996F8"/>
<path opacity="0.9" d="M625.568 182.258C625.508 182.258 625.449 182.252 625.39 182.241C624.453 182.058 623.253 181.295 622.867 178.695C622.066 173.272 622.655 167.734 624.578 162.601C625.164 161.041 626.367 159.721 627.718 159.154C628.766 158.715 629.868 158.725 630.906 159.185C633.033 160.128 633.209 162.08 633.35 163.649C633.383 164.022 633.415 164.374 633.468 164.709C633.487 164.829 633.482 164.952 633.454 165.07C633.426 165.188 633.375 165.3 633.303 165.398C633.232 165.497 633.142 165.58 633.038 165.644C632.935 165.707 632.82 165.75 632.7 165.769C632.58 165.788 632.457 165.784 632.339 165.755C632.22 165.727 632.109 165.676 632.011 165.604C631.912 165.533 631.829 165.443 631.765 165.339C631.701 165.236 631.659 165.121 631.64 165.001C631.576 164.603 631.54 164.203 631.506 163.816C631.365 162.259 631.233 161.356 630.155 160.877C629.587 160.626 629.008 160.621 628.434 160.862C627.551 161.232 626.717 162.17 626.311 163.252C624.5 168.077 623.942 173.323 624.699 178.423C624.763 178.857 625.029 180.284 625.744 180.423C625.984 180.47 626.197 180.61 626.334 180.814C626.471 181.018 626.522 181.267 626.475 181.508C626.435 181.719 626.322 181.909 626.156 182.046C625.991 182.183 625.783 182.258 625.568 182.258Z" fill="#A996F8"/>
<path opacity="0.9" d="M659.732 181.257C660.219 179.196 658.943 177.13 656.881 176.644C654.82 176.157 652.755 177.433 652.268 179.495C651.781 181.556 653.058 183.621 655.119 184.108C657.18 184.595 659.246 183.318 659.732 181.257Z" fill="#A996F8"/>
<path opacity="0.9" d="M656.287 182.258C656.228 182.258 656.169 182.252 656.109 182.241C655.171 182.058 653.972 181.295 653.586 178.695C652.785 173.272 653.373 167.734 655.297 162.601C655.882 161.041 657.085 159.721 658.437 159.154C659.485 158.715 660.587 158.725 661.624 159.185C663.751 160.128 663.927 162.08 664.068 163.649C664.102 164.022 664.133 164.374 664.187 164.709C664.206 164.829 664.201 164.952 664.173 165.07C664.145 165.188 664.093 165.3 664.022 165.398C663.951 165.497 663.861 165.58 663.757 165.644C663.654 165.707 663.538 165.75 663.418 165.769C663.298 165.788 663.176 165.784 663.057 165.755C662.939 165.727 662.828 165.676 662.729 165.604C662.631 165.533 662.547 165.443 662.484 165.339C662.42 165.236 662.378 165.121 662.358 165.001C662.295 164.603 662.259 164.203 662.224 163.816C662.084 162.259 661.952 161.356 660.874 160.877C660.305 160.626 659.727 160.621 659.152 160.862C658.269 161.232 657.436 162.17 657.03 163.252C655.218 168.077 654.661 173.323 655.418 178.423C655.482 178.857 655.748 180.284 656.462 180.423C656.703 180.47 656.916 180.61 657.053 180.814C657.19 181.018 657.241 181.267 657.194 181.508C657.153 181.719 657.04 181.909 656.875 182.046C656.709 182.183 656.501 182.258 656.287 182.258Z" fill="#A996F8"/>
<path d="M643.414 209.945L612.215 351.043H571.781L602.984 209.945H643.414Z" fill="white"/>
<path d="M602.984 209.945L571.782 351.043H531.598L562.801 209.945H602.984Z" fill="white"/>
<path d="M562.798 209.945L531.595 351.043H455.375L488.744 209.945H562.798Z" fill="white"/>
<path d="M612.214 351.737H571.781C571.677 351.737 571.574 351.714 571.48 351.669C571.387 351.624 571.304 351.558 571.239 351.477C571.174 351.396 571.128 351.302 571.104 351.201C571.081 351.099 571.08 350.994 571.102 350.893L602.305 209.795C602.339 209.641 602.425 209.502 602.548 209.403C602.672 209.304 602.825 209.251 602.983 209.25H643.413C643.623 209.25 643.822 209.346 643.954 209.51C644.086 209.674 644.136 209.889 644.091 210.095L612.892 351.193C612.858 351.347 612.772 351.485 612.649 351.584C612.526 351.683 612.373 351.737 612.214 351.737ZM572.645 350.348H611.657L642.548 210.639H603.541L572.645 350.348Z" fill="#A996F8"/>
<path d="M571.781 351.737H531.597C531.493 351.737 531.39 351.714 531.297 351.669C531.203 351.624 531.121 351.558 531.055 351.477C530.99 351.396 530.944 351.302 530.921 351.201C530.897 351.099 530.896 350.994 530.919 350.893L562.122 209.795C562.156 209.641 562.242 209.502 562.365 209.403C562.488 209.304 562.642 209.251 562.8 209.25H602.984C603.194 209.25 603.393 209.346 603.525 209.51C603.657 209.674 603.707 209.889 603.662 210.095L572.459 351.193C572.425 351.347 572.339 351.485 572.216 351.584C572.092 351.683 571.939 351.737 571.781 351.737ZM532.462 350.348H571.223L602.119 210.639H563.357L532.462 350.348Z" fill="#A996F8"/>
<path d="M531.596 351.737H455.376C455.271 351.737 455.168 351.713 455.074 351.668C454.979 351.622 454.896 351.556 454.831 351.473C454.766 351.391 454.721 351.295 454.698 351.193C454.675 351.091 454.676 350.985 454.7 350.883L488.07 209.785C488.106 209.633 488.192 209.497 488.315 209.4C488.437 209.303 488.589 209.25 488.746 209.25H562.799C563.01 209.25 563.209 209.346 563.341 209.51C563.472 209.674 563.522 209.889 563.477 210.095L532.274 351.193C532.24 351.347 532.154 351.485 532.031 351.584C531.907 351.683 531.754 351.737 531.596 351.737ZM456.254 350.348H531.039L561.934 210.639H489.295L456.254 350.348Z" fill="#A996F8"/>
<path d="M634.126 252.638H491.881C491.7 252.634 491.527 252.559 491.401 252.429C491.274 252.299 491.203 252.125 491.203 251.944C491.203 251.762 491.274 251.588 491.401 251.458C491.527 251.329 491.7 251.254 491.881 251.249H634.126C634.308 251.254 634.48 251.329 634.607 251.458C634.733 251.588 634.804 251.762 634.804 251.944C634.804 252.125 634.733 252.299 634.607 252.429C634.48 252.559 634.308 252.634 634.126 252.638ZM582.052 287.338C581.879 287.541 581.664 287.703 581.422 287.814C581.179 287.925 580.916 287.982 580.65 287.982C580.206 287.982 579.777 287.823 579.441 287.533L564.808 274.945L554.076 287.343C553.902 287.544 553.686 287.704 553.444 287.814C553.202 287.925 552.939 287.982 552.674 287.982C552.228 287.983 551.796 287.822 551.46 287.528C550.687 286.862 550.604 285.69 551.275 284.917L561.997 272.529L551.465 263.469C550.692 262.802 550.604 261.635 551.271 260.858C551.937 260.084 553.108 259.996 553.882 260.663L564.423 269.732L572.108 260.853C572.775 260.08 573.946 259.997 574.719 260.668C575.492 261.334 575.575 262.506 574.909 263.279L567.233 272.144L581.858 284.727C582.631 285.394 582.719 286.561 582.052 287.338Z" fill="#A996F8"/>
<path d="M605.174 293.414C604.846 293.414 604.521 293.336 604.228 293.187C603.935 293.038 603.682 292.821 603.489 292.555L592.241 277.054C591.565 276.123 591.772 274.82 592.704 274.144C593.635 273.469 594.938 273.676 595.613 274.607L604.992 287.532L621.32 259.762C621.904 258.77 623.18 258.439 624.172 259.022C625.164 259.605 625.495 260.882 624.912 261.874L606.971 292.387C606.787 292.7 606.524 292.959 606.209 293.14C605.894 293.32 605.537 293.414 605.174 293.414ZM616.15 249.205C615.822 249.205 615.497 249.127 615.204 248.978C614.911 248.829 614.658 248.612 614.465 248.346L603.217 232.845C602.541 231.914 602.748 230.611 603.68 229.935C604.611 229.26 605.914 229.468 606.59 230.398L615.968 243.323L632.296 215.553C632.88 214.561 634.156 214.231 635.148 214.813C636.14 215.396 636.471 216.673 635.888 217.665L617.947 248.178C617.763 248.491 617.5 248.75 617.185 248.931C616.87 249.111 616.513 249.206 616.15 249.205Z" fill="#F8A51B"/>
<path opacity="0.9" d="M306.457 452.658C427.759 452.658 526.093 354.323 526.093 233.021C526.093 111.719 427.759 13.3849 306.457 13.3849C185.155 13.3849 86.8203 111.719 86.8203 233.021C86.8203 354.323 185.155 452.658 306.457 452.658Z" fill="#A996F8"/>
<path d="M306.457 432.685C416.728 432.685 506.12 343.293 506.12 233.021C506.12 122.75 416.728 33.3576 306.457 33.3576C196.185 33.3576 106.793 122.75 106.793 233.021C106.793 343.293 196.185 432.685 306.457 432.685Z" fill="white"/>
<path d="M285.857 245.528L266.441 60.7124H240.549L283.235 0L312.967 57.1411H292.019L302.617 242.116L285.857 245.528Z" fill="white"/>
<path opacity="0.5" d="M285.857 245.528L266.441 60.7124H240.549L283.235 0L312.967 57.1411H292.019L302.617 242.116L285.857 245.528Z" fill="#A996F8"/>
<path d="M302.617 245.528L536.373 242.929L538.792 224.365L585.181 249.1L540.669 283.623L536.373 262.79H302.617L302.617 245.528Z" fill="white"/>
<path d="M327.715 254.285C339.458 242.542 339.458 223.502 327.714 211.758C315.97 200.015 296.93 200.016 285.187 211.759C273.444 223.503 273.444 242.543 285.188 254.286C296.931 266.029 315.971 266.029 327.715 254.285Z" fill="#A996F8"/>
<path opacity="0.5" d="M314.784 48.6343C315.756 44.5178 313.207 40.3928 309.091 39.4208C304.974 38.4488 300.849 40.9978 299.877 45.1143C298.905 49.2307 301.454 53.3558 305.571 54.3278C309.687 55.2998 313.812 52.7507 314.784 48.6343Z" fill="#A996F8"/>
<path opacity="0.5" d="M135.395 242.22C138.385 239.229 138.385 234.38 135.394 231.39C132.403 228.399 127.554 228.399 124.564 231.39C121.573 234.381 121.573 239.23 124.564 242.22C127.555 245.211 132.404 245.211 135.395 242.22Z" fill="#A996F8"/>
<path opacity="0.5" d="M307.297 419.186C311.527 419.186 314.956 415.757 314.956 411.528C314.956 407.298 311.527 403.869 307.297 403.869C303.068 403.869 299.639 407.298 299.639 411.528C299.639 415.757 303.068 419.186 307.297 419.186Z" fill="#A996F8"/>
<path opacity="0.8" d="M302.617 245.528L536.373 242.929L538.792 224.365L585.181 249.1L540.669 283.623L536.373 262.79H302.617L302.617 245.528Z" fill="#A996F8"/>
<path d="M623.564 299.709H515.242" stroke="#A996F8" stroke-width="3" stroke-miterlimit="10" stroke-linecap="round" stroke-linejoin="round"/>
<path d="M555.643 342.266C555.314 342.266 554.99 342.188 554.697 342.038C554.404 341.889 554.151 341.672 553.957 341.406L542.71 325.905C542.034 324.974 542.241 323.671 543.173 322.996C544.103 322.32 545.406 322.528 546.082 323.458L555.461 336.383L571.789 308.613C572.372 307.621 573.649 307.291 574.641 307.874C575.632 308.457 575.964 309.734 575.38 310.725L557.439 341.238C557.256 341.551 556.993 341.811 556.678 341.991C556.363 342.171 556.006 342.266 555.643 342.266Z" fill="#F8A51B"/>
<path d="M520.446 370.997C525.746 369.619 531.192 368.979 536.598 369.692C545.241 370.833 553.744 376.024 556.887 384.155C561.236 395.404 553.925 408.458 543.581 414.661C530.989 422.212 514.985 422.156 500.96 424.943C490.797 426.963 480.392 430.821 473.901 438.897C472.59 421.143 473.558 403.003 486.691 389.604C493.487 382.671 502.119 377.764 511.123 374.133C514.151 372.912 517.272 371.823 520.446 370.997Z" fill="white"/>
<path opacity="0.3" d="M520.446 370.997C525.746 369.619 531.192 368.979 536.598 369.692C545.241 370.833 553.744 376.024 556.887 384.155C561.236 395.404 553.925 408.458 543.581 414.661C530.989 422.212 514.985 422.156 500.96 424.943C490.797 426.963 480.392 430.821 473.901 438.897C472.59 421.143 473.558 403.003 486.691 389.604C493.487 382.671 502.119 377.764 511.123 374.133C514.151 372.912 517.272 371.823 520.446 370.997Z" fill="white"/>
<path d="M564.251 376.07C546.523 386.634 527.551 395.011 509.888 405.69C492.225 416.369 475.556 429.767 465.293 447.674C465.326 445.994 465.364 444.31 465.402 442.626L484.943 371.503C490.144 352.576 501.448 335.845 517.232 324.176C517.335 324.1 517.439 324.024 517.543 323.947C537.642 309.188 566.122 301.015 587.255 314.253C590.788 316.464 594.063 319.306 595.937 323.027C597.568 326.271 598.04 329.999 597.867 333.629C596.978 352.435 580.429 366.434 564.251 376.07Z" fill="white"/>
<path opacity="0.56" d="M564.251 376.07C546.523 386.634 527.551 395.011 509.888 405.69C492.225 416.369 475.556 429.767 465.293 447.674C465.326 445.994 465.364 444.31 465.402 442.626L484.943 371.503C490.144 352.576 501.448 335.845 517.232 324.176C517.335 324.1 517.439 324.024 517.543 323.947C537.642 309.188 566.122 301.015 587.255 314.253C590.788 316.464 594.063 319.306 595.937 323.027C597.568 326.271 598.04 329.999 597.867 333.629C596.978 352.435 580.429 366.434 564.251 376.07Z" fill="#FAB515"/>
<path d="M472.58 418.906C473.54 415.886 474.76 412.951 476.09 410.072C477.42 407.192 478.891 404.378 480.432 401.603C483.578 396.089 487.105 390.79 490.964 385.741C494.809 380.68 499.057 375.931 503.547 371.434L505.231 369.746L506.971 368.116L508.714 366.49L509.589 365.68L510.49 364.9L514.1 361.784L517.824 358.805L518.758 358.065L519.72 357.36L521.646 355.956L523.573 354.552C524.211 354.078 524.887 353.659 525.543 353.209L529.505 350.559L533.57 348.07C534.251 347.661 534.918 347.227 535.611 346.839L537.692 345.678C539.084 344.912 540.458 344.115 541.863 343.375L546.119 341.231C546.832 340.883 547.536 340.514 548.257 340.182L550.432 339.211L554.781 337.271L559.205 335.508C562.134 334.284 565.152 333.297 568.144 332.244C568.897 331.995 569.637 331.708 570.4 331.492L572.68 330.814L577.238 329.458C580.293 328.614 583.381 327.888 586.451 327.117L581.887 328.438L579.604 329.088C578.844 329.309 578.077 329.505 577.329 329.767L572.82 331.251L570.567 331.993C569.812 332.229 569.082 332.538 568.339 332.807C565.378 333.919 562.387 334.948 559.491 336.221L555.12 338.053L550.826 340.06L548.68 341.063C547.969 341.406 547.275 341.785 546.572 342.144L542.356 344.304C540.964 345.047 539.603 345.848 538.224 346.617L536.163 347.782C535.476 348.172 534.817 348.607 534.143 349.017L530.12 351.513L526.2 354.168C525.552 354.618 524.883 355.037 524.252 355.512L522.348 356.917L520.443 358.322L519.493 359.027L518.568 359.765C508.571 367.47 499.542 376.418 491.698 386.313C487.775 391.261 484.182 396.474 480.944 401.901C477.714 407.328 474.786 412.966 472.58 418.906Z" fill="white"/>
<path d="M520.446 370.997C525.746 369.619 531.192 368.979 536.598 369.692C545.241 370.833 553.744 376.024 556.887 384.155C561.236 395.404 553.925 408.458 543.581 414.661C530.989 422.212 514.985 422.156 500.96 424.943C490.797 426.963 480.392 430.821 473.901 438.897C472.59 421.143 473.558 403.003 486.691 389.604C493.487 382.671 502.119 377.764 511.123 374.133C514.151 372.912 517.272 371.823 520.446 370.997Z" fill="white"/>
<path opacity="0.3" d="M520.446 370.997C525.746 369.619 531.192 368.979 536.598 369.692C545.241 370.833 553.744 376.024 556.887 384.155C561.236 395.404 553.925 408.458 543.581 414.661C530.989 422.212 514.985 422.156 500.96 424.943C490.797 426.963 480.392 430.821 473.901 438.897C472.59 421.143 473.558 403.003 486.691 389.604C493.487 382.671 502.119 377.764 511.123 374.133C514.151 372.912 517.272 371.823 520.446 370.997Z" fill="#A996F8"/>
<path opacity="0.68" d="M474.094 434.206C474.954 432.338 475.98 430.548 477.076 428.805C478.17 427.06 479.35 425.369 480.573 423.708C483.056 420.416 485.768 417.291 488.693 414.376C494.537 408.536 501.182 403.504 508.326 399.35C515.494 395.239 523.131 391.931 531.057 389.63L534.029 388.77L537.033 388.036C539.029 387.519 541.061 387.163 543.081 386.762C544.089 386.553 545.11 386.411 546.129 386.263L549.182 385.813C551.223 385.552 553.274 385.375 555.317 385.171C547.173 386.291 539.137 388.057 531.337 390.536L529.873 390.997C529.387 391.156 528.91 391.34 528.428 391.51L525.538 392.54C524.581 392.899 523.639 393.298 522.689 393.675L521.267 394.248C520.793 394.439 520.333 394.663 519.866 394.869L517.068 396.121L514.321 397.48C513.398 397.919 512.505 398.414 511.61 398.906C510.719 399.405 509.804 399.861 508.936 400.401L506.299 401.961L503.723 403.618C502.854 404.156 502.037 404.772 501.194 405.347L499.941 406.228L498.715 407.146C495.434 409.581 492.316 412.233 489.354 415.051C486.402 417.88 483.619 420.889 481.041 424.071C478.464 427.253 476.074 430.604 474.094 434.206Z" fill="white"/>
<path d="M472.58 418.906C473.54 415.886 474.76 412.951 476.09 410.072C477.42 407.192 478.891 404.378 480.432 401.603C483.578 396.089 487.105 390.79 490.964 385.741C494.809 380.68 499.057 375.931 503.547 371.434L505.231 369.746L506.971 368.116L508.714 366.49L509.589 365.68L510.49 364.9L514.1 361.784L517.824 358.805L518.758 358.065L519.72 357.36L521.646 355.956L523.573 354.552C524.211 354.078 524.887 353.659 525.543 353.209L529.505 350.559L533.57 348.07C534.251 347.661 534.918 347.227 535.611 346.839L537.692 345.678C539.084 344.912 540.458 344.115 541.863 343.375L546.119 341.231C546.832 340.883 547.536 340.514 548.257 340.182L550.432 339.211L554.781 337.271L559.205 335.508C562.134 334.284 565.152 333.297 568.144 332.244C568.897 331.995 569.637 331.708 570.4 331.492L572.68 330.814L577.238 329.458C580.293 328.614 583.381 327.888 586.451 327.117L581.887 328.438L579.604 329.088C578.844 329.309 578.077 329.505 577.329 329.767L572.82 331.251L570.567 331.993C569.812 332.229 569.082 332.538 568.339 332.807C565.378 333.919 562.387 334.948 559.491 336.221L555.12 338.053L550.826 340.06L548.68 341.063C547.969 341.406 547.275 341.785 546.572 342.144L542.356 344.304C540.964 345.047 539.603 345.848 538.224 346.617L536.163 347.782C535.476 348.172 534.817 348.607 534.143 349.017L530.12 351.513L526.2 354.168C525.552 354.618 524.883 355.037 524.252 355.512L522.348 356.917L520.443 358.322L519.493 359.027L518.568 359.765C508.571 367.47 499.542 376.418 491.698 386.313C487.775 391.261 484.182 396.474 480.944 401.901C477.714 407.328 474.786 412.966 472.58 418.906Z" fill="white"/>
<path opacity="0.68" d="M474.094 434.206C474.954 432.338 475.98 430.548 477.076 428.805C478.17 427.06 479.35 425.369 480.573 423.708C483.056 420.416 485.768 417.291 488.693 414.376C494.537 408.536 501.182 403.504 508.326 399.35C515.494 395.239 523.131 391.931 531.057 389.63L534.029 388.77L537.033 388.036C539.029 387.519 541.061 387.163 543.081 386.762C544.089 386.553 545.11 386.411 546.129 386.263L549.182 385.813C551.223 385.552 553.274 385.375 555.317 385.171C547.173 386.291 539.137 388.057 531.337 390.536L529.873 390.997C529.387 391.156 528.91 391.34 528.428 391.51L525.538 392.54C524.581 392.899 523.639 393.298 522.689 393.675L521.267 394.248C520.793 394.439 520.333 394.663 519.866 394.869L517.068 396.121L514.321 397.48C513.398 397.919 512.505 398.414 511.61 398.906C510.719 399.405 509.804 399.861 508.936 400.401L506.299 401.961L503.723 403.618C502.854 404.156 502.037 404.772 501.194 405.347L499.941 406.228L498.715 407.146C495.434 409.581 492.316 412.233 489.354 415.051C486.402 417.88 483.619 420.889 481.041 424.071C478.464 427.253 476.074 430.604 474.094 434.206Z" fill="white"/>
<path d="M511.583 374.144L509.303 456.537L445.695 454.783L416.383 453.969L416.326 453.971L409.469 453.778L379.521 452.952L379.115 452.942L379.291 446.697L379.479 439.842L379.956 422.605L380.237 412.355L381.388 370.545L427.079 371.809L444.032 372.281L459.392 372.703L461.422 372.761L474.651 373.128L487.712 373.489L509.026 374.077L509.032 374.075L509.715 374.093L509.721 374.092L511.583 374.144Z" fill="#FEBF06"/>
<path d="M472.935 354.036L472.413 373.061L468.717 372.953L469.187 355.783L459.392 355.512L424.134 354.536L423.666 371.712L419.963 371.607L420.487 352.588C420.514 351.567 421.365 350.754 422.387 350.787L459.479 351.815L471.147 352.132C472.162 352.161 472.969 353.013 472.935 354.036Z" fill="#A04423"/>
<path opacity="0.5" d="M381.381 370.823L411.813 405.521C412.706 406.539 413.799 407.362 415.024 407.937C416.25 408.513 417.581 408.83 418.934 408.867L471.387 410.316C472.74 410.353 474.087 410.111 475.342 409.604C476.597 409.096 477.734 408.336 478.682 407.369L511.25 374.133" fill="#FAB515"/>
<path d="M431.524 416.353L425.634 416.19C425.407 416.184 425.192 416.088 425.037 415.923C424.881 415.759 424.797 415.539 424.803 415.313L425.084 405.131C425.087 405.019 425.112 404.908 425.158 404.806C425.204 404.703 425.269 404.611 425.351 404.534C425.432 404.457 425.528 404.396 425.633 404.356C425.738 404.316 425.85 404.297 425.962 404.3L431.853 404.463C432.079 404.469 432.294 404.565 432.45 404.73C432.605 404.895 432.689 405.114 432.683 405.341L432.402 415.522C432.399 415.634 432.374 415.745 432.328 415.847C432.282 415.95 432.217 416.042 432.135 416.119C432.054 416.197 431.958 416.257 431.853 416.297C431.748 416.337 431.637 416.356 431.524 416.353ZM464.551 417.265L458.661 417.103C458.434 417.096 458.22 417 458.064 416.836C457.908 416.671 457.824 416.452 457.83 416.225L458.111 406.044C458.118 405.817 458.214 405.602 458.378 405.447C458.543 405.291 458.762 405.207 458.989 405.213L464.88 405.376C465.106 405.382 465.321 405.478 465.477 405.643C465.632 405.807 465.716 406.027 465.71 406.253L465.429 416.435C465.426 416.547 465.401 416.658 465.355 416.76C465.309 416.863 465.244 416.955 465.162 417.032C465.081 417.109 464.985 417.169 464.88 417.21C464.775 417.25 464.664 417.269 464.551 417.265Z" fill="#A04423"/>
<path opacity="0.15" d="M461.422 372.761L379.479 439.842L379.956 422.606L441.319 373.561L444.032 372.281L459.392 372.703L461.422 372.761Z" fill="#F5F6F6"/>
<path d="M379.309 370.475L377.247 445.121C377.168 447.876 378.076 450.568 379.806 452.714C379.876 452.803 379.949 452.886 380.023 452.968C382.076 455.373 385.097 456.924 388.506 457.019L500.808 460.123C507.638 460.311 513.325 454.929 513.513 448.1L515.56 374.238L379.309 370.475ZM509.643 444.172C509.455 451.002 503.767 456.384 496.938 456.196L416.382 453.969L416.325 453.971L409.468 453.778L390.641 453.257C387.661 453.165 384.983 451.955 382.993 450.037C380.715 447.861 379.343 444.764 379.434 441.363L381.387 370.545L509.032 374.075L509.714 374.093L511.582 374.144L509.643 444.172Z" fill="#A04423"/>
<path opacity="0.15" d="M509.715 374.093L422.394 453.595L416.383 453.969L416.326 453.972L409.469 453.778L390.642 453.257C387.662 453.165 384.984 451.955 382.994 450.038L474.651 373.128L487.712 373.489L509.032 374.075L509.715 374.093Z" fill="#F5F6F6"/>
<path opacity="0.57" d="M106.428 322.728C99.1607 318.543 91.3773 315.387 83.1049 314.247C69.8793 312.425 55.2166 316.641 47.2759 327.373C36.29 342.221 41.7899 364.465 54.5483 377.821C70.0795 394.08 93.7362 400.491 113.316 410.297C127.505 417.404 141.304 427.322 147.614 441.883C156.753 416.196 162.683 389.016 148.726 363.901C141.504 350.905 130.747 340.157 118.924 331.142C114.947 328.11 110.78 325.235 106.428 322.728Z" fill="#FAB515"/>
<path opacity="0.64" d="M147.327 446.493C147.519 444.855 147.533 443.205 147.484 441.562C147.453 439.918 147.316 438.279 147.146 436.646C146.783 433.381 146.151 430.154 145.351 426.976C144.594 423.785 143.539 420.675 142.45 417.589L141.546 415.304C141.241 414.544 140.967 413.772 140.62 413.03L139.626 410.783L139.129 409.661L138.584 408.56C135.722 402.669 132.389 397.012 128.668 391.62C124.935 386.234 120.82 381.12 116.482 376.203L113.167 372.568L112.339 371.66L111.476 370.783L109.749 369.03L108.022 367.277L107.158 366.4L106.265 365.554L102.683 362.174C101.51 361.025 100.266 359.953 99.035 358.866L95.3403 355.606C94.0856 354.547 92.8036 353.518 91.5393 352.469C90.2666 351.43 89.0243 350.352 87.726 349.344L83.8221 346.33L81.8697 344.822L80.8922 344.069L79.8946 343.344L75.9028 340.441C74.5658 339.482 73.2571 338.481 71.8846 337.573L67.8157 334.772L65.7804 333.372C65.103 332.903 64.4259 332.433 63.728 331.996L59.5732 329.319L55.4336 326.611L59.7194 329.081L63.9902 331.581C64.7075 331.99 65.4042 332.431 66.1019 332.871L68.1979 334.187L72.3919 336.82C73.8017 337.681 75.1392 338.65 76.5109 339.569L80.6049 342.36L81.6288 343.058C81.967 343.295 82.2959 343.545 82.6292 343.789L84.6233 345.26L88.6127 348.203C99.1599 356.176 108.996 365.124 117.866 374.974C122.222 379.966 126.381 385.144 130.111 390.633C133.795 396.149 137.142 401.905 139.887 407.949L140.415 409.076L140.894 410.225L141.851 412.522C142.185 413.281 142.447 414.07 142.739 414.847L143.588 417.185C144.595 420.346 145.574 423.519 146.23 426.773C146.904 430.018 147.405 433.3 147.632 436.603C147.845 439.901 147.869 443.234 147.327 446.493Z" fill="white"/>
<path d="M168.458 421.079C161.028 419.259 152.337 423.905 150.53 431.338C153.579 414.903 143.151 398.539 129.749 388.547C120.73 381.822 109.853 377.031 98.604 377.213C87.3549 377.395 75.853 383.247 70.8547 393.326C65.8564 403.405 69.0527 417.395 78.9291 422.783C67.6369 413.094 51.7588 407.147 37.6856 411.977C23.6124 416.807 14.5309 435.275 22.793 447.649C29.6145 457.865 43.665 459.629 55.9332 460.257C89.9505 461.998 125.238 464.329 159.254 461.758C169.296 460.999 177.428 458.927 180.8 448.526C184.183 438.091 180.139 423.941 168.458 421.079Z" fill="white"/>
<path opacity="0.3" d="M168.458 421.079C161.028 419.259 152.337 423.905 150.53 431.338C153.579 414.903 143.151 398.539 129.749 388.547C120.73 381.822 109.853 377.031 98.604 377.213C87.3549 377.395 75.853 383.247 70.8547 393.326C65.8564 403.405 69.0527 417.395 78.9291 422.783C67.6369 413.094 51.7588 407.147 37.6856 411.977C23.6124 416.807 14.5309 435.275 22.793 447.649C29.6145 457.865 43.665 459.629 55.9332 460.257C89.9505 461.998 125.238 464.329 159.254 461.758C169.296 460.999 177.428 458.927 180.8 448.526C184.183 438.091 180.139 423.941 168.458 421.079Z" fill="#A996F8"/>
<path d="M194.814 375.161C194.861 375.146 194.908 375.137 194.955 375.123C215.933 369.471 228.037 358.234 234.813 345.651C248.827 319.694 240.192 288.033 240.192 288.033H149.719C149.719 288.033 142.11 315.934 152.763 340.823C158.956 355.297 171.323 368.756 194.955 375.123C195.002 375.137 195.049 375.146 195.096 375.161" fill="white"/>
<path d="M194.815 375.161C194.862 375.175 194.909 375.184 194.956 375.198C236.945 386.506 243.378 420.209 242.79 442.217C242.479 453.897 240.192 462.283 240.192 462.283H149.719C149.719 462.283 146.694 451.196 147.131 436.759C147.785 414.99 156.307 385.607 194.956 375.198C195.003 375.184 195.05 375.175 195.097 375.16" fill="white"/>
<g opacity="0.1">
<path d="M194.812 375.16C194.859 375.146 194.905 375.137 194.956 375.123C195.002 375.137 195.049 375.146 195.095 375.16H194.812Z" fill="#A996F8"/>
<path d="M234.812 345.652C230.516 353.628 224.081 361.063 214.6 366.873C210.766 369.23 206.429 371.318 201.54 373.068C199.447 373.818 197.258 374.503 194.957 375.123C192.415 374.438 190.008 373.674 187.721 372.832C179.536 369.827 172.944 365.864 167.643 361.295C160.648 355.263 155.911 348.175 152.763 340.823C142.111 315.935 149.717 288.033 149.717 288.033H240.191C240.191 288.033 241.988 294.621 242.608 304.25C243.358 315.731 242.432 331.536 234.812 345.652ZM195.096 375.16C195.049 375.174 195.003 375.183 194.957 375.197C194.906 375.183 194.86 375.174 194.813 375.16H195.096ZM242.789 442.218C242.478 453.898 240.191 462.283 240.191 462.283H149.717C149.717 462.283 149.426 461.213 149.042 459.311C148.176 455.079 146.829 446.718 147.13 436.76C147.727 416.96 154.828 390.854 185.203 378.466C188.221 377.234 191.466 376.137 194.957 375.197C196.67 375.66 198.323 376.156 199.92 376.693C203.04 377.734 205.943 378.91 208.637 380.202C238.395 394.461 243.307 422.863 242.789 442.218Z" fill="#A996F8"/>
</g>
<path d="M138.83 288.038H147.089V462.283H138.83V288.038ZM242.827 288.038H251.086V462.283H242.827V288.038Z" fill="#F8A51B"/>
<path d="M234.814 345.651C228.037 358.234 215.934 369.471 194.956 375.123C171.324 368.756 158.957 355.298 152.764 340.823C155.554 337.143 160.637 335.369 166.429 335.053C173.855 334.677 181.399 334.31 188.627 336.046C192.415 336.959 196.048 338.437 199.779 339.566C207.158 341.806 214.913 342.677 222.626 342.559C226.183 342.507 229.99 342.305 233.025 344.164C233.69 344.571 234.292 345.071 234.814 345.651ZM242.79 442.218C242.479 453.897 240.192 462.283 240.192 462.283H149.719C149.719 462.283 146.694 451.196 147.131 436.759C153.423 433.074 162.298 432.255 169.027 432.458C173.794 432.601 178.703 432.638 183.351 431.433C186.707 430.562 189.943 428.954 192.294 426.406C192.802 425.855 193.275 425.25 193.528 424.544C193.727 423.99 193.784 423.396 193.838 422.808C194.974 410.608 195.129 398.287 194.749 386.047C194.908 391.178 196.83 396 197.524 401.048C198.527 408.333 196.425 415.99 198.954 423.094C201.425 430.035 207.871 430.724 214.282 431.686C219.962 432.538 225.496 434.185 230.926 436.058C235.086 437.493 239.505 439.399 242.79 442.218Z" fill="#FCB713"/>
<path d="M195.172 374.224C195.168 377.702 195.078 381.283 194.956 384.897C194.579 381.335 194.565 377.777 195.172 374.224Z" stroke="#231F20" stroke-miterlimit="10"/>
<path opacity="0.9" d="M138.83 288.038H251.086V292.731H138.83V288.038ZM138.83 457.589H251.086V462.283H138.83V457.589Z" fill="#A996F8"/>
<path opacity="0.49" d="M185.204 378.466L149.043 459.31C148.177 455.079 146.83 446.718 147.131 436.76C147.728 416.96 154.83 390.854 185.204 378.466ZM225.652 288.033L187.722 372.832C179.537 369.827 172.945 365.864 167.644 361.295L200.412 288.033L225.652 288.033ZM242.61 304.25L214.601 366.873L208.638 380.202L171.927 462.283H161.635L199.921 376.692L201.541 373.067L239.573 288.033H240.193C240.193 288.033 241.989 294.621 242.61 304.25Z" fill="white"/>
<path d="M335.427 100.298C338.067 98.5121 340.455 96.4155 343.874 95.4663C344.441 99.1724 344.148 102.783 343.011 106.071C342.288 108.164 340.999 110.284 338.276 110.784C335.001 111.385 329.374 108.909 328.433 105.785C327.656 103.203 333.569 101.554 335.427 100.298Z" fill="#17173D"/>
<path opacity="0.5" d="M434.524 112.979C436.102 112.979 436.105 110.526 434.524 110.526C432.944 110.526 432.942 112.979 434.524 112.979ZM377.591 72.7512C379.17 72.7512 379.173 70.2974 377.591 70.2974C376.012 70.2974 376.01 72.7512 377.591 72.7512ZM469.81 166.245C471.389 166.245 471.392 163.791 469.81 163.791C468.231 163.791 468.229 166.245 469.81 166.245ZM179.526 115.466C181.105 115.466 181.108 113.012 179.526 113.012C177.947 113.012 177.945 115.466 179.526 115.466ZM143.474 175.131C145.053 175.131 145.056 172.677 143.474 172.677C141.895 172.677 141.893 175.131 143.474 175.131ZM230.131 76.459C231.71 76.459 231.713 74.0052 230.131 74.0052C228.552 74.0052 228.55 76.459 230.131 76.459Z" fill="#A996F8"/>
<path d="M540.635 211.042L538.535 226.2L537.096 236.6C536.668 239.688 534.059 242.009 530.942 242.073L502.118 242.661L488.984 242.929L507.341 226.529L518.577 228.58C521.082 229.036 523.6 227.828 524.806 225.585L532.556 211.195C533.317 209.782 534.48 208.625 535.897 207.872L536.012 207.811C538.294 206.596 540.991 208.481 540.635 211.042ZM479.158 334.037L467.153 337.476L454.352 341.145C451.356 342.003 448.179 340.556 446.858 337.732L437.637 317.995L429.094 299.709L451.518 309.858L454.19 320.964C454.788 323.44 456.912 325.252 459.452 325.448L475.745 326.71C477.347 326.835 478.876 327.43 480.138 328.421L480.24 328.501C482.273 330.098 481.643 333.325 479.158 334.037Z" fill="#F28389"/>
<path d="M510.183 226.333L509.69 229.887L507.952 242.402L504.222 242.619L448.269 245.87L433.398 246.731L407.506 248.236L320.18 253.305H320.176L380.794 219.44L392.785 212.741H392.799L409.641 214.694L411.575 214.917L428.362 216.861L431.533 217.227L510.183 226.333Z" fill="#393878"/>
<path d="M455.276 319.187L452.274 319.769L439.618 322.232L439.205 322.311L408.961 261.452C408.8 261.133 408.632 260.814 408.456 260.509C407.065 258.076 405.133 255.996 402.809 254.43C402.637 254.313 402.467 254.203 402.291 254.092C402.087 253.968 401.878 253.841 401.67 253.722C401.485 253.61 401.295 253.507 401.105 253.411C400.944 253.323 400.782 253.24 400.618 253.166C400.498 253.107 400.379 253.045 400.259 252.994C400.101 252.917 399.94 252.847 399.776 252.777C399.67 252.73 399.563 252.69 399.457 252.643C399.336 252.595 399.216 252.546 399.095 252.503C398.94 252.44 398.782 252.383 398.619 252.328C398.406 252.254 398.193 252.184 397.981 252.119C397.402 251.939 396.809 251.786 396.212 251.671C396.065 251.638 395.92 251.61 395.772 251.587C395.692 251.569 395.611 251.555 395.531 251.546C395.379 251.518 395.226 251.495 395.073 251.477C395.046 251.471 395.013 251.467 394.981 251.467C394.809 251.438 394.633 251.42 394.457 251.407C394.435 251.397 394.41 251.397 394.388 251.397C394.212 251.379 394.032 251.364 393.85 251.35C393.67 251.338 393.49 251.328 393.31 251.324C393.083 251.313 392.85 251.309 392.619 251.309C391.823 251.309 391.018 251.36 390.212 251.467C373.17 253.726 342.626 256.767 320.173 253.305C318.196 252.998 316.284 252.643 314.445 252.231C314.261 252.189 314.075 252.148 313.889 252.105C313.683 252.06 313.478 252.009 313.274 251.957C312.372 251.741 311.493 251.508 310.636 251.262C310.483 251.221 310.329 251.174 310.178 251.129C309.973 251.074 309.775 251.013 309.581 250.949C309.391 250.892 309.2 250.833 309.014 250.771C308.834 250.716 308.654 250.657 308.479 250.596C307.669 250.332 306.886 250.05 306.127 249.749C305.882 249.653 305.636 249.555 305.395 249.452C305.171 249.363 304.949 249.269 304.728 249.17C303.882 248.8 303.066 248.412 302.293 247.994C302.154 247.925 302.015 247.851 301.882 247.772C301.757 247.702 301.626 247.635 301.506 247.559C300.385 246.921 299.348 246.226 298.414 245.481C297.303 244.596 296.322 243.633 295.498 242.592C294.469 241.3 293.674 239.878 293.14 238.328C287.891 223.029 301.97 216.107 316.339 212.982C329.052 210.213 341.986 210.412 341.986 210.412L392.786 212.741H392.801L401.142 213.125C404.087 213.26 406.939 213.796 409.642 214.694C410.152 214.857 410.651 215.037 411.148 215.232C420.086 218.696 427.173 226.11 430.054 235.639L430.406 236.805L433.4 246.731L455.276 319.187Z" fill="#4D4787"/>
<path d="M407.693 199.848C407.693 200.57 407.314 201.288 406.592 201.653C405.96 201.977 405.256 202.129 404.547 202.095C403.839 202.06 403.152 201.841 402.555 201.459L399.101 199.26C397.198 198.047 394.883 197.649 392.689 198.163L387.44 198.751C386.116 198.899 384.778 198.699 383.555 198.172L378.046 198.357L353.316 196.297L314.84 193.089L349.626 170.677L363.769 179.316L363.834 179.353L381.227 189.973L382.704 190.047H382.713L396.291 190.737C396.782 190.759 397.266 190.857 397.726 191.028C398.286 191.223 398.805 191.518 399.259 191.899L406.967 198.301C407.195 198.489 407.378 198.726 407.504 198.993C407.629 199.261 407.694 199.553 407.693 199.848Z" fill="#F28389"/>
<path d="M308.667 122.92C308.661 122.908 308.655 122.893 308.648 122.881C308.65 122.861 308.65 122.842 308.65 122.822C308.663 122.529 308.673 122.235 308.675 121.942C308.681 122.268 308.677 122.595 308.667 122.92Z" fill="#F7A6BA"/>
<path d="M342.921 162.394C342.34 162.253 286.842 148.685 299.212 144.937C304.136 143.444 307.939 139.68 310.737 135.678C312.117 133.705 313.254 131.672 314.158 129.825C314.176 129.789 314.194 129.75 314.213 129.713C314.274 129.756 314.336 129.799 314.399 129.842C315.649 130.694 317.016 131.36 318.458 131.819C318.687 131.885 318.914 131.956 319.139 132.018C319.348 132.069 319.55 132.114 319.759 132.161C321.394 132.531 323.035 132.615 324.631 132.433C324.961 132.398 325.288 132.349 325.611 132.294H325.613C325.611 132.298 325.611 132.302 325.611 132.306C325.597 132.461 325.584 132.619 325.572 132.774C325.564 132.868 325.558 132.962 325.554 133.056C325.535 133.298 325.523 133.537 325.513 133.772C324.599 154.117 342.647 162.271 342.921 162.394Z" fill="#F28389"/>
<path d="M369.235 181.899C369.189 181.927 369.142 181.959 369.087 181.987C369.031 182.001 368.971 182.033 368.906 182.08C368.897 182.08 368.888 182.085 368.878 182.094C368.54 182.242 368.096 182.358 367.527 182.436C363.767 182.959 360.453 190.075 358.152 196.7C357.031 199.917 356.156 203.019 355.587 205.19C355.096 207.047 354.833 208.227 354.833 208.227C354.833 208.227 355.638 209.116 352.56 210.899C350.814 211.903 347.824 213.195 342.727 214.773C334.949 217.185 324.63 219.051 316.848 222.074C316.03 222.391 315.221 222.731 314.422 223.093C314.186 223.203 313.951 223.315 313.718 223.431C313.486 223.54 313.256 223.654 313.028 223.773C312.781 223.901 312.536 224.032 312.292 224.167C312.066 224.294 311.841 224.424 311.616 224.556C311.247 224.776 310.884 225.008 310.529 225.25C310.381 225.352 310.232 225.454 310.089 225.556C309.969 225.643 309.853 225.731 309.742 225.819C309.658 225.88 309.576 225.943 309.496 226.009C309.362 226.112 309.231 226.218 309.103 226.328C308.975 226.434 308.85 226.544 308.728 226.657C308.723 226.666 308.714 226.671 308.705 226.676C308.58 226.796 308.455 226.912 308.334 227.032C308.205 227.157 308.084 227.287 307.964 227.416C307.853 227.537 307.742 227.657 307.64 227.782C307.519 227.92 307.405 228.064 307.297 228.213C307.194 228.347 307.096 228.485 307.001 228.625C306.191 229.824 305.705 231.153 305.626 232.634C305.307 238.486 303.219 241.768 301.353 243.555C300.02 244.828 298.802 245.342 298.413 245.481C298.211 245.32 298.012 245.154 297.816 244.986C297.117 244.176 296.45 243.319 295.802 242.43C283.816 225.912 280.386 196.95 279.627 175.437C279.094 160.331 288.603 146.808 302.783 142.127C303.489 141.894 304.203 141.684 304.922 141.498L305.719 141.289C305.719 141.289 309.033 145.067 311.579 146.525C324.76 154.071 326.121 141.479 326.121 141.479L330.625 142.479L332.357 142.863C342.032 145.007 350.463 150.965 355.587 159.446C356.856 161.548 357.99 163.705 358.8 165.77C361.967 173.872 372.017 179.941 369.235 181.899Z" fill="#FCB713"/>
<path d="M298.414 245.481C298.33 245.513 298.284 245.527 298.284 245.527C298.124 245.35 297.969 245.169 297.816 244.985C298.011 245.152 298.21 245.319 298.414 245.481ZM369.088 181.987C369.029 182.022 368.969 182.053 368.907 182.08C368.972 182.034 369.032 182.001 369.088 181.987Z" fill="#FCB713"/>
<path opacity="0.56" d="M354.833 208.227C354.833 208.227 356.815 210.412 342.727 214.773C334.95 217.185 324.63 219.051 316.848 222.074C316.03 222.391 315.221 222.731 314.422 223.093C314.186 223.202 313.951 223.314 313.719 223.431C313.486 223.54 313.256 223.654 313.029 223.773C312.782 223.901 312.536 224.032 312.293 224.167C312.066 224.293 311.84 224.423 311.617 224.556C311.248 224.776 310.885 225.008 310.529 225.25C310.381 225.352 310.233 225.454 310.089 225.556C309.969 225.643 309.853 225.731 309.742 225.819C309.658 225.88 309.576 225.943 309.497 226.009C309.362 226.112 309.231 226.218 309.103 226.328C308.978 226.435 308.853 226.546 308.728 226.657C308.723 226.666 308.714 226.671 308.705 226.676C308.58 226.796 308.455 226.912 308.335 227.032C308.205 227.157 308.085 227.287 307.964 227.416C307.854 227.536 307.746 227.658 307.64 227.782C307.412 228.051 307.199 228.333 307.002 228.625C302.168 224.699 294.594 213.208 287.724 200.723C281.961 190.237 282.539 177.399 289.285 167.516C294.886 159.303 307.233 160.094 311.747 168.946L328.154 201.121L328.265 201.343C328.265 201.343 322.385 201.538 321.01 206.889C321.228 206.831 321.449 206.784 321.672 206.75C332.312 205.079 343.089 204.44 353.852 204.843C354.449 204.866 355.074 204.899 355.588 205.19C355.097 207.047 354.833 208.227 354.833 208.227Z" fill="#FEBF06"/>
<path d="M354.582 205.351H407.722C409.253 205.351 410.669 204.535 411.437 203.21L439.258 155.191C439.619 154.569 440.186 154.094 440.862 153.849C441.538 153.604 442.278 153.604 442.954 153.851L443.924 154.204C445.287 154.702 445.902 156.284 445.232 157.572L416.388 213.008C416.028 213.699 415.475 214.269 414.796 214.65C414.116 215.031 413.341 215.205 412.564 215.151L348.582 210.713C348.926 207.659 351.509 205.351 354.582 205.351Z" fill="#302E75"/>
<path d="M405.757 202.848C405.757 203.459 405.484 204.075 404.929 204.477C403.762 205.325 402.23 205.496 400.911 204.917L397.156 203.288C395.087 202.385 392.739 202.362 390.647 203.214L385.559 204.612C384.275 204.968 382.92 204.982 381.629 204.653L375.161 203.01L332.464 208.093L312.969 210.413L317.529 190.571L326.954 191.557L329.454 191.82L358.801 194.899L378.046 196.918L393.041 195.311C394.125 195.197 395.218 195.435 396.156 195.992L404.772 201.107C405.127 201.316 405.408 201.632 405.573 202.01C405.697 202.274 405.757 202.561 405.757 202.848Z" fill="#F28389"/>
<path d="M327.056 191.76C327.056 191.76 321.024 191.959 320.172 197.714C320.07 198.408 319.922 199.241 319.727 200.167C319.149 202.977 318.172 206.644 316.889 209.945C315.112 214.551 312.732 218.449 309.991 218.348C306.131 218.204 297.325 205.39 289.511 191.186C284.173 181.474 284.71 169.585 290.955 160.432C295.627 153.587 305.352 153.499 310.301 159.53L310.302 159.525L310.575 159.868L310.612 159.919C311.047 160.497 311.432 161.112 311.76 161.757L326.954 191.557L327.056 191.76Z" fill="#FCB713"/>
<path d="M369.086 181.987C369.142 181.959 369.188 181.927 369.234 181.899C369.22 181.936 369.169 181.964 369.086 181.987Z" fill="#F37795"/>
<path d="M407.694 199.848C407.694 200.57 407.314 201.288 406.592 201.653C406.27 201.818 405.927 201.938 405.573 202.01C405.408 201.632 405.128 201.316 404.772 201.107L396.157 195.991C395.219 195.435 394.126 195.196 393.041 195.311L378.046 196.917L358.801 194.899C361.056 188.844 364.107 182.913 367.528 182.436C368.098 182.357 368.542 182.242 368.88 182.094C367.929 182.779 366.492 186.316 365.382 189.389C364.597 191.562 366.032 193.894 368.323 194.188C369.542 194.344 370.771 194.449 372.014 194.487C375.755 194.598 379.509 194.204 383.139 193.306C384.861 192.885 386.551 192.348 388.273 191.94C391.369 191.212 394.549 190.905 397.726 191.028C398.286 191.223 398.805 191.518 399.259 191.899L406.967 198.301C407.195 198.489 407.378 198.726 407.504 198.993C407.629 199.261 407.694 199.553 407.694 199.848ZM332.464 208.093L316.891 209.945C318.594 205.556 319.756 200.524 320.173 197.714C321.025 191.959 327.057 191.76 327.057 191.76L326.955 191.556L329.455 191.82C329.265 194.26 328.256 196.839 327.057 198.783C325.946 200.593 324.58 202.926 325.854 204.63C327.298 206.561 330.872 205.644 332.228 207.635C332.325 207.778 332.409 207.936 332.464 208.093Z" fill="#F7A6BA"/>
<path opacity="0.56" d="M358.802 193.408V194.899L329.455 191.82L326.955 191.557L311.761 161.757C311.433 161.112 311.049 160.497 310.613 159.919L330.034 184.515C332.205 187.265 335.304 189.129 338.751 189.756L341.801 190.311C343.796 190.675 345.421 188.717 344.696 186.823L338.464 170.543L349.663 189.247C350.189 190.127 350.897 190.884 351.74 191.468C352.583 192.051 353.54 192.449 354.549 192.633L358.802 193.408Z" fill="#FEBF06"/>
<path opacity="0.15" d="M448.27 245.87L433.4 246.731L430.053 235.639C427.174 226.111 420.086 218.695 411.146 215.232L411.577 214.917L431.535 217.227C437.535 222.25 444.127 230.921 448.27 245.87Z" fill="black"/>
<path opacity="0.2" d="M430.404 236.805C419.789 235.74 412.548 224.546 402.252 221.079C396.454 219.126 390.321 219.51 384.305 219.47C376.307 219.416 368.186 218.787 360.204 219.513C352.749 220.191 345.961 223.637 338.834 225.688C329.471 228.382 319.512 229.178 309.81 228.541C308.972 228.486 308.116 228.379 307.297 228.213C307.404 228.064 307.519 227.92 307.639 227.782C307.741 227.657 307.852 227.537 307.963 227.416C308.084 227.287 308.204 227.157 308.334 227.032C308.454 226.912 308.579 226.796 308.704 226.676C308.713 226.671 308.722 226.666 308.727 226.657C308.847 226.546 308.972 226.435 309.102 226.328C309.23 226.218 309.361 226.112 309.495 226.009C309.575 225.943 309.657 225.88 309.741 225.819C309.852 225.731 309.968 225.643 310.088 225.555C310.232 225.454 310.38 225.352 310.528 225.25C310.884 225.008 311.246 224.776 311.616 224.556C311.838 224.426 312.06 224.296 312.292 224.167C312.532 224.032 312.778 223.903 313.028 223.773C313.255 223.654 313.485 223.54 313.718 223.431C313.949 223.315 314.185 223.204 314.421 223.093C315.22 222.731 316.029 222.391 316.847 222.074C324.629 219.051 334.948 217.185 342.726 214.773C347.823 213.195 350.814 211.903 352.559 210.898L392.785 212.741H392.798L401.141 213.125C404.085 213.26 406.937 213.797 409.64 214.695C410.15 214.857 410.65 215.037 411.145 215.232C420.085 218.694 427.172 226.111 430.052 235.639L430.404 236.805ZM295.802 242.43C296.45 243.319 297.116 244.175 297.815 244.985C296.945 244.24 296.172 243.444 295.496 242.592C295.598 242.536 295.7 242.476 295.802 242.43ZM439.126 322.346L439.137 322.37L411.728 266.776C409.436 262.127 406.959 257.261 402.644 254.389C396.299 250.165 387.948 251.405 380.399 252.465C363.234 254.875 345.81 255.488 328.526 254.17C317.995 253.366 307.061 251.673 298.45 245.558L301.241 243.895C323.978 254.138 350.356 256.061 374.338 249.224C383.811 246.523 393.411 242.877 402.326 249.077C404.563 250.633 406.508 252.601 408.155 254.764C411.324 258.928 413.454 263.772 415.555 268.565L439.126 322.346Z" fill="black"/>
<path d="M330.625 142.479C329.953 145.22 329.125 148.192 326.828 149.831C324.81 151.266 322.148 151.308 319.671 151.289C317.357 151.28 314.991 151.257 312.806 150.488C310.667 149.738 308.825 148.312 307.186 146.743C305.843 145.456 303.815 143.752 302.783 142.127C303.489 141.894 304.202 141.684 304.922 141.498L305.718 141.289C305.718 141.289 309.033 145.067 311.579 146.525C324.759 154.071 326.121 141.479 326.121 141.479L330.625 142.479Z" fill="white"/>
<path opacity="0.5" d="M426.97 350.986C428.549 350.986 428.552 348.532 426.97 348.532C425.392 348.532 425.389 350.986 426.97 350.986ZM467.199 294.054C468.777 294.054 468.78 291.6 467.199 291.6C465.62 291.6 465.617 294.054 467.199 294.054ZM373.705 386.273C375.284 386.273 375.286 383.819 373.705 383.819C372.126 383.819 372.123 386.273 373.705 386.273Z" fill="#A996F8"/>
<path d="M341.965 105.43V105.455C341.965 105.451 341.963 105.446 341.959 105.444C341.918 105.289 341.624 104.269 340.83 103.048C341.664 104.303 341.945 105.359 341.963 105.428L341.965 105.43ZM341.963 105.463C341.965 105.461 341.965 105.459 341.965 105.455C341.967 105.457 341.967 105.459 341.967 105.461C341.965 105.463 341.963 105.463 341.963 105.463Z" fill="black"/>
<path opacity="0.7" d="M344.327 103.273C344.218 103.54 344.082 103.796 343.92 104.036L344.327 103.273Z" fill="#F37795"/>
<path d="M325.613 132.306C325.598 132.461 325.586 132.619 325.574 132.774C325.566 132.868 325.56 132.962 325.555 133.056C325.537 133.298 325.525 133.537 325.515 133.772C322.109 135.073 318.53 135.864 314.893 136.118C313.499 136.216 312 136.199 310.738 135.678C312.119 133.705 313.256 131.674 314.159 129.828C314.239 129.883 314.319 129.934 314.401 129.987C315.66 130.797 317.026 131.427 318.46 131.858C318.689 131.919 318.916 131.987 319.141 132.044C319.349 132.093 319.552 132.136 319.76 132.181C321.396 132.531 323.036 132.611 324.633 132.437C324.962 132.404 325.29 132.359 325.613 132.306Z" fill="#F7A6BA"/>
<path d="M341.968 103.923C341.968 103.909 341.966 103.894 341.964 103.878C341.945 103.804 341.663 102.682 340.823 101.349C339.794 100.833 338.935 100.017 338.467 98.9847C338.42 98.8804 338.375 98.7741 338.336 98.6636C338.3 98.635 338.261 98.6064 338.222 98.5818C338.169 100.232 337.199 101.786 335.876 102.788C334.48 103.845 332.735 104.355 330.997 104.569C327.613 104.988 323.795 104.152 321.722 101.49C321.658 101.549 321.595 101.606 321.532 101.661C321.542 101.755 321.548 101.852 321.552 101.946C321.562 102.166 321.562 102.387 321.552 102.608C321.55 102.688 321.546 102.768 321.538 102.849C321.538 102.86 321.538 102.872 321.536 102.882C321.53 102.974 321.519 103.066 321.509 103.158V103.162C321.497 103.256 321.485 103.35 321.47 103.445C321.456 103.539 321.44 103.631 321.421 103.725C321.411 103.776 321.401 103.829 321.389 103.882C321.378 103.931 321.368 103.98 321.356 104.029C321.34 104.101 321.323 104.17 321.303 104.242C321.286 104.303 321.27 104.365 321.252 104.426C321.235 104.485 321.217 104.543 321.198 104.602C321.176 104.676 321.151 104.749 321.127 104.821C321.096 104.907 321.064 104.993 321.031 105.078C321.012 105.13 320.992 105.181 320.969 105.232L320.89 105.422C320.859 105.489 320.828 105.557 320.796 105.622C320.787 105.643 320.777 105.663 320.767 105.684C320.728 105.765 320.689 105.843 320.646 105.923C320.605 106.001 320.565 106.076 320.52 106.152C320.511 106.166 320.503 106.181 320.493 106.197C320.45 106.275 320.403 106.352 320.354 106.428C320.303 106.51 320.25 106.592 320.196 106.671H320.194C319.749 107.328 319.203 107.913 318.569 108.393C316.395 110.045 313.297 110.387 310.815 109.246C311.103 109.841 311.224 110.52 311.158 111.18C310.596 111.446 309.927 111.019 309.59 110.493C309.105 109.735 308.984 109.156 308.081 108.794C305.878 107.9 304.14 110.088 303.987 112.16C303.921 113.064 303.86 114.199 304.232 115.029C305.222 117.239 306.758 119.202 308.655 120.709C308.674 121.12 308.68 121.531 308.676 121.942C308.682 122.268 308.678 122.595 308.668 122.92C308.837 123.3 309.021 123.674 309.22 124.038C309.279 124.077 309.34 124.112 309.4 124.149C309.34 124.114 309.281 124.081 309.224 124.045C310.418 126.271 312.097 128.21 314.16 129.674C314.178 129.686 314.197 129.701 314.215 129.713C314.277 129.756 314.338 129.799 314.401 129.842C315.651 130.694 317.019 131.36 318.46 131.819C318.689 131.885 318.916 131.956 319.141 132.018C319.35 132.069 319.552 132.114 319.761 132.161C321.397 132.531 323.037 132.615 324.634 132.433C324.963 132.398 325.29 132.349 325.615 132.294C330.636 131.412 335.075 127.987 337.33 122.951C337.674 122.188 337.964 121.386 338.202 120.552L340.306 113.115L340.308 113.107L340.347 112.97L340.948 110.847L341.32 109.532C341.494 108.923 341.631 108.311 341.733 107.698C341.829 107.143 341.898 106.583 341.94 106.021C341.99 105.316 342.001 104.616 341.968 103.923Z" fill="#F28389"/>
<path d="M309.218 124.038C309.277 124.076 309.337 124.113 309.397 124.149C309.339 124.114 309.28 124.081 309.222 124.044C309.217 124.043 309.215 124.04 309.218 124.038ZM321.55 101.946C321.665 104.399 320.532 106.9 318.567 108.393C316.393 110.045 313.295 110.387 310.812 109.246C311.101 109.841 311.222 110.52 311.156 111.18C310.594 111.446 309.925 111.019 309.588 110.493C309.103 109.735 308.982 109.156 308.079 108.794C307.958 108.745 307.831 108.708 307.702 108.679C307.344 108.6 306.968 108.596 306.606 108.667C306.373 108.712 306.148 108.788 305.94 108.894C305.825 108.951 305.717 109.017 305.612 109.09C305.482 108.424 305.387 107.747 305.349 107.074C305.297 107.786 305.33 108.512 305.422 109.234C305.547 110.219 305.786 111.203 306.079 112.141C306.308 112.873 306.569 113.595 306.835 114.317L306.629 114.111C305.594 113.071 304.877 111.759 304.561 110.328C304.359 109.414 304.322 108.459 304.465 107.508L304.617 106.514L304.621 106.489L304.876 104.772C304.891 104.696 304.903 104.62 304.921 104.545C304.921 104.541 304.925 104.537 304.925 104.532C305.068 103.962 305.406 103.498 305.845 103.185C305.923 102.976 306.009 102.772 306.105 102.569C306.361 102.027 306.733 101.484 307.289 101.336C308.093 101.122 308.88 101.874 309.13 102.71C309.215 102.995 309.256 103.285 309.275 103.582L310.183 104.152L310.295 103.784C310.838 103.995 311.37 104.235 311.888 104.502C311.996 104.557 312.107 104.614 312.217 104.674C312.567 104.856 312.935 105.062 313.315 105.289C313.409 105.346 313.504 105.397 313.598 105.447C313.677 104.952 313.684 104.437 313.653 103.929C314.095 104.167 314.534 104.33 314.974 104.422C317.131 104.882 319.256 103.684 321.397 101.782C321.442 101.743 321.485 101.703 321.53 101.662C321.54 101.755 321.546 101.852 321.55 101.946ZM332.729 96.7455C335.095 96.8928 336.883 97.6289 338.22 98.5818C338.167 100.232 337.197 101.786 335.874 102.788C334.478 103.845 332.734 104.355 330.995 104.569C327.611 104.988 323.793 104.152 321.72 101.49C321.98 101.252 322.239 101.003 322.499 100.747C323.331 99.9294 324.245 99.2198 325.221 98.635C327.49 97.2731 330.09 96.5819 332.729 96.7455ZM340.821 101.349C339.792 100.833 338.934 100.017 338.465 98.9847C338.418 98.8804 338.373 98.7741 338.335 98.6636C338.617 98.8681 338.877 99.0828 339.118 99.3037C339.848 99.9703 340.404 100.686 340.821 101.349Z" fill="#F28389"/>
<path d="M308.667 122.92C308.661 122.908 308.655 122.893 308.648 122.881C308.65 122.861 308.65 122.842 308.65 122.822C308.663 122.529 308.673 122.235 308.675 121.942C308.681 122.268 308.677 122.595 308.667 122.92Z" fill="#F7A6BA"/>
<path opacity="0.17" d="M347.991 103.377C347.922 103.688 347.834 103.993 347.728 104.293C347.697 104.389 347.66 104.485 347.623 104.582C347.589 104.676 347.55 104.77 347.511 104.864C347.482 104.929 347.456 104.995 347.425 105.058C347.411 105.095 347.394 105.134 347.376 105.168C347.372 105.181 347.364 105.197 347.358 105.211C347.331 105.267 347.306 105.322 347.278 105.375C349.353 99.3405 345.963 93.0096 339.92 91.1303C338.462 90.6764 336.953 90.4208 335.481 90.0179C334.71 89.8073 333.949 89.5558 333.207 89.2634C333.796 89.292 334.434 89.294 335.129 89.2654C335.293 89.2572 335.456 89.2532 335.622 89.2532C336.841 89.2388 338.045 89.3718 339.196 89.6355C345.133 91.0015 349.689 95.9358 347.991 103.377Z" fill="white"/>
<path d="M538.536 226.2L537.096 236.6C536.669 239.688 534.06 242.009 530.943 242.073L504.223 242.619L507.952 242.402L509.691 229.887C511.124 230.732 512.463 232.145 513.547 232.924C516.424 234.995 520.817 237.649 524.51 237.11C526.201 236.862 527.647 235.803 528.988 234.744C532.343 232.095 535.532 229.242 538.536 226.2ZM467.153 337.476L454.353 341.145C451.357 342.003 448.179 340.556 446.858 337.732L439.617 322.232L452.273 319.769C451.064 323.565 445.286 324.935 448.815 329.947C450.345 332.118 452.923 333.349 455.524 333.885C458.125 334.419 460.808 334.347 463.462 334.435C464.728 334.478 466.195 334.67 466.851 335.752C467.164 336.268 467.219 336.869 467.153 337.476Z" fill="#F7A6BA"/>
<path d="M344.985 101.711C344.895 101.741 344.803 101.768 344.711 101.792C343.424 102.14 342.009 101.946 340.821 101.349C339.793 100.833 338.934 100.017 338.466 98.9847C338.418 98.8804 338.374 98.7741 338.335 98.6637C338.31 98.5921 338.286 98.5185 338.263 98.4428C338.261 98.44 338.259 98.4364 338.259 98.4326C338.247 98.3917 338.235 98.3508 338.222 98.3078C338.222 98.3222 338.224 98.3344 338.222 98.3487C338.224 98.4265 338.224 98.5042 338.22 98.5819C338.167 100.232 337.198 101.786 335.875 102.788C334.478 103.845 332.734 104.355 330.996 104.569C327.611 104.988 323.794 104.152 321.72 101.49C321.632 101.379 321.548 101.265 321.469 101.148C321.495 101.318 321.516 101.49 321.53 101.661C321.54 101.756 321.546 101.852 321.55 101.946C321.628 103.608 321.133 105.293 320.193 106.671C319.747 107.328 319.201 107.913 318.567 108.393C316.393 110.045 313.295 110.387 310.813 109.246C311.101 109.841 311.222 110.52 311.156 111.18C310.594 111.446 309.925 111.019 309.588 110.493C309.103 109.735 308.983 109.156 308.079 108.794C307.958 108.745 307.831 108.708 307.703 108.679C307.345 108.6 306.968 108.596 306.607 108.667C306.373 108.712 306.148 108.788 305.94 108.894C305.825 108.951 305.717 109.017 305.613 109.09C305.547 109.135 305.484 109.182 305.423 109.234C305.063 109.526 304.772 109.904 304.562 110.328C304.376 110.7 304.253 111.105 304.2 111.514C304.057 112.597 304.355 113.702 304.866 114.665C305.656 116.145 306.948 117.982 308.478 118.975C308.492 119.047 308.502 119.119 308.512 119.19C308.641 120.102 308.684 121.022 308.674 121.942C308.68 122.268 308.676 122.595 308.666 122.92C308.835 123.3 309.02 123.674 309.218 124.038C309.277 124.077 309.338 124.112 309.398 124.149C309.338 124.114 309.279 124.081 309.222 124.045C309.093 123.967 308.964 123.885 308.837 123.799C308.662 123.685 308.488 123.568 308.316 123.45C308.316 123.45 308.314 123.45 308.314 123.448C307.925 123.18 307.547 122.899 307.179 122.607C306.898 122.385 306.623 122.156 306.353 121.92C305.59 121.251 304.872 120.532 304.212 119.761C303.887 119.38 303.57 118.986 303.167 118.689C302.821 118.433 302.427 118.258 302.046 118.065C299.347 116.693 297.172 114.037 296.998 111.017C296.824 107.996 299.079 104.845 302.091 104.59C299.292 101.907 298.73 97.1934 300.822 93.9298C302.175 91.8215 305.224 90.3962 307.177 91.9626C306.367 89.654 306.938 87.014 308.257 84.9528C309.578 82.8936 311.572 81.3456 313.686 80.1146C315.895 78.8264 318.404 77.8182 320.947 78.08C323.491 78.3438 326 80.2087 326.289 82.7505C328.149 80.7363 331.067 79.7588 333.765 80.2435C335.268 80.5154 336.767 81.2863 337.499 82.6237C338.233 83.9631 337.928 85.9037 336.597 86.6541C339.409 86.3494 342.359 86.7564 344.791 88.2021C347.22 89.6499 349.052 92.2244 349.22 95.0463C349.385 97.8702 347.668 100.813 344.985 101.711Z" fill="#2F2F75"/>
<path d="M318.567 108.393C316.393 110.045 313.295 110.387 310.813 109.246C311.101 109.841 311.222 110.52 311.156 111.18C310.594 111.446 309.925 111.019 309.588 110.493C309.103 109.735 308.983 109.156 308.079 108.794C307.958 108.745 307.831 108.708 307.703 108.679C307.345 108.6 306.969 108.596 306.607 108.667C306.374 108.712 306.149 108.788 305.94 108.894C305.825 108.951 305.717 109.017 305.613 109.09C305.547 109.135 305.484 109.182 305.423 109.234C305.063 109.526 304.772 109.904 304.562 110.328C304.376 110.7 304.253 111.105 304.2 111.514C304.057 112.597 304.355 113.702 304.866 114.665C305.656 116.145 306.948 117.982 308.478 118.975C308.492 119.047 308.502 119.119 308.512 119.19C308.641 120.102 308.684 121.022 308.674 121.942L308.674 121.952C308.687 122.65 308.843 123.341 309.173 123.956L309.218 124.039C309.091 123.963 308.964 123.881 308.838 123.799C308.662 123.685 308.488 123.568 308.316 123.45C308.316 123.45 308.314 123.45 308.314 123.448C307.897 123.241 307.523 122.951 307.179 122.607C306.165 121.593 305.439 120.121 304.78 118.996C303.617 117.01 302.431 114.961 302.09 112.688C301.705 110.121 302.699 107.633 304.621 106.49C305.598 105.905 306.815 105.668 308.212 105.946C309.684 106.238 311.226 106.745 312.643 106.25C313.574 105.925 314.306 105.22 314.974 104.422C316.324 102.819 317.424 100.846 319.412 100.872C320.18 100.883 320.863 101.238 321.397 101.782C321.45 101.833 321.501 101.889 321.551 101.946C321.665 104.4 320.532 106.9 318.567 108.393Z" fill="#17173D"/>
<path d="M341.938 106.021C341.918 106.287 341.894 106.553 341.861 106.819C341.063 107.36 340.184 107.649 339.288 107.336C338.92 107.207 338.591 106.982 338.223 106.849C337.084 106.438 335.851 106.978 334.698 107.348C331.925 108.238 328.843 108.131 326.138 107.052C324.655 106.461 323.115 105.569 321.572 105.97C321.062 106.103 320.617 106.363 320.195 106.671H320.193C320.299 106.517 320.399 106.359 320.492 106.197C320.502 106.181 320.511 106.166 320.519 106.152C320.562 106.076 320.605 106.001 320.645 105.923C320.686 105.843 320.727 105.763 320.766 105.684C320.776 105.663 320.787 105.643 320.795 105.622C320.827 105.557 320.858 105.489 320.889 105.422L320.969 105.232C320.991 105.181 321.012 105.13 321.03 105.078C321.062 104.993 321.095 104.907 321.126 104.821C321.151 104.747 321.175 104.676 321.198 104.602C321.216 104.543 321.234 104.485 321.251 104.426C321.269 104.365 321.286 104.303 321.302 104.242C321.322 104.17 321.339 104.101 321.355 104.029C321.367 103.98 321.378 103.931 321.388 103.882C321.4 103.829 321.41 103.776 321.42 103.725C321.439 103.631 321.455 103.539 321.469 103.445C321.484 103.35 321.496 103.256 321.508 103.162V103.158C321.518 103.066 321.529 102.974 321.535 102.882C321.537 102.872 321.537 102.86 321.537 102.849C321.545 102.77 321.549 102.688 321.551 102.608C321.561 102.387 321.561 102.166 321.551 101.946C321.547 101.852 321.541 101.755 321.531 101.661C321.516 101.49 321.496 101.318 321.469 101.148C321.549 101.265 321.633 101.379 321.721 101.49C323.794 104.152 327.612 104.988 330.996 104.569C332.735 104.355 334.479 103.845 335.875 102.788C337.199 101.786 338.168 100.232 338.221 98.5818C338.225 98.5041 338.225 98.4264 338.223 98.3487C338.225 98.3344 338.223 98.3221 338.223 98.3078C338.235 98.3508 338.248 98.3917 338.26 98.4326C338.26 98.4367 338.262 98.4408 338.264 98.4428C338.286 98.5185 338.311 98.5919 338.335 98.6636C338.374 98.7741 338.419 98.8804 338.466 98.9847C338.935 100.017 339.793 100.833 340.822 101.349C341.662 102.682 341.944 103.804 341.963 103.878C341.965 103.894 341.967 103.909 341.967 103.923C342 104.616 341.99 105.316 341.938 106.021Z" fill="#F7A6BA"/>
<path d="M248 224.296L223.485 249.708C196.028 221.721 161.055 206.107 147 201.799L202.638 143.708C205.815 168.219 234.203 207.647 248 224.296Z" fill="#FEBF06"/>
<path d="M260 238.473C260.046 236.308 252.242 228.395 248.336 224.708L223 248.674C225.7 251.435 237.468 259.651 240.226 259.708C242.986 259.764 259.943 241.176 260 238.473Z" fill="#FEBF06"/>
<path fill-rule="evenodd" clip-rule="evenodd" d="M204.561 152.708C212.06 176.992 235.758 209.565 248 224.299L223.423 249.708C200.751 226.66 172.968 212.007 156 205.147L204.561 152.708Z" fill="#F1F1F1"/>
<path fill-rule="evenodd" clip-rule="evenodd" d="M173.169 142.516L165.956 129.177L168.789 127.708L176 141.049L173.169 142.516ZM155.021 155.446L142.201 142.892L144.467 140.673L157.287 153.227L155.021 155.446ZM147.026 174.708L131 171.57L131.629 168.49L147.655 171.63L147.026 174.708Z" fill="#FEBF06"/>
</svg>
