<svg width="575" height="418" viewBox="0 0 575 418" fill="none" xmlns="http://www.w3.org/2000/svg">
<path d="M284.034 308.345C281.406 304.978 277.6 302.969 273.661 302.276C269.716 301.478 265.712 302.085 261.986 303.436C258.277 304.855 254.788 306.925 251.596 309.443C248.35 311.887 245.492 314.644 245.219 317.86C245.014 319.447 245.423 320.852 246.398 321.81C247.357 322.779 248.977 323.294 250.704 323.334C252.465 323.381 254.186 323.008 255.87 322.176C257.584 321.343 259.269 320.218 261.024 319.042C262.778 317.872 264.591 316.598 266.654 315.652C268.711 314.704 270.879 314.059 273.08 313.756C277.476 313.164 281.991 313.852 285.778 315.819C281.65 314.805 277.408 314.823 273.523 315.937C269.543 316.939 266.384 319.198 263.122 321.89C261.478 323.219 259.738 324.605 257.688 325.708C255.641 326.859 253.156 327.59 250.685 327.627C248.223 327.671 245.455 326.993 243.329 325.003C241.19 323.025 240.366 319.922 240.72 317.334C241.028 314.696 242.34 312.303 243.906 310.505C245.489 308.677 247.27 307.255 249.049 306.003C252.638 303.497 256.562 301.268 260.911 300.081C265.204 298.845 269.97 298.698 274.222 300.134C278.441 301.506 282.269 304.421 284.034 308.345Z" fill="#E4DCFD"/>
<path d="M362.896 347.102C363.127 347.408 363.359 347.712 363.594 348.015" stroke="#EAEAEA" stroke-width="4.363" stroke-miterlimit="10"/>
<path d="M365.025 349.808C393.739 384.69 450.301 392.539 487.704 366.875C526.056 340.559 539.008 283.74 516.751 242.899C494.493 202.059 440.678 182.067 396.795 197.482C379.148 203.68 362.656 215.678 355.423 232.925C344.987 257.808 357.579 288.774 380.604 302.841C403.629 316.908 434.134 315.316 457.969 302.67C499.918 280.415 519.918 224.888 503.477 180.338C487.035 135.788 437.349 106.732 390.201 112.402C343.054 118.071 302.278 156.717 292.201 203.123C282.601 247.331 297.94 296.354 278.297 337.105C262.228 370.44 226.099 389.701 190.133 398.41C149.644 408.214 104.867 406.862 68.8147 385.987C32.7626 365.113 8.21207 321.978 16.9237 281.24C22.9064 253.263 42.9922 230.144 65.9818 213.117C92.7181 193.314 125.364 179.873 158.593 181.539C191.822 183.204 225.116 201.997 238.609 232.409C252.103 262.821 241.045 303.638 211.378 318.698C185.956 331.604 154.026 323.785 130.943 307.052C90.6697 277.857 72.1119 221.875 86.9709 174.403C101.83 126.932 148.994 91.5217 198.727 90.4995C224.894 89.9616 250.363 97.9605 275.996 103.252C301.628 108.544 329.346 110.931 353.069 99.8744C376.792 88.8172 394.012 60.3298 384.573 35.9182C377.603 17.8941 358.422 7.04152 339.333 4.03255C306.534 -1.13794 272.195 13.5337 250.363 38.5514C228.531 63.5693 218.652 97.732 219.88 130.914C221.108 164.095 232.798 196.309 249.765 224.851C273.538 264.843 308.897 302.019 310.277 348.523C310.569 358.367 309.143 368.562 304.034 376.981C299.323 384.742 291.026 390.703 282.052 391.198" stroke="#EAEAEA" stroke-width="4.363" stroke-miterlimit="10" stroke-dasharray="8.72 8.72"/>
<path d="M280.904 391.231C280.521 391.232 280.138 391.223 279.756 391.204" stroke="#EAEAEA" stroke-width="4.363" stroke-miterlimit="10"/>
<path d="M499.353 415.052C506.772 411.04 513.945 406.533 520.857 401.892C503.173 397.624 484.154 399.083 467.328 405.998C461.495 408.395 455.938 411.447 450.766 415.052L499.353 415.052Z" fill="#A996F8"/>
<path d="M478.085 415.052C485.233 409.48 491.665 402.998 497.109 395.747C508.986 379.924 517.924 359.562 533.914 347.911C512.443 350.672 492.839 362.118 476.809 376.666C464.224 388.087 453.579 401.4 443.406 415.052L478.085 415.052Z" fill="#E4DCFD"/>
<path d="M459.703 415.052C461.145 412.91 462.498 410.704 463.781 408.471C484.763 371.958 491.069 326.955 478.712 286.696C458.432 308.641 445.302 337.091 441.761 366.761C440.336 378.7 440.421 390.788 438.821 402.705C438.264 406.847 437.472 411 436.367 415.052H459.703Z" fill="#E4DCFD"/>
<path d="M412.747 415.052H441.515C448.602 402.426 452.803 388.552 453.779 373.255C455.349 348.651 448.432 324.487 433.941 304.541C421.792 316.621 414.637 333.065 411.485 349.905C408.334 366.745 408.942 384.069 410.591 401.122C411.034 405.71 411.669 410.467 412.747 415.052Z" fill="#E4DCFD"/>
<path d="M483.495 389.354C485.405 384.051 486.027 378.288 485.294 372.699M457.035 413.244C466.419 407.741 474.31 399.488 481.654 391.287C491.445 380.351 501.302 368.78 514.593 362.55" stroke="white" stroke-width="4.363" stroke-miterlimit="10"/>
<path d="M491.717 380.183C495.706 378.396 500.267 377.911 504.543 378.82M497.909 374.052C499.409 371.176 499.897 367.784 499.267 364.602M479.841 393.338C484.466 391.361 489.844 391.214 494.571 392.933M431.664 366.468C435.222 360.382 440.253 355.163 446.205 351.385" stroke="white" stroke-width="4.363" stroke-miterlimit="10"/>
<path d="M430.697 414.771C427.423 400.266 429.123 384.687 431.289 369.786C433.931 351.619 437.129 332.879 432.448 315.128" stroke="white" stroke-width="4.363" stroke-miterlimit="10"/>
<path d="M433.871 351.221C432.386 345.959 429.194 341.193 424.892 337.819M434.788 340.362C436.345 336.615 439.209 333.427 442.767 331.479M430.772 373.168C428.959 367.144 424.787 361.864 419.346 358.707M462.604 358.867C460.672 352.086 457.099 345.78 452.274 340.639" stroke="white" stroke-width="4.363" stroke-miterlimit="10"/>
<path d="M446.367 414.233C457.294 399.481 460.18 380.426 462.143 362.173C464.105 343.921 465.671 324.975 474.623 308.947" stroke="white" stroke-width="4.363" stroke-miterlimit="10"/>
<path d="M464.262 343.55C467.009 338.823 471.288 335.002 476.294 332.804M466.076 332.804C465.501 328.788 463.521 324.987 460.559 322.215M461.802 365.578C465.057 360.195 470.412 356.119 476.467 354.415" stroke="white" stroke-width="4.363" stroke-miterlimit="10"/>
<path d="M74.8144 415.052C67.3961 411.04 60.2233 406.533 53.3105 401.892C70.9946 397.624 90.0135 399.083 106.84 405.998C112.673 408.395 118.23 411.447 123.402 415.052L74.8144 415.052Z" fill="#A996F8"/>
<path d="M96.0852 415.052C88.9374 409.48 82.5052 402.998 77.0615 395.747C65.184 379.924 56.2463 359.562 40.2559 347.911C61.7266 350.672 81.3311 362.118 97.3613 376.666C109.946 388.087 120.591 401.4 130.764 415.052L96.0852 415.052Z" fill="#E4DCFD"/>
<path d="M114.468 415.052C113.026 412.91 111.673 410.704 110.389 408.471C89.4083 371.958 83.1021 326.955 95.4591 286.696C115.739 308.641 128.869 337.091 132.41 366.761C133.835 378.7 133.75 390.788 135.35 402.705C135.906 406.847 136.699 411 137.804 415.052H114.468Z" fill="#E4DCFD"/>
<path d="M164.655 415.052H135.887C128.8 402.426 124.599 388.552 123.623 373.255C122.053 348.651 128.97 324.487 143.461 304.541C155.61 316.621 162.765 333.065 165.917 349.905C169.068 366.745 168.46 384.069 166.811 401.122C166.368 405.71 165.733 410.467 164.655 415.052Z" fill="#E4DCFD"/>
<path d="M94.978 389.354C93.0681 384.051 92.446 378.288 93.1797 372.699M121.438 413.244C112.055 407.741 104.164 399.488 96.8201 391.287C87.0289 380.351 77.1719 368.78 63.8809 362.55" stroke="white" stroke-width="4.363" stroke-miterlimit="10"/>
<path d="M86.754 380.183C82.7646 378.396 78.2039 377.911 73.9277 378.82M80.5621 374.052C79.0614 371.176 78.574 367.784 79.2035 364.602M98.6301 393.338C94.0047 391.361 88.6262 391.214 83.8992 392.933M146.807 366.468C143.249 360.382 138.218 355.163 132.266 351.385" stroke="white" stroke-width="4.363" stroke-miterlimit="10"/>
<path d="M147.775 414.771C151.049 400.266 149.349 384.687 147.183 369.786C144.541 351.619 141.343 332.879 146.024 315.128" stroke="white" stroke-width="4.363" stroke-miterlimit="10"/>
<path d="M144.6 351.221C146.085 345.959 149.277 341.193 153.578 337.819M143.682 340.362C142.126 336.615 139.262 333.427 135.703 331.479M147.699 373.168C149.512 367.144 153.684 361.864 159.125 358.707M115.867 358.867C117.798 352.086 121.372 345.78 126.197 340.639" stroke="white" stroke-width="4.363" stroke-miterlimit="10"/>
<path d="M132.105 414.233C121.178 399.481 118.293 380.426 116.33 362.173C114.367 343.921 112.802 324.975 103.85 308.947" stroke="white" stroke-width="4.363" stroke-miterlimit="10"/>
<path d="M114.209 343.55C111.462 338.823 107.184 335.002 102.178 332.804M112.396 332.804C112.971 328.788 114.951 324.987 117.913 322.215M116.67 365.578C113.414 360.195 108.06 356.119 102.004 354.415" stroke="white" stroke-width="4.363" stroke-miterlimit="10"/>
<path d="M0 414.688H574.169V417.14H0V414.688Z" fill="#A996F8"/>
<path d="M464.803 180.564V274.032C464.803 278.49 461.202 282.104 456.744 282.104H422.994C418.55 282.104 414.936 278.49 414.936 274.032V180.564C414.936 176.12 418.55 172.506 422.994 172.506H456.744C461.202 172.506 464.803 176.12 464.803 180.564Z" fill="#E4DCFD"/>
<path d="M452.721 195.643C452.721 202.746 446.972 208.509 439.869 208.509C432.766 208.509 427.018 202.746 427.018 195.643C427.018 188.555 432.766 182.791 439.869 182.791C446.972 182.791 452.721 188.555 452.721 195.643Z" fill="#C8BAFC"/>
<path d="M446.453 191.976V193.892H442.62V191.976C442.62 191.724 442.67 191.475 442.766 191.243C442.862 191.01 443.003 190.799 443.181 190.621C443.359 190.443 443.57 190.302 443.803 190.205C444.036 190.109 444.285 190.06 444.536 190.06C445.58 190.06 446.453 190.916 446.453 191.976ZM437.112 191.976V193.892H433.279V191.976C433.279 191.724 433.328 191.475 433.425 191.243C433.521 191.01 433.662 190.799 433.84 190.621C434.018 190.443 434.229 190.302 434.462 190.205C434.694 190.109 434.944 190.06 435.195 190.06C436.239 190.06 437.112 190.916 437.112 191.976ZM437.95 199.325V197.409H441.782V199.325C441.782 199.576 441.733 199.826 441.637 200.058C441.54 200.291 441.399 200.502 441.221 200.68C441.043 200.858 440.832 200.999 440.599 201.095C440.367 201.191 440.118 201.241 439.866 201.241C438.822 201.241 437.95 200.384 437.95 199.325Z" fill="#384562"/>
<path d="M452.721 228.397C452.721 235.5 446.972 241.263 439.869 241.263C432.766 241.263 427.018 235.5 427.018 228.397C427.018 221.309 432.766 215.545 439.869 215.545C446.972 215.545 452.721 221.309 452.721 228.397Z" fill="#C8BAFC"/>
<path d="M446.453 224.73V226.646H442.62V224.73C442.62 224.478 442.67 224.229 442.766 223.997C442.862 223.764 443.003 223.553 443.181 223.375C443.359 223.197 443.57 223.056 443.803 222.959C444.036 222.863 444.285 222.814 444.536 222.814C445.58 222.814 446.453 223.671 446.453 224.73ZM437.112 224.73V226.646H433.279V224.73C433.279 224.478 433.328 224.229 433.425 223.997C433.521 223.764 433.662 223.553 433.84 223.375C434.018 223.197 434.229 223.056 434.462 222.959C434.694 222.863 434.944 222.814 435.195 222.814C436.239 222.814 437.112 223.671 437.112 224.73ZM437.95 232.079V230.163H441.782V232.079C441.782 232.33 441.733 232.58 441.637 232.812C441.54 233.045 441.399 233.256 441.221 233.434C441.043 233.612 440.832 233.753 440.599 233.849C440.367 233.945 440.118 233.995 439.866 233.995C438.822 233.995 437.95 233.138 437.95 232.079Z" fill="#384562"/>
<path d="M452.721 261.151C452.721 268.254 446.972 274.017 439.869 274.017C432.766 274.017 427.018 268.254 427.018 261.151C427.018 254.063 432.766 248.299 439.869 248.299C446.972 248.299 452.721 254.063 452.721 261.151Z" fill="#C8BAFC"/>
<path d="M446.453 257.484V259.4H442.62V257.484C442.62 257.232 442.67 256.983 442.766 256.751C442.862 256.518 443.003 256.307 443.181 256.129C443.359 255.951 443.57 255.81 443.803 255.714C444.036 255.617 444.285 255.568 444.536 255.568C445.58 255.568 446.453 256.425 446.453 257.484ZM437.112 257.484V259.4H433.279V257.484C433.279 257.232 433.328 256.983 433.425 256.751C433.521 256.518 433.662 256.307 433.84 256.129C434.018 255.951 434.229 255.81 434.462 255.714C434.694 255.617 434.944 255.568 435.195 255.568C436.239 255.568 437.112 256.425 437.112 257.484ZM437.95 264.832V262.916H441.782V264.832C441.782 265.084 441.733 265.333 441.637 265.566C441.54 265.798 441.399 266.01 441.221 266.188C441.043 266.366 440.832 266.507 440.599 266.603C440.367 266.699 440.118 266.749 439.866 266.748C438.822 266.748 437.95 265.892 437.95 264.832Z" fill="#384562"/>
<path d="M392.97 263.836C395.097 272.127 397.234 280.496 397.54 289.05C397.846 297.604 396.175 306.475 391.268 313.488C386.362 320.502 377.844 325.307 369.343 324.313C360.888 323.325 354.099 317.173 346.512 313.314C333.988 306.943 318.387 307.027 305.933 313.533C292.241 320.684 283.372 334.26 274.032 346.562C264.692 358.865 253.019 371.134 237.743 373.425C225.342 375.285 212.145 370.505 203.268 361.648C182.694 341.121 145.81 355.619 142.402 396.431" stroke="#C8BAFC" stroke-width="8.726" stroke-miterlimit="10"/>
<path d="M398.734 274.528L400.174 282.578C400.538 284.612 399.187 286.55 397.153 286.913C395.119 287.277 393.181 285.927 392.817 283.893L391.377 275.843L398.734 274.528Z" fill="#384562"/>
<path d="M394.484 280.562C385.758 281.903 377.58 275.924 376.218 267.175L374.064 253.195L373.932 252.36L373.844 251.832L372.723 244.49L404.333 239.588L405.454 246.952L405.541 247.501L405.673 248.337L407.827 262.295C409.19 271.044 403.211 279.199 394.484 280.562Z" fill="#C8BAFC"/>
<path d="M404.329 239.617C404.621 241.51 397.779 244.154 389.046 245.503C380.334 246.848 373.013 246.392 372.72 244.499C372.422 242.57 379.265 239.926 387.977 238.58C396.709 237.231 404.031 237.688 404.329 239.617ZM405.671 248.337C402 250.228 396.791 251.7 390.153 252.733C386.437 253.305 382.767 253.59 379.558 253.59C378.392 253.59 376.304 253.59 374.062 253.195L373.93 252.36L373.842 251.832C376.15 252.272 378.371 252.272 379.558 252.272C382.701 252.272 386.284 251.985 389.955 251.436C396.703 250.381 401.913 248.886 405.452 246.952L405.54 247.501L405.671 248.337Z" fill="#384562"/>
<path d="M404.329 239.617C404.621 241.51 397.779 244.154 389.046 245.503C380.334 246.848 373.013 246.392 372.72 244.499C372.422 242.57 379.265 239.926 387.977 238.58C396.709 237.231 404.031 237.688 404.329 239.617Z" fill="#384562"/>
<path d="M378.967 226.788L381.489 243.115C381.676 244.326 378.135 244.873 377.948 243.662L375.426 227.334C375.275 226.358 375.932 225.433 376.91 225.282C377.888 225.131 378.816 225.811 378.967 226.788ZM387.211 227.354L389.733 243.682C389.92 244.893 386.379 245.44 386.192 244.229L383.67 227.901C383.519 226.924 384.177 225.999 385.154 225.848C386.132 225.697 387.06 226.377 387.211 227.354ZM394.928 224.49L397.45 240.818C397.637 242.029 394.096 242.576 393.909 241.365L391.387 225.037C391.236 224.06 391.894 223.135 392.871 222.984C393.849 222.833 394.777 223.513 394.928 224.49Z" fill="#C8BAFC"/>
<path d="M395.64 203.963L390.368 216.319L395.814 214.522L391.456 223.446L401.267 211.505L394.102 213.369L395.64 203.963ZM375.405 205.035L374.178 218.413L378.81 215.032L377.398 224.863L383.074 210.488L376.827 214.46L375.405 205.035Z" fill="#F38255"/>
<path d="M279.614 301.985L232.699 177.041L317.103 160.952L344.472 277.275L279.614 301.985Z" fill="#FBAE5C"/>
<path d="M329.157 269.542C329.348 268.562 328.874 267.722 328.291 267.11C327.7 266.509 326.921 266.064 326.075 265.535C325.234 265.009 324.339 264.197 323.703 263.313C323.041 262.428 322.593 261.449 322.191 260.504C321.802 259.56 321.443 258.629 321.199 257.548C320.95 256.484 320.817 255.286 321.053 253.988C321.269 252.706 322.021 251.353 323.083 250.472C324.142 249.591 325.398 249.096 326.67 248.915C327.925 248.746 329.321 248.928 330.46 249.407C331.576 249.876 332.587 250.564 333.433 251.43C334.242 252.268 334.91 253.196 335.402 254.2C335.915 255.208 336.283 256.32 336.371 257.537C336.466 258.73 336.236 260.125 335.465 261.179C334.715 262.194 333.881 262.738 333.306 263.33C332.142 264.347 331.701 266.319 332.504 268.119C330.962 266.85 330.513 264.183 331.779 262.172C332.364 261.235 333.025 260.515 333.267 259.872C333.501 259.271 333.527 258.651 333.353 257.951C332.991 256.581 332.006 255.099 330.873 254.105C329.715 253.098 328.423 252.594 327.188 252.782C326.558 252.856 325.966 253.106 325.534 253.44C325.094 253.77 324.84 254.179 324.662 254.773C324.31 255.962 324.656 257.762 325.07 259.547C325.524 261.312 326.027 262.798 327.302 264.077C327.915 264.782 328.709 265.507 329.189 266.518C329.657 267.47 329.782 268.725 329.157 269.542Z" fill="#384562"/>
<path d="M382.331 326.044C375.917 354.054 334.208 373.893 334.208 373.893C334.208 373.893 329.837 389.349 310.583 396.92C299.382 401.343 286.086 407.627 271.724 411.413C267.717 412.467 263.645 413.339 259.495 413.911C258.454 414.054 257.4 414.184 256.347 414.275C253.012 414.64 249.656 414.77 246.303 414.665C245.256 414.642 244.211 414.585 243.168 414.496C241.919 414.405 240.67 414.275 239.421 414.119C236.195 413.69 234.009 412.675 232.695 411.165C231.745 410.099 231.225 408.798 231.082 407.302C230.718 403.906 232.201 399.548 234.738 394.761C237.235 390.025 240.761 384.874 244.508 379.891C252.183 369.626 260.783 359.999 263.346 355.81C265.74 351.881 267.535 344.362 269.096 335.919C270.41 328.919 271.568 321.296 272.804 314.583C274.052 307.792 275.393 301.938 277.045 298.633C280.921 290.893 297.431 273.655 321.837 266.461C326.349 265.115 330.973 264.178 335.653 263.664C337.461 263.456 339.295 263.326 341.169 263.247C344.291 263.131 350.861 266.76 357.405 272.341C363.129 277.207 368.827 283.569 372.21 290.203C372.21 290.229 372.223 290.242 372.236 290.268C372.951 291.686 373.563 293.104 374.044 294.536C374.044 294.536 381.225 296.266 383.359 306.843C384.282 311.409 384.27 317.614 382.331 326.044Z" fill="#F38255"/>
<path d="M346.069 287.307C348.966 283.019 347.838 277.195 343.55 274.298C339.262 271.401 333.437 272.528 330.54 276.817C327.643 281.105 328.771 286.929 333.059 289.826C337.347 292.723 343.172 291.595 346.069 287.307Z" fill="#E26439"/>
<path d="M281.131 331.255C278.425 335.262 273.507 336.901 269.097 335.626C270.411 328.627 271.569 321.003 272.805 314.29C274.678 314.407 276.552 315.019 278.217 316.138C283.186 319.494 284.5 326.272 281.131 331.255ZM314.586 300.432C320.389 304.352 321.913 312.224 317.992 318.027C314.072 323.829 306.2 325.354 300.397 321.433C294.595 317.513 293.07 309.641 296.991 303.838C300.911 298.036 308.783 296.511 314.586 300.432ZM278.217 362.549C283.21 365.923 284.523 372.704 281.154 377.69C277.781 382.683 271 383.996 266.007 380.622C261.014 377.249 259.701 370.468 263.074 365.475C266.443 360.489 273.224 359.176 278.217 362.549ZM294.571 348.37C292.337 351.676 287.848 352.539 284.542 350.305C281.236 348.071 280.368 343.589 282.602 340.283C284.836 336.977 289.318 336.11 292.624 338.343C295.93 340.577 296.804 345.064 294.571 348.37ZM310.818 275.227C314.59 277.776 315.583 282.901 313.034 286.674C310.486 290.446 305.36 291.438 301.587 288.89C297.815 286.341 296.823 281.215 299.371 277.443C301.92 273.671 307.045 272.678 310.818 275.227ZM247.306 392.218C244.548 396.289 239.019 397.37 234.934 394.611C234.869 394.573 234.804 394.52 234.738 394.469C237.236 389.733 240.762 384.581 244.508 379.599C244.648 379.673 244.782 379.756 244.912 379.846C248.997 382.591 250.064 388.133 247.306 392.218ZM372.211 289.911C369.01 290.34 365.654 289.637 362.766 287.686C357.575 284.186 355.546 277.721 357.406 272.048C363.13 276.914 368.828 283.276 372.211 289.911Z" fill="#E26439"/>
<path opacity="0.1" d="M383.361 306.842L380.798 305.997C379.979 305.84 375.972 305.125 370.482 305.125C359.202 305.125 343.643 307.987 333.638 321.608C321.852 337.675 319.068 347.731 316.83 355.81C315.75 359.7 314.814 363.07 313.096 366.4C309.61 373.204 290.889 397.168 271.726 411.413C267.719 412.467 263.647 413.339 259.497 413.911C258.456 414.054 257.402 414.184 256.349 414.275C253.014 414.64 249.658 414.771 246.305 414.666C245.259 414.642 244.213 414.586 243.17 414.496C241.921 414.405 240.672 414.275 239.423 414.119C236.197 413.69 234.011 412.675 232.697 411.166C231.747 410.099 231.227 408.798 231.084 407.302L232.593 407.263C234.896 407.211 237.276 407.081 239.891 406.873C259.145 405.286 293.256 365.399 298.499 355.173C299.852 352.558 300.633 349.709 301.634 346.092C303.911 337.857 307.02 326.578 319.679 309.314C331.622 293.065 349.731 289.657 362.818 289.657C366.812 289.657 370.117 289.995 372.237 290.268C372.953 291.686 373.564 293.104 374.046 294.535C374.046 294.535 381.228 296.266 383.361 306.842Z" fill="black"/>
<path d="M382.334 326.044C375.914 354.048 334.215 373.89 334.215 373.89C334.215 373.89 329.844 389.344 310.582 396.925C296.255 402.56 278.548 411.269 259.491 413.916C258.45 414.053 257.408 414.189 256.349 414.274C253.016 414.637 249.661 414.768 246.309 414.667C245.25 414.633 244.209 414.581 243.167 414.496C241.92 414.411 240.673 414.274 239.427 414.12C236.2 413.693 234.014 412.669 232.699 411.166C235.039 411.115 237.532 410.979 240.196 410.757C262.343 408.947 297.092 366.479 301.976 356.951C306.876 347.423 305.066 335.845 322.825 311.632C340.601 287.435 374.047 294.533 374.047 294.533C374.047 294.533 388.755 298.057 382.334 326.044Z" fill="#384562"/>
<path d="M366.631 327.692C363.848 331.538 358.791 332.642 355.353 330.155C351.902 327.658 351.381 322.518 354.164 318.672C356.956 314.812 362.001 313.699 365.452 316.195C368.89 318.683 369.423 323.832 366.631 327.692Z" fill="#2B3951"/>
<path d="M364.415 326.085C362.622 328.562 359.364 329.274 357.149 327.671C354.927 326.063 354.591 322.752 356.384 320.274C358.182 317.788 361.432 317.071 363.655 318.679C365.87 320.281 366.213 323.598 364.415 326.085Z" fill="#384562"/>
<path d="M339.377 341.915C336.594 345.761 331.537 346.865 328.099 344.378C324.648 341.881 324.127 336.741 326.91 332.895C329.702 329.035 334.748 327.922 338.198 330.418C341.637 332.906 342.169 338.055 339.377 341.915Z" fill="#2B3951"/>
<path d="M337.163 340.308C335.37 342.786 332.112 343.497 329.897 341.894C327.675 340.286 327.339 336.975 329.132 334.498C330.93 332.011 334.18 331.294 336.403 332.902C338.618 334.504 338.961 337.822 337.163 340.308Z" fill="#384562"/>
<path d="M331.356 368.086C328.573 371.932 323.516 373.036 320.077 370.549C316.627 368.052 316.106 362.912 318.888 359.066C321.681 355.206 326.726 354.093 330.177 356.589C333.615 359.077 334.148 364.226 331.356 368.086Z" fill="#2B3951"/>
<path d="M329.141 366.479C327.348 368.956 324.091 369.668 321.876 368.065C319.653 366.457 319.318 363.146 321.11 360.668C322.909 358.182 326.159 357.465 328.382 359.073C330.597 360.675 330.94 363.992 329.141 366.479Z" fill="#384562"/>
<path d="M354.434 365.59C350.954 368.818 346.539 369.734 344.588 367.631C342.63 365.521 343.881 361.195 347.361 357.966C350.853 354.726 355.261 353.803 357.219 355.913C359.17 358.015 357.926 362.35 354.434 365.59Z" fill="#2B3951"/>
<path d="M353.177 364.232C350.935 366.311 348.092 366.901 346.835 365.547C345.574 364.187 346.379 361.4 348.621 359.321C350.87 357.233 353.71 356.639 354.971 357.998C356.228 359.352 355.427 362.144 353.177 364.232Z" fill="#384562"/>
<path d="M375.029 345.676C372.532 349.126 368.441 350.44 365.905 348.605C363.36 346.764 363.337 342.474 365.833 339.023C368.339 335.56 372.421 334.24 374.966 336.081C377.502 337.916 377.534 342.213 375.029 345.676Z" fill="#2B3951"/>
<path d="M373.395 344.49C371.787 346.713 369.152 347.559 367.518 346.377C365.879 345.191 365.864 342.427 367.472 340.204C369.086 337.974 371.716 337.123 373.355 338.31C374.989 339.491 375.009 342.259 373.395 344.49Z" fill="#384562"/>
<path d="M293.658 401.314C289.998 404.337 285.216 404.608 282.994 401.918C280.765 399.219 281.942 394.584 285.602 391.561C289.275 388.527 294.049 388.246 296.279 390.946C298.5 393.636 297.331 398.281 293.658 401.314Z" fill="#2B3951"/>
<path d="M292.229 399.577C289.872 401.524 286.791 401.699 285.36 399.966C283.924 398.227 284.682 395.241 287.04 393.294C289.406 391.34 292.481 391.159 293.918 392.898C295.349 394.631 294.595 397.623 292.229 399.577Z" fill="#384562"/>
<path d="M271.563 411.907C267.17 413.707 262.644 412.839 261.47 409.973C260.291 407.096 262.912 403.314 267.305 401.514C271.713 399.708 276.235 400.565 277.413 403.441C278.588 406.308 275.971 410.101 271.563 411.907Z" fill="#2B3951"/>
<path d="M270.808 410.057C267.979 411.216 265.063 410.657 264.307 408.811C263.548 406.958 265.236 404.521 268.066 403.362C270.905 402.199 273.818 402.751 274.577 404.604C275.334 406.45 273.648 408.893 270.808 410.057Z" fill="#384562"/>
<path d="M259.49 413.916C258.449 414.053 257.407 414.189 256.349 414.274C253.015 414.637 249.66 414.768 246.308 414.667C245.25 414.633 244.208 414.581 243.166 414.496C244.208 411.935 247.367 410.005 251.175 409.869C254.983 409.749 258.278 411.44 259.49 413.916Z" fill="#2B3951"/>
<path d="M256.349 414.274C253.015 414.637 249.661 414.768 246.309 414.667C247.128 413.233 249.024 412.191 251.261 412.123C253.463 412.055 255.41 412.926 256.349 414.274Z" fill="#384562"/>
<path opacity="0.1" d="M381.924 302.255C381.788 302.21 381.713 302.195 381.713 302.195C381.713 302.195 348.27 295.099 330.495 319.293C312.734 343.501 314.541 355.085 309.63 364.606C305.653 372.364 281.927 401.905 261.289 413.64H261.274C260.687 413.746 260.099 413.821 259.497 413.912C258.457 414.047 257.403 414.183 256.348 414.273C253.017 414.638 249.665 414.769 246.315 414.665C245.246 414.635 244.207 414.574 243.167 414.499C241.917 414.409 240.681 414.273 239.431 414.123C236.207 413.701 234.008 412.676 232.697 411.17C235.047 411.11 237.533 410.974 240.199 410.763C262.344 408.94 297.097 366.474 301.978 356.953C306.874 347.418 305.066 335.848 322.827 311.625C340.603 287.432 374.046 294.527 374.046 294.527C374.046 294.527 379.032 295.732 381.924 302.255Z" fill="black"/>
<path d="M361.517 293.573C358.603 293.625 355.325 293.872 351.903 294.47C346.009 282.788 334.704 272.172 321.838 266.461C326.35 265.115 330.974 264.179 335.654 263.664C347.193 271.183 356.547 281.89 361.517 293.573Z" fill="#E4DCFD"/>
<path d="M343.008 49.2974C343.008 73.097 323.712 92.4144 299.914 92.4144C276.114 92.4144 256.819 73.097 256.819 49.2974C256.819 25.4988 276.114 6.20302 299.914 6.20302C323.712 6.20302 343.008 25.4988 343.008 49.2974ZM236.574 92.3868H215.507V76.4184H184.595C174.348 76.4184 168.324 64.9031 174.172 56.4881C186.937 38.1166 204.005 13.5582 204.61 12.7094C206.792 9.64729 209.266 6.17564 214.746 6.17564H236.574V55.3514H251.094V76.4187H236.574V92.3868ZM200.541 55.3511H215.507V33.8417C211.322 39.832 205.894 47.6378 200.541 55.3511ZM410.964 92.4142H389.897V76.4458H358.985C348.738 76.4458 342.715 64.9305 348.562 56.5155C361.328 38.144 378.395 13.5856 379 12.7368C381.183 9.67466 383.657 6.20302 389.136 6.20302H410.964V55.3785H425.484V76.4458H410.964L410.964 92.4142ZM374.932 55.3785H389.897V33.8691C385.712 39.8594 380.284 47.6654 374.932 55.3785Z" fill="#F38255"/>
<path d="M318.91 38.7124V44.2382H307.858V38.7124C307.858 35.6566 310.328 33.1866 313.383 33.1866C316.394 33.1864 318.91 35.6566 318.91 38.7124ZM291.97 38.7124V44.2382H280.918V38.7124C280.918 35.6566 283.388 33.1866 286.444 33.1866C289.454 33.1864 291.97 35.6566 291.97 38.7124ZM294.388 59.905V54.3792H305.44V59.905C305.44 62.9608 302.97 65.4308 299.914 65.4308C296.904 65.4308 294.388 62.9605 294.388 59.905Z" fill="#384562"/>
</svg>
