<svg width="31" height="31" viewBox="0 0 31 31" fill="none" xmlns="http://www.w3.org/2000/svg">
<path d="M30.4343 15.616V15.6517C30.4311 16.1579 30.0179 16.6656 29.1996 17.0476L1.77493 29.9023C0.126274 30.6763 -0.483448 30.0459 0.414289 28.5024L5.43247 19.8737C6.16012 18.6144 6.5765 17.1625 6.5765 15.616C6.5765 14.0686 6.16012 12.616 5.43247 11.3583L0.414289 2.7295C-0.483448 1.18527 0.126274 0.554843 1.77493 1.3289L29.1996 14.1828C30.0179 14.5686 30.4311 15.0741 30.4343 15.5803V15.616Z" fill="#6950E8"/>
<mask id="mask0_2669_16987" style="mask-type:alpha" maskUnits="userSpaceOnUse" x="0" y="0" width="31" height="16">
<rect y="0.650024" width="30.5" height="15" fill="#D9D9D9"/>
</mask>
<g mask="url(#mask0_2669_16987)">
<path d="M30.4343 15.616V15.6517C30.4311 16.1579 30.0179 16.6656 29.1996 17.0476L1.77493 29.9023C0.126274 30.6763 -0.483448 30.0459 0.414289 28.5024L5.43247 19.8737C6.16012 18.6144 6.5765 17.1625 6.5765 15.616C6.5765 14.0686 6.16012 12.616 5.43247 11.3583L0.414289 2.7295C-0.483448 1.18527 0.126274 0.554844 1.77493 1.3289L29.1996 14.1828C30.0179 14.5686 30.4311 15.0741 30.4343 15.5803V15.616Z" fill="#4317CA"/>
</g>
</svg>
