<svg width="50" height="51" viewBox="0 0 50 51" fill="none" xmlns="http://www.w3.org/2000/svg">
<path fill-rule="evenodd" clip-rule="evenodd" d="M31.3028 22.2463C29.8169 22.0246 29.0278 22.1625 27.6032 22.531C27.4062 22.5963 27.2119 22.6685 27.0206 22.7474C26.4379 22.9843 25.8831 23.2867 25.3673 23.6492C24.9546 23.9361 24.5662 24.2589 24.2069 24.6148C23.2825 25.5242 22.5834 26.6371 22.1657 27.8648C21.6704 29.1001 21.6274 29.9126 21.7966 31.4872C21.9828 33.2053 22.6973 34.8326 23.8537 36.1381C25.2274 37.6888 27.127 38.6754 29.1857 38.9072C30.5495 39.1439 31.9275 39.2901 33.3107 39.3447C35.7482 39.4547 38.9157 39.3447 38.9157 39.3447C38.9157 39.3447 39.0257 36.131 38.9157 33.6985C38.8631 32.3288 38.7169 30.9644 38.4782 29.6147C38.2685 27.5807 37.3142 25.696 35.7989 24.3231C34.5409 23.1833 32.97 22.463 31.3028 22.2463ZM30.1457 25.281H29.9369C29.7837 25.2755 29.6302 25.2826 29.4782 25.3022C28.32 25.4607 27.2486 26.0035 26.4357 26.8435C25.6315 27.6327 25.1115 28.6661 24.9569 29.7822C24.9163 30.023 24.8954 30.2668 24.8944 30.511C24.8898 31.9386 25.4517 33.3097 26.4569 34.3235C27.2957 35.151 28.3885 35.6723 29.5594 35.8035L33.6644 36.241C34.2482 36.3035 35.8107 36.241 35.8107 36.241C35.8107 36.241 35.8732 34.6572 35.8107 34.0535L35.3732 29.9485C35.2318 28.6623 34.6196 27.474 33.6545 26.6122C32.6893 25.7505 31.4395 25.2763 30.1457 25.281Z" fill="#4B5563"/>
<path d="M21.7508 31.0135C21.4631 30.8523 21.186 30.6721 20.9214 30.4741L17.7354 27.9479L17.6938 27.9155L17.606 27.8441L17.5254 27.7782C17.5404 27.5019 17.5509 27.1946 17.5571 26.8608C17.5452 24.2478 18.569 21.7359 20.4038 19.8754C21.9863 18.4466 25.2581 18.0657 26.9419 18.0657C27.2327 18.0548 27.5041 18.0412 27.7549 18.0254C27.7618 18.035 27.7688 18.0442 27.7769 18.0529L30.2671 21.1455C30.555 21.469 30.8029 21.8248 31.006 22.2052C29.7057 22.0442 28.9302 22.1874 27.6035 22.5306C27.4065 22.5959 27.2122 22.6681 27.021 22.7469C26.4382 22.9839 25.8834 23.2863 25.3676 23.6488C24.9549 23.9356 24.5666 24.2585 24.2073 24.6143C23.2828 25.5237 22.5838 26.6367 22.166 27.8643C21.7229 28.9696 21.6418 29.7364 21.7508 31.0135Z" fill="#907AF1"/>
<path d="M18.7539 47.6988H31.2539C42.5677 47.6988 47.4014 42.865 47.4014 31.5525V19.0525C47.4014 7.73878 42.5677 2.90503 31.2539 2.90503H27.0877C26.6742 2.90797 26.2785 3.07354 25.9861 3.36593C25.6937 3.65832 25.5281 4.05404 25.5252 4.46753C25.5281 4.88102 25.6937 5.27674 25.9861 5.56913C26.2785 5.86152 26.6742 6.02708 27.0877 6.03003H31.2552C40.8602 6.03003 44.2764 9.44628 44.2764 19.0513V31.5513C44.2764 41.1563 40.8589 44.5725 31.2552 44.5725H18.7552C9.14894 44.5738 5.73145 41.155 5.73145 31.5525V27.385C5.7285 26.9715 5.56293 26.5758 5.27054 26.2834C4.97816 25.991 4.58244 25.8255 4.16895 25.8225C3.75545 25.8255 3.35974 25.991 3.06735 26.2834C2.77496 26.5758 2.60939 26.9715 2.60645 27.385V31.5525C2.60645 42.8663 7.41895 47.6988 18.7539 47.6988Z" fill="#4B5563"/>
<path d="M8.04047 17.1069C10.0118 19.9718 12.2245 22.6629 14.6542 25.1508L14.6591 25.1483C14.9773 22.3575 16.2353 19.7575 18.2236 17.7734C20.2126 16.239 22.6098 15.3257 25.1157 15.1483C20.2164 10.3725 14.5074 6.50468 8.25531 3.72559C7.79162 3.54777 7.29929 3.45611 6.80267 3.4546C6.30908 3.45355 5.82093 3.55008 5.36468 3.73841C4.90843 3.92675 4.49311 4.2031 4.14398 4.55201C3.60395 5.06665 3.23423 5.73336 3.08197 6.46363C2.92971 7.1939 3.00256 7.95319 3.29193 8.64076C4.56847 11.6243 6.15942 14.4625 8.04047 17.1069Z" fill="#907AF1"/>
</svg>
